<?xml version="1.0" encoding="utf-8"?>
<!-- Generator: Fusion 360, Shaper Origin Export Add-In, Version 1.7.0  -->
<svg xmlns="http://www.w3.org/2000/svg" xmlns:xlink="http://www.w3.org/1999/xlink" xmlns:shaper="http://www.shapertools.com/namespaces/shaper" shaper:fusionaddin="version:1.7.0" width="86.9621314cm" height="43.5740593cm" version="1.1" x="0cm" y="0cm" viewBox="0 0 86.9621314 43.5740593" enable-background="new 0 0 86.9621314 43.5740593" xml:space="preserve"><path d="M-0,4.9744962 L2.2627417,2.7117545 A0.3175,0.3175 225 0,1 2.7117545,3.1607673 L0.4490128,5.423509 A0.3175,0.3175 44.9999999 1,1 0,4.9744962z" transform="matrix(1,0,0,-1,0.0929936,43.4810657)" stroke="rgb(100,100,100)" stroke-width="0.0010cm" stroke-linecap="round" stroke-linejoin="round" fill="none" /><path d="M3.1607673,-0 L5.423509,2.2627417 A0.3175,0.3175 315 1,1 4.9744962,2.7117545 L2.7117545,0.4490128 A0.3175,0.3175 134.9999997 0,1 3.1607673,-0z" transform="matrix(1,0,0,-1,0.0929936,43.4810657)" stroke="rgb(100,100,100)" stroke-width="0.0010cm" stroke-linecap="round" stroke-linejoin="round" fill="none" /><path d="M5.8725218,5.423509 A0.3175,0.3175 44.9999999 1,1 5.423509,4.9744962 L7.6862507,2.7117545 A0.3175,0.3175 225 1,1 8.1352635,3.1607673 L5.8725218,5.423509z" transform="matrix(1,0,0,-1,0.0929936,43.4810657)" stroke="rgb(100,100,100)" stroke-width="0.0010cm" stroke-linecap="round" stroke-linejoin="round" fill="none" /><path d="M8.1352635,0.4490128 A0.3175,0.3175 134.9999997 0,1 8.5842763,-0 L10.847018,2.2627417 A0.3175,0.3175 315 1,1 10.3980052,2.7117545 L8.1352635,0.4490128z" transform="matrix(1,0,0,-1,0.0929936,43.4810657)" stroke="rgb(100,100,100)" stroke-width="0.0010cm" stroke-linecap="round" stroke-linejoin="round" fill="none" /><path d="M11.2960308,5.423509 A0.3175,0.3175 44.9999999 1,1 10.847018,4.9744962 L13.1097597,2.7117545 A0.3175,0.3175 225 0,1 13.5587725,3.1607673 L11.2960308,5.423509z" transform="matrix(1,0,0,-1,0.0929936,43.4810657)" stroke="rgb(100,100,100)" stroke-width="0.0010cm" stroke-linecap="round" stroke-linejoin="round" fill="none" /><path d="M13.5587725,0.4490128 A0.3175,0.3175 134.9999997 0,1 14.0077853,-0 L16.270527,2.2627417 A0.3175,0.3175 315 1,1 15.8215142,2.7117545 L13.5587725,0.4490128z" transform="matrix(1,0,0,-1,0.0929936,43.4810657)" stroke="rgb(100,100,100)" stroke-width="0.0010cm" stroke-linecap="round" stroke-linejoin="round" fill="none" /><path d="M16.7195398,5.423509 A0.3175,0.3175 44.9999999 1,1 16.270527,4.9744962 L18.5332687,2.7117545 A0.3175,0.3175 225 0,1 18.9822815,3.1607673 L16.7195398,5.423509z" transform="matrix(1,0,0,-1,0.0929936,43.4810657)" stroke="rgb(100,100,100)" stroke-width="0.0010cm" stroke-linecap="round" stroke-linejoin="round" fill="none" /><path d="M18.9822815,0.4490128 A0.3175,0.3175 134.9999997 0,1 19.4312943,-0 L21.694036,2.2627417 A0.3175,0.3175 315 0,1 21.2450232,2.7117545 L18.9822815,0.4490128z" transform="matrix(1,0,0,-1,0.0929936,43.4810657)" stroke="rgb(100,100,100)" stroke-width="0.0010cm" stroke-linecap="round" stroke-linejoin="round" fill="none" /><path d="M22.1430489,5.423509 A0.3175,0.3175 44.9999999 1,1 21.694036,4.9744962 L23.9567777,2.7117545 A0.3175,0.3175 225 0,1 24.4057906,3.1607673 L22.1430489,5.423509z" transform="matrix(1,0,0,-1,0.0929936,43.4810657)" stroke="rgb(100,100,100)" stroke-width="0.0010cm" stroke-linecap="round" stroke-linejoin="round" fill="none" /><path d="M24.4057906,0.4490128 A0.3175,0.3175 134.9999997 0,1 24.8548034,-0 L27.1175451,2.2627417 A0.3175,0.3175 315 0,1 26.6685323,2.7117545 L24.4057906,0.4490128z" transform="matrix(1,0,0,-1,0.0929936,43.4810657)" stroke="rgb(100,100,100)" stroke-width="0.0010cm" stroke-linecap="round" stroke-linejoin="round" fill="none" /><path d="M0.4490128,10.847018 A0.3175,0.3175 44.9999999 1,1 0,10.3980052 L2.2627417,8.1352635 A0.3175,0.3175 225 0,1 2.7117545,8.5842763 L0.4490128,10.847018z" transform="matrix(1,0,0,-1,0.0929936,43.4810657)" stroke="rgb(100,100,100)" stroke-width="0.0010cm" stroke-linecap="round" stroke-linejoin="round" fill="none" /><path d="M2.7117545,5.8725218 A0.3175,0.3175 134.9999997 0,1 3.1607673,5.423509 L5.423509,7.6862507 A0.3175,0.3175 315 1,1 4.9744962,8.1352635 L2.7117545,5.8725218z" transform="matrix(1,0,0,-1,0.0929936,43.4810657)" stroke="rgb(100,100,100)" stroke-width="0.0010cm" stroke-linecap="round" stroke-linejoin="round" fill="none" /><path d="M5.8725218,10.847018 A0.3175,0.3175 44.9999999 1,1 5.423509,10.3980052 L7.6862507,8.1352635 A0.3175,0.3175 225 1,1 8.1352635,8.5842763 L5.8725218,10.847018z" transform="matrix(1,0,0,-1,0.0929936,43.4810657)" stroke="rgb(100,100,100)" stroke-width="0.0010cm" stroke-linecap="round" stroke-linejoin="round" fill="none" /><path d="M8.1352635,5.8725218 A0.3175,0.3175 134.9999997 0,1 8.5842763,5.423509 L10.847018,7.6862507 A0.3175,0.3175 315 1,1 10.3980052,8.1352635 L8.1352635,5.8725218z" transform="matrix(1,0,0,-1,0.0929936,43.4810657)" stroke="rgb(100,100,100)" stroke-width="0.0010cm" stroke-linecap="round" stroke-linejoin="round" fill="none" /><path d="M11.2960308,10.847018 A0.3175,0.3175 44.9999999 1,1 10.847018,10.3980052 L13.1097597,8.1352635 A0.3175,0.3175 225 0,1 13.5587725,8.5842763 L11.2960308,10.847018z" transform="matrix(1,0,0,-1,0.0929936,43.4810657)" stroke="rgb(100,100,100)" stroke-width="0.0010cm" stroke-linecap="round" stroke-linejoin="round" fill="none" /><path d="M13.5587725,5.8725218 A0.3175,0.3175 134.9999997 0,1 14.0077853,5.423509 L16.270527,7.6862507 A0.3175,0.3175 315 1,1 15.8215142,8.1352635 L13.5587725,5.8725218z" transform="matrix(1,0,0,-1,0.0929936,43.4810657)" stroke="rgb(100,100,100)" stroke-width="0.0010cm" stroke-linecap="round" stroke-linejoin="round" fill="none" /><path d="M16.7195398,10.847018 A0.3175,0.3175 44.9999999 1,1 16.270527,10.3980052 L18.5332687,8.1352635 A0.3175,0.3175 225 0,1 18.9822815,8.5842763 L16.7195398,10.847018z" transform="matrix(1,0,0,-1,0.0929936,43.4810657)" stroke="rgb(100,100,100)" stroke-width="0.0010cm" stroke-linecap="round" stroke-linejoin="round" fill="none" /><path d="M18.9822815,5.8725218 A0.3175,0.3175 134.9999997 0,1 19.4312943,5.423509 L21.694036,7.6862507 A0.3175,0.3175 315 0,1 21.2450232,8.1352635 L18.9822815,5.8725218z" transform="matrix(1,0,0,-1,0.0929936,43.4810657)" stroke="rgb(100,100,100)" stroke-width="0.0010cm" stroke-linecap="round" stroke-linejoin="round" fill="none" /><path d="M22.1430489,10.847018 A0.3175,0.3175 44.9999999 1,1 21.694036,10.3980052 L23.9567777,8.1352635 A0.3175,0.3175 225 0,1 24.4057906,8.5842763 L22.1430489,10.847018z" transform="matrix(1,0,0,-1,0.0929936,43.4810657)" stroke="rgb(100,100,100)" stroke-width="0.0010cm" stroke-linecap="round" stroke-linejoin="round" fill="none" /><path d="M24.4057906,5.8725218 A0.3175,0.3175 134.9999997 0,1 24.8548034,5.423509 L27.1175451,7.6862507 A0.3175,0.3175 315 0,1 26.6685323,8.1352635 L24.4057906,5.8725218z" transform="matrix(1,0,0,-1,0.0929936,43.4810657)" stroke="rgb(100,100,100)" stroke-width="0.0010cm" stroke-linecap="round" stroke-linejoin="round" fill="none" /><path d="M0.4490128,16.270527 A0.3175,0.3175 44.9999999 1,1 0,15.8215142 L2.2627417,13.5587725 A0.3175,0.3175 225 0,1 2.7117545,14.0077853 L0.4490128,16.270527z" transform="matrix(1,0,0,-1,0.0929936,43.4810657)" stroke="rgb(100,100,100)" stroke-width="0.0010cm" stroke-linecap="round" stroke-linejoin="round" fill="none" /><path d="M2.7117545,11.2960308 A0.3175,0.3175 134.9999997 0,1 3.1607673,10.847018 L5.423509,13.1097597 A0.3175,0.3175 315 0,1 4.9744962,13.5587725 L2.7117545,11.2960308z" transform="matrix(1,0,0,-1,0.0929936,43.4810657)" stroke="rgb(100,100,100)" stroke-width="0.0010cm" stroke-linecap="round" stroke-linejoin="round" fill="none" /><path d="M5.8725218,16.270527 A0.3175,0.3175 44.9999999 1,1 5.423509,15.8215142 L7.6862507,13.5587725 A0.3175,0.3175 225 1,1 8.1352635,14.0077853 L5.8725218,16.270527z" transform="matrix(1,0,0,-1,0.0929936,43.4810657)" stroke="rgb(100,100,100)" stroke-width="0.0010cm" stroke-linecap="round" stroke-linejoin="round" fill="none" /><path d="M8.1352635,11.2960308 A0.3175,0.3175 134.9999997 0,1 8.5842763,10.847018 L10.847018,13.1097597 A0.3175,0.3175 315 1,1 10.3980052,13.5587725 L8.1352635,11.2960308z" transform="matrix(1,0,0,-1,0.0929936,43.4810657)" stroke="rgb(100,100,100)" stroke-width="0.0010cm" stroke-linecap="round" stroke-linejoin="round" fill="none" /><path d="M11.2960308,16.270527 A0.3175,0.3175 44.9999999 1,1 10.847018,15.8215142 L13.1097597,13.5587725 A0.3175,0.3175 225 0,1 13.5587725,14.0077853 L11.2960308,16.270527z" transform="matrix(1,0,0,-1,0.0929936,43.4810657)" stroke="rgb(100,100,100)" stroke-width="0.0010cm" stroke-linecap="round" stroke-linejoin="round" fill="none" /><path d="M13.5587725,11.2960308 A0.3175,0.3175 134.9999997 0,1 14.0077853,10.847018 L16.270527,13.1097597 A0.3175,0.3175 315 1,1 15.8215142,13.5587725 L13.5587725,11.2960308z" transform="matrix(1,0,0,-1,0.0929936,43.4810657)" stroke="rgb(100,100,100)" stroke-width="0.0010cm" stroke-linecap="round" stroke-linejoin="round" fill="none" /><path d="M16.7195398,16.270527 A0.3175,0.3175 44.9999999 1,1 16.270527,15.8215142 L18.5332687,13.5587725 A0.3175,0.3175 225 0,1 18.9822815,14.0077853 L16.7195398,16.270527z" transform="matrix(1,0,0,-1,0.0929936,43.4810657)" stroke="rgb(100,100,100)" stroke-width="0.0010cm" stroke-linecap="round" stroke-linejoin="round" fill="none" /><path d="M18.9822815,11.2960308 A0.3175,0.3175 134.9999997 0,1 19.4312943,10.847018 L21.694036,13.1097597 A0.3175,0.3175 315 0,1 21.2450232,13.5587725 L18.9822815,11.2960308z" transform="matrix(1,0,0,-1,0.0929936,43.4810657)" stroke="rgb(100,100,100)" stroke-width="0.0010cm" stroke-linecap="round" stroke-linejoin="round" fill="none" /><path d="M22.1430489,16.270527 A0.3175,0.3175 44.9999999 1,1 21.694036,15.8215142 L23.9567777,13.5587725 A0.3175,0.3175 225 0,1 24.4057906,14.0077853 L22.1430489,16.270527z" transform="matrix(1,0,0,-1,0.0929936,43.4810657)" stroke="rgb(100,100,100)" stroke-width="0.0010cm" stroke-linecap="round" stroke-linejoin="round" fill="none" /><path d="M24.4057906,11.2960308 A0.3175,0.3175 134.9999997 0,1 24.8548034,10.847018 L27.1175451,13.1097597 A0.3175,0.3175 315 0,1 26.6685323,13.5587725 L24.4057906,11.2960308z" transform="matrix(1,0,0,-1,0.0929936,43.4810657)" stroke="rgb(100,100,100)" stroke-width="0.0010cm" stroke-linecap="round" stroke-linejoin="round" fill="none" /><path d="M0.4490128,21.694036 A0.3175,0.3175 44.9999999 1,1 0,21.2450232 L2.2627417,18.9822815 A0.3175,0.3175 225 1,1 2.7117545,19.4312943 L0.4490128,21.694036z" transform="matrix(1,0,0,-1,0.0929936,43.4810657)" stroke="rgb(100,100,100)" stroke-width="0.0010cm" stroke-linecap="round" stroke-linejoin="round" fill="none" /><path d="M2.7117545,16.7195398 A0.3175,0.3175 134.9999997 0,1 3.1607673,16.270527 L5.423509,18.5332687 A0.3175,0.3175 315 1,1 4.9744962,18.9822815 L2.7117545,16.7195398z" transform="matrix(1,0,0,-1,0.0929936,43.4810657)" stroke="rgb(100,100,100)" stroke-width="0.0010cm" stroke-linecap="round" stroke-linejoin="round" fill="none" /><path d="M5.8725218,21.694036 A0.3175,0.3175 44.9999999 1,1 5.423509,21.2450232 L7.6862507,18.9822815 A0.3175,0.3175 225 1,1 8.1352635,19.4312943 L5.8725218,21.694036z" transform="matrix(1,0,0,-1,0.0929936,43.4810657)" stroke="rgb(100,100,100)" stroke-width="0.0010cm" stroke-linecap="round" stroke-linejoin="round" fill="none" /><path d="M8.1352635,16.7195398 A0.3175,0.3175 134.9999997 0,1 8.5842763,16.270527 L10.847018,18.5332687 A0.3175,0.3175 315 1,1 10.3980052,18.9822815 L8.1352635,16.7195398z" transform="matrix(1,0,0,-1,0.0929936,43.4810657)" stroke="rgb(100,100,100)" stroke-width="0.0010cm" stroke-linecap="round" stroke-linejoin="round" fill="none" /><path d="M11.2960308,21.694036 A0.3175,0.3175 44.9999999 1,1 10.847018,21.2450232 L13.1097597,18.9822815 A0.3175,0.3175 225 0,1 13.5587725,19.4312943 L11.2960308,21.694036z" transform="matrix(1,0,0,-1,0.0929936,43.4810657)" stroke="rgb(100,100,100)" stroke-width="0.0010cm" stroke-linecap="round" stroke-linejoin="round" fill="none" /><path d="M13.5587725,16.7195398 A0.3175,0.3175 134.9999997 0,1 14.0077853,16.270527 L16.270527,18.5332687 A0.3175,0.3175 315 0,1 15.8215142,18.9822815 L13.5587725,16.7195398z" transform="matrix(1,0,0,-1,0.0929936,43.4810657)" stroke="rgb(100,100,100)" stroke-width="0.0010cm" stroke-linecap="round" stroke-linejoin="round" fill="none" /><path d="M16.7195398,21.694036 A0.3175,0.3175 44.9999999 1,1 16.270527,21.2450232 L18.5332687,18.9822815 A0.3175,0.3175 225 0,1 18.9822815,19.4312943 L16.7195398,21.694036z" transform="matrix(1,0,0,-1,0.0929936,43.4810657)" stroke="rgb(100,100,100)" stroke-width="0.0010cm" stroke-linecap="round" stroke-linejoin="round" fill="none" /><path d="M18.9822815,16.7195398 A0.3175,0.3175 134.9999997 0,1 19.4312943,16.270527 L21.694036,18.5332687 A0.3175,0.3175 315 0,1 21.2450232,18.9822815 L18.9822815,16.7195398z" transform="matrix(1,0,0,-1,0.0929936,43.4810657)" stroke="rgb(100,100,100)" stroke-width="0.0010cm" stroke-linecap="round" stroke-linejoin="round" fill="none" /><path d="M22.1430489,21.694036 A0.3175,0.3175 44.9999999 1,1 21.694036,21.2450232 L23.9567777,18.9822815 A0.3175,0.3175 225 0,1 24.4057906,19.4312943 L22.1430489,21.694036z" transform="matrix(1,0,0,-1,0.0929936,43.4810657)" stroke="rgb(100,100,100)" stroke-width="0.0010cm" stroke-linecap="round" stroke-linejoin="round" fill="none" /><path d="M24.4057906,16.7195398 A0.3175,0.3175 134.9999997 0,1 24.8548034,16.270527 L27.1175451,18.5332687 A0.3175,0.3175 315 0,1 26.6685323,18.9822815 L24.4057906,16.7195398z" transform="matrix(1,0,0,-1,0.0929936,43.4810657)" stroke="rgb(100,100,100)" stroke-width="0.0010cm" stroke-linecap="round" stroke-linejoin="round" fill="none" /><path d="M0.4490128,27.1175451 A0.3175,0.3175 44.9999999 1,1 0,26.6685322 L2.2627417,24.4057906 A0.3175,0.3175 225 1,1 2.7117545,24.8548034 L0.4490128,27.1175451z" transform="matrix(1,0,0,-1,0.0929936,43.4810657)" stroke="rgb(100,100,100)" stroke-width="0.0010cm" stroke-linecap="round" stroke-linejoin="round" fill="none" /><path d="M2.7117545,22.1430489 A0.3175,0.3175 134.9999997 0,1 3.1607673,21.694036 L5.423509,23.9567777 A0.3175,0.3175 315 1,1 4.9744962,24.4057906 L2.7117545,22.1430489z" transform="matrix(1,0,0,-1,0.0929936,43.4810657)" stroke="rgb(100,100,100)" stroke-width="0.0010cm" stroke-linecap="round" stroke-linejoin="round" fill="none" /><path d="M5.8725218,27.1175451 A0.3175,0.3175 44.9999999 1,1 5.423509,26.6685322 L7.6862507,24.4057906 A0.3175,0.3175 225 1,1 8.1352635,24.8548034 L5.8725218,27.1175451z" transform="matrix(1,0,0,-1,0.0929936,43.4810657)" stroke="rgb(100,100,100)" stroke-width="0.0010cm" stroke-linecap="round" stroke-linejoin="round" fill="none" /><path d="M8.1352635,22.1430489 A0.3175,0.3175 134.9999997 0,1 8.5842763,21.694036 L10.847018,23.9567777 A0.3175,0.3175 315 1,1 10.3980052,24.4057906 L8.1352635,22.1430489z" transform="matrix(1,0,0,-1,0.0929936,43.4810657)" stroke="rgb(100,100,100)" stroke-width="0.0010cm" stroke-linecap="round" stroke-linejoin="round" fill="none" /><path d="M11.2960308,27.1175451 A0.3175,0.3175 44.9999999 1,1 10.847018,26.6685322 L13.1097597,24.4057906 A0.3175,0.3175 225 0,1 13.5587725,24.8548034 L11.2960308,27.1175451z" transform="matrix(1,0,0,-1,0.0929936,43.4810657)" stroke="rgb(100,100,100)" stroke-width="0.0010cm" stroke-linecap="round" stroke-linejoin="round" fill="none" /><path d="M13.5587725,22.1430489 A0.3175,0.3175 134.9999997 0,1 14.0077853,21.694036 L16.270527,23.9567777 A0.3175,0.3175 315 0,1 15.8215142,24.4057906 L13.5587725,22.1430489z" transform="matrix(1,0,0,-1,0.0929936,43.4810657)" stroke="rgb(100,100,100)" stroke-width="0.0010cm" stroke-linecap="round" stroke-linejoin="round" fill="none" /><path d="M16.7195398,27.1175451 A0.3175,0.3175 44.9999999 1,1 16.270527,26.6685322 L18.5332687,24.4057906 A0.3175,0.3175 225 0,1 18.9822815,24.8548034 L16.7195398,27.1175451z" transform="matrix(1,0,0,-1,0.0929936,43.4810657)" stroke="rgb(100,100,100)" stroke-width="0.0010cm" stroke-linecap="round" stroke-linejoin="round" fill="none" /><path d="M18.9822815,22.1430489 A0.3175,0.3175 134.9999997 0,1 19.4312943,21.694036 L21.694036,23.9567777 A0.3175,0.3175 315 0,1 21.2450232,24.4057906 L18.9822815,22.1430489z" transform="matrix(1,0,0,-1,0.0929936,43.4810657)" stroke="rgb(100,100,100)" stroke-width="0.0010cm" stroke-linecap="round" stroke-linejoin="round" fill="none" /><path d="M22.1430489,27.1175451 A0.3175,0.3175 44.9999999 1,1 21.694036,26.6685322 L23.9567777,24.4057906 A0.3175,0.3175 225 0,1 24.4057906,24.8548034 L22.1430489,27.1175451z" transform="matrix(1,0,0,-1,0.0929936,43.4810657)" stroke="rgb(100,100,100)" stroke-width="0.0010cm" stroke-linecap="round" stroke-linejoin="round" fill="none" /><path d="M24.4057906,22.1430489 A0.3175,0.3175 134.9999997 0,1 24.8548034,21.694036 L27.1175451,23.9567777 A0.3175,0.3175 315 0,1 26.6685323,24.4057906 L24.4057906,22.1430489z" transform="matrix(1,0,0,-1,0.0929936,43.4810657)" stroke="rgb(100,100,100)" stroke-width="0.0010cm" stroke-linecap="round" stroke-linejoin="round" fill="none" /><path d="M27.5665579,5.423509 A0.3175,0.3175 45 1,1 27.1175451,4.9744962 L29.3802868,2.7117545 A0.3175,0.3175 225.0000001 0,1 29.8292996,3.1607673 L27.5665579,5.423509z" transform="matrix(1,0,0,-1,0.0929936,43.4810657)" stroke="rgb(100,100,100)" stroke-width="0.0010cm" stroke-linecap="round" stroke-linejoin="round" fill="none" /><path d="M29.8292996,0.4490128 A0.3175,0.3175 135.0000003 1,1 30.2783124,0 L32.5410541,2.2627417 A0.3175,0.3175 314.9999999 1,1 32.0920413,2.7117545 L29.8292996,0.4490128z" transform="matrix(1,0,0,-1,0.0929936,43.4810657)" stroke="rgb(100,100,100)" stroke-width="0.0010cm" stroke-linecap="round" stroke-linejoin="round" fill="none" /><path d="M32.9900669,5.423509 A0.3175,0.3175 45 1,1 32.5410541,4.9744962 L34.8037958,2.7117545 A0.3175,0.3175 225.0000001 0,1 35.2528086,3.1607673 L32.9900669,5.423509z" transform="matrix(1,0,0,-1,0.0929936,43.4810657)" stroke="rgb(100,100,100)" stroke-width="0.0010cm" stroke-linecap="round" stroke-linejoin="round" fill="none" /><path d="M35.2528086,0.4490128 A0.3175,0.3175 134.9999997 0,1 35.7018214,-0 L37.9645631,2.2627417 A0.3175,0.3175 314.9999999 1,1 37.5155503,2.7117545 L35.2528086,0.4490128z" transform="matrix(1,0,0,-1,0.0929936,43.4810657)" stroke="rgb(100,100,100)" stroke-width="0.0010cm" stroke-linecap="round" stroke-linejoin="round" fill="none" /><path d="M38.4135759,5.423509 A0.3175,0.3175 45 1,1 37.9645631,4.9744962 L40.2273048,2.7117545 A0.3175,0.3175 225 0,1 40.6763176,3.1607673 L38.4135759,5.423509z" transform="matrix(1,0,0,-1,0.0929936,43.4810657)" stroke="rgb(100,100,100)" stroke-width="0.0010cm" stroke-linecap="round" stroke-linejoin="round" fill="none" /><path d="M40.6763176,0.4490128 A0.3175,0.3175 134.9999997 0,1 41.1253304,-0 L43.3880721,2.2627417 A0.3175,0.3175 314.9999999 1,1 42.9390593,2.7117545 L40.6763176,0.4490128z" transform="matrix(1,0,0,-1,0.0929936,43.4810657)" stroke="rgb(100,100,100)" stroke-width="0.0010cm" stroke-linecap="round" stroke-linejoin="round" fill="none" /><path d="M43.8370849,5.423509 A0.3175,0.3175 45 1,1 43.3880721,4.9744962 L45.6508138,2.7117545 A0.3175,0.3175 225.0000001 0,1 46.0998266,3.1607673 L43.8370849,5.423509z" transform="matrix(1,0,0,-1,0.0929936,43.4810657)" stroke="rgb(100,100,100)" stroke-width="0.0010cm" stroke-linecap="round" stroke-linejoin="round" fill="none" /><path d="M46.0998266,0.4490128 A0.3175,0.3175 134.9999997 0,1 46.5488394,-0 L48.8115811,2.2627417 A0.3175,0.3175 314.9999999 1,1 48.3625683,2.7117545 L46.0998266,0.4490128z" transform="matrix(1,0,0,-1,0.0929936,43.4810657)" stroke="rgb(100,100,100)" stroke-width="0.0010cm" stroke-linecap="round" stroke-linejoin="round" fill="none" /><path d="M49.2605939,5.423509 A0.3175,0.3175 45 1,1 48.8115811,4.9744962 L51.0743228,2.7117545 A0.3175,0.3175 225 0,1 51.5233356,3.1607673 L49.2605939,5.423509z" transform="matrix(1,0,0,-1,0.0929936,43.4810657)" stroke="rgb(100,100,100)" stroke-width="0.0010cm" stroke-linecap="round" stroke-linejoin="round" fill="none" /><path d="M51.5233356,0.4490128 A0.3175,0.3175 134.9999997 0,1 51.9723484,-0 L54.2350901,2.2627417 A0.3175,0.3175 314.9999999 1,1 53.7860773,2.7117545 L51.5233356,0.4490128z" transform="matrix(1,0,0,-1,0.0929936,43.4810657)" stroke="rgb(100,100,100)" stroke-width="0.0010cm" stroke-linecap="round" stroke-linejoin="round" fill="none" /><path d="M54.6841029,5.423509 A0.3175,0.3175 45 1,1 54.2350901,4.9744962 L56.4978318,2.7117545 A0.3175,0.3175 225.0000001 0,1 56.9468446,3.1607673 L54.6841029,5.423509z" transform="matrix(1,0,0,-1,0.0929936,43.4810657)" stroke="rgb(100,100,100)" stroke-width="0.0010cm" stroke-linecap="round" stroke-linejoin="round" fill="none" /><path d="M56.9468446,0.4490128 A0.3175,0.3175 134.9999997 0,1 57.3958574,-0 L59.6585991,2.2627417 A0.3175,0.3175 314.9999999 1,1 59.2095863,2.7117545 L56.9468446,0.4490128z" transform="matrix(1,0,0,-1,0.0929936,43.4810657)" stroke="rgb(100,100,100)" stroke-width="0.0010cm" stroke-linecap="round" stroke-linejoin="round" fill="none" /><path d="M60.1076119,5.423509 A0.3175,0.3175 45 1,1 59.6585991,4.9744962 L61.9213408,2.7117545 A0.3175,0.3175 225.0000001 0,1 62.3703536,3.1607673 L60.1076119,5.423509z" transform="matrix(1,0,0,-1,0.0929936,43.4810657)" stroke="rgb(100,100,100)" stroke-width="0.0010cm" stroke-linecap="round" stroke-linejoin="round" fill="none" /><path d="M62.3703536,0.4490128 A0.3175,0.3175 134.9999997 0,1 62.8193664,-0 L65.0821081,2.2627417 A0.3175,0.3175 315 1,1 64.6330953,2.7117545 L62.3703536,0.4490128z" transform="matrix(1,0,0,-1,0.0929936,43.4810657)" stroke="rgb(100,100,100)" stroke-width="0.0010cm" stroke-linecap="round" stroke-linejoin="round" fill="none" /><path d="M65.5311209,5.423509 A0.3175,0.3175 45 0,1 65.0821081,4.9744962 L67.3448498,2.7117545 A0.3175,0.3175 225 1,1 67.7938626,3.1607673 L65.5311209,5.423509z" transform="matrix(1,0,0,-1,0.0929936,43.4810657)" stroke="rgb(100,100,100)" stroke-width="0.0010cm" stroke-linecap="round" stroke-linejoin="round" fill="none" /><path d="M67.7938626,0.4490128 A0.3175,0.3175 134.9999997 0,1 68.2428754,-0 L70.5056172,2.2627417 A0.3175,0.3175 315 1,1 70.0566043,2.7117545 L67.7938626,0.4490128z" transform="matrix(1,0,0,-1,0.0929936,43.4810657)" stroke="rgb(100,100,100)" stroke-width="0.0010cm" stroke-linecap="round" stroke-linejoin="round" fill="none" /><path d="M70.95463,5.423509 A0.3175,0.3175 45 0,1 70.5056172,4.9744962 L72.7683589,2.7117545 A0.3175,0.3175 225 1,1 73.2173717,3.1607673 L70.95463,5.423509z" transform="matrix(1,0,0,-1,0.0929936,43.4810657)" stroke="rgb(100,100,100)" stroke-width="0.0010cm" stroke-linecap="round" stroke-linejoin="round" fill="none" /><path d="M73.2173717,0.4490128 A0.3175,0.3175 134.9999997 0,1 73.6663845,-0 L75.9291262,2.2627417 A0.3175,0.3175 315 1,1 75.4801134,2.7117545 L73.2173717,0.4490128z" transform="matrix(1,0,0,-1,0.0929936,43.4810657)" stroke="rgb(100,100,100)" stroke-width="0.0010cm" stroke-linecap="round" stroke-linejoin="round" fill="none" /><path d="M76.378139,5.423509 A0.3175,0.3175 45 0,1 75.9291262,4.9744962 L78.1918679,2.7117545 A0.3175,0.3175 225 1,1 78.6408807,3.1607673 L76.378139,5.423509z" transform="matrix(1,0,0,-1,0.0929936,43.4810657)" stroke="rgb(100,100,100)" stroke-width="0.0010cm" stroke-linecap="round" stroke-linejoin="round" fill="none" /><path d="M78.6408807,0.4490128 A0.3175,0.3175 134.9999997 0,1 79.0898935,-0 L81.3526352,2.2627417 A0.3175,0.3175 315 1,1 80.9036224,2.7117545 L78.6408807,0.4490128z" transform="matrix(1,0,0,-1,0.0929936,43.4810657)" stroke="rgb(100,100,100)" stroke-width="0.0010cm" stroke-linecap="round" stroke-linejoin="round" fill="none" /><path d="M81.801648,5.423509 A0.3175,0.3175 45 0,1 81.3526352,4.9744962 L83.6153769,2.7117545 A0.3175,0.3175 225 1,1 84.0643897,3.1607673 L81.801648,5.423509z" transform="matrix(1,0,0,-1,0.0929936,43.4810657)" stroke="rgb(100,100,100)" stroke-width="0.0010cm" stroke-linecap="round" stroke-linejoin="round" fill="none" /><path d="M84.0643897,0.4490128 A0.3175,0.3175 134.9999997 0,1 84.5134025,-0 L86.7761442,2.2627417 A0.3175,0.3175 315 1,1 86.3271314,2.7117545 L84.0643897,0.4490128z" transform="matrix(1,0,0,-1,0.0929936,43.4810657)" stroke="rgb(100,100,100)" stroke-width="0.0010cm" stroke-linecap="round" stroke-linejoin="round" fill="none" /><path d="M27.5665579,10.847018 A0.3175,0.3175 45 0,1 27.1175451,10.3980052 L29.3802868,8.1352635 A0.3175,0.3175 225 0,1 29.8292996,8.5842763 L27.5665579,10.847018z" transform="matrix(1,0,0,-1,0.0929936,43.4810657)" stroke="rgb(100,100,100)" stroke-width="0.0010cm" stroke-linecap="round" stroke-linejoin="round" fill="none" /><path d="M29.8292996,5.8725218 A0.3175,0.3175 135 0,1 30.2783124,5.423509 L32.5410541,7.6862507 A0.3175,0.3175 315 0,1 32.0920413,8.1352635 L29.8292996,5.8725218z" transform="matrix(1,0,0,-1,0.0929936,43.4810657)" stroke="rgb(100,100,100)" stroke-width="0.0010cm" stroke-linecap="round" stroke-linejoin="round" fill="none" /><path d="M32.9900669,10.847018 A0.3175,0.3175 45 0,1 32.5410541,10.3980052 L34.8037958,8.1352635 A0.3175,0.3175 225 0,1 35.2528086,8.5842763 L32.9900669,10.847018z" transform="matrix(1,0,0,-1,0.0929936,43.4810657)" stroke="rgb(100,100,100)" stroke-width="0.0010cm" stroke-linecap="round" stroke-linejoin="round" fill="none" /><path d="M35.2528086,5.8725218 A0.3175,0.3175 135 1,1 35.7018214,5.423509 L37.9645631,7.6862507 A0.3175,0.3175 315 0,1 37.5155503,8.1352635 L35.2528086,5.8725218z" transform="matrix(1,0,0,-1,0.0929936,43.4810657)" stroke="rgb(100,100,100)" stroke-width="0.0010cm" stroke-linecap="round" stroke-linejoin="round" fill="none" /><path d="M38.4135759,10.847018 A0.3175,0.3175 45 0,1 37.9645631,10.3980052 L40.2273048,8.1352635 A0.3175,0.3175 225 0,1 40.6763176,8.5842763 L38.4135759,10.847018z" transform="matrix(1,0,0,-1,0.0929936,43.4810657)" stroke="rgb(100,100,100)" stroke-width="0.0010cm" stroke-linecap="round" stroke-linejoin="round" fill="none" /><path d="M40.6763176,5.8725218 A0.3175,0.3175 135 1,1 41.1253304,5.423509 L43.3880721,7.6862507 A0.3175,0.3175 315 0,1 42.9390593,8.1352635 L40.6763176,5.8725218z" transform="matrix(1,0,0,-1,0.0929936,43.4810657)" stroke="rgb(100,100,100)" stroke-width="0.0010cm" stroke-linecap="round" stroke-linejoin="round" fill="none" /><path d="M43.8370849,10.847018 A0.3175,0.3175 45 0,1 43.3880721,10.3980052 L45.6508138,8.1352635 A0.3175,0.3175 225 0,1 46.0998266,8.5842763 L43.8370849,10.847018z" transform="matrix(1,0,0,-1,0.0929936,43.4810657)" stroke="rgb(100,100,100)" stroke-width="0.0010cm" stroke-linecap="round" stroke-linejoin="round" fill="none" /><path d="M46.0998266,5.8725218 A0.3175,0.3175 135 1,1 46.5488394,5.423509 L48.8115811,7.6862507 A0.3175,0.3175 315 0,1 48.3625683,8.1352635 L46.0998266,5.8725218z" transform="matrix(1,0,0,-1,0.0929936,43.4810657)" stroke="rgb(100,100,100)" stroke-width="0.0010cm" stroke-linecap="round" stroke-linejoin="round" fill="none" /><path d="M49.2605939,10.847018 A0.3175,0.3175 45 0,1 48.8115811,10.3980052 L51.0743228,8.1352635 A0.3175,0.3175 225 0,1 51.5233356,8.5842763 L49.2605939,10.847018z" transform="matrix(1,0,0,-1,0.0929936,43.4810657)" stroke="rgb(100,100,100)" stroke-width="0.0010cm" stroke-linecap="round" stroke-linejoin="round" fill="none" /><path d="M51.5233356,5.8725218 A0.3175,0.3175 135 1,1 51.9723484,5.423509 L54.2350901,7.6862507 A0.3175,0.3175 315 0,1 53.7860773,8.1352635 L51.5233356,5.8725218z" transform="matrix(1,0,0,-1,0.0929936,43.4810657)" stroke="rgb(100,100,100)" stroke-width="0.0010cm" stroke-linecap="round" stroke-linejoin="round" fill="none" /><path d="M54.6841029,10.847018 A0.3175,0.3175 45 0,1 54.2350901,10.3980052 L56.4978318,8.1352635 A0.3175,0.3175 225 0,1 56.9468446,8.5842763 L54.6841029,10.847018z" transform="matrix(1,0,0,-1,0.0929936,43.4810657)" stroke="rgb(100,100,100)" stroke-width="0.0010cm" stroke-linecap="round" stroke-linejoin="round" fill="none" /><path d="M56.9468446,5.8725218 A0.3175,0.3175 135 1,1 57.3958574,5.423509 L59.6585991,7.6862507 A0.3175,0.3175 315 0,1 59.2095863,8.1352635 L56.9468446,5.8725218z" transform="matrix(1,0,0,-1,0.0929936,43.4810657)" stroke="rgb(100,100,100)" stroke-width="0.0010cm" stroke-linecap="round" stroke-linejoin="round" fill="none" /><path d="M60.1076119,10.847018 A0.3175,0.3175 45 0,1 59.6585991,10.3980052 L61.9213408,8.1352635 A0.3175,0.3175 225 0,1 62.3703536,8.5842763 L60.1076119,10.847018z" transform="matrix(1,0,0,-1,0.0929936,43.4810657)" stroke="rgb(100,100,100)" stroke-width="0.0010cm" stroke-linecap="round" stroke-linejoin="round" fill="none" /><path d="M62.3703536,5.8725218 A0.3175,0.3175 135 1,1 62.8193664,5.423509 L65.0821081,7.6862507 A0.3175,0.3175 315 1,1 64.6330953,8.1352635 L62.3703536,5.8725218z" transform="matrix(1,0,0,-1,0.0929936,43.4810657)" stroke="rgb(100,100,100)" stroke-width="0.0010cm" stroke-linecap="round" stroke-linejoin="round" fill="none" /><path d="M65.5311209,10.847018 A0.3175,0.3175 45 1,1 65.0821081,10.3980052 L67.3448498,8.1352635 A0.3175,0.3175 225 1,1 67.7938626,8.5842763 L65.5311209,10.847018z" transform="matrix(1,0,0,-1,0.0929936,43.4810657)" stroke="rgb(100,100,100)" stroke-width="0.0010cm" stroke-linecap="round" stroke-linejoin="round" fill="none" /><path d="M67.7938626,5.8725218 A0.3175,0.3175 135 0,1 68.2428755,5.423509 L70.5056172,7.6862507 A0.3175,0.3175 315 1,1 70.0566043,8.1352635 L67.7938626,5.8725218z" transform="matrix(1,0,0,-1,0.0929936,43.4810657)" stroke="rgb(100,100,100)" stroke-width="0.0010cm" stroke-linecap="round" stroke-linejoin="round" fill="none" /><path d="M70.95463,10.847018 A0.3175,0.3175 45 1,1 70.5056172,10.3980052 L72.7683589,8.1352635 A0.3175,0.3175 225 1,1 73.2173717,8.5842763 L70.95463,10.847018z" transform="matrix(1,0,0,-1,0.0929936,43.4810657)" stroke="rgb(100,100,100)" stroke-width="0.0010cm" stroke-linecap="round" stroke-linejoin="round" fill="none" /><path d="M73.2173717,5.8725218 A0.3175,0.3175 135 0,1 73.6663845,5.423509 L75.9291262,7.6862507 A0.3175,0.3175 315 1,1 75.4801134,8.1352635 L73.2173717,5.8725218z" transform="matrix(1,0,0,-1,0.0929936,43.4810657)" stroke="rgb(100,100,100)" stroke-width="0.0010cm" stroke-linecap="round" stroke-linejoin="round" fill="none" /><path d="M76.378139,10.847018 A0.3175,0.3175 45 1,1 75.9291262,10.3980052 L78.1918679,8.1352635 A0.3175,0.3175 225 1,1 78.6408807,8.5842763 L76.378139,10.847018z" transform="matrix(1,0,0,-1,0.0929936,43.4810657)" stroke="rgb(100,100,100)" stroke-width="0.0010cm" stroke-linecap="round" stroke-linejoin="round" fill="none" /><path d="M78.6408807,5.8725218 A0.3175,0.3175 135 0,1 79.0898935,5.423509 L81.3526352,7.6862507 A0.3175,0.3175 315 1,1 80.9036224,8.1352635 L78.6408807,5.8725218z" transform="matrix(1,0,0,-1,0.0929936,43.4810657)" stroke="rgb(100,100,100)" stroke-width="0.0010cm" stroke-linecap="round" stroke-linejoin="round" fill="none" /><path d="M81.801648,10.847018 A0.3175,0.3175 45 1,1 81.3526352,10.3980052 L83.6153769,8.1352635 A0.3175,0.3175 225 1,1 84.0643897,8.5842763 L81.801648,10.847018z" transform="matrix(1,0,0,-1,0.0929936,43.4810657)" stroke="rgb(100,100,100)" stroke-width="0.0010cm" stroke-linecap="round" stroke-linejoin="round" fill="none" /><path d="M84.0643897,5.8725218 A0.3175,0.3175 135 0,1 84.5134025,5.423509 L86.7761442,7.6862507 A0.3175,0.3175 315 1,1 86.3271314,8.1352635 L84.0643897,5.8725218z" transform="matrix(1,0,0,-1,0.0929936,43.4810657)" stroke="rgb(100,100,100)" stroke-width="0.0010cm" stroke-linecap="round" stroke-linejoin="round" fill="none" /><path d="M27.5665579,16.270527 A0.3175,0.3175 44.9999999 1,1 27.1175451,15.8215142 L29.3802868,13.5587725 A0.3175,0.3175 225.0000001 0,1 29.8292996,14.0077853 L27.5665579,16.270527z" transform="matrix(1,0,0,-1,0.0929936,43.4810657)" stroke="rgb(100,100,100)" stroke-width="0.0010cm" stroke-linecap="round" stroke-linejoin="round" fill="none" /><path d="M29.8292996,11.2960308 A0.3175,0.3175 135 1,1 30.2783124,10.847018 L32.5410541,13.1097597 A0.3175,0.3175 315 0,1 32.0920413,13.5587725 L29.8292996,11.2960308z" transform="matrix(1,0,0,-1,0.0929936,43.4810657)" stroke="rgb(100,100,100)" stroke-width="0.0010cm" stroke-linecap="round" stroke-linejoin="round" fill="none" /><path d="M32.9900669,16.270527 A0.3175,0.3175 44.9999999 1,1 32.5410541,15.8215142 L34.8037958,13.5587725 A0.3175,0.3175 225 0,1 35.2528086,14.0077853 L32.9900669,16.270527z" transform="matrix(1,0,0,-1,0.0929936,43.4810657)" stroke="rgb(100,100,100)" stroke-width="0.0010cm" stroke-linecap="round" stroke-linejoin="round" fill="none" /><path d="M35.2528086,11.2960308 A0.3175,0.3175 135 1,1 35.7018214,10.847018 L37.9645631,13.1097597 A0.3175,0.3175 315 0,1 37.5155503,13.5587725 L35.2528086,11.2960308z" transform="matrix(1,0,0,-1,0.0929936,43.4810657)" stroke="rgb(100,100,100)" stroke-width="0.0010cm" stroke-linecap="round" stroke-linejoin="round" fill="none" /><path d="M38.4135759,16.270527 A0.3175,0.3175 44.9999999 1,1 37.9645631,15.8215142 L40.2273048,13.5587725 A0.3175,0.3175 225 0,1 40.6763176,14.0077853 L38.4135759,16.270527z" transform="matrix(1,0,0,-1,0.0929936,43.4810657)" stroke="rgb(100,100,100)" stroke-width="0.0010cm" stroke-linecap="round" stroke-linejoin="round" fill="none" /><path d="M40.6763176,11.2960308 A0.3175,0.3175 135 1,1 41.1253304,10.847018 L43.3880721,13.1097597 A0.3175,0.3175 315 0,1 42.9390593,13.5587725 L40.6763176,11.2960308z" transform="matrix(1,0,0,-1,0.0929936,43.4810657)" stroke="rgb(100,100,100)" stroke-width="0.0010cm" stroke-linecap="round" stroke-linejoin="round" fill="none" /><path d="M43.8370849,16.270527 A0.3175,0.3175 44.9999999 1,1 43.3880721,15.8215142 L45.6508138,13.5587725 A0.3175,0.3175 225 0,1 46.0998266,14.0077853 L43.8370849,16.270527z" transform="matrix(1,0,0,-1,0.0929936,43.4810657)" stroke="rgb(100,100,100)" stroke-width="0.0010cm" stroke-linecap="round" stroke-linejoin="round" fill="none" /><path d="M46.0998266,11.2960308 A0.3175,0.3175 135 1,1 46.5488394,10.847018 L48.8115811,13.1097597 A0.3175,0.3175 315 0,1 48.3625683,13.5587725 L46.0998266,11.2960308z" transform="matrix(1,0,0,-1,0.0929936,43.4810657)" stroke="rgb(100,100,100)" stroke-width="0.0010cm" stroke-linecap="round" stroke-linejoin="round" fill="none" /><path d="M49.2605939,16.270527 A0.3175,0.3175 44.9999999 1,1 48.8115811,15.8215142 L51.0743228,13.5587725 A0.3175,0.3175 225 0,1 51.5233356,14.0077853 L49.2605939,16.270527z" transform="matrix(1,0,0,-1,0.0929936,43.4810657)" stroke="rgb(100,100,100)" stroke-width="0.0010cm" stroke-linecap="round" stroke-linejoin="round" fill="none" /><path d="M51.5233356,11.2960308 A0.3175,0.3175 135 1,1 51.9723484,10.847018 L54.2350901,13.1097597 A0.3175,0.3175 315 0,1 53.7860773,13.5587725 L51.5233356,11.2960308z" transform="matrix(1,0,0,-1,0.0929936,43.4810657)" stroke="rgb(100,100,100)" stroke-width="0.0010cm" stroke-linecap="round" stroke-linejoin="round" fill="none" /><path d="M54.6841029,16.270527 A0.3175,0.3175 44.9999999 1,1 54.2350901,15.8215142 L56.4978318,13.5587725 A0.3175,0.3175 225 0,1 56.9468446,14.0077853 L54.6841029,16.270527z" transform="matrix(1,0,0,-1,0.0929936,43.4810657)" stroke="rgb(100,100,100)" stroke-width="0.0010cm" stroke-linecap="round" stroke-linejoin="round" fill="none" /><path d="M56.9468446,11.2960308 A0.3175,0.3175 135 1,1 57.3958574,10.847018 L59.6585991,13.1097597 A0.3175,0.3175 315 0,1 59.2095863,13.5587725 L56.9468446,11.2960308z" transform="matrix(1,0,0,-1,0.0929936,43.4810657)" stroke="rgb(100,100,100)" stroke-width="0.0010cm" stroke-linecap="round" stroke-linejoin="round" fill="none" /><path d="M60.1076119,16.270527 A0.3175,0.3175 44.9999999 1,1 59.6585991,15.8215142 L61.9213408,13.5587725 A0.3175,0.3175 225 0,1 62.3703536,14.0077853 L60.1076119,16.270527z" transform="matrix(1,0,0,-1,0.0929936,43.4810657)" stroke="rgb(100,100,100)" stroke-width="0.0010cm" stroke-linecap="round" stroke-linejoin="round" fill="none" /><path d="M62.3703536,11.2960308 A0.3175,0.3175 135 1,1 62.8193664,10.847018 L65.0821081,13.1097597 A0.3175,0.3175 315 1,1 64.6330953,13.5587725 L62.3703536,11.2960308z" transform="matrix(1,0,0,-1,0.0929936,43.4810657)" stroke="rgb(100,100,100)" stroke-width="0.0010cm" stroke-linecap="round" stroke-linejoin="round" fill="none" /><path d="M65.5311209,16.270527 A0.3175,0.3175 45 0,1 65.0821081,15.8215142 L67.3448498,13.5587725 A0.3175,0.3175 225 1,1 67.7938626,14.0077853 L65.5311209,16.270527z" transform="matrix(1,0,0,-1,0.0929936,43.4810657)" stroke="rgb(100,100,100)" stroke-width="0.0010cm" stroke-linecap="round" stroke-linejoin="round" fill="none" /><path d="M67.7938626,11.2960308 A0.3175,0.3175 135 0,1 68.2428755,10.847018 L70.5056172,13.1097597 A0.3175,0.3175 315 1,1 70.0566043,13.5587725 L67.7938626,11.2960308z" transform="matrix(1,0,0,-1,0.0929936,43.4810657)" stroke="rgb(100,100,100)" stroke-width="0.0010cm" stroke-linecap="round" stroke-linejoin="round" fill="none" /><path d="M70.95463,16.270527 A0.3175,0.3175 45 0,1 70.5056172,15.8215142 L72.7683589,13.5587725 A0.3175,0.3175 225 1,1 73.2173717,14.0077853 L70.95463,16.270527z" transform="matrix(1,0,0,-1,0.0929936,43.4810657)" stroke="rgb(100,100,100)" stroke-width="0.0010cm" stroke-linecap="round" stroke-linejoin="round" fill="none" /><path d="M73.2173717,11.2960308 A0.3175,0.3175 135 0,1 73.6663845,10.847018 L75.9291262,13.1097597 A0.3175,0.3175 315 1,1 75.4801134,13.5587725 L73.2173717,11.2960308z" transform="matrix(1,0,0,-1,0.0929936,43.4810657)" stroke="rgb(100,100,100)" stroke-width="0.0010cm" stroke-linecap="round" stroke-linejoin="round" fill="none" /><path d="M76.378139,16.270527 A0.3175,0.3175 45 0,1 75.9291262,15.8215142 L78.1918679,13.5587725 A0.3175,0.3175 225 1,1 78.6408807,14.0077853 L76.378139,16.270527z" transform="matrix(1,0,0,-1,0.0929936,43.4810657)" stroke="rgb(100,100,100)" stroke-width="0.0010cm" stroke-linecap="round" stroke-linejoin="round" fill="none" /><path d="M78.6408807,11.2960308 A0.3175,0.3175 135 0,1 79.0898935,10.847018 L81.3526352,13.1097597 A0.3175,0.3175 315 1,1 80.9036224,13.5587725 L78.6408807,11.2960308z" transform="matrix(1,0,0,-1,0.0929936,43.4810657)" stroke="rgb(100,100,100)" stroke-width="0.0010cm" stroke-linecap="round" stroke-linejoin="round" fill="none" /><path d="M81.801648,16.270527 A0.3175,0.3175 45 0,1 81.3526352,15.8215142 L83.6153769,13.5587725 A0.3175,0.3175 225 1,1 84.0643897,14.0077853 L81.801648,16.270527z" transform="matrix(1,0,0,-1,0.0929936,43.4810657)" stroke="rgb(100,100,100)" stroke-width="0.0010cm" stroke-linecap="round" stroke-linejoin="round" fill="none" /><path d="M84.0643897,11.2960308 A0.3175,0.3175 135 0,1 84.5134025,10.847018 L86.7761442,13.1097597 A0.3175,0.3175 315 1,1 86.3271314,13.5587725 L84.0643897,11.2960308z" transform="matrix(1,0,0,-1,0.0929936,43.4810657)" stroke="rgb(100,100,100)" stroke-width="0.0010cm" stroke-linecap="round" stroke-linejoin="round" fill="none" /><path d="M27.5665579,21.694036 A0.3175,0.3175 44.9999999 1,1 27.1175451,21.2450232 L29.3802868,18.9822815 A0.3175,0.3175 225.0000001 0,1 29.8292996,19.4312943 L27.5665579,21.694036z" transform="matrix(1,0,0,-1,0.0929936,43.4810657)" stroke="rgb(100,100,100)" stroke-width="0.0010cm" stroke-linecap="round" stroke-linejoin="round" fill="none" /><path d="M29.8292996,16.7195398 A0.3175,0.3175 134.9999999 1,1 30.2783124,16.270527 L32.5410541,18.5332687 A0.3175,0.3175 315 0,1 32.0920413,18.9822815 L29.8292996,16.7195398z" transform="matrix(1,0,0,-1,0.0929936,43.4810657)" stroke="rgb(100,100,100)" stroke-width="0.0010cm" stroke-linecap="round" stroke-linejoin="round" fill="none" /><path d="M32.9900669,21.694036 A0.3175,0.3175 44.9999999 1,1 32.5410541,21.2450232 L34.8037958,18.9822815 A0.3175,0.3175 224.9999999 1,1 35.2528086,19.4312944 L32.9900669,21.694036z" transform="matrix(1,0,0,-1,0.0929936,43.4810657)" stroke="rgb(100,100,100)" stroke-width="0.0010cm" stroke-linecap="round" stroke-linejoin="round" fill="none" /><path d="M35.2528086,16.7195398 A0.3175,0.3175 135 0,1 35.7018214,16.270527 L37.9645631,18.5332687 A0.3175,0.3175 315 0,1 37.5155503,18.9822815 L35.2528086,16.7195398z" transform="matrix(1,0,0,-1,0.0929936,43.4810657)" stroke="rgb(100,100,100)" stroke-width="0.0010cm" stroke-linecap="round" stroke-linejoin="round" fill="none" /><path d="M38.4135759,21.694036 A0.3175,0.3175 44.9999999 1,1 37.9645631,21.2450232 L40.2273048,18.9822815 A0.3175,0.3175 225 0,1 40.6763176,19.4312943 L38.4135759,21.694036z" transform="matrix(1,0,0,-1,0.0929936,43.4810657)" stroke="rgb(100,100,100)" stroke-width="0.0010cm" stroke-linecap="round" stroke-linejoin="round" fill="none" /><path d="M40.6763176,16.7195398 A0.3175,0.3175 135 0,1 41.1253304,16.270527 L43.3880721,18.5332687 A0.3175,0.3175 315 0,1 42.9390593,18.9822815 L40.6763176,16.7195398z" transform="matrix(1,0,0,-1,0.0929936,43.4810657)" stroke="rgb(100,100,100)" stroke-width="0.0010cm" stroke-linecap="round" stroke-linejoin="round" fill="none" /><path d="M43.8370849,21.694036 A0.3175,0.3175 44.9999999 1,1 43.3880721,21.2450232 L45.6508138,18.9822815 A0.3175,0.3175 224.9999999 1,1 46.0998266,19.4312944 L43.8370849,21.694036z" transform="matrix(1,0,0,-1,0.0929936,43.4810657)" stroke="rgb(100,100,100)" stroke-width="0.0010cm" stroke-linecap="round" stroke-linejoin="round" fill="none" /><path d="M46.0998266,16.7195398 A0.3175,0.3175 135 0,1 46.5488394,16.270527 L48.8115811,18.5332687 A0.3175,0.3175 315 0,1 48.3625683,18.9822815 L46.0998266,16.7195398z" transform="matrix(1,0,0,-1,0.0929936,43.4810657)" stroke="rgb(100,100,100)" stroke-width="0.0010cm" stroke-linecap="round" stroke-linejoin="round" fill="none" /><path d="M49.2605939,21.694036 A0.3175,0.3175 44.9999999 1,1 48.8115811,21.2450232 L51.0743228,18.9822815 A0.3175,0.3175 225 0,1 51.5233356,19.4312943 L49.2605939,21.694036z" transform="matrix(1,0,0,-1,0.0929936,43.4810657)" stroke="rgb(100,100,100)" stroke-width="0.0010cm" stroke-linecap="round" stroke-linejoin="round" fill="none" /><path d="M51.5233356,16.7195398 A0.3175,0.3175 135 0,1 51.9723484,16.270527 L54.2350901,18.5332687 A0.3175,0.3175 315 0,1 53.7860773,18.9822815 L51.5233356,16.7195398z" transform="matrix(1,0,0,-1,0.0929936,43.4810657)" stroke="rgb(100,100,100)" stroke-width="0.0010cm" stroke-linecap="round" stroke-linejoin="round" fill="none" /><path d="M54.6841029,21.694036 A0.3175,0.3175 44.9999999 1,1 54.2350901,21.2450232 L56.4978318,18.9822815 A0.3175,0.3175 224.9999999 1,1 56.9468446,19.4312944 L54.6841029,21.694036z" transform="matrix(1,0,0,-1,0.0929936,43.4810657)" stroke="rgb(100,100,100)" stroke-width="0.0010cm" stroke-linecap="round" stroke-linejoin="round" fill="none" /><path d="M56.9468446,16.7195398 A0.3175,0.3175 135 0,1 57.3958574,16.270527 L59.6585991,18.5332687 A0.3175,0.3175 315 0,1 59.2095863,18.9822815 L56.9468446,16.7195398z" transform="matrix(1,0,0,-1,0.0929936,43.4810657)" stroke="rgb(100,100,100)" stroke-width="0.0010cm" stroke-linecap="round" stroke-linejoin="round" fill="none" /><path d="M60.1076119,21.694036 A0.3175,0.3175 44.9999999 1,1 59.6585991,21.2450232 L61.9213408,18.9822815 A0.3175,0.3175 224.9999999 1,1 62.3703536,19.4312944 L60.1076119,21.694036z" transform="matrix(1,0,0,-1,0.0929936,43.4810657)" stroke="rgb(100,100,100)" stroke-width="0.0010cm" stroke-linecap="round" stroke-linejoin="round" fill="none" /><path d="M62.3703536,16.7195398 A0.3175,0.3175 135 0,1 62.8193664,16.270527 L65.0821081,18.5332687 A0.3175,0.3175 315 1,1 64.6330953,18.9822815 L62.3703536,16.7195398z" transform="matrix(1,0,0,-1,0.0929936,43.4810657)" stroke="rgb(100,100,100)" stroke-width="0.0010cm" stroke-linecap="round" stroke-linejoin="round" fill="none" /><path d="M65.5311209,21.694036 A0.3175,0.3175 45 0,1 65.0821081,21.2450232 L67.3448498,18.9822815 A0.3175,0.3175 225 1,1 67.7938626,19.4312943 L65.5311209,21.694036z" transform="matrix(1,0,0,-1,0.0929936,43.4810657)" stroke="rgb(100,100,100)" stroke-width="0.0010cm" stroke-linecap="round" stroke-linejoin="round" fill="none" /><path d="M67.7938626,16.7195398 A0.3175,0.3175 135 0,1 68.2428755,16.270527 L70.5056172,18.5332687 A0.3175,0.3175 315 1,1 70.0566043,18.9822815 L67.7938626,16.7195398z" transform="matrix(1,0,0,-1,0.0929936,43.4810657)" stroke="rgb(100,100,100)" stroke-width="0.0010cm" stroke-linecap="round" stroke-linejoin="round" fill="none" /><path d="M70.95463,21.694036 A0.3175,0.3175 45 0,1 70.5056172,21.2450232 L72.7683589,18.9822815 A0.3175,0.3175 225 1,1 73.2173717,19.4312943 L70.95463,21.694036z" transform="matrix(1,0,0,-1,0.0929936,43.4810657)" stroke="rgb(100,100,100)" stroke-width="0.0010cm" stroke-linecap="round" stroke-linejoin="round" fill="none" /><path d="M73.2173717,16.7195398 A0.3175,0.3175 135 0,1 73.6663845,16.270527 L75.9291262,18.5332687 A0.3175,0.3175 315 1,1 75.4801134,18.9822815 L73.2173717,16.7195398z" transform="matrix(1,0,0,-1,0.0929936,43.4810657)" stroke="rgb(100,100,100)" stroke-width="0.0010cm" stroke-linecap="round" stroke-linejoin="round" fill="none" /><path d="M76.378139,21.694036 A0.3175,0.3175 45 0,1 75.9291262,21.2450232 L78.1918679,18.9822815 A0.3175,0.3175 225 0,1 78.6408807,19.4312943 L76.378139,21.694036z" transform="matrix(1,0,0,-1,0.0929936,43.4810657)" stroke="rgb(100,100,100)" stroke-width="0.0010cm" stroke-linecap="round" stroke-linejoin="round" fill="none" /><path d="M78.6408807,16.7195398 A0.3175,0.3175 135 1,1 79.0898935,16.270527 L81.3526352,18.5332687 A0.3175,0.3175 315 1,1 80.9036224,18.9822815 L78.6408807,16.7195398z" transform="matrix(1,0,0,-1,0.0929936,43.4810657)" stroke="rgb(100,100,100)" stroke-width="0.0010cm" stroke-linecap="round" stroke-linejoin="round" fill="none" /><path d="M81.801648,21.694036 A0.3175,0.3175 45 0,1 81.3526352,21.2450232 L83.6153769,18.9822815 A0.3175,0.3175 225 0,1 84.0643897,19.4312943 L81.801648,21.694036z" transform="matrix(1,0,0,-1,0.0929936,43.4810657)" stroke="rgb(100,100,100)" stroke-width="0.0010cm" stroke-linecap="round" stroke-linejoin="round" fill="none" /><path d="M84.0643897,16.7195398 A0.3175,0.3175 135 1,1 84.5134025,16.270527 L86.7761442,18.5332687 A0.3175,0.3175 315 1,1 86.3271314,18.9822815 L84.0643897,16.7195398z" transform="matrix(1,0,0,-1,0.0929936,43.4810657)" stroke="rgb(100,100,100)" stroke-width="0.0010cm" stroke-linecap="round" stroke-linejoin="round" fill="none" /><path d="M27.5665579,27.1175451 A0.3175,0.3175 44.9999999 1,1 27.1175451,26.6685322 L29.3802868,24.4057906 A0.3175,0.3175 225.0000001 0,1 29.8292996,24.8548034 L27.5665579,27.1175451z" transform="matrix(1,0,0,-1,0.0929936,43.4810657)" stroke="rgb(100,100,100)" stroke-width="0.0010cm" stroke-linecap="round" stroke-linejoin="round" fill="none" /><path d="M29.8292996,22.1430489 A0.3175,0.3175 134.9999999 1,1 30.2783124,21.6940361 L32.5410541,23.9567777 A0.3175,0.3175 315 0,1 32.0920413,24.4057906 L29.8292996,22.1430489z" transform="matrix(1,0,0,-1,0.0929936,43.4810657)" stroke="rgb(100,100,100)" stroke-width="0.0010cm" stroke-linecap="round" stroke-linejoin="round" fill="none" /><path d="M32.9900669,27.1175451 A0.3175,0.3175 44.9999999 1,1 32.5410541,26.6685322 L34.8037958,24.4057906 A0.3175,0.3175 224.9999999 1,1 35.2528086,24.8548034 L32.9900669,27.1175451z" transform="matrix(1,0,0,-1,0.0929936,43.4810657)" stroke="rgb(100,100,100)" stroke-width="0.0010cm" stroke-linecap="round" stroke-linejoin="round" fill="none" /><path d="M35.2528086,22.1430489 A0.3175,0.3175 135 0,1 35.7018214,21.694036 L37.9645631,23.9567777 A0.3175,0.3175 315 0,1 37.5155503,24.4057906 L35.2528086,22.1430489z" transform="matrix(1,0,0,-1,0.0929936,43.4810657)" stroke="rgb(100,100,100)" stroke-width="0.0010cm" stroke-linecap="round" stroke-linejoin="round" fill="none" /><path d="M38.4135759,27.1175451 A0.3175,0.3175 44.9999999 1,1 37.9645631,26.6685322 L40.2273048,24.4057906 A0.3175,0.3175 225 0,1 40.6763176,24.8548034 L38.4135759,27.1175451z" transform="matrix(1,0,0,-1,0.0929936,43.4810657)" stroke="rgb(100,100,100)" stroke-width="0.0010cm" stroke-linecap="round" stroke-linejoin="round" fill="none" /><path d="M40.6763176,22.1430489 A0.3175,0.3175 135 0,1 41.1253304,21.694036 L43.3880721,23.9567777 A0.3175,0.3175 315 0,1 42.9390593,24.4057906 L40.6763176,22.1430489z" transform="matrix(1,0,0,-1,0.0929936,43.4810657)" stroke="rgb(100,100,100)" stroke-width="0.0010cm" stroke-linecap="round" stroke-linejoin="round" fill="none" /><path d="M43.8370849,27.1175451 A0.3175,0.3175 44.9999999 1,1 43.3880721,26.6685322 L45.6508138,24.4057906 A0.3175,0.3175 224.9999999 1,1 46.0998266,24.8548034 L43.8370849,27.1175451z" transform="matrix(1,0,0,-1,0.0929936,43.4810657)" stroke="rgb(100,100,100)" stroke-width="0.0010cm" stroke-linecap="round" stroke-linejoin="round" fill="none" /><path d="M46.0998266,22.1430489 A0.3175,0.3175 135 0,1 46.5488394,21.694036 L48.8115811,23.9567777 A0.3175,0.3175 315 0,1 48.3625683,24.4057906 L46.0998266,22.1430489z" transform="matrix(1,0,0,-1,0.0929936,43.4810657)" stroke="rgb(100,100,100)" stroke-width="0.0010cm" stroke-linecap="round" stroke-linejoin="round" fill="none" /><path d="M49.2605939,27.1175451 A0.3175,0.3175 44.9999999 1,1 48.8115811,26.6685322 L51.0743228,24.4057906 A0.3175,0.3175 225 0,1 51.5233356,24.8548034 L49.2605939,27.1175451z" transform="matrix(1,0,0,-1,0.0929936,43.4810657)" stroke="rgb(100,100,100)" stroke-width="0.0010cm" stroke-linecap="round" stroke-linejoin="round" fill="none" /><path d="M51.5233356,22.1430489 A0.3175,0.3175 135 0,1 51.9723484,21.694036 L54.2350901,23.9567777 A0.3175,0.3175 315 0,1 53.7860773,24.4057906 L51.5233356,22.1430489z" transform="matrix(1,0,0,-1,0.0929936,43.4810657)" stroke="rgb(100,100,100)" stroke-width="0.0010cm" stroke-linecap="round" stroke-linejoin="round" fill="none" /><path d="M54.6841029,27.1175451 A0.3175,0.3175 44.9999999 1,1 54.2350901,26.6685322 L56.4978318,24.4057906 A0.3175,0.3175 224.9999999 1,1 56.9468446,24.8548034 L54.6841029,27.1175451z" transform="matrix(1,0,0,-1,0.0929936,43.4810657)" stroke="rgb(100,100,100)" stroke-width="0.0010cm" stroke-linecap="round" stroke-linejoin="round" fill="none" /><path d="M56.9468446,22.1430489 A0.3175,0.3175 135 0,1 57.3958574,21.694036 L59.6585991,23.9567777 A0.3175,0.3175 315 0,1 59.2095863,24.4057906 L56.9468446,22.1430489z" transform="matrix(1,0,0,-1,0.0929936,43.4810657)" stroke="rgb(100,100,100)" stroke-width="0.0010cm" stroke-linecap="round" stroke-linejoin="round" fill="none" /><path d="M60.1076119,27.1175451 A0.3175,0.3175 44.9999999 1,1 59.6585991,26.6685322 L61.9213408,24.4057906 A0.3175,0.3175 224.9999999 1,1 62.3703536,24.8548034 L60.1076119,27.1175451z" transform="matrix(1,0,0,-1,0.0929936,43.4810657)" stroke="rgb(100,100,100)" stroke-width="0.0010cm" stroke-linecap="round" stroke-linejoin="round" fill="none" /><path d="M62.3703536,22.1430489 A0.3175,0.3175 135 0,1 62.8193664,21.694036 L65.0821081,23.9567777 A0.3175,0.3175 315 1,1 64.6330953,24.4057906 L62.3703536,22.1430489z" transform="matrix(1,0,0,-1,0.0929936,43.4810657)" stroke="rgb(100,100,100)" stroke-width="0.0010cm" stroke-linecap="round" stroke-linejoin="round" fill="none" /><path d="M65.5311209,27.1175451 A0.3175,0.3175 45 0,1 65.0821081,26.6685323 L67.3448498,24.4057906 A0.3175,0.3175 225 1,1 67.7938626,24.8548034 L65.5311209,27.1175451z" transform="matrix(1,0,0,-1,0.0929936,43.4810657)" stroke="rgb(100,100,100)" stroke-width="0.0010cm" stroke-linecap="round" stroke-linejoin="round" fill="none" /><path d="M67.7938626,22.1430489 A0.3175,0.3175 135 0,1 68.2428755,21.694036 L70.5056172,23.9567777 A0.3175,0.3175 315 1,1 70.0566043,24.4057906 L67.7938626,22.1430489z" transform="matrix(1,0,0,-1,0.0929936,43.4810657)" stroke="rgb(100,100,100)" stroke-width="0.0010cm" stroke-linecap="round" stroke-linejoin="round" fill="none" /><path d="M70.95463,27.1175451 A0.3175,0.3175 45 0,1 70.5056172,26.6685323 L72.7683589,24.4057906 A0.3175,0.3175 225 1,1 73.2173717,24.8548034 L70.95463,27.1175451z" transform="matrix(1,0,0,-1,0.0929936,43.4810657)" stroke="rgb(100,100,100)" stroke-width="0.0010cm" stroke-linecap="round" stroke-linejoin="round" fill="none" /><path d="M73.2173717,22.1430489 A0.3175,0.3175 135 0,1 73.6663845,21.694036 L75.9291262,23.9567777 A0.3175,0.3175 315 1,1 75.4801134,24.4057906 L73.2173717,22.1430489z" transform="matrix(1,0,0,-1,0.0929936,43.4810657)" stroke="rgb(100,100,100)" stroke-width="0.0010cm" stroke-linecap="round" stroke-linejoin="round" fill="none" /><path d="M76.378139,27.1175451 A0.3175,0.3175 45 0,1 75.9291262,26.6685323 L78.1918679,24.4057906 A0.3175,0.3175 225 0,1 78.6408807,24.8548034 L76.378139,27.1175451z" transform="matrix(1,0,0,-1,0.0929936,43.4810657)" stroke="rgb(100,100,100)" stroke-width="0.0010cm" stroke-linecap="round" stroke-linejoin="round" fill="none" /><path d="M78.6408807,22.1430489 A0.3175,0.3175 135 1,1 79.0898935,21.694036 L81.3526352,23.9567777 A0.3175,0.3175 315 1,1 80.9036224,24.4057906 L78.6408807,22.1430489z" transform="matrix(1,0,0,-1,0.0929936,43.4810657)" stroke="rgb(100,100,100)" stroke-width="0.0010cm" stroke-linecap="round" stroke-linejoin="round" fill="none" /><path d="M81.801648,27.1175451 A0.3175,0.3175 45 0,1 81.3526352,26.6685323 L83.6153769,24.4057906 A0.3175,0.3175 225 0,1 84.0643897,24.8548034 L81.801648,27.1175451z" transform="matrix(1,0,0,-1,0.0929936,43.4810657)" stroke="rgb(100,100,100)" stroke-width="0.0010cm" stroke-linecap="round" stroke-linejoin="round" fill="none" /><path d="M84.0643897,22.1430489 A0.3175,0.3175 135 1,1 84.5134025,21.694036 L86.7761442,23.9567777 A0.3175,0.3175 315 1,1 86.3271314,24.4057906 L84.0643897,22.1430489z" transform="matrix(1,0,0,-1,0.0929936,43.4810657)" stroke="rgb(100,100,100)" stroke-width="0.0010cm" stroke-linecap="round" stroke-linejoin="round" fill="none" /><path d="M0.4490128,32.5410541 A0.3175,0.3175 45 0,1 0,32.0920413 L2.2627417,29.8292996 A0.3175,0.3175 224.9999999 1,1 2.7117545,30.2783124 L0.4490128,32.5410541z" transform="matrix(1,0,0,-1,0.0929936,43.4810657)" stroke="rgb(100,100,100)" stroke-width="0.0010cm" stroke-linecap="round" stroke-linejoin="round" fill="none" /><path d="M2.7117545,27.5665579 A0.3175,0.3175 135 1,1 3.1607673,27.1175451 L5.423509,29.3802868 A0.3175,0.3175 314.9999999 1,1 4.9744962,29.8292996 L2.7117545,27.5665579z" transform="matrix(1,0,0,-1,0.0929936,43.4810657)" stroke="rgb(100,100,100)" stroke-width="0.0010cm" stroke-linecap="round" stroke-linejoin="round" fill="none" /><path d="M5.8725218,32.5410541 A0.3175,0.3175 45 0,1 5.423509,32.0920413 L7.6862507,29.8292996 A0.3175,0.3175 224.9999999 1,1 8.1352635,30.2783124 L5.8725218,32.5410541z" transform="matrix(1,0,0,-1,0.0929936,43.4810657)" stroke="rgb(100,100,100)" stroke-width="0.0010cm" stroke-linecap="round" stroke-linejoin="round" fill="none" /><path d="M8.1352635,27.5665579 A0.3175,0.3175 135 1,1 8.5842763,27.1175451 L10.847018,29.3802868 A0.3175,0.3175 315 1,1 10.3980052,29.8292996 L8.1352635,27.5665579z" transform="matrix(1,0,0,-1,0.0929936,43.4810657)" stroke="rgb(100,100,100)" stroke-width="0.0010cm" stroke-linecap="round" stroke-linejoin="round" fill="none" /><path d="M11.2960308,32.5410541 A0.3175,0.3175 45 0,1 10.847018,32.0920413 L13.1097597,29.8292996 A0.3175,0.3175 224.9999999 1,1 13.5587725,30.2783124 L11.2960308,32.5410541z" transform="matrix(1,0,0,-1,0.0929936,43.4810657)" stroke="rgb(100,100,100)" stroke-width="0.0010cm" stroke-linecap="round" stroke-linejoin="round" fill="none" /><path d="M13.5587725,27.5665579 A0.3175,0.3175 135 0,1 14.0077853,27.1175451 L16.270527,29.3802868 A0.3175,0.3175 314.9999999 1,1 15.8215142,29.8292996 L13.5587725,27.5665579z" transform="matrix(1,0,0,-1,0.0929936,43.4810657)" stroke="rgb(100,100,100)" stroke-width="0.0010cm" stroke-linecap="round" stroke-linejoin="round" fill="none" /><path d="M16.7195398,32.5410541 A0.3175,0.3175 45 0,1 16.270527,32.0920413 L18.5332687,29.8292996 A0.3175,0.3175 225.0000001 0,1 18.9822815,30.2783124 L16.7195398,32.5410541z" transform="matrix(1,0,0,-1,0.0929936,43.4810657)" stroke="rgb(100,100,100)" stroke-width="0.0010cm" stroke-linecap="round" stroke-linejoin="round" fill="none" /><path d="M18.9822815,27.5665579 A0.3175,0.3175 134.9999999 1,1 19.4312943,27.1175451 L21.694036,29.3802868 A0.3175,0.3175 314.9999999 1,1 21.2450232,29.8292996 L18.9822815,27.5665579z" transform="matrix(1,0,0,-1,0.0929936,43.4810657)" stroke="rgb(100,100,100)" stroke-width="0.0010cm" stroke-linecap="round" stroke-linejoin="round" fill="none" /><path d="M22.1430489,32.5410541 A0.3175,0.3175 45 0,1 21.694036,32.0920413 L23.9567777,29.8292996 A0.3175,0.3175 225.0000001 0,1 24.4057906,30.2783124 L22.1430489,32.5410541z" transform="matrix(1,0,0,-1,0.0929936,43.4810657)" stroke="rgb(100,100,100)" stroke-width="0.0010cm" stroke-linecap="round" stroke-linejoin="round" fill="none" /><path d="M24.4057906,27.5665579 A0.3175,0.3175 134.9999999 1,1 24.8548034,27.1175451 L27.1175451,29.3802868 A0.3175,0.3175 314.9999999 1,1 26.6685322,29.8292996 L24.4057906,27.5665579z" transform="matrix(1,0,0,-1,0.0929936,43.4810657)" stroke="rgb(100,100,100)" stroke-width="0.0010cm" stroke-linecap="round" stroke-linejoin="round" fill="none" /><path d="M27.5665579,32.5410541 A0.3175,0.3175 45 0,1 27.1175451,32.0920413 L29.3802868,29.8292996 A0.3175,0.3175 225.0000001 0,1 29.8292996,30.2783124 L27.5665579,32.5410541z" transform="matrix(1,0,0,-1,0.0929936,43.4810657)" stroke="rgb(100,100,100)" stroke-width="0.0010cm" stroke-linecap="round" stroke-linejoin="round" fill="none" /><path d="M29.8292996,27.5665579 A0.3175,0.3175 134.9999999 1,1 30.2783124,27.1175451 L32.5410541,29.3802868 A0.3175,0.3175 315 0,1 32.0920413,29.8292996 L29.8292996,27.5665579z" transform="matrix(1,0,0,-1,0.0929936,43.4810657)" stroke="rgb(100,100,100)" stroke-width="0.0010cm" stroke-linecap="round" stroke-linejoin="round" fill="none" /><path d="M32.9900669,32.5410541 A0.3175,0.3175 45 0,1 32.5410541,32.0920413 L34.8037958,29.8292996 A0.3175,0.3175 224.9999999 1,1 35.2528086,30.2783124 L32.9900669,32.5410541z" transform="matrix(1,0,0,-1,0.0929936,43.4810657)" stroke="rgb(100,100,100)" stroke-width="0.0010cm" stroke-linecap="round" stroke-linejoin="round" fill="none" /><path d="M35.2528086,27.5665579 A0.3175,0.3175 135 0,1 35.7018214,27.1175451 L37.9645631,29.3802868 A0.3175,0.3175 315 0,1 37.5155503,29.8292996 L35.2528086,27.5665579z" transform="matrix(1,0,0,-1,0.0929936,43.4810657)" stroke="rgb(100,100,100)" stroke-width="0.0010cm" stroke-linecap="round" stroke-linejoin="round" fill="none" /><path d="M38.4135759,32.5410541 A0.3175,0.3175 45 0,1 37.9645631,32.0920413 L40.2273048,29.8292996 A0.3175,0.3175 225 0,1 40.6763176,30.2783124 L38.4135759,32.5410541z" transform="matrix(1,0,0,-1,0.0929936,43.4810657)" stroke="rgb(100,100,100)" stroke-width="0.0010cm" stroke-linecap="round" stroke-linejoin="round" fill="none" /><path d="M40.6763176,27.5665579 A0.3175,0.3175 135 0,1 41.1253304,27.1175451 L43.3880721,29.3802868 A0.3175,0.3175 315 0,1 42.9390593,29.8292996 L40.6763176,27.5665579z" transform="matrix(1,0,0,-1,0.0929936,43.4810657)" stroke="rgb(100,100,100)" stroke-width="0.0010cm" stroke-linecap="round" stroke-linejoin="round" fill="none" /><path d="M43.8370849,32.5410541 A0.3175,0.3175 45 0,1 43.3880721,32.0920413 L45.6508138,29.8292996 A0.3175,0.3175 224.9999999 1,1 46.0998266,30.2783124 L43.8370849,32.5410541z" transform="matrix(1,0,0,-1,0.0929936,43.4810657)" stroke="rgb(100,100,100)" stroke-width="0.0010cm" stroke-linecap="round" stroke-linejoin="round" fill="none" /><path d="M46.0998266,27.5665579 A0.3175,0.3175 135 0,1 46.5488394,27.1175451 L48.8115811,29.3802868 A0.3175,0.3175 315 0,1 48.3625683,29.8292996 L46.0998266,27.5665579z" transform="matrix(1,0,0,-1,0.0929936,43.4810657)" stroke="rgb(100,100,100)" stroke-width="0.0010cm" stroke-linecap="round" stroke-linejoin="round" fill="none" /><path d="M49.2605939,32.5410541 A0.3175,0.3175 45 0,1 48.8115811,32.0920413 L51.0743228,29.8292996 A0.3175,0.3175 225 0,1 51.5233356,30.2783124 L49.2605939,32.5410541z" transform="matrix(1,0,0,-1,0.0929936,43.4810657)" stroke="rgb(100,100,100)" stroke-width="0.0010cm" stroke-linecap="round" stroke-linejoin="round" fill="none" /><path d="M51.5233356,27.5665579 A0.3175,0.3175 135 0,1 51.9723484,27.1175451 L54.2350901,29.3802868 A0.3175,0.3175 315 0,1 53.7860773,29.8292996 L51.5233356,27.5665579z" transform="matrix(1,0,0,-1,0.0929936,43.4810657)" stroke="rgb(100,100,100)" stroke-width="0.0010cm" stroke-linecap="round" stroke-linejoin="round" fill="none" /><path d="M54.6841029,32.5410541 A0.3175,0.3175 45 0,1 54.2350901,32.0920413 L56.4978318,29.8292996 A0.3175,0.3175 224.9999999 1,1 56.9468446,30.2783124 L54.6841029,32.5410541z" transform="matrix(1,0,0,-1,0.0929936,43.4810657)" stroke="rgb(100,100,100)" stroke-width="0.0010cm" stroke-linecap="round" stroke-linejoin="round" fill="none" /><path d="M56.9468446,27.5665579 A0.3175,0.3175 135 0,1 57.3958574,27.1175451 L59.6585991,29.3802868 A0.3175,0.3175 315 0,1 59.2095863,29.8292996 L56.9468446,27.5665579z" transform="matrix(1,0,0,-1,0.0929936,43.4810657)" stroke="rgb(100,100,100)" stroke-width="0.0010cm" stroke-linecap="round" stroke-linejoin="round" fill="none" /><path d="M60.1076119,32.5410541 A0.3175,0.3175 45 0,1 59.6585991,32.0920413 L61.9213408,29.8292996 A0.3175,0.3175 224.9999999 1,1 62.3703536,30.2783124 L60.1076119,32.5410541z" transform="matrix(1,0,0,-1,0.0929936,43.4810657)" stroke="rgb(100,100,100)" stroke-width="0.0010cm" stroke-linecap="round" stroke-linejoin="round" fill="none" /><path d="M62.3703536,27.5665579 A0.3175,0.3175 135 0,1 62.8193664,27.1175451 L65.0821081,29.3802868 A0.3175,0.3175 315 1,1 64.6330953,29.8292996 L62.3703536,27.5665579z" transform="matrix(1,0,0,-1,0.0929936,43.4810657)" stroke="rgb(100,100,100)" stroke-width="0.0010cm" stroke-linecap="round" stroke-linejoin="round" fill="none" /><path d="M65.5311209,32.5410541 A0.3175,0.3175 45 1,1 65.0821081,32.0920413 L67.3448498,29.8292996 A0.3175,0.3175 225 1,1 67.7938626,30.2783124 L65.5311209,32.5410541z" transform="matrix(1,0,0,-1,0.0929936,43.4810657)" stroke="rgb(100,100,100)" stroke-width="0.0010cm" stroke-linecap="round" stroke-linejoin="round" fill="none" /><path d="M67.7938626,27.5665579 A0.3175,0.3175 135 0,1 68.2428755,27.1175451 L70.5056172,29.3802868 A0.3175,0.3175 315 1,1 70.0566043,29.8292996 L67.7938626,27.5665579z" transform="matrix(1,0,0,-1,0.0929936,43.4810657)" stroke="rgb(100,100,100)" stroke-width="0.0010cm" stroke-linecap="round" stroke-linejoin="round" fill="none" /><path d="M70.95463,32.5410541 A0.3175,0.3175 45 1,1 70.5056172,32.0920413 L72.7683589,29.8292996 A0.3175,0.3175 225 1,1 73.2173717,30.2783124 L70.95463,32.5410541z" transform="matrix(1,0,0,-1,0.0929936,43.4810657)" stroke="rgb(100,100,100)" stroke-width="0.0010cm" stroke-linecap="round" stroke-linejoin="round" fill="none" /><path d="M73.2173717,27.5665579 A0.3175,0.3175 135 0,1 73.6663845,27.1175451 L75.9291262,29.3802868 A0.3175,0.3175 315 1,1 75.4801134,29.8292996 L73.2173717,27.5665579z" transform="matrix(1,0,0,-1,0.0929936,43.4810657)" stroke="rgb(100,100,100)" stroke-width="0.0010cm" stroke-linecap="round" stroke-linejoin="round" fill="none" /><path d="M76.378139,32.5410541 A0.3175,0.3175 45 1,1 75.9291262,32.0920413 L78.1918679,29.8292996 A0.3175,0.3175 225 0,1 78.6408807,30.2783124 L76.378139,32.5410541z" transform="matrix(1,0,0,-1,0.0929936,43.4810657)" stroke="rgb(100,100,100)" stroke-width="0.0010cm" stroke-linecap="round" stroke-linejoin="round" fill="none" /><path d="M78.6408807,27.5665579 A0.3175,0.3175 135 1,1 79.0898935,27.1175451 L81.3526352,29.3802868 A0.3175,0.3175 315 1,1 80.9036224,29.8292996 L78.6408807,27.5665579z" transform="matrix(1,0,0,-1,0.0929936,43.4810657)" stroke="rgb(100,100,100)" stroke-width="0.0010cm" stroke-linecap="round" stroke-linejoin="round" fill="none" /><path d="M81.801648,32.5410541 A0.3175,0.3175 45 1,1 81.3526352,32.0920413 L83.6153769,29.8292996 A0.3175,0.3175 225 0,1 84.0643897,30.2783124 L81.801648,32.5410541z" transform="matrix(1,0,0,-1,0.0929936,43.4810657)" stroke="rgb(100,100,100)" stroke-width="0.0010cm" stroke-linecap="round" stroke-linejoin="round" fill="none" /><path d="M84.0643897,27.5665579 A0.3175,0.3175 135 1,1 84.5134025,27.1175451 L86.7761442,29.3802868 A0.3175,0.3175 315 1,1 86.3271314,29.8292996 L84.0643897,27.5665579z" transform="matrix(1,0,0,-1,0.0929936,43.4810657)" stroke="rgb(100,100,100)" stroke-width="0.0010cm" stroke-linecap="round" stroke-linejoin="round" fill="none" /><path d="M0.4490128,37.9645631 A0.3175,0.3175 45 0,1 0,37.5155503 L2.2627417,35.2528086 A0.3175,0.3175 225 1,1 2.7117545,35.7018214 L0.4490128,37.9645631z" transform="matrix(1,0,0,-1,0.0929936,43.4810657)" stroke="rgb(100,100,100)" stroke-width="0.0010cm" stroke-linecap="round" stroke-linejoin="round" fill="none" /><path d="M2.7117545,32.9900669 A0.3175,0.3175 135 1,1 3.1607673,32.5410541 L5.423509,34.8037958 A0.3175,0.3175 314.9999999 1,1 4.9744962,35.2528086 L2.7117545,32.9900669z" transform="matrix(1,0,0,-1,0.0929936,43.4810657)" stroke="rgb(100,100,100)" stroke-width="0.0010cm" stroke-linecap="round" stroke-linejoin="round" fill="none" /><path d="M5.8725218,37.9645631 A0.3175,0.3175 45 0,1 5.423509,37.5155503 L7.6862507,35.2528086 A0.3175,0.3175 225 1,1 8.1352635,35.7018214 L5.8725218,37.9645631z" transform="matrix(1,0,0,-1,0.0929936,43.4810657)" stroke="rgb(100,100,100)" stroke-width="0.0010cm" stroke-linecap="round" stroke-linejoin="round" fill="none" /><path d="M8.1352635,32.9900669 A0.3175,0.3175 135 1,1 8.5842763,32.5410541 L10.847018,34.8037958 A0.3175,0.3175 315 1,1 10.3980052,35.2528086 L8.1352635,32.9900669z" transform="matrix(1,0,0,-1,0.0929936,43.4810657)" stroke="rgb(100,100,100)" stroke-width="0.0010cm" stroke-linecap="round" stroke-linejoin="round" fill="none" /><path d="M11.2960308,37.9645631 A0.3175,0.3175 45 0,1 10.847018,37.5155503 L13.1097597,35.2528086 A0.3175,0.3175 225 1,1 13.5587725,35.7018214 L11.2960308,37.9645631z" transform="matrix(1,0,0,-1,0.0929936,43.4810657)" stroke="rgb(100,100,100)" stroke-width="0.0010cm" stroke-linecap="round" stroke-linejoin="round" fill="none" /><path d="M13.5587725,32.9900669 A0.3175,0.3175 135 0,1 14.0077853,32.5410541 L16.270527,34.8037958 A0.3175,0.3175 314.9999999 1,1 15.8215142,35.2528086 L13.5587725,32.9900669z" transform="matrix(1,0,0,-1,0.0929936,43.4810657)" stroke="rgb(100,100,100)" stroke-width="0.0010cm" stroke-linecap="round" stroke-linejoin="round" fill="none" /><path d="M16.7195398,37.9645631 A0.3175,0.3175 45 0,1 16.270527,37.5155503 L18.5332687,35.2528086 A0.3175,0.3175 225 1,1 18.9822815,35.7018214 L16.7195398,37.9645631z" transform="matrix(1,0,0,-1,0.0929936,43.4810657)" stroke="rgb(100,100,100)" stroke-width="0.0010cm" stroke-linecap="round" stroke-linejoin="round" fill="none" /><path d="M18.9822815,32.9900669 A0.3175,0.3175 134.9999999 1,1 19.4312943,32.5410541 L21.694036,34.8037958 A0.3175,0.3175 314.9999999 1,1 21.2450232,35.2528086 L18.9822815,32.9900669z" transform="matrix(1,0,0,-1,0.0929936,43.4810657)" stroke="rgb(100,100,100)" stroke-width="0.0010cm" stroke-linecap="round" stroke-linejoin="round" fill="none" /><path d="M22.1430489,37.9645631 A0.3175,0.3175 45 0,1 21.694036,37.5155503 L23.9567777,35.2528086 A0.3175,0.3175 225 1,1 24.4057906,35.7018214 L22.1430489,37.9645631z" transform="matrix(1,0,0,-1,0.0929936,43.4810657)" stroke="rgb(100,100,100)" stroke-width="0.0010cm" stroke-linecap="round" stroke-linejoin="round" fill="none" /><path d="M24.4057906,32.9900669 A0.3175,0.3175 134.9999999 1,1 24.8548034,32.5410541 L27.1175451,34.8037958 A0.3175,0.3175 314.9999999 1,1 26.6685322,35.2528086 L24.4057906,32.9900669z" transform="matrix(1,0,0,-1,0.0929936,43.4810657)" stroke="rgb(100,100,100)" stroke-width="0.0010cm" stroke-linecap="round" stroke-linejoin="round" fill="none" /><path d="M27.5665579,37.9645631 A0.3175,0.3175 45 0,1 27.1175451,37.5155503 L29.3802868,35.2528086 A0.3175,0.3175 225 1,1 29.8292996,35.7018214 L27.5665579,37.9645631z" transform="matrix(1,0,0,-1,0.0929936,43.4810657)" stroke="rgb(100,100,100)" stroke-width="0.0010cm" stroke-linecap="round" stroke-linejoin="round" fill="none" /><path d="M29.8292996,32.9900669 A0.3175,0.3175 134.9999999 1,1 30.2783124,32.5410541 L32.5410541,34.8037958 A0.3175,0.3175 315 0,1 32.0920413,35.2528086 L29.8292996,32.9900669z" transform="matrix(1,0,0,-1,0.0929936,43.4810657)" stroke="rgb(100,100,100)" stroke-width="0.0010cm" stroke-linecap="round" stroke-linejoin="round" fill="none" /><path d="M32.9900669,37.9645631 A0.3175,0.3175 45 0,1 32.5410541,37.5155503 L34.8037958,35.2528086 A0.3175,0.3175 225.0000001 0,1 35.2528086,35.7018214 L32.9900669,37.9645631z" transform="matrix(1,0,0,-1,0.0929936,43.4810657)" stroke="rgb(100,100,100)" stroke-width="0.0010cm" stroke-linecap="round" stroke-linejoin="round" fill="none" /><path d="M35.2528086,32.9900669 A0.3175,0.3175 135 0,1 35.7018214,32.5410541 L37.9645631,34.8037958 A0.3175,0.3175 315 0,1 37.5155503,35.2528086 L35.2528086,32.9900669z" transform="matrix(1,0,0,-1,0.0929936,43.4810657)" stroke="rgb(100,100,100)" stroke-width="0.0010cm" stroke-linecap="round" stroke-linejoin="round" fill="none" /><path d="M38.4135759,37.9645631 A0.3175,0.3175 45 0,1 37.9645631,37.5155503 L40.2273048,35.2528086 A0.3175,0.3175 225 0,1 40.6763176,35.7018214 L38.4135759,37.9645631z" transform="matrix(1,0,0,-1,0.0929936,43.4810657)" stroke="rgb(100,100,100)" stroke-width="0.0010cm" stroke-linecap="round" stroke-linejoin="round" fill="none" /><path d="M40.6763176,32.9900669 A0.3175,0.3175 135 0,1 41.1253304,32.5410541 L43.3880721,34.8037958 A0.3175,0.3175 315 0,1 42.9390593,35.2528086 L40.6763176,32.9900669z" transform="matrix(1,0,0,-1,0.0929936,43.4810657)" stroke="rgb(100,100,100)" stroke-width="0.0010cm" stroke-linecap="round" stroke-linejoin="round" fill="none" /><path d="M43.8370849,37.9645631 A0.3175,0.3175 45 0,1 43.3880721,37.5155503 L45.6508138,35.2528086 A0.3175,0.3175 225.0000001 0,1 46.0998266,35.7018214 L43.8370849,37.9645631z" transform="matrix(1,0,0,-1,0.0929936,43.4810657)" stroke="rgb(100,100,100)" stroke-width="0.0010cm" stroke-linecap="round" stroke-linejoin="round" fill="none" /><path d="M46.0998266,32.9900669 A0.3175,0.3175 135 0,1 46.5488394,32.5410541 L48.8115811,34.8037958 A0.3175,0.3175 315 0,1 48.3625683,35.2528086 L46.0998266,32.9900669z" transform="matrix(1,0,0,-1,0.0929936,43.4810657)" stroke="rgb(100,100,100)" stroke-width="0.0010cm" stroke-linecap="round" stroke-linejoin="round" fill="none" /><path d="M49.2605939,37.9645631 A0.3175,0.3175 45 0,1 48.8115811,37.5155503 L51.0743228,35.2528086 A0.3175,0.3175 225 0,1 51.5233356,35.7018214 L49.2605939,37.9645631z" transform="matrix(1,0,0,-1,0.0929936,43.4810657)" stroke="rgb(100,100,100)" stroke-width="0.0010cm" stroke-linecap="round" stroke-linejoin="round" fill="none" /><path d="M51.5233356,32.9900669 A0.3175,0.3175 135 0,1 51.9723484,32.5410541 L54.2350901,34.8037958 A0.3175,0.3175 315 0,1 53.7860773,35.2528086 L51.5233356,32.9900669z" transform="matrix(1,0,0,-1,0.0929936,43.4810657)" stroke="rgb(100,100,100)" stroke-width="0.0010cm" stroke-linecap="round" stroke-linejoin="round" fill="none" /><path d="M54.6841029,37.9645631 A0.3175,0.3175 45 0,1 54.2350901,37.5155503 L56.4978318,35.2528086 A0.3175,0.3175 225.0000001 0,1 56.9468446,35.7018214 L54.6841029,37.9645631z" transform="matrix(1,0,0,-1,0.0929936,43.4810657)" stroke="rgb(100,100,100)" stroke-width="0.0010cm" stroke-linecap="round" stroke-linejoin="round" fill="none" /><path d="M56.9468446,32.9900669 A0.3175,0.3175 135 0,1 57.3958574,32.5410541 L59.6585991,34.8037958 A0.3175,0.3175 315 0,1 59.2095863,35.2528086 L56.9468446,32.9900669z" transform="matrix(1,0,0,-1,0.0929936,43.4810657)" stroke="rgb(100,100,100)" stroke-width="0.0010cm" stroke-linecap="round" stroke-linejoin="round" fill="none" /><path d="M60.1076119,37.9645631 A0.3175,0.3175 45 0,1 59.6585991,37.5155503 L61.9213408,35.2528086 A0.3175,0.3175 225.0000001 0,1 62.3703536,35.7018214 L60.1076119,37.9645631z" transform="matrix(1,0,0,-1,0.0929936,43.4810657)" stroke="rgb(100,100,100)" stroke-width="0.0010cm" stroke-linecap="round" stroke-linejoin="round" fill="none" /><path d="M62.3703536,32.9900669 A0.3175,0.3175 135 0,1 62.8193664,32.5410541 L65.0821081,34.8037958 A0.3175,0.3175 315 1,1 64.6330953,35.2528086 L62.3703536,32.9900669z" transform="matrix(1,0,0,-1,0.0929936,43.4810657)" stroke="rgb(100,100,100)" stroke-width="0.0010cm" stroke-linecap="round" stroke-linejoin="round" fill="none" /><path d="M65.5311209,37.9645631 A0.3175,0.3175 45 1,1 65.0821081,37.5155503 L67.3448498,35.2528086 A0.3175,0.3175 224.9999999 1,1 67.7938626,35.7018214 L65.5311209,37.9645631z" transform="matrix(1,0,0,-1,0.0929936,43.4810657)" stroke="rgb(100,100,100)" stroke-width="0.0010cm" stroke-linecap="round" stroke-linejoin="round" fill="none" /><path d="M67.7938626,32.9900669 A0.3175,0.3175 135 0,1 68.2428755,32.5410541 L70.5056172,34.8037958 A0.3175,0.3175 315 1,1 70.0566043,35.2528086 L67.7938626,32.9900669z" transform="matrix(1,0,0,-1,0.0929936,43.4810657)" stroke="rgb(100,100,100)" stroke-width="0.0010cm" stroke-linecap="round" stroke-linejoin="round" fill="none" /><path d="M70.95463,37.9645631 A0.3175,0.3175 45 1,1 70.5056172,37.5155503 L72.7683589,35.2528086 A0.3175,0.3175 224.9999999 1,1 73.2173717,35.7018214 L70.95463,37.9645631z" transform="matrix(1,0,0,-1,0.0929936,43.4810657)" stroke="rgb(100,100,100)" stroke-width="0.0010cm" stroke-linecap="round" stroke-linejoin="round" fill="none" /><path d="M73.2173717,32.9900669 A0.3175,0.3175 135 0,1 73.6663845,32.5410541 L75.9291262,34.8037958 A0.3175,0.3175 315 1,1 75.4801134,35.2528086 L73.2173717,32.9900669z" transform="matrix(1,0,0,-1,0.0929936,43.4810657)" stroke="rgb(100,100,100)" stroke-width="0.0010cm" stroke-linecap="round" stroke-linejoin="round" fill="none" /><path d="M76.378139,37.9645631 A0.3175,0.3175 45 1,1 75.9291262,37.5155503 L78.1918679,35.2528086 A0.3175,0.3175 224.9999999 1,1 78.6408807,35.7018214 L76.378139,37.9645631z" transform="matrix(1,0,0,-1,0.0929936,43.4810657)" stroke="rgb(100,100,100)" stroke-width="0.0010cm" stroke-linecap="round" stroke-linejoin="round" fill="none" /><path d="M78.6408807,32.9900669 A0.3175,0.3175 135 1,1 79.0898935,32.5410541 L81.3526352,34.8037958 A0.3175,0.3175 315 1,1 80.9036224,35.2528086 L78.6408807,32.9900669z" transform="matrix(1,0,0,-1,0.0929936,43.4810657)" stroke="rgb(100,100,100)" stroke-width="0.0010cm" stroke-linecap="round" stroke-linejoin="round" fill="none" /><path d="M81.801648,37.9645631 A0.3175,0.3175 45 1,1 81.3526352,37.5155503 L83.6153769,35.2528086 A0.3175,0.3175 224.9999999 1,1 84.0643897,35.7018214 L81.801648,37.9645631z" transform="matrix(1,0,0,-1,0.0929936,43.4810657)" stroke="rgb(100,100,100)" stroke-width="0.0010cm" stroke-linecap="round" stroke-linejoin="round" fill="none" /><path d="M84.0643897,32.9900669 A0.3175,0.3175 135 1,1 84.5134025,32.5410541 L86.7761442,34.8037958 A0.3175,0.3175 315 1,1 86.3271314,35.2528086 L84.0643897,32.9900669z" transform="matrix(1,0,0,-1,0.0929936,43.4810657)" stroke="rgb(100,100,100)" stroke-width="0.0010cm" stroke-linecap="round" stroke-linejoin="round" fill="none" /><path d="M0.4490128,43.3880721 A0.3175,0.3175 45 0,1 0,42.9390593 L2.2627417,40.6763176 A0.3175,0.3175 225 0,1 2.7117545,41.1253304 L0.4490128,43.3880721z" transform="matrix(1,0,0,-1,0.0929936,43.4810657)" stroke="rgb(100,100,100)" stroke-width="0.0010cm" stroke-linecap="round" stroke-linejoin="round" fill="none" /><path d="M2.7117545,38.4135759 A0.3175,0.3175 135 1,1 3.1607673,37.9645631 L5.423509,40.2273048 A0.3175,0.3175 314.9999999 1,1 4.9744962,40.6763176 L2.7117545,38.4135759z" transform="matrix(1,0,0,-1,0.0929936,43.4810657)" stroke="rgb(100,100,100)" stroke-width="0.0010cm" stroke-linecap="round" stroke-linejoin="round" fill="none" /><path d="M5.8725218,43.3880721 A0.3175,0.3175 45 0,1 5.423509,42.9390593 L7.6862507,40.6763176 A0.3175,0.3175 225 1,1 8.1352635,41.1253304 L5.8725218,43.3880721z" transform="matrix(1,0,0,-1,0.0929936,43.4810657)" stroke="rgb(100,100,100)" stroke-width="0.0010cm" stroke-linecap="round" stroke-linejoin="round" fill="none" /><path d="M8.1352635,38.4135759 A0.3175,0.3175 135 1,1 8.5842763,37.9645631 L10.847018,40.2273048 A0.3175,0.3175 315 1,1 10.3980052,40.6763176 L8.1352635,38.4135759z" transform="matrix(1,0,0,-1,0.0929936,43.4810657)" stroke="rgb(100,100,100)" stroke-width="0.0010cm" stroke-linecap="round" stroke-linejoin="round" fill="none" /><path d="M11.2960308,43.3880721 A0.3175,0.3175 45 0,1 10.847018,42.9390593 L13.1097597,40.6763176 A0.3175,0.3175 225 0,1 13.5587725,41.1253304 L11.2960308,43.3880721z" transform="matrix(1,0,0,-1,0.0929936,43.4810657)" stroke="rgb(100,100,100)" stroke-width="0.0010cm" stroke-linecap="round" stroke-linejoin="round" fill="none" /><path d="M13.5587725,38.4135759 A0.3175,0.3175 135 0,1 14.0077853,37.9645631 L16.270527,40.2273048 A0.3175,0.3175 314.9999999 1,1 15.8215142,40.6763176 L13.5587725,38.4135759z" transform="matrix(1,0,0,-1,0.0929936,43.4810657)" stroke="rgb(100,100,100)" stroke-width="0.0010cm" stroke-linecap="round" stroke-linejoin="round" fill="none" /><path d="M16.7195398,43.3880721 A0.3175,0.3175 45 0,1 16.270527,42.9390593 L18.5332687,40.6763176 A0.3175,0.3175 225.0000001 0,1 18.9822815,41.1253304 L16.7195398,43.3880721z" transform="matrix(1,0,0,-1,0.0929936,43.4810657)" stroke="rgb(100,100,100)" stroke-width="0.0010cm" stroke-linecap="round" stroke-linejoin="round" fill="none" /><path d="M18.9822815,38.4135759 A0.3175,0.3175 134.9999999 1,1 19.4312943,37.9645631 L21.694036,40.2273048 A0.3175,0.3175 314.9999999 1,1 21.2450232,40.6763176 L18.9822815,38.4135759z" transform="matrix(1,0,0,-1,0.0929936,43.4810657)" stroke="rgb(100,100,100)" stroke-width="0.0010cm" stroke-linecap="round" stroke-linejoin="round" fill="none" /><path d="M22.1430489,43.3880721 A0.3175,0.3175 45 0,1 21.694036,42.9390593 L23.9567777,40.6763176 A0.3175,0.3175 225.0000001 0,1 24.4057906,41.1253304 L22.1430489,43.3880721z" transform="matrix(1,0,0,-1,0.0929936,43.4810657)" stroke="rgb(100,100,100)" stroke-width="0.0010cm" stroke-linecap="round" stroke-linejoin="round" fill="none" /><path d="M24.4057906,38.4135759 A0.3175,0.3175 134.9999999 1,1 24.8548034,37.9645631 L27.1175451,40.2273048 A0.3175,0.3175 314.9999999 1,1 26.6685322,40.6763176 L24.4057906,38.4135759z" transform="matrix(1,0,0,-1,0.0929936,43.4810657)" stroke="rgb(100,100,100)" stroke-width="0.0010cm" stroke-linecap="round" stroke-linejoin="round" fill="none" /><path d="M27.5665579,43.3880721 A0.3175,0.3175 45 0,1 27.1175451,42.9390593 L29.3802868,40.6763176 A0.3175,0.3175 225.0000001 0,1 29.8292996,41.1253304 L27.5665579,43.3880721z" transform="matrix(1,0,0,-1,0.0929936,43.4810657)" stroke="rgb(100,100,100)" stroke-width="0.0010cm" stroke-linecap="round" stroke-linejoin="round" fill="none" /><path d="M29.8292996,38.4135759 A0.3175,0.3175 134.9999999 1,1 30.2783124,37.9645631 L32.5410541,40.2273048 A0.3175,0.3175 315 0,1 32.0920413,40.6763176 L29.8292996,38.4135759z" transform="matrix(1,0,0,-1,0.0929936,43.4810657)" stroke="rgb(100,100,100)" stroke-width="0.0010cm" stroke-linecap="round" stroke-linejoin="round" fill="none" /><path d="M32.9900669,43.3880721 A0.3175,0.3175 45 0,1 32.5410541,42.9390593 L34.8037958,40.6763176 A0.3175,0.3175 225 0,1 35.2528086,41.1253304 L32.9900669,43.3880721z" transform="matrix(1,0,0,-1,0.0929936,43.4810657)" stroke="rgb(100,100,100)" stroke-width="0.0010cm" stroke-linecap="round" stroke-linejoin="round" fill="none" /><path d="M35.2528086,38.4135759 A0.3175,0.3175 135 0,1 35.7018214,37.9645631 L37.9645631,40.2273048 A0.3175,0.3175 315 0,1 37.5155503,40.6763176 L35.2528086,38.4135759z" transform="matrix(1,0,0,-1,0.0929936,43.4810657)" stroke="rgb(100,100,100)" stroke-width="0.0010cm" stroke-linecap="round" stroke-linejoin="round" fill="none" /><path d="M38.4135759,43.3880721 A0.3175,0.3175 45 0,1 37.9645631,42.9390593 L40.2273048,40.6763176 A0.3175,0.3175 225.0000001 0,1 40.6763176,41.1253304 L38.4135759,43.3880721z" transform="matrix(1,0,0,-1,0.0929936,43.4810657)" stroke="rgb(100,100,100)" stroke-width="0.0010cm" stroke-linecap="round" stroke-linejoin="round" fill="none" /><path d="M40.6763176,38.4135759 A0.3175,0.3175 135 0,1 41.1253304,37.9645631 L43.3880721,40.2273048 A0.3175,0.3175 315 0,1 42.9390593,40.6763176 L40.6763176,38.4135759z" transform="matrix(1,0,0,-1,0.0929936,43.4810657)" stroke="rgb(100,100,100)" stroke-width="0.0010cm" stroke-linecap="round" stroke-linejoin="round" fill="none" /><path d="M43.8370849,43.3880721 A0.3175,0.3175 45 0,1 43.3880721,42.9390593 L45.6508138,40.6763176 A0.3175,0.3175 225 0,1 46.0998266,41.1253304 L43.8370849,43.3880721z" transform="matrix(1,0,0,-1,0.0929936,43.4810657)" stroke="rgb(100,100,100)" stroke-width="0.0010cm" stroke-linecap="round" stroke-linejoin="round" fill="none" /><path d="M46.0998266,38.4135759 A0.3175,0.3175 135 0,1 46.5488394,37.9645631 L48.8115811,40.2273048 A0.3175,0.3175 315 0,1 48.3625683,40.6763176 L46.0998266,38.4135759z" transform="matrix(1,0,0,-1,0.0929936,43.4810657)" stroke="rgb(100,100,100)" stroke-width="0.0010cm" stroke-linecap="round" stroke-linejoin="round" fill="none" /><path d="M49.2605939,43.3880721 A0.3175,0.3175 45 0,1 48.8115811,42.9390593 L51.0743228,40.6763176 A0.3175,0.3175 225.0000001 0,1 51.5233356,41.1253304 L49.2605939,43.3880721z" transform="matrix(1,0,0,-1,0.0929936,43.4810657)" stroke="rgb(100,100,100)" stroke-width="0.0010cm" stroke-linecap="round" stroke-linejoin="round" fill="none" /><path d="M51.5233356,38.4135759 A0.3175,0.3175 135 0,1 51.9723484,37.9645631 L54.2350901,40.2273048 A0.3175,0.3175 315 0,1 53.7860773,40.6763176 L51.5233356,38.4135759z" transform="matrix(1,0,0,-1,0.0929936,43.4810657)" stroke="rgb(100,100,100)" stroke-width="0.0010cm" stroke-linecap="round" stroke-linejoin="round" fill="none" /><path d="M54.6841029,43.3880721 A0.3175,0.3175 45 0,1 54.2350901,42.9390593 L56.4978318,40.6763176 A0.3175,0.3175 225 0,1 56.9468446,41.1253304 L54.6841029,43.3880721z" transform="matrix(1,0,0,-1,0.0929936,43.4810657)" stroke="rgb(100,100,100)" stroke-width="0.0010cm" stroke-linecap="round" stroke-linejoin="round" fill="none" /><path d="M56.9468446,38.4135759 A0.3175,0.3175 135 0,1 57.3958574,37.9645631 L59.6585991,40.2273048 A0.3175,0.3175 315 0,1 59.2095863,40.6763176 L56.9468446,38.4135759z" transform="matrix(1,0,0,-1,0.0929936,43.4810657)" stroke="rgb(100,100,100)" stroke-width="0.0010cm" stroke-linecap="round" stroke-linejoin="round" fill="none" /><path d="M60.1076119,43.3880721 A0.3175,0.3175 45 0,1 59.6585991,42.9390593 L61.9213408,40.6763176 A0.3175,0.3175 225 0,1 62.3703536,41.1253304 L60.1076119,43.3880721z" transform="matrix(1,0,0,-1,0.0929936,43.4810657)" stroke="rgb(100,100,100)" stroke-width="0.0010cm" stroke-linecap="round" stroke-linejoin="round" fill="none" /><path d="M62.3703536,38.4135759 A0.3175,0.3175 135 0,1 62.8193664,37.9645631 L65.0821081,40.2273048 A0.3175,0.3175 315 1,1 64.6330953,40.6763176 L62.3703536,38.4135759z" transform="matrix(1,0,0,-1,0.0929936,43.4810657)" stroke="rgb(100,100,100)" stroke-width="0.0010cm" stroke-linecap="round" stroke-linejoin="round" fill="none" /><path d="M65.5311209,43.3880721 A0.3175,0.3175 45 0,1 65.0821081,42.9390593 L67.3448498,40.6763176 A0.3175,0.3175 225 1,1 67.7938626,41.1253304 L65.5311209,43.3880721z" transform="matrix(1,0,0,-1,0.0929936,43.4810657)" stroke="rgb(100,100,100)" stroke-width="0.0010cm" stroke-linecap="round" stroke-linejoin="round" fill="none" /><path d="M67.7938626,38.4135759 A0.3175,0.3175 135 0,1 68.2428755,37.9645631 L70.5056172,40.2273048 A0.3175,0.3175 315 1,1 70.0566043,40.6763176 L67.7938626,38.4135759z" transform="matrix(1,0,0,-1,0.0929936,43.4810657)" stroke="rgb(100,100,100)" stroke-width="0.0010cm" stroke-linecap="round" stroke-linejoin="round" fill="none" /><path d="M70.95463,43.3880721 A0.3175,0.3175 45 0,1 70.5056172,42.9390593 L72.7683589,40.6763176 A0.3175,0.3175 225 1,1 73.2173717,41.1253304 L70.95463,43.3880721z" transform="matrix(1,0,0,-1,0.0929936,43.4810657)" stroke="rgb(100,100,100)" stroke-width="0.0010cm" stroke-linecap="round" stroke-linejoin="round" fill="none" /><path d="M73.2173717,38.4135759 A0.3175,0.3175 135 0,1 73.6663845,37.9645631 L75.9291262,40.2273048 A0.3175,0.3175 315 1,1 75.4801134,40.6763176 L73.2173717,38.4135759z" transform="matrix(1,0,0,-1,0.0929936,43.4810657)" stroke="rgb(100,100,100)" stroke-width="0.0010cm" stroke-linecap="round" stroke-linejoin="round" fill="none" /><path d="M76.378139,43.3880721 A0.3175,0.3175 45 1,1 75.9291262,42.9390593 L78.1918679,40.6763176 A0.3175,0.3175 225 0,1 78.6408807,41.1253304 L76.378139,43.3880721z" transform="matrix(1,0,0,-1,0.0929936,43.4810657)" stroke="rgb(100,100,100)" stroke-width="0.0010cm" stroke-linecap="round" stroke-linejoin="round" fill="none" /><path d="M78.6408807,38.4135759 A0.3175,0.3175 135 0,1 79.0898935,37.9645631 L81.3526352,40.2273048 A0.3175,0.3175 315 1,1 80.9036224,40.6763176 L78.6408807,38.4135759z" transform="matrix(1,0,0,-1,0.0929936,43.4810657)" stroke="rgb(100,100,100)" stroke-width="0.0010cm" stroke-linecap="round" stroke-linejoin="round" fill="none" /><path d="M81.801648,43.3880721 A0.3175,0.3175 45 1,1 81.3526352,42.9390593 L83.6153769,40.6763176 A0.3175,0.3175 225 0,1 84.0643897,41.1253304 L81.801648,43.3880721z" transform="matrix(1,0,0,-1,0.0929936,43.4810657)" stroke="rgb(100,100,100)" stroke-width="0.0010cm" stroke-linecap="round" stroke-linejoin="round" fill="none" /><path d="M84.0643897,38.4135759 A0.3175,0.3175 135 0,1 84.5134025,37.9645631 L86.7761442,40.2273048 A0.3175,0.3175 315 1,1 86.3271314,40.6763176 L84.0643897,38.4135759z" transform="matrix(1,0,0,-1,0.0929936,43.4810657)" stroke="rgb(100,100,100)" stroke-width="0.0010cm" stroke-linecap="round" stroke-linejoin="round" fill="none" /></svg>