<?xml version="1.0" encoding="utf-8"?>
<!-- Generator: Fusion 360, Shaper Origin Export Add-In, Version 1.7.0  -->
<svg xmlns="http://www.w3.org/2000/svg" xmlns:xlink="http://www.w3.org/1999/xlink" xmlns:shaper="http://www.shapertools.com/namespaces/shaper" shaper:fusionaddin="version:1.7.0" width="7cm" height="7cm" version="1.1" x="0cm" y="0cm" viewBox="0 0 7 7" enable-background="new 0 0 7 7" xml:space="preserve"><path d="M-3.5,0 a3.5,3.5 0 1,1 7,0 a3.5,3.5 0 1,1 -7,0z" transform="matrix(1,0,0,-1,3.5,3.5)" fill="rgb(0,0,0)" shaper:cutDepth="2.1cm" stroke-linecap="round" stroke-linejoin="round" /><path d="M-0.8,0 a0.8,0.8 0 1,1 1.6,0 a0.8,0.8 0 1,1 -1.6,0z" transform="matrix(1,0,0,-1,3.5,3.5)" fill="rgb(176,176,176)" fill-rule="nonzero" shaper:cutDepth="1.6cm" stroke-linecap="round" stroke-linejoin="round" /><path d="M-3,0 a3,3 0 1,0 6,0 a3,3 0 1,0 -6,0z" transform="matrix(1,0,0,-1,3.5,3.5)" fill="rgb(123,123,123)" fill-rule="nonzero" shaper:cutDepth="0.5cm" stroke-linecap="round" stroke-linejoin="round" /></svg>