<?xml version="1.0" encoding="UTF-8"?>
<svg id="Layer_1" data-name="Layer 1" xmlns="http://www.w3.org/2000/svg" width="328.914" height="897.809" viewBox="0 0 328.914 897.809">
  <path d="m324.983,450.507c-3.822-1.623-7.674-.479-11.347-.026-3.462.428-5.989-.394-8.336-2.526-.632-.575-1.218-1.631-1.181-2.436.107-2.318.365-4.629.618-6.94.025-.225.091-.443.191-.645,1.104-2.224,1.814-4.758-2.987-13.311-.044-.078-.084-.161-.116-.244-.372-.958-.713-1.931-1.133-2.869-2.026-4.533-3.734-9.191-8.145-12.265-1.368-.953-2.299-3.119-2.592-4.87-.3-1.791.429-3.755.708-5.643.593-4.013.764-8.071,2.78-11.763,1.642-3.008.653-6.798-2.171-8.739-1.699-1.167-2.484-2.694-2.547-4.89-.05-1.752-.734-3.102-2.609-3.857-2.527-1.017-4.458-2.806-5.825-5.276-.543-.982-1.683-1.727-2.695-2.341-4.386-2.664-9.619-4.277-11.791-9.633-.891-2.197-1.757-4.407-2.525-6.649-1.891-5.523-.764-9.145,3.788-12.722,2.39-1.878,4.978-3.56,5.391-7.05.427-3.614,2.3-6.604,4.575-9.37.63-.766,1.173-1.621,1.639-2.497.271-.51.551-1.206.417-1.71-1.219-4.603-1.634-9.528-6.032-12.725-3.705-2.694-6.61-6.133-7.755-10.75-.18-.726-.438-1.513-.325-2.219.946-5.942,4.08-10.567,9.207-13.542,4.895-2.84,10.098-5.145,15.109-7.792,1.078-.569,2.34-1.41,2.785-2.441,1.217-2.822,3.145-4.795,5.708-6.375,1.812-1.117,4.256-2.187,4.972-3.888,1.256-2.982,2.689-6.393-.108-9.639-2.789-3.237-.832-5.261,2.609-6.175,2.589-.688,5.294-1.021,7.795-1.931,1.862-.678,4.237-1.625,5.05-3.16,1.733-3.271,2.934-6.932,3.69-10.57.432-2.075.081-4.684-.869-6.574-.982-1.955-2.966-3.529-4.788-4.902-1.6-1.205-3.506-2.131-5.414-2.775-4.084-1.379-8.004.268-11.963,1.029-.733.141-1.565.354-2.23.145-1.051-.331-2.556-2.365-3.502-4.291-.079-.161-.129-.337-.159-.514-.155-.915-.392-1.723-.723-2.404-5.973-12.29-12.941-6.245-36.181-18.35-11.324-5.899-18.805-14.391-23.506-21.552-.075-.115-.137-.235-.186-.363-.291-.751-.579-1.503-.874-2.251-.255-.647-.521-1.157-.965-1.405-.341-.191-.663-.427-.85-.771-2.813-5.154-3.94-8.806-3.94-8.806l-.086-.709c-.254-3.195,1.547-5.345,3.814-7.405.549-.499.682-1.739.599-2.598-.185-1.891-1.328-3.148-3.091-3.933-.31-.138-.607-.308-.896-.493-.99-.636-1.182-2.006-.394-2.881,1.014-1.125,1.934-1.614,3.304-1.745,1.219-.117,1.995-1.417,1.527-2.549-1.263-3.057-3.385-5.607-5.453-8.219-4.17-5.269-3.103-12.06,2.65-15.136,1.571-.84,3.541-.935,5.47-1.105,1.135-.1,1.987-1.213,1.658-2.303-.002-.007-.004-.013-.006-.02-.637-2.044-1.372-4.057-2.073-6.082-.03-.088-.07-.174-.115-.255-1.256-2.248-1.562-4.572-1.058-7.17.477-2.458.471-5.012.637-7.527.133-2.022-1.053-3.114-2.827-3.619-.946-.269-1.908-.476-2.871-.684-4.057-.876-6.644-4.65-6.389-8.793.11-1.793-.539-3.152-2.043-4.522-3.149-2.868-3.76-6.848-2.007-10.68.17-.372.331-.983.15-1.245-1.341-1.943-2.008-4.55-5.016-4.858-41.112-5.809-70.193-21.505-81.757-29.721-.06-.043-.115-.087-.17-.136-.212-.189-.425-.375-.636-.566-.094-.084-.195-.16-.304-.223-.217-.127-.434-.253-.651-.38-.055-.032-.107-.067-.157-.105C117.892,4.307,100.538.894,98.771.561c-.096-.018-.191-.029-.288-.032-3.842-.13-7.684-.26-11.526-.39-.507-.044-1.015-.087-1.522-.132-.169-.015-.339-.007-.506.024-3.616.667-7.233,1.334-10.85,2.002l.003-.005c-.229.115-.458.23-.687.344-.154.077-.297.175-.424.291l-.526.478c-.118.107-.249.199-.391.274-1.076.566-2.151,1.132-3.227,1.699l-.556.41c-.217.217-.433.434-.649.651h.008c-.081.128-.135.29-.248.376-3.389,2.589-5.9,5.809-7.363,9.785-.195.53-.119,1.123.172,1.608.325.541.65,1.082,1.016,1.594.889,1.242,1.834,2.443,2.756,3.662,6.273,9.149,12.456,18.362,18.876,27.406,1.758,2.477,2.214,5.172,2.663,7.941.711,4.393,1.33,8.803,1.866,13.221.183,1.506-.145,3.028-.903,4.341-1.203,2.086-2.532,4.104-3.892,6.093-.498.729-1.221,1.447-2.007,1.809-2.608,1.199-3.828,3.397-4.674,5.937-.809,2.428-2.213,4.17-4.673,5.313-5.835,2.713-11.61,5.576-17.272,8.633-4.241,2.29-6.677,6.372-8.281,10.666-1.701,4.554-2.376,9.484-3.955,14.094-.124.362-.256.721-.394,1.079-.1.261-.14.538-.118.816.049.61.076,1.226.076,1.85,0,3.188-.648,6.197-1.776,8.901-.052.126-.091.26-.113.394-.393,2.397-.755,4.434-1.03,6.468-.617,4.555-.809,9.123,2.156,13.012,1.898,2.49,4.283,4.604,6.248,7.049.782.973,1.473,2.401,1.425,3.591-.099,2.453-.344,4.9-.679,7.38-.213,1.579-2.178,2.234-3.248,1.053-.624-.689-1.339-1.272-2.282-1.605-.782-.276-1.675.014-2.145.698-.894,1.301-1.358,2.792-1.708,4.374-.298,1.349-1.949,1.946-3.005,1.055-.718-.606-1.549-1.082-2.416-1.507-1.108-.543-3.016-.752-4.215-.457-6.759,1.663-12.232,5.64-17.319,10.216-.653.587-.995,1.715-1.132,2.643-.382,2.6-.802,5.137-2.668,7.178-2.179,2.384-1.881,5.332-2.001,8.26-.126,3.078.109,5.817,3.066,7.568.244.144.569.468.553.686-.22,3.004.475,6.38-1.772,8.762-3.365,3.567-5.095,7.461-4.67,12.434.263,3.069.02,6.178.089,9.268.028,1.246.932,2.834,1.918,3.595,2.755,2.126,3.529,5.37,3.412,8.343-.268,6.828-2.511,13.296-4.755,19.771-1.585,4.573-1.824,9.596-2.949,14.35-.746,3.151.186,6.225,1.801,8.258,2.292,2.884,5.511,5.366,9.526,5.832.755.087,1.74-.778,2.435-1.407,2.013-1.822,3.284-1.493,4.083,1.142,1.467,4.841,1.916,9.707.791,14.711-.433,1.925-.349,3.96-.638,5.925-.15,1.018-.595,1.993-.909,2.988-.154.232-.308.464-.462.696,0,0,.01-.034.01-.034-1.604,5.219-4.631,9.59-7.944,13.85-1.507,1.939-1.917,4.161-.957,6.845,2.342,6.546,7.809,9.292,13.432,11.98,1.171.56,2.43.931,3.635,1.424,2.349.961,4.886.631,5.896-1.599,2.47-5.454,7.592-8.064,11.679-11.789,2.039-1.859,4.141-3.669,6.009-5.69,2.177-2.355,4.283-.313,6.405-.148,1.586.124,1.255,1.562,1.635,2.603,1.938,5.319-1.277,9.569-2.86,14.116-.02.059-.044.114-.072.17-.655,1.3-1.283,2.676-1.878,4.078-.02.047-.042.094-.066.139-.538,1.007-1.099,2.033-1.644,3.127.137.01.252.023.382.034-2.116,5.533-3.653,10.864-4.24,12.994-.113.29-.201.613-.264.977-.156.904-.499,1.833-.394,2.708.102.855.441,1.963,1.069,2.423,2.033,1.491,4.148,2.942,6.413,4.031,4.099,1.973,5.343,5.719,5.595,9.585.336,5.15-.172,10.353-.241,15.534-.018,1.366.403,2.742.345,4.102-.238,5.661-.523,11.323-.968,16.97-.049.626-1.153,1.506-1.898,1.667-1.324.287-2.757.219-4.129.107-1.562-.128-2.398.51-2.927,1.938-2.64,7.14-3.211,14.279-.263,21.492.297.726.347,1.624.274,2.42-.464,5.073-.506,9.94,3.937,13.654,3.302,2.76,4.205,8.561,1.663,12.085-.223.309-.309.81-.597.965-2.945,1.583-5.918,3.112-8.883,4.657l.003-.015c-.158.178-.317.355-.475.534-2.774,1.739-5.458,3.649-8.346,5.169-3.533,1.86-7.252,3.366-10.883,5.041l-.851.655c-2.531,3.048-5.055,6.101-7.602,9.136-.34.405-.742.861-1.211,1.039-3.445,1.306-3.559,4.242-3.872,7.27-.408,3.938-.774,7.951-1.867,11.727-.894,3.091-2.892,5.852-4.259,8.824-.468,1.018-.781,2.255-.695,3.355.553,7.038,4.023,12.708,8.538,17.896,2.262,2.599,4.158,5.538,6.552,7.999,7.267,7.469,11.61,17.148,18.812,24.646.851.886,1.586,1.953,2.588,2.609,2.694,1.762,3.49,4.459,3.961,7.351.994,6.104,2.836,11.902,5.856,17.332,3.802,6.837,7.219,13.907,11.337,20.543,2.768,4.46,6.438,8.365,9.754,12.478,2.404,2.981,4.939,5.858,7.302,8.871.514.655.896,1.759.743,2.539-1.083,5.506-.062,10.867,1.156,16.157.522,2.268-.102,2.973-2.131,3.43-5.249,1.183-9.628,4.372-13.378,7.782-3.309,3.01-6.049,6.992-7.406,11.678-1.349,4.66-2.561,9.263-2.115,14.155.004.044.006.088.006.132-.001.357-.002.714-.003,1.071,0,.13.014.259.041.387.25,1.172.365,2.403.838,3.476.813,1.844,1.78,3.62,2.72,5.408.345.656,1.037,1.056,1.777,1.014,1.705-.097,3.41-.205,5.117-.232.988-.016,1.967.201,2.874.595,7.61,3.302,15.186,6.678,22.025,11.468.245.172.426.435.637.656.191.075.382.149.573.224,5.54,4.741,1.656,13.206,1.656,13.206-1.238,2.537-2.165,5.296-3.778,7.566-3.34,4.697-4.546,9.946-4.993,15.513-.103,1.29-.061,2.744-.646,3.816-2.132,3.898-.983,7.561.408,11.261,2.05,5.452,5.517,9.715,10.143,13.311,2.472,1.922,4.219,4.806,6.187,7.338,1.598,2.056,3.083,4.204,4.519,6.377.125.19.213.404.281.632l2.296,1.693c2.73-.145,5.448-.268,7.792,1.677,4.57,3.792,5.367,9.175,2.016,14.13-1.711,2.531-3.56,4.97-5.213,7.538-.686,1.066-1.02,2.359-1.515,3.547-.001.194-.002.388-.003.583-.081,5.24.02,10.492-.319,15.716-.171,2.628-1.187,5.196-1.723,7.81-.16.781-.275,1.791.079,2.421,1.876,3.339,3.917,6.609,7.401,8.532.814.449,1.91.363,2.858.596.692.17,1.37.396,2.049.616.399.129.831.117,1.225-.027,4.334-1.59,8.673-3.17,12.993-4.797.348-.131.56-.624.835-.948.373-.631.643-1.702,1.138-1.819,2.421-.573,4.891-.98,7.364-1.282,1.043-.127,2.064-.193,3.059-.18.972.012,1.8-.679,1.925-1.643.026-.201.055-.401.085-.601-.023.003-.043.008-.066.011.426-6.334.108-12.609,4.4-17.733.538-.642,1.479-1.034,2.309-1.329,7.616-2.709,15.163-5.707,21.433-10.874,3.118-2.57,5.189-6.372,7.974-9.394,3.321-3.604,3.995-7.981,4.223-12.536.364-7.266.767-14.535.889-21.808.054-3.192-.623-6.389-.821-9.593-.175-2.826,2.888-6.547,5.649-7.115,3.073-.633,6.167-1.189,9.202-1.974,1.526-.394,2.984-1.135,4.395-1.87,3.566-1.856,8.658-1.312,11.644,1.434,1.618,1.488,3.436,2.631,3.446,5.517.005,1.324,2.414,2.715,3.849,3.939,1.674,1.427,3.5,2.677,5.18,4.095.996.841,1.687,1.974,2.124,3.202,1.724,4.841,5.396,8.083,9.341,10.993,3.024,2.231,6.584,2.063,9.876.601,5.958-2.646,11.87-5.415,17.66-8.407,2.127-1.099,3.874-2.951,5.756-4.505,1.239-1.023,2.383-2.162,3.62-3.189,2.605-2.165,3.937-7.089,2.095-9.922-2.801-4.309-1.131-8.778-1.175-13.205-.008-.827-.376-1.771-.867-2.451-1.794-2.484-4.673-2.978-7.273-4.19-4.52-2.108-8.414-5.364-11.729-9.363-5.491-6.625-8.946-14.441-13.485-21.614-1.143-1.807-2.312-3.657-3.783-5.185-2.435-2.53-2.041-5.29-1.041-8.044.059-.162.143-.319.243-.46,6.124-8.623,10.243-15.044,12.073-17.967.404-.451.768-1.016,1.085-1.757,3.349-7.845,5.161-16.045,6.169-24.407.789-6.547,3.912-11.679,7.706-16.829,3.016-4.094,4.813-8.844,4.176-14.364-1.197-10.366-1.335-20.667,4.313-30.13,4.012-6.721,5.911-14.298,8.362-21.639,1.082-3.242,4.167-4.549,6.284-6.783.16-.169,1.367.359,1.829.821,1.965,1.964,2.857,4.458,3.395,7.149.241,1.205.6,3.058,1.381,3.352,1.994.75,4.264,1.079,6.407,1.017,1.529-.044,3.047-.96,4.541-1.558.622-.249,1.456-.546,1.703-1.058.476-.988,1.119-1.756,1.859-2.398,1.309-3.495,2.947-7.87,4.255-11.365-.201-1.931-.385-3.865-.68-5.782-.732-4.752-2.13-9.481-2.194-14.234-.067-4.98,1.136-9.974,1.735-14.968.819-6.825.223-13.427-3.237-19.549-.944-1.669-2.15-3.253-2.744-5.04-.624-1.874-1.309-4.12-.834-5.9,1.86-6.962,4.428-13.676,8.506-19.73,1.578-2.343.927-4.994-1.51-6.497-2.302-1.419-4.185-3.027-4.695-5.866-.159-.888-.754-1.69-.975-2.574-.983-3.939-1.336-7.81,1.133-11.447,1.962-2.896,3.564-5.384,4.885-7.538.405-.635.81-1.271,1.239-1.936-.023-.004-.043-.008-.066-.012,3.811-6.473,4.612-9.316,4.654-10.551.018-.542.322-1.01.767-1.319.257-.178.462-.394.518-.596.348-1.236.462-2.559.516-3.853.135-3.195-.925-4.365-3.919-5.637Z" style="fill: #90d9ed; stroke-width: 0px;"/>
</svg>