<?xml version="1.0" encoding="utf-8"?>
<!-- Generator: Adobe Illustrator 28.0.0, SVG Export Plug-In . SVG Version: 6.00 Build 0)  -->
<svg version="1.1" id="Layer_1" xmlns="http://www.w3.org/2000/svg" xmlns:xlink="http://www.w3.org/1999/xlink" x="0px" y="0px"
	 viewBox="0 0 328.9 897.8" style="enable-background:new 0 0 328.9 897.8;" xml:space="preserve">
<style type="text/css">
	.st0{fill:#90D9ED;}
</style>
<path class="st0" d="M325,450.5c-3.8-1.6-7.7-0.5-11.3,0c-3.5,0.4-6-0.4-8.3-2.5c-0.6-0.6-1.2-1.6-1.2-2.4c0.1-2.3,0.4-4.6,0.6-6.9
	c0-0.2,0.1-0.4,0.2-0.6c1.1-2.2,1.8-4.8-3-13.3c0-0.1-0.1-0.2-0.1-0.2c-0.4-1-0.7-1.9-1.1-2.9c-2-4.5-3.7-9.2-8.1-12.3
	c-1.4-1-2.3-3.1-2.6-4.9c-0.3-1.8,0.4-3.8,0.7-5.6c0.6-4,0.8-8.1,2.8-11.8c1.6-3,0.7-6.8-2.2-8.7c-1.7-1.2-2.5-2.7-2.5-4.9
	c0-1.8-0.7-3.1-2.6-3.9c-2.5-1-4.5-2.8-5.8-5.3c-0.5-1-1.7-1.7-2.7-2.3c-4.4-2.7-9.6-4.3-11.8-9.6c-0.9-2.2-1.8-4.4-2.5-6.6
	c-1.9-5.5-0.8-9.1,3.8-12.7c2.4-1.9,5-3.6,5.4-7c0.4-3.6,2.3-6.6,4.6-9.4c0.6-0.8,1.2-1.6,1.6-2.5c0.3-0.5,0.6-1.2,0.4-1.7
	c-1.2-4.6-1.6-9.5-6-12.7c-3.7-2.7-6.6-6.1-7.8-10.8c-0.2-0.7-0.4-1.5-0.3-2.2c0.9-5.9,4.1-10.6,9.2-13.5c4.9-2.8,10.1-5.1,15.1-7.8
	c1.1-0.6,2.3-1.4,2.8-2.4c1.2-2.8,3.1-4.8,5.7-6.4c1.8-1.1,4.3-2.2,5-3.9c1.3-3,2.7-6.4-0.1-9.6c-2.8-3.2-0.8-5.3,2.6-6.2
	c2.6-0.7,5.3-1,7.8-1.9c1.9-0.7,4.2-1.6,5-3.2c1.7-3.3,2.9-6.9,3.7-10.6c0.4-2.1,0.1-4.7-0.9-6.6c-1-2-3-3.5-4.8-4.9
	c-1.6-1.2-3.5-2.1-5.4-2.8c-4.1-1.4-8,0.3-12,1c-0.7,0.1-1.6,0.4-2.2,0.1c-1.1-0.3-2.6-2.4-3.5-4.3c-0.1-0.2-0.1-0.3-0.2-0.5
	c-0.2-0.9-0.4-1.7-0.7-2.4c-6-12.3-12.9-6.2-36.2-18.4c-11.3-5.9-18.8-14.4-23.5-21.6c-0.1-0.1-0.1-0.2-0.2-0.4
	c-0.3-0.8-0.6-1.5-0.9-2.3c-0.3-0.6-0.5-1.2-1-1.4c-0.3-0.2-0.7-0.4-0.9-0.8c-2.8-5.2-3.9-8.8-3.9-8.8l-0.1-0.7
	c-0.3-3.2,1.5-5.3,3.8-7.4c0.5-0.5,0.7-1.7,0.6-2.6c-0.2-1.9-1.3-3.1-3.1-3.9c-0.3-0.1-0.6-0.3-0.9-0.5c-1-0.6-1.2-2-0.4-2.9
	c1-1.1,1.9-1.6,3.3-1.7c1.2-0.1,2-1.4,1.5-2.5c-1.3-3.1-3.4-5.6-5.5-8.2c-4.2-5.3-3.1-12.1,2.6-15.1c1.6-0.8,3.5-0.9,5.5-1.1
	c1.1-0.1,2-1.2,1.7-2.3c0,0,0,0,0,0c-0.6-2-1.4-4.1-2.1-6.1c0-0.1-0.1-0.2-0.1-0.3c-1.3-2.2-1.6-4.6-1.1-7.2c0.5-2.5,0.5-5,0.6-7.5
	c0.1-2-1.1-3.1-2.8-3.6c-0.9-0.3-1.9-0.5-2.9-0.7c-4.1-0.9-6.6-4.7-6.4-8.8c0.1-1.8-0.5-3.2-2-4.5c-3.1-2.9-3.8-6.8-2-10.7
	c0.2-0.4,0.3-1,0.1-1.2c-1.3-1.9-2-4.5-5-4.9C170,36.9,140.9,21.2,129.4,13c-0.1,0-0.1-0.1-0.2-0.1c-0.2-0.2-0.4-0.4-0.6-0.6
	c-0.1-0.1-0.2-0.2-0.3-0.2c-0.2-0.1-0.4-0.3-0.7-0.4c-0.1,0-0.1-0.1-0.2-0.1c-9.6-7.3-26.9-10.7-28.7-11c-0.1,0-0.2,0-0.3,0
	C94.6,0.4,90.8,0.3,87,0.1c-0.5,0-1-0.1-1.5-0.1c-0.2,0-0.3,0-0.5,0c-3.6,0.7-7.2,1.3-10.8,2l0,0c-0.2,0.1-0.5,0.2-0.7,0.3
	c-0.2,0.1-0.3,0.2-0.4,0.3l-0.5,0.5c-0.1,0.1-0.2,0.2-0.4,0.3C71,4,69.9,4.5,68.8,5.1l-0.6,0.4c-0.2,0.2-0.4,0.4-0.6,0.7h0
	c-0.1,0.1-0.1,0.3-0.2,0.4c-3.4,2.6-5.9,5.8-7.4,9.8c-0.2,0.5-0.1,1.1,0.2,1.6c0.3,0.5,0.7,1.1,1,1.6c0.9,1.2,1.8,2.4,2.8,3.7
	c6.3,9.1,12.5,18.4,18.9,27.4c1.8,2.5,2.2,5.2,2.7,7.9c0.7,4.4,1.3,8.8,1.9,13.2c0.2,1.5-0.1,3-0.9,4.3c-1.2,2.1-2.5,4.1-3.9,6.1
	c-0.5,0.7-1.2,1.4-2,1.8c-2.6,1.2-3.8,3.4-4.7,5.9c-0.8,2.4-2.2,4.2-4.7,5.3c-5.8,2.7-11.6,5.6-17.3,8.6c-4.2,2.3-6.7,6.4-8.3,10.7
	c-1.7,4.6-2.4,9.5-4,14.1c-0.1,0.4-0.3,0.7-0.4,1.1c-0.1,0.3-0.1,0.5-0.1,0.8c0,0.6,0.1,1.2,0.1,1.9c0,3.2-0.6,6.2-1.8,8.9
	c-0.1,0.1-0.1,0.3-0.1,0.4c-0.4,2.4-0.8,4.4-1,6.5c-0.6,4.6-0.8,9.1,2.2,13c1.9,2.5,4.3,4.6,6.2,7c0.8,1,1.5,2.4,1.4,3.6
	c-0.1,2.5-0.3,4.9-0.7,7.4c-0.2,1.6-2.2,2.2-3.2,1.1c-0.6-0.7-1.3-1.3-2.3-1.6c-0.8-0.3-1.7,0-2.1,0.7c-0.9,1.3-1.4,2.8-1.7,4.4
	c-0.3,1.3-1.9,1.9-3,1.1c-0.7-0.6-1.5-1.1-2.4-1.5c-1.1-0.5-3-0.8-4.2-0.5c-6.8,1.7-12.2,5.6-17.3,10.2c-0.7,0.6-1,1.7-1.1,2.6
	c-0.4,2.6-0.8,5.1-2.7,7.2c-2.2,2.4-1.9,5.3-2,8.3c-0.1,3.1,0.1,5.8,3.1,7.6c0.2,0.1,0.6,0.5,0.6,0.7c-0.2,3,0.5,6.4-1.8,8.8
	c-3.4,3.6-5.1,7.5-4.7,12.4c0.3,3.1,0,6.2,0.1,9.3c0,1.2,0.9,2.8,1.9,3.6c2.8,2.1,3.5,5.4,3.4,8.3c-0.3,6.8-2.5,13.3-4.8,19.8
	c-1.6,4.6-1.8,9.6-2.9,14.4c-0.7,3.2,0.2,6.2,1.8,8.3c2.3,2.9,5.5,5.4,9.5,5.8c0.8,0.1,1.7-0.8,2.4-1.4c2-1.8,3.3-1.5,4.1,1.1
	c1.5,4.8,1.9,9.7,0.8,14.7c-0.4,1.9-0.3,4-0.6,5.9c-0.1,1-0.6,2-0.9,3c-0.2,0.2-0.3,0.5-0.5,0.7l0,0c-1.6,5.2-4.6,9.6-7.9,13.9
	c-1.5,1.9-1.9,4.2-1,6.8c2.3,6.5,7.8,9.3,13.4,12c1.2,0.6,2.4,0.9,3.6,1.4c2.3,1,4.9,0.6,5.9-1.6c2.5-5.5,7.6-8.1,11.7-11.8
	c2-1.9,4.1-3.7,6-5.7c2.2-2.4,4.3-0.3,6.4-0.1c1.6,0.1,1.3,1.6,1.6,2.6c1.9,5.3-1.3,9.6-2.9,14.1c0,0.1,0,0.1-0.1,0.2
	c-0.7,1.3-1.3,2.7-1.9,4.1c0,0,0,0.1-0.1,0.1c-0.5,1-1.1,2-1.6,3.1c0.1,0,0.3,0,0.4,0c-2.1,5.5-3.7,10.9-4.2,13
	c-0.1,0.3-0.2,0.6-0.3,1c-0.2,0.9-0.5,1.8-0.4,2.7c0.1,0.9,0.4,2,1.1,2.4c2,1.5,4.1,2.9,6.4,4c4.1,2,5.3,5.7,5.6,9.6
	c0.3,5.1-0.2,10.4-0.2,15.5c0,1.4,0.4,2.7,0.3,4.1c-0.2,5.7-0.5,11.3-1,17c0,0.6-1.2,1.5-1.9,1.7c-1.3,0.3-2.8,0.2-4.1,0.1
	c-1.6-0.1-2.4,0.5-2.9,1.9c-2.6,7.1-3.2,14.3-0.3,21.5c0.3,0.7,0.3,1.6,0.3,2.4c-0.5,5.1-0.5,9.9,3.9,13.7c3.3,2.8,4.2,8.6,1.7,12.1
	c-0.2,0.3-0.3,0.8-0.6,1c-2.9,1.6-5.9,3.1-8.9,4.7l0,0c-0.2,0.2-0.3,0.4-0.5,0.5c-2.8,1.7-5.5,3.6-8.3,5.2c-3.5,1.9-7.3,3.4-10.9,5
	l-0.9,0.7c-2.5,3-5.1,6.1-7.6,9.1c-0.3,0.4-0.7,0.9-1.2,1c-3.4,1.3-3.6,4.2-3.9,7.3c-0.4,3.9-0.8,8-1.9,11.7
	c-0.9,3.1-2.9,5.9-4.3,8.8c-0.5,1-0.8,2.3-0.7,3.4c0.6,7,4,12.7,8.5,17.9c2.3,2.6,4.2,5.5,6.6,8c7.3,7.5,11.6,17.1,18.8,24.6
	c0.9,0.9,1.6,2,2.6,2.6c2.7,1.8,3.5,4.5,4,7.4c1,6.1,2.8,11.9,5.9,17.3c3.8,6.8,7.2,13.9,11.3,20.5c2.8,4.5,6.4,8.4,9.8,12.5
	c2.4,3,4.9,5.9,7.3,8.9c0.5,0.7,0.9,1.8,0.7,2.5c-1.1,5.5-0.1,10.9,1.2,16.2c0.5,2.3-0.1,3-2.1,3.4c-5.2,1.2-9.6,4.4-13.4,7.8
	c-3.3,3-6,7-7.4,11.7c-1.3,4.7-2.6,9.3-2.1,14.2c0,0,0,0.1,0,0.1c0,0.4,0,0.7,0,1.1c0,0.1,0,0.3,0,0.4c0.2,1.2,0.4,2.4,0.8,3.5
	c0.8,1.8,1.8,3.6,2.7,5.4c0.3,0.7,1,1.1,1.8,1c1.7-0.1,3.4-0.2,5.1-0.2c1,0,2,0.2,2.9,0.6c7.6,3.3,15.2,6.7,22,11.5
	c0.2,0.2,0.4,0.4,0.6,0.7c0.2,0.1,0.4,0.1,0.6,0.2c5.5,4.7,1.7,13.2,1.7,13.2c-1.2,2.5-2.2,5.3-3.8,7.6c-3.3,4.7-4.5,9.9-5,15.5
	c-0.1,1.3-0.1,2.7-0.6,3.8c-2.1,3.9-1,7.6,0.4,11.3c2.1,5.5,5.5,9.7,10.1,13.3c2.5,1.9,4.2,4.8,6.2,7.3c1.6,2.1,3.1,4.2,4.5,6.4
	c0.1,0.2,0.2,0.4,0.3,0.6l2.3,1.7c2.7-0.1,5.4-0.3,7.8,1.7c4.6,3.8,5.4,9.2,2,14.1c-1.7,2.5-3.6,5-5.2,7.5c-0.7,1.1-1,2.4-1.5,3.5
	c0,0.2,0,0.4,0,0.6c-0.1,5.2,0,10.5-0.3,15.7c-0.2,2.6-1.2,5.2-1.7,7.8c-0.2,0.8-0.3,1.8,0.1,2.4c1.9,3.3,3.9,6.6,7.4,8.5
	c0.8,0.4,1.9,0.4,2.9,0.6c0.7,0.2,1.4,0.4,2,0.6c0.4,0.1,0.8,0.1,1.2,0c4.3-1.6,8.7-3.2,13-4.8c0.3-0.1,0.6-0.6,0.8-0.9
	c0.4-0.6,0.6-1.7,1.1-1.8c2.4-0.6,4.9-1,7.4-1.3c1-0.1,2.1-0.2,3.1-0.2c1,0,1.8-0.7,1.9-1.6c0-0.2,0.1-0.4,0.1-0.6c0,0,0,0-0.1,0
	c0.4-6.3,0.1-12.6,4.4-17.7c0.5-0.6,1.5-1,2.3-1.3c7.6-2.7,15.2-5.7,21.4-10.9c3.1-2.6,5.2-6.4,8-9.4c3.3-3.6,4-8,4.2-12.5
	c0.4-7.3,0.8-14.5,0.9-21.8c0.1-3.2-0.6-6.4-0.8-9.6c-0.2-2.8,2.9-6.5,5.6-7.1c3.1-0.6,6.2-1.2,9.2-2c1.5-0.4,3-1.1,4.4-1.9
	c3.6-1.9,8.7-1.3,11.6,1.4c1.6,1.5,3.4,2.6,3.4,5.5c0,1.3,2.4,2.7,3.8,3.9c1.7,1.4,3.5,2.7,5.2,4.1c1,0.8,1.7,2,2.1,3.2
	c1.7,4.8,5.4,8.1,9.3,11c3,2.2,6.6,2.1,9.9,0.6c6-2.6,11.9-5.4,17.7-8.4c2.1-1.1,3.9-3,5.8-4.5c1.2-1,2.4-2.2,3.6-3.2
	c2.6-2.2,3.9-7.1,2.1-9.9c-2.8-4.3-1.1-8.8-1.2-13.2c0-0.8-0.4-1.8-0.9-2.5c-1.8-2.5-4.7-3-7.3-4.2c-4.5-2.1-8.4-5.4-11.7-9.4
	c-5.5-6.6-8.9-14.4-13.5-21.6c-1.1-1.8-2.3-3.7-3.8-5.2c-2.4-2.5-2-5.3-1-8c0.1-0.2,0.1-0.3,0.2-0.5c6.1-8.6,10.2-15,12.1-18
	c0.4-0.5,0.8-1,1.1-1.8c3.3-7.8,5.2-16,6.2-24.4c0.8-6.5,3.9-11.7,7.7-16.8c3-4.1,4.8-8.8,4.2-14.4c-1.2-10.4-1.3-20.7,4.3-30.1
	c4-6.7,5.9-14.3,8.4-21.6c1.1-3.2,4.2-4.5,6.3-6.8c0.2-0.2,1.4,0.4,1.8,0.8c2,2,2.9,4.5,3.4,7.1c0.2,1.2,0.6,3.1,1.4,3.4
	c2,0.8,4.3,1.1,6.4,1c1.5,0,3-1,4.5-1.6c0.6-0.2,1.5-0.5,1.7-1.1c0.5-1,1.1-1.8,1.9-2.4c1.3-3.5,2.9-7.9,4.3-11.4
	c-0.2-1.9-0.4-3.9-0.7-5.8c-0.7-4.8-2.1-9.5-2.2-14.2c-0.1-5,1.1-10,1.7-15c0.8-6.8,0.2-13.4-3.2-19.5c-0.9-1.7-2.1-3.3-2.7-5
	c-0.6-1.9-1.3-4.1-0.8-5.9c1.9-7,4.4-13.7,8.5-19.7c1.6-2.3,0.9-5-1.5-6.5c-2.3-1.4-4.2-3-4.7-5.9c-0.2-0.9-0.8-1.7-1-2.6
	c-1-3.9-1.3-7.8,1.1-11.4c2-2.9,3.6-5.4,4.9-7.5c0.4-0.6,0.8-1.3,1.2-1.9c0,0,0,0-0.1,0c3.8-6.5,4.6-9.3,4.7-10.6
	c0-0.5,0.3-1,0.8-1.3c0.3-0.2,0.5-0.4,0.5-0.6c0.3-1.2,0.5-2.6,0.5-3.9C329,452.9,328,451.8,325,450.5L325,450.5z"/>
</svg>
