<?xml version="1.0" encoding="utf-8"?>
<!-- Generator: Fusion 360, Shaper Origin Export Add-In, Version 1.6.10  -->
<svg xmlns="http://www.w3.org/2000/svg" xmlns:xlink="http://www.w3.org/1999/xlink" xmlns:shaper="http://www.shapertools.com/namespaces/shaper" shaper:fusionaddin="version:1.6.10" width="5.7506024cm" height="3.2651856cm" version="1.1" x="0cm" y="0cm" viewBox="0 0 5.7506024 3.2651856" enable-background="new 0 0 5.7506024 3.2651856" xml:space="preserve"><path d="M-2.1744233,1.308069 L-2.1744233,1.308069 -2.1524576,1.3225822 -2.1289646,1.3380977 -2.103919,1.3544831 -2.0772406,1.3716129 -2.0488491,1.3893614 -2.0186643,1.4076033 -1.9866059,1.426213 -1.9525938,1.4450649 -1.9165475,1.4640335 -1.8784012,1.4829774 -1.8383382,1.5015447 -1.7965564,1.5195199 -1.7532081,1.5367566 -1.7084461,1.5531083 -1.662423,1.5684283 -1.6152963,1.5825691 -1.5676131,1.5953896 -1.5195819,1.6069224 -1.4711429,1.6172239 -1.4222367,1.6263502 -1.3728034,1.6343578 -1.3227835,1.6413029 -1.2721173,1.6472419 -1.2207452,1.6522311 -1.1686075,1.6563269 -1.1156445,1.6595854 -1.0617967,1.6620631 -1.0070041,1.6638162 -0.9511125,1.6648791 -0.8939431,1.6652671 -0.8353783,1.6650045 -0.7753005,1.6641155 0.8206168,1.6641155 0.8206168,1.6641155 0.8494658,1.6633897 0.8772557,1.6627039 0.9040957,1.6620517 0.9300379,1.6614277 0.9551347,1.6608263 0.9794381,1.6602419 1.0030003,1.659669 1.0258736,1.659102 1.0697619,1.6579637 1.1115206,1.6567824 1.1515671,1.6555139 1.1903188,1.6541136 1.2666999,1.6506433 1.3054991,1.6483571 1.3448314,1.6455675 1.3847686,1.6421731 1.4253826,1.6380726 1.4667453,1.6331647 1.5084946,1.6274126 1.5084946,1.6274126 1.5120473,1.6268783 1.51605,1.6262694 1.5240711,1.6250265 1.5401756,1.622438 1.5726239,1.6168353 1.6053725,1.6106374 1.6383989,1.6038108 1.6716807,1.596322 1.7051955,1.5881375 1.7389207,1.579224 1.7728338,1.5695479 1.8069126,1.5590759 1.8411344,1.5477744 1.8754768,1.53561 1.9099173,1.5225492 1.9444336,1.5085587 1.9790031,1.4936049 2.0136033,1.4776544 2.0482119,1.4606737 2.0828063,1.4426294 2.117364,1.423488 2.1518614,1.4032132 2.1861034,1.3818132 2.2199537,1.3593233 2.2533637,1.335756 2.2862847,1.3111236 2.3186679,1.2854383 2.3504647,1.2587125 2.3816262,1.2309585 2.4121039,1.2021885 2.4418489,1.172415 2.4708126,1.1416502 2.4989463,1.1099064 2.5262011,1.0771959 2.5525285,1.0435311 2.5778581,1.0089646 2.6019935,0.973803 2.624913,0.9381374 2.6466272,0.9020127 2.6671469,0.8654735 2.686483,0.8285649 2.704646,0.7913315 2.7216467,0.7538182 2.737496,0.7160698 2.7522045,0.6781311 2.7657829,0.640047 2.7782421,0.6018622 2.789593,0.5636217 2.7998555,0.5254141 2.8090582,0.4872981 2.8172304,0.4492905 2.8244013,0.411408 2.8306,0.3736674 2.8358558,0.3360854 2.8401979,0.2986787 2.8436555,0.2614642 2.8462577,0.2244584 2.8480345,0.1876658 2.8490122,0.15105 2.8492054,0.114612 2.848628,0.078354 2.8472935,0.0422777 2.8452158,0.0063851 2.8424084,-0.0293217 2.8388852,-0.0648409 2.8346598,-0.1001704 2.8297459,-0.1353084 2.7683949,-0.5445283 2.7683949,-0.5445283 2.7600581,-0.5938355 2.7497019,-0.6435696 2.7372461,-0.6936005 2.7226107,-0.7437981 2.7057157,-0.7940322 2.6864811,-0.8441727 2.6759614,-0.8691672 2.6648267,-0.8940895 2.6530671,-0.9189233 2.6406726,-0.9436525 2.6276331,-0.9682606 2.6139387,-0.9927314 2.5995777,-1.0170513 2.5845492,-1.0411773 2.5689198,-1.0649808 2.5527002,-1.0884458 2.5359009,-1.1115564 2.5185326,-1.1342965 2.5006059,-1.1566501 2.4821314,-1.1786013 2.4631197,-1.2001341 2.4435815,-1.2212325 2.4235273,-1.2418804 2.4029679,-1.262062 2.3819137,-1.2817611 2.3603755,-1.3009619 2.3383638,-1.3196482 2.3158893,-1.3378042 2.2929625,-1.3554138 2.2696134,-1.3724529 2.2459385,-1.3888666 2.2219608,-1.4046513 2.1976969,-1.4198077 2.1731634,-1.4343364 2.1483768,-1.4482384 2.1233538,-1.4615142 2.0981108,-1.4741647 2.0726645,-1.4861907 2.0470314,-1.4975928 2.0212281,-1.5083718 1.9952711,-1.5185285 1.969177,-1.5280635 1.9429624,-1.5369778 1.9166692,-1.5452661 1.8903436,-1.5529296 1.8639919,-1.5599785 1.8112518,-1.5722653 1.7585319,-1.5821925 1.7059154,-1.5898263 1.6534853,-1.5952326 1.6013247,-1.5984776 1.5753714,-1.5993102 1.5624311,-1.5995326 1.5559706,-1.5995958 1.5527428,-1.5996155 1.5508091,-1.5996239 1.5508091,-1.5996239 1.5020867,-1.5996717 1.4524502,-1.5997164 1.4019427,-1.5997576 1.3506062,-1.5997951 1.2984826,-1.5998283 1.2456139,-1.599857 1.1920421,-1.5998807 1.1378093,-1.5998991 1.0275281,-1.5999185 0.9151064,-1.5999121 0.8008799,-1.5998771 0.6851845,-1.5998103 0.5683562,-1.5997089 0.4507308,-1.5995698 0.2144323,-1.5991666 -0.0210239,-1.5985769 -0.1375965,-1.5982046 -0.2529509,-1.5977767 -0.3667512,-1.5972903 -0.4786615,-1.5967423 -0.588346,-1.5961298 -0.6422485,-1.5957984 -0.6954687,-1.5954497 -0.7479645,-1.5950834 -0.7996938,-1.5946991 -0.8506148,-1.5942965 -0.9008179,-1.593874 -0.9264725,-1.5936482 -0.952772,-1.5934093 -1.0070788,-1.5928907 -1.0632836,-1.5923143 -1.1209318,-1.591676 -1.2387402,-1.5901987 -1.3568671,-1.5884275 -1.4149136,-1.5874219 -1.4716759,-1.5863311 -1.5266996,-1.5851512 -1.5534173,-1.5845267 -1.5795291,-1.5838791 -1.6299751,-1.5825064 -1.6542881,-1.5817739 -1.6779759,-1.5810058 -1.7010245,-1.5801984 -1.72342,-1.5793481 -1.7451486,-1.5784513 -1.7661914,-1.5775055 -1.806459,-1.5754246 -1.8457554,-1.5728512 -1.8655283,-1.5713152 -1.886055,-1.569518 -1.8972681,-1.5683597 -1.9094962,-1.5669342 -1.9230257,-1.5651708 -1.938143,-1.5629988 -1.938143,-1.5629988 -1.9598542,-1.5596163 -1.9821014,-1.5558612 -2.0048721,-1.5516795 -2.0281541,-1.5470172 -2.0519349,-1.5418205 -2.0762021,-1.5360354 -2.1009434,-1.5296079 -2.1261463,-1.5224841 -2.1517986,-1.51461 -2.1778878,-1.5059317 -2.2044015,-1.4963953 -2.2313274,-1.4859468 -2.258653,-1.4745322 -2.2863661,-1.4620976 -2.3144541,-1.4485891 -2.3429048,-1.4339527 -2.3716692,-1.4181424 -2.4005321,-1.4010794 -2.4293951,-1.3827287 -2.4581574,-1.3630979 -2.4867181,-1.3421941 -2.5149764,-1.3200248 -2.5428314,-1.2965974 -2.5701822,-1.2719191 -2.596928,-1.2459973 -2.6229679,-1.2188393 -2.6482011,-1.1904526 -2.6725258,-1.1608457 -2.6956111,-1.1303838 -2.7172638,-1.0994186 -2.7375076,-1.0680481 -2.7563663,-1.0363702 -2.7738634,-1.0044831 -2.7900226,-0.9724846 -2.8048676,-0.9404729 -2.8184221,-0.9085459 -2.8307097,-0.8768016 -2.8417541,-0.8453381 -2.8515888,-0.8142528 -2.860309,-0.7836924 -2.8679839,-0.7537029 -2.8746767,-0.7242923 -2.8804504,-0.6954686 -2.8853679,-0.6672397 -2.8894923,-0.6396135 -2.8928866,-0.612598 -2.8956139,-0.5862012 -2.8977372,-0.5604309 -2.8993194,-0.5352952 -2.9004237,-0.510802 -2.901107,-0.4868761 -2.901397,-0.463416 -2.900886,-0.4178631 -2.8990692,-0.3740785 -2.8961248,-0.3319963 -2.8922312,-0.2915504 -2.887567,-0.2526751 -2.8823105,-0.2153043 -2.8268173,0.1548427 -2.8268173,0.1548427 -2.8202289,0.1966582 -2.8130028,0.2382984 -2.8051023,0.2797552 -2.7964905,0.3210205 -2.7871309,0.3620862 -2.7769866,0.4029441 -2.7660209,0.4435861 -2.7541971,0.4840041 -2.7414785,0.52419 -2.7278283,0.5641355 -2.7132098,0.6038327 -2.6975863,0.6432733 -2.680921,0.6824492 -2.6631772,0.7213523 -2.6443186,0.7599731 -2.6243363,0.7982268 -2.6031108,0.8361942 -2.5806141,0.8738474 -2.5568633,0.9111052 -2.5318752,0.9478863 -2.5056669,0.9841093 -2.4782551,1.0196932 -2.449657,1.0545565 -2.4199407,1.0885662 -2.3894657,1.121354 -2.3583706,1.1528686 -2.3267427,1.1831175 -2.2946694,1.2121082 -2.2622377,1.2398483 -2.2295352,1.2663452 -2.1966489,1.2916066 -2.1925296,1.2946777 -2.1904694,1.2962061 -2.1887758,1.297459 -2.1839917,1.3009956 -2.1744233,1.308069z" transform="matrix(1,0,0,-1,2.901397,1.6652671)" fill="rgb(0,0,0)" shaper:cutDepth="0.0127" stroke-linecap="round" stroke-linejoin="round" /></svg>