<?xml version="1.0" encoding="utf-8"?>
<!-- Generator: Fusion 360, Shaper Origin Export Add-In, Version 1.6.10  -->
<svg xmlns="http://www.w3.org/2000/svg" xmlns:xlink="http://www.w3.org/1999/xlink" xmlns:shaper="http://www.shapertools.com/namespaces/shaper" shaper:fusionaddin="version:1.6.10" width="5.8591318cm" height="4.0442614cm" version="1.1" x="0cm" y="0cm" viewBox="0 0 5.8591318 4.0442614" enable-background="new 0 0 5.8591318 4.0442614" xml:space="preserve"><path d="M-2.1330744,1.1721588 L-2.1330744,1.1721588 -2.1212478,1.1986814 -2.1084887,1.2247015 -2.0948111,1.2501977 -2.0802292,1.2751489 -2.0647568,1.2995339 -2.0484081,1.3233314 -2.0311971,1.3465201 -2.0131379,1.369079 -1.9942445,1.3909866 -1.9745309,1.4122219 -1.9540213,1.4327535 -1.932794,1.4525015 -1.9108834,1.4714387 -1.8883144,1.4895483 -1.865112,1.5068133 -1.8413011,1.5232169 -1.8169067,1.5387421 -1.7919537,1.5533722 -1.7664671,1.56709 -1.7404717,1.5798789 -1.7139926,1.5917218 -1.687097,1.6025863 -1.6598743,1.6124389 -1.6323503,1.6212743 -1.6045498,1.6290874 -1.5764979,1.6358733 -1.5482196,1.6416269 -1.5197397,1.6463432 -1.4910832,1.6500172 -1.4622751,1.6526439 -1.4333404,1.6542183 -1.4043041,1.6547352 2.1366305,1.6547352 2.1366305,1.6547352 2.1661791,1.6542255 2.1955892,1.6527076 2.2248426,1.6501721 2.2539212,1.6466095 2.2828067,1.6420107 2.3114812,1.6363661 2.3399263,1.6296664 2.368124,1.6219023 2.396056,1.6130643 2.4237043,1.6031432 2.4510498,1.5921298 2.4779526,1.5800681 2.5043065,1.5670063 2.5300917,1.552962 2.5552883,1.537953 2.5798767,1.5219972 2.6038368,1.5051121 2.627149,1.4873155 2.6497934,1.4686253 2.6717502,1.4490591 2.6929975,1.4286367 2.7134632,1.4074318 2.7331079,1.3854971 2.7519164,1.3628632 2.7698735,1.3395606 2.7869638,1.3156198 2.8031721,1.2910716 2.8184832,1.2659464 2.8328818,1.2402747 2.8463527,1.2140872 2.8588806,1.1874145 2.8704432,1.1603043 2.8810179,1.1328125 2.8905934,1.1049718 2.8991585,1.076815 2.9067019,1.0483748 2.9132123,1.0196837 2.9186785,0.9907746 2.9230892,0.96168 2.9264331,0.9324328 2.9286991,0.9030655 2.9298757,0.873611 2.9299529,0.8441576 2.9289283,0.8147795 2.926802,0.7855044 2.9235739,0.7563603 2.9192442,0.7273748 2.9138129,0.6985757 2.90728,0.669991 2.8996456,0.6416483 2.8909097,0.6135754 2.8810724,0.5858003 2.8701483,0.5583835 2.8581901,0.5314489 2.8452156,0.5050172 2.83124,0.4791017 2.8162782,0.4537158 2.8003454,0.4288726 2.7834971,0.4046413 2.7657928,0.3810789 2.7472566,0.3581868 2.7279128,0.335966 2.7077858,0.3144176 2.6868997,0.2935429 0.1407333,-2.1671998 0.1407333,-2.1671998 0.1194792,-2.1869824 0.0975634,-2.2059379 0.0750072,-2.2240525 0.051832,-2.241312 0.0280589,-2.2577025 0.0037091,-2.27321 -0.021196,-2.2878206 -0.0466352,-2.3015202 -0.0725872,-2.3142949 -0.0990309,-2.3261308 -0.1259318,-2.3370084 -0.1531868,-2.3468851 -0.1807536,-2.3557493 -0.2086027,-2.3635953 -0.2367044,-2.3704174 -0.2650294,-2.3762099 -0.293548,-2.3809669 -0.3222308,-2.3846828 -0.3510481,-2.3873518 -0.3799705,-2.3889682 -0.4089685,-2.3895262 -0.4379685,-2.3890222 -0.4668748,-2.3874604 -0.4956614,-2.3848458 -0.5243037,-2.3811837 -0.5527765,-2.3764791 -0.5810551,-2.3707372 -0.6091146,-2.3639632 -0.63693,-2.3561621 -0.6644765,-2.3473392 -0.6917292,-2.3374995 -0.7186632,-2.3266482 -2.4464191,-1.5936611 -2.4464191,-1.5936611 -2.4819344,-1.5775943 -2.5165132,-1.5598805 -2.550109,-1.5405449 -2.5826755,-1.5196124 -2.6141664,-1.4971081 -2.6445354,-1.4730571 -2.6737359,-1.4474844 -2.7017195,-1.4204173 -2.7283286,-1.3919983 -2.7534622,-1.3623457 -2.7770829,-1.3315224 -2.799153,-1.2995911 -2.819635,-1.2666146 -2.8384915,-1.2326556 -2.8556848,-1.1977768 -2.8711734,-1.1620509 -2.884884,-1.1256465 -2.8967857,-1.0886618 -2.9068602,-1.0511684 -2.9150889,-1.0132375 -2.9214536,-0.9749407 -2.9259357,-0.9363493 -2.9285169,-0.8975347 -2.9291789,-0.8585786 -2.9279133,-0.8196623 -2.9247244,-0.7808784 -2.9196176,-0.7422873 -2.9125994,-0.7039542 -2.9037042,-0.6660464 -2.8929657,-0.6286551 -2.8804097,-0.591824 -2.8660621,-0.5555968 -2.1330744,1.1721588z" transform="matrix(1,0,0,-1,2.9291789,1.6547352)" fill="rgb(0,0,0)" shaper:cutDepth="0.0127" stroke-linecap="round" stroke-linejoin="round" /><path d="M0.736013,0.4288605 a0.317489,0.317489 0 1,1 0.634978,0 a0.317489,0.317489 0 1,1 -0.634978,0z" transform="matrix(1,0,0,-1,2.9291789,1.6547352)" fill="rgb(255,255,255)" stroke="rgb(0,0,0)" stroke-width="0.0010cm" stroke-linecap="round" stroke-linejoin="round" shaper:cutDepth="0.0127" /><path d="M-1.2475604,-0.3730095 a0.317489,0.317489 0 1,1 0.634978,0 a0.317489,0.317489 0 1,1 -0.634978,0z" transform="matrix(1,0,0,-1,2.9291789,1.6547352)" fill="rgb(255,255,255)" stroke="rgb(0,0,0)" stroke-width="0.0010cm" stroke-linecap="round" stroke-linejoin="round" shaper:cutDepth="0.0127" /></svg>