<?xml version="1.0" encoding="utf-8"?>
<!-- Generator: Fusion 360, Shaper Origin Export Add-In, Version 1.6.10  -->
<svg xmlns="http://www.w3.org/2000/svg" xmlns:xlink="http://www.w3.org/1999/xlink" xmlns:shaper="http://www.shapertools.com/namespaces/shaper" shaper:fusionaddin="version:1.6.10" width="5.8590835cm" height="4.0443373cm" version="1.1" x="0cm" y="0cm" viewBox="0 0 5.8590835 4.0443373" enable-background="new 0 0 5.8590835 4.0443373" xml:space="preserve"><path d="M2.1336499,1.1735859 L2.8666375,-0.5541693 2.8666375,-0.5541693 2.8810099,-0.5904035 2.8935643,-0.6271711 2.9042849,-0.6644218 2.9131556,-0.7021055 2.9201606,-0.7401719 2.9252839,-0.7785708 2.9285096,-0.817252 2.9298216,-0.856162 2.9292058,-0.895089 2.9266718,-0.9338776 2.9222363,-0.9724566 2.9159158,-1.0107547 2.907727,-1.0487009 2.8976865,-1.0862238 2.885811,-1.1232524 2.8721209,-1.1597054 2.8566808,-1.1954107 2.8395367,-1.2302761 2.8207251,-1.2642375 2.8002824,-1.2972308 2.7782449,-1.3291919 2.754649,-1.3600565 2.7295311,-1.3897605 2.7029349,-1.4182325 2.6749803,-1.4453363 2.6457347,-1.4710084 2.6152439,-1.4952091 2.5835581,-1.5178958 2.550818,-1.5389724 2.5171115,-1.5583965 2.4824874,-1.5761548 2.4469947,-1.5922337 0.7192395,-2.3252213 0.7192395,-2.3252213 0.6923037,-2.3360741 0.6650466,-2.3459174 0.6374931,-2.3547458 0.609668,-2.3625537 0.5815962,-2.3693357 0.5533025,-2.3750863 0.5248118,-2.3797999 0.4961489,-2.3834711 0.4673387,-2.3860943 0.4384061,-2.3876641 0.40939,-2.3881747 0.3804024,-2.387623 0.351487,-2.3860134 0.3226732,-2.3833513 0.293991,-2.3796417 0.2654698,-2.3748898 0.2371394,-2.3691008 0.2090295,-2.3622799 0.1811698,-2.3544322 0.1535899,-2.345563 0.1263194,-2.3356774 0.0994294,-2.3247988 0.0730075,-2.3129653 0.0470758,-2.300191 0.0216558,-2.2864894 -0.0032312,-2.2718745 -0.0275637,-2.2563599 -0.0513202,-2.2399594 -0.0744794,-2.2226867 -0.0970197,-2.2045555 -0.1189197,-2.1855796 -0.1401581,-2.1657727 -2.686323,0.2949685 -2.686323,0.2949685 -2.7072161,0.3158696 -2.727309,0.3373993 -2.746582,0.3595519 -2.7650157,0.3823215 -2.7825903,0.4057021 -2.7992864,0.429688 -2.8150844,0.4542732 -2.8299648,0.4794518 -2.8439079,0.5052179 -2.8568941,0.5315658 -2.8689037,0.5584886 -2.8798664,0.5858576 -2.8897393,0.6135643 -2.8985206,0.6415822 -2.9062083,0.6698848 -2.9128005,0.6984455 -2.9182953,0.7272379 -2.9226908,0.7562353 -2.925985,0.7854113 -2.928176,0.8147393 -2.9292618,0.84419 -2.9292419,0.8736601 -2.9281245,0.9030845 -2.9259198,0.9324306 -2.9226382,0.9616657 -2.91829,0.9907574 -2.9128853,1.0196731 -2.9064345,1.04838 -2.8989479,1.0768458 -2.8904356,1.1050378 -2.8809081,1.1329234 -2.8703825,1.1604527 -2.8588813,1.1875699 -2.8464193,1.2142437 -2.833011,1.2404425 -2.818671,1.2661352 -2.8034139,1.2912903 -2.7872545,1.3158766 -2.7702072,1.3398628 -2.7522867,1.3632174 -2.7335077,1.3859091 -2.7138847,1.4079066 -2.693472,1.4291393 -2.6723194,1.4495522 -2.6504461,1.4691253 -2.6278716,1.4878387 -2.6046151,1.5056724 -2.5806962,1.5226065 -2.556134,1.538621 -2.530948,1.5536959 -2.5051575,1.5678113 -2.4787819,1.5809473 -2.4518738,1.5930703 -2.4245571,1.604128 -2.3968593,1.6141178 -2.3688003,1.6230406 -2.3404001,1.6308974 -2.3116789,1.637689 -2.2827246,1.6434045 -2.2536197,1.6480441 -2.2243823,1.6516236 -2.1950307,1.6541592 -2.1655832,1.6556668 -2.1360581,1.6561626 1.4048784,1.6561626 1.4048784,1.6561626 1.4339094,1.6556172 1.4628413,1.6540174 1.4916492,1.6513677 1.5203081,1.647673 1.5487931,1.6429379 1.577079,1.6371672 1.6051409,1.6303656 1.6329539,1.6225377 1.6604928,1.6136884 1.6877328,1.6038224 1.7146357,1.5929495 1.7410976,1.5811108 1.7670801,1.5683275 1.792558,1.5546158 1.817506,1.5399922 1.841899,1.5244732 1.8657117,1.508075 1.8889189,1.4908142 1.9114953,1.472707 1.9334157,1.4537699 1.954655,1.4340192 1.9751577,1.4135035 1.9948579,1.3922923 2.0137405,1.3704072 2.0317912,1.3478692 2.0489958,1.3246993 2.0653397,1.3009186 2.0808088,1.2765479 2.0953887,1.2516083 2.1090651,1.2261208 2.1218236,1.2001063 2.1336499,1.1735859z" transform="matrix(1,0,0,-1,2.9292618,1.6561626)" fill="rgb(0,0,0)" shaper:cutDepth="0.0127" stroke-linecap="round" stroke-linejoin="round" /><path d="M0.6216001,-0.3384683 a0.317489,0.317489 0 1,1 0.634978,0 a0.317489,0.317489 0 1,1 -0.634978,0z" transform="matrix(1,0,0,-1,2.9292618,1.6561626)" fill="rgb(255,255,255)" stroke="rgb(0,0,0)" stroke-width="0.0010cm" stroke-linecap="round" stroke-linejoin="round" shaper:cutDepth="0.0127" /><path d="M-1.3619734,0.4634013 a0.317489,0.317489 0 1,1 0.634978,0 a0.317489,0.317489 0 1,1 -0.634978,0z" transform="matrix(1,0,0,-1,2.9292618,1.6561626)" fill="rgb(255,255,255)" stroke="rgb(0,0,0)" stroke-width="0.0010cm" stroke-linecap="round" stroke-linejoin="round" shaper:cutDepth="0.0127" /></svg>