<?xml version="1.0" encoding="utf-8"?>
<!-- Generator: Adobe Illustrator 26.5.3, SVG Export Plug-In . SVG Version: 6.00 Build 0)  -->
<svg version="1.1" id="Layer_1" xmlns="http://www.w3.org/2000/svg" xmlns:xlink="http://www.w3.org/1999/xlink" x="0px" y="0px"
	 viewBox="0 0 1417.32 1417.32" style="enable-background:new 0 0 1417.32 1417.32;" xml:space="preserve">
<style type="text/css">
	.st0{fill:#FFFFFF;}
	.st1{fill:#FBB040;}
	.st2{fill:#BE1E2D;}
	.st3{fill:#ED1C24;}
</style>
<g>
	<path class="st0" d="M1335.06,646.56l-93.05-37.61c-10-4.04-20.33-6.82-30.88-8.31c-1.72-20.5-6.32-40.25-13.65-58.67
		c8.3-12.82,13.84-27.31,16.18-42.58c2.64-1.45,5.23-3.01,7.75-4.68c25.39-16.83,42.71-43.73,47.49-73.81
		c1.74-10.94,3.48-21.84,5.23-32.71c2.85-17.74,1.24-35.85-4.52-52.67c1.85-12.33,1.58-24.95-0.86-37.32l-6.56-33.27
		c-10.05-51.01-55.05-88.03-106.99-88.03c-2.89,0-5.78,0.12-8.67,0.35c-21.87-4.59-44.3-8.15-66.8-10.62
		c-3.93-0.43-7.9-0.64-11.83-0.64c-0.46,0-0.91,0-1.37,0.01c-4.33-0.85-8.71-1.44-13.08-1.76c-17.65-1.29-35.91-1.98-54.26-2.04
		c-0.06,0-0.11,0-0.17,0h-0.2c-9.61,0-19.21,1.29-28.48,3.8c-7.26-1.51-14.67-2.26-22.19-2.26c-2.24,0-4.5,0.07-6.73,0.21
		c-16.79,1.04-34.28,2.58-52.02,4.58c-10.78,1.21-21.3,4.03-31.19,8.31c-6.82-0.84-13.72-1.27-20.67-1.27
		c-9.31,0-18.8,0.77-28.19,2.29c-0.43,0.07-0.91,0.15-1.32,0.22l-0.73,0.13c-16.52,2.86-32.46,8.06-47.63,15.51
		c-0.36-0.04-0.72-0.07-1.09-0.1c-3.9-0.35-8.04-0.52-12.29-0.52c-12.59,0-26.35,1.52-39.78,4.38c-5.01,1.07-14.22,3.04-24.92,7.12
		c-14.04,5.13-27.24,11.65-39.47,19.49c-7.53-1.63-15.25-2.46-23.03-2.46c-7.39,0-14.81,0.76-22.05,2.26
		c-14.34,2.96-27.43,5.56-39.72,7.89c-5.81-0.95-11.69-1.43-17.6-1.43c-8.14,0-16.16,0.89-23.96,2.64
		c-3.37-3.36-6.72-6.73-10.04-10.09c-20.36-20.6-48.65-32.42-77.63-32.42c-1.78,0-3.58,0.04-5.37,0.13
		c-16.22,0.8-31.98,5.23-46.12,12.8c-2.23-0.19-4.46-0.31-6.7-0.36c-9.62-0.22-19.18-0.69-28.4-1.37c-2.71-0.2-5.43-0.3-8.1-0.3
		c-3.14,0-6.28,0.14-9.4,0.41c-5.54-1.72-11.22-3.01-17-3.84c-21.64-3.1-43-7.69-63.49-13.65c-10.36-3.01-21.04-4.54-31.73-4.54
		c-16.82,0-33.51,3.88-48.27,11.22c-39.11,19.46-62.86,60.15-60.5,103.68l0.6,11.03c1.36,25.18,11.34,48.84,27.97,67.24
		c8.09,34.55,20.63,93.53,26.15,127c7.52,45.6,43.15,81.65,88.66,89.7c3.3,0.58,6.62,1.14,9.95,1.68l-0.34,2.43
		c-10.14-2.47-20.65-3.75-31.36-3.75c-16.97,0-33.57,3.23-49.35,9.61l-93.06,37.62C32.29,657.42,0,705.3,0,759.2
		c0,53.9,32.29,101.77,82.26,121.98l93.06,37.62c10.9,4.41,22.2,7.31,33.73,8.69c-2.41,16.41-3.62,27.43-3.62,38.42
		c0,32.58,12.67,65.08,34.76,89.17c24.69,26.92,59.03,41.74,96.7,41.74h33.52c0.54,0,1.09,0,1.63-0.01
		c1.54,22.04,8.48,42.3,20.68,60.28l0.52,0.76c23,33.3,60.02,52.4,101.55,52.4c3.87,0,7.73-0.18,11.59-0.53
		c21.26,27.53,54.44,44.5,90.63,44.5h41.31c5.9,0,11.78-0.45,17.59-1.35c8.31,1.52,16.79,2.28,25.32,2.28
		c8.15,0,16.24-0.69,24.17-2.05c5.27,0.74,10.59,1.11,15.93,1.11h41.31c5.9,0,11.78-0.45,17.59-1.35
		c8.31,1.52,16.79,2.28,25.32,2.28c38.97,0,74.39-15.19,99.74-42.78l0.32-0.35c27.73-30.5,33.11-66.66,34.88-78.54l0.07-0.5
		c0-0.03,0.01-0.1,0.02-0.12l5.15-36.03h10.7c45.61,0,83.82-9.39,116.8-28.71c34.11-19.62,60.57-48.16,78.67-84.83
		c7.16-14.5,12.97-30.09,17.64-47.53c7.56,1.34,15.29,2.02,23.13,2.02c16.97,0,33.57-3.23,49.35-9.61l93.06-37.62
		c49.97-20.2,82.26-68.08,82.26-121.98C1417.32,714.64,1385.03,666.76,1335.06,646.56z"/>
	<path class="st1" d="M1325.8,669.47l-93.05-37.61c-12.79-5.17-26.25-7.79-40-7.79c-1.87,0-3.73,0.05-5.59,0.14
		c0.02-2.17,0.03-3.94,0.03-5.23c0-28.74-6.24-56.1-18.18-80.28c13.52-15.22,21.17-34.95,21.21-55.72
		c6.16-2.26,12.06-5.23,17.55-8.87c19.64-13.02,33.04-33.83,36.74-57.1c1.74-10.95,3.49-21.86,5.23-32.75
		c2.53-15.75,0.52-31.88-5.67-46.44c2.57-11.4,2.74-23.27,0.46-34.86l-6.55-33.27c-7.78-39.46-42.58-68.1-82.75-68.1
		c-3.35,0-6.72,0.2-10.07,0.6c-22.25-4.8-45.13-8.5-68.1-11.02c-3.03-0.33-6.1-0.5-9.14-0.5c-1.21,0-2.42,0.03-3.63,0.08
		c-4.19-0.96-8.41-1.59-12.62-1.9c-17.09-1.25-34.77-1.91-52.54-1.97c-0.03,0-0.06,0-0.08,0h-0.2c-9.42,0-18.84,1.61-27.74,4.7
		c-7.44-2.11-15.11-3.17-22.93-3.17c-1.73,0-3.48,0.05-5.22,0.16c-16.36,1.02-33.44,2.52-50.78,4.47
		c-10.55,1.19-20.79,4.36-30.11,9.3c-8-1.4-16.21-2.11-24.51-2.11c-8,0-16.16,0.66-24.24,1.97c-0.36,0.06-0.75,0.12-1.07,0.18
		l-0.75,0.13c-16.52,2.86-32.41,8.47-47.39,16.71c-2.55-0.47-5.11-0.81-7.68-1.04c-3.18-0.28-6.58-0.42-10.11-0.42
		c-10.89,0-22.86,1.33-34.62,3.84c-4.68,1-12.46,2.66-21.44,6.11c-15.86,5.78-30.47,13.56-43.6,23.21
		c-8.82-3.05-18.12-4.62-27.53-4.62c-5.72,0-11.45,0.59-17.05,1.74c-16.27,3.36-30.95,6.26-44.7,8.83
		c-5.78-1.23-11.69-1.86-17.62-1.86c-10.7,0-21.13,1.99-30.9,5.84c-6.94-6.83-13.88-13.75-20.67-20.63
		c-15.75-15.94-37.64-25.08-60.05-25.08c-1.38,0-2.78,0.03-4.15,0.1c-15.05,0.75-29.58,5.52-42.06,13.69
		c-4.13-0.72-8.32-1.13-12.55-1.23c-10.04-0.23-20.01-0.72-29.65-1.43c-2.09-0.15-4.2-0.23-6.27-0.23c-4.06,0-8.12,0.29-12.13,0.87
		c-5.73-2.16-11.67-3.68-17.77-4.55c-22.78-3.27-45.28-8.1-66.88-14.38c-8.12-2.36-16.48-3.56-24.84-3.56
		c-13.02,0-25.91,2.99-37.27,8.64c-30.27,15.06-48.66,46.55-46.83,80.23l0.6,11.03c1.16,21.49,10.44,41.55,25.78,56.29
		c7.96,33.2,21.87,97.8,28.05,135.27c5.82,35.28,33.38,63.16,68.59,69.39c11.02,1.95,22.26,3.64,33.55,5.03l-8.1,57.58
		c-15.6-8.62-33.21-13.21-51.5-13.21c-13.78,0-27.26,2.63-40.09,7.81l-93.06,37.62c-40.59,16.41-66.81,55.29-66.81,99.07
		c0,43.78,26.22,82.66,66.81,99.07l93.06,37.62c12.83,5.18,26.31,7.81,40.09,7.81c4.3,0,8.59-0.26,12.83-0.78l-3.14,22.3
		c-3.2,21.2-4.23,31.1-4.23,40.68c0,26.47,10.3,52.88,28.26,72.47c19.95,21.75,47.83,33.73,78.5,33.73h33.52
		c9.51,0,18.77-1.16,27.63-3.43l-0.08,0.56c-1.06,7.18-1.54,12.99-1.54,18.79c0,0.71,0.01,1.43,0.03,2.14
		c0.5,19.58,6.12,37.43,16.71,53.04l0.4,0.59c18.32,26.52,47.92,41.73,81.22,41.73c5.84,0,11.69-0.51,17.45-1.51
		c2.39,0.41,4.8,0.74,7.23,0.98c15.86,27.18,45.17,44.5,77.54,44.5h41.31c6.02,0,12.01-0.6,17.89-1.78
		c8.17,1.8,16.55,2.72,25.02,2.72c8.07,0,16.06-0.81,23.84-2.42c5.35,0.98,10.8,1.48,16.26,1.48h41.31c6.02,0,12.01-0.6,17.88-1.78
		c8.17,1.8,16.55,2.72,25.02,2.72c31.97,0,60.93-12.35,81.54-34.79l0.31-0.34c20.26-22.28,26.05-48.04,28.65-65.48l0.07-0.45
		l6.81-47.66c0.48-3.27,0.87-6.49,1.17-9.62h32.33c41.14,0,75.29-8.3,104.4-25.38c29.83-17.14,53.01-42.17,68.92-74.4
		c9.57-19.39,16.51-41.16,21.49-67.61c12.95,5.46,26.98,8.32,41.44,8.32c13.78,0,27.27-2.63,40.09-7.81l93.06-37.62
		c40.59-16.41,66.81-55.29,66.81-99.08C1392.61,724.76,1366.39,685.87,1325.8,669.47z"/>
	<path class="st2" d="M1367.91,768.54c0-33.66-20.17-63.55-51.37-76.16l-93.05-37.61c-9.98-4.04-20.41-5.99-30.75-5.99
		c-10.6,0-21.1,2.06-30.92,6.05c-0.04,0.02-0.09,0.03-0.13,0.03c-0.19,0-0.35-0.16-0.33-0.36c1-15.84,1.12-29.97,1.12-35.51
		c0-31.93-8.69-61.2-24.89-85.34c-0.11-0.16-0.06-0.36,0.1-0.46c18.66-11.78,29.42-33.04,27.62-55.29l-0.33-4.12
		c-0.18-2.28-0.5-4.53-0.93-6.75c-0.01-0.05-0.01-0.09,0-0.14c0.28-1.1,0.54-2.2,0.77-3.31c0.03-0.15,0.15-0.25,0.3-0.26
		c10.25-0.69,20.26-3.99,29-9.78c13.93-9.23,23.36-23.88,25.99-40.39c1.74-10.96,3.49-21.89,5.24-32.78c2.3-14.31-0.7-28.35-7.64-40
		c-0.05-0.08-0.06-0.19-0.03-0.28c3.72-9.99,4.81-21.1,2.6-32.33l-6.55-33.27c-5.58-28.33-30.43-48.17-58.51-48.17
		c-3.55,0-7.14,0.32-10.76,0.97c-0.11,0-0.22,0-0.32-0.01c-22.74-5.07-46.16-8.94-69.77-11.53c-2.15-0.23-4.3-0.35-6.44-0.35
		c-1.96,0-3.9,0.1-5.84,0.28c-0.01,0-0.02,0-0.03,0c-0.03,0-0.06,0-0.08-0.01c-3.88-1.11-7.93-1.85-12.11-2.16
		c-16.52-1.21-33.62-1.85-50.83-1.91c-0.07,0-0.13,0-0.2,0c-9.59,0-18.72,2.29-26.82,6.38c-0.05,0.02-0.1,0.03-0.15,0.03
		c-0.04,0-0.09-0.01-0.13-0.03c-7.3-3.14-15.29-4.85-23.58-4.85c-1.23,0-2.47,0.04-3.71,0.11c-15.95,0.99-32.61,2.46-49.52,4.36
		c-10.54,1.19-20.17,5.06-28.24,10.89c-0.06,0.04-0.12,0.06-0.19,0.06c-0.03,0-0.05,0-0.08-0.01c-9.25-2.38-18.93-3.59-28.87-3.59
		c-6.66,0-13.44,0.55-20.3,1.65c-0.24,0.04-0.53,0.09-0.77,0.13l-0.81,0.14c-16.77,2.9-32.92,9.33-47.58,18.72
		c-0.05,0.03-0.11,0.05-0.18,0.05c-0.03,0-0.07-0.01-0.1-0.02c-4.36-1.45-8.91-2.42-13.56-2.83c-2.49-0.22-5.15-0.33-7.93-0.33
		c-9.03,0-19.37,1.14-29.47,3.3c-4.3,0.92-10.67,2.28-17.93,5.09c-18.34,6.65-34.7,16.42-48.46,28.77
		c-0.06,0.06-0.14,0.08-0.22,0.08c-0.06,0-0.12-0.02-0.17-0.05c-9.35-5.66-20.06-8.65-30.95-8.65c-4.01,0-8.05,0.41-12.05,1.23
		c-18.52,3.83-35.02,7.07-50.4,9.89c-0.02,0-0.04,0.01-0.06,0.01c-0.03,0-0.06,0-0.09-0.01c-5.49-1.6-11.14-2.4-16.77-2.4
		c-12.11,0-24.14,3.68-34.37,10.89c-0.09,0.04-0.18,0.07-0.27,0.11c-0.71,0.1-1.4,0.2-2.11,0.3c-0.02,0-0.03,0-0.05,0
		c-0.11,0-0.21-0.05-0.27-0.14c-2.11-3.02-4.5-5.88-7.18-8.51c-8.35-8.18-16.73-16.51-24.89-24.78
		c-11.25-11.38-26.56-17.74-42.48-17.74c-0.98,0-1.96,0.02-2.94,0.07c-14.08,0.7-27.36,6.35-37.58,15.8
		c-0.06,0.06-0.14,0.09-0.22,0.09c-0.04,0-0.07-0.01-0.11-0.02c-5.82-2.06-12.04-3.24-18.49-3.39c-10.45-0.24-20.84-0.75-30.91-1.5
		c-1.49-0.11-2.97-0.16-4.44-0.16c-5.07,0-10.04,0.64-14.81,1.86c-0.03,0.01-0.05,0.01-0.08,0.01c-0.05,0-0.1-0.01-0.14-0.03
		c-5.65-2.85-11.83-4.83-18.38-5.77c-23.93-3.43-47.57-8.51-70.27-15.11c-5.86-1.7-11.91-2.58-17.94-2.58
		c-9.06,0-18.05,1.97-26.26,6.05c-21.79,10.84-34.44,33.29-33.17,56.77l0.6,11.03c0.95,17.53,9.54,33.56,23.16,44.06
		c0.06,0.05,0.1,0.11,0.12,0.18c7.77,31.22,23.63,104.39,30.26,144.64c4.12,24.99,23.57,44.67,48.51,49.08
		c13.67,2.42,27.71,4.42,41.73,5.94c2.1,0.23,4.19,0.34,6.26,0.34c3.08,0,6.12-0.24,9.1-0.69c0.02,0,0.04,0,0.05,0
		c0.2,0,0.36,0.18,0.33,0.38l-17.94,127.63c-0.03,0.18-0.18,0.29-0.34,0.29c-0.08,0-0.17-0.03-0.24-0.1l-11.26-11.26
		c-15.73-15.73-36.69-24.08-58.05-24.09c-10.36,0-20.82,1.97-30.83,6.01l-93.06,37.62c-31.2,12.61-51.36,42.51-51.36,76.17
		c0,33.65,20.16,63.55,51.36,76.17l93.06,37.62c0,0,0,0,0,0c10.01,4.04,20.46,6.01,30.83,6.01c14.82,0,29.43-4.04,42.24-11.75
		c0.06-0.03,0.12-0.05,0.18-0.05c0.19,0,0.36,0.17,0.33,0.38l-8.61,61.2c-3.01,19.89-3.98,28.94-3.98,37.12
		c0,40.06,30.69,81.5,82.05,81.5h33.52c19.14,0,36.45-6,50.3-16.6c0.06-0.05,0.13-0.07,0.2-0.07c0.07,0,0.14,0.02,0.2,0.07
		c2.86,2.19,5.86,4.15,8.98,5.92c-2.82,6.88-4.79,14.36-5.87,22.6l-1.79,13.38c-0.89,6.01-1.29,10.76-1.29,15.33
		c0,0.5,0.01,1.01,0.02,1.51c0.37,14.77,4.57,28.17,12.46,39.8c0.09,0.14,0.19,0.28,0.28,0.41c13.64,19.75,35.83,31.07,60.89,31.07
		c5.96,0,11.79-0.69,17.42-2c5.71,1.31,11.67,2,17.8,2c1.8,0,3.58-0.08,5.36-0.21c8.69,25.65,33.03,44.17,61.63,44.17h41.31
		c6.24,0,12.29-0.88,18.02-2.51c7.92,2.26,16.3,3.45,24.89,3.45c8.21,0,16.13-1.05,23.66-3.04c5.25,1.37,10.76,2.1,16.44,2.1h41.31
		c6.24,0,12.29-0.88,18.02-2.51c7.92,2.26,16.3,3.45,24.88,3.45c24.98,0,47.47-9.52,63.35-26.8c0.07-0.08,0.14-0.15,0.21-0.23
		c15.74-17.32,20.38-38.26,22.5-52.5c0.02-0.11,0.03-0.23,0.05-0.34l6.8-47.63c1.09-7.45,1.68-14.76,1.68-20.58
		c0-3.51-0.18-6.93-0.52-10.25h56.79c36.66,0,66.76-7.21,92-22.04c25.54-14.66,45.45-36.17,59.17-63.96
		c10.22-20.7,17.15-44.8,21.82-75.84l2.77-17.69c0.09-0.61,0.18-1.22,0.26-1.83c0.09-0.68,0.24-1.92,0.42-3.55l1.76,1.76
		c15.73,15.73,36.68,24.09,58.05,24.09c10.36,0,20.82-1.97,30.83-6.01c0,0,0,0,0,0l93.06-37.62
		C1347.75,832.09,1367.91,802.2,1367.91,768.54z"/>
	<g>
		<path class="st0" d="M899.29,479.51c-2.56,0-4.79-0.67-6.46-1.89c-2.12-1.78-3.68-5.13-3.68-10.14c0,0,0,0,0-0.11
			c0.11-5.24,1.11-15.04,1.78-19.95c6.57-0.89,14.26-3.34,18.05-6.69l-0.78-3.12c-3.01,0.33-6.46,0.56-10.14,0.56
			c-1.67,0-3.46,0-5.35-0.11c1.34-5.8,3.34-11.7,5.35-16.83l-3.34-2.79l-13.6,7.69c-1.11,4.24-2.79,9.14-3.45,12.48l-9.03,6.46
			l0.11,2.79c1.56,0.33,4.46,0.56,6.69,0.56c0.11,0,0.33,0,0.56,0c-1.11,9.47-2.67,20.84-2.79,30.09c0,0.89,0,1.78,0,2.67
			c0,1.67,0.11,3.46,0.33,4.9c0.45,3.45,1.78,4.79,3.01,5.35c0.78,0.45,1.78,0.56,2.79,0.56c1.56,0,3.23-0.33,5.01-1.11l18.72-8.02
			l-0.45-3.68C901.52,479.4,900.4,479.51,899.29,479.51z"/>
		<path class="st0" d="M942.53,438.72c-2.01-1.89-3.34-2.67-5.46-2.67c-0.11,0-0.22,0-0.22,0c-1.89,0-6.02,1.23-10.7,8.47
			c-5.91,1.11-11.26,6.13-14.26,12.37c-2.12,4.57-3.23,10.81-3.23,16.05c0,2.79,0.45,5.35,1.11,7.58c1.78,5.91,5.13,9.7,9.47,11.48
			c0.67,0.22,2.01,0.67,4.01,0.67c2.12,0,4.79-0.45,7.69-2.45c6.8-4.68,16.61-14.04,17.27-33.99c0-0.33,0-0.67,0-0.89
			C948.21,447.41,944.87,440.95,942.53,438.72z M936.07,468.14c0,2.34-0.22,5.68-0.56,7.47c-0.56,3.45-1.56,5.91-3.23,6.69
			c-0.56,0.22-1.11,0.33-1.67,0.33c-0.78,0-1.56-0.22-2.23-0.56c-2.01-1.23-3.79-4.01-4.68-7.47c-0.33-1.56-0.78-4.79-0.78-6.69
			c0-0.33,0-0.56,0-0.78c0-5.91,1.56-13.48,5.01-17.5c5.35,2.12,7.8,10.36,8.14,17.39C936.07,467.36,936.07,467.7,936.07,468.14z"/>
	</g>
	<g>
		<path class="st0" d="M1004.61,479.51c-2.56,0-4.79-0.67-6.46-1.89c-2.12-1.78-3.68-5.13-3.68-10.14c0,0,0,0,0-0.11
			c0.11-5.24,1.11-15.04,1.78-19.95c6.57-0.89,14.26-3.34,18.05-6.69l-0.78-3.12c-3.01,0.33-6.46,0.56-10.14,0.56
			c-1.67,0-3.46,0-5.35-0.11c1.34-5.8,3.34-11.7,5.35-16.83l-3.34-2.79l-13.6,7.69c-1.11,4.24-2.79,9.14-3.45,12.48l-9.03,6.46
			l0.11,2.79c1.56,0.33,4.46,0.56,6.69,0.56c0.11,0,0.33,0,0.56,0c-1.11,9.47-2.67,20.84-2.79,30.09c0,0.89,0,1.78,0,2.67
			c0,1.67,0.11,3.46,0.33,4.9c0.45,3.45,1.78,4.79,3.01,5.35c0.78,0.45,1.78,0.56,2.79,0.56c1.56,0,3.23-0.33,5.01-1.11l18.72-8.02
			l-0.45-3.68C1006.83,479.4,1005.72,479.51,1004.61,479.51z"/>
		<path class="st0" d="M1064.79,479.73c-1.78,0-3.68-0.56-5.13-2.01c-1.11-1.23-1.56-3.23-1.56-5.57c0-1.11,0.11-2.23,0.22-3.34
			c0,0,0.56-7.47,1.89-22.18c0-0.78,0.11-1.67,0.11-2.45c0-2.12-0.33-4.01-1.56-5.46c-0.89-1-2.23-1.67-3.9-1.78
			c-0.22,0-0.45,0-0.56,0c-3.57,0-7.58,2.79-12.59,9.14c-4.01,4.9-7.91,10.92-11.92,18.39c3.45-22.51,6.35-39.79,9.81-62.63
			l-17.5,5.01c-1.45,28.2-6.13,63.63-8.92,84.59h12.15c4.12-14.71,10.92-28.64,17.27-36.33c0.33-0.45,0.78-0.56,1-0.56
			c0.45,0,0.78,0.33,0.78,1.11v0.11c-0.22,7.47-2.45,25.19-4.79,34.44l3.9,2.34l22.51-9.14l-0.56-3.68
			C1065.23,479.73,1065.01,479.73,1064.79,479.73z"/>
		<path class="st0" d="M1106.91,448.97c0.22-0.89,0.22-1.78,0.22-2.67c0-2.79-0.67-5.24-2.01-6.91c-1.11-1.56-2.79-2.45-4.46-2.45
			c0,0-0.11,0-0.22,0c-3.34,0-8.36,1.89-13.15,5.13c-3.34,2.12-12.59,8.47-15.82,20.73c-1,3.79-1.56,7.58-1.56,11.14
			c0,4.9,1,9.36,3.01,12.7c2.34,3.9,5.46,6.24,9.47,6.24c1.89,0,3.9-0.56,6.24-1.78c0,0,0,0,17.38-9.14l-0.33-4.12
			c-2.34,0.78-4.79,1.23-7.24,1.23c-5.24,0-10.14-2.12-11.7-7.8C1098,466.81,1105.35,459,1106.91,448.97z M1093.32,453.43
			c-0.56,8.14-3.23,11.37-7.8,12.7c-0.22-0.78-0.22-1.78-0.22-2.79c0-1.11,0-2.23,0.11-2.9c0.22-9.25,3.12-13.6,5.46-13.71
			c1.56,0,2.56,2.01,2.56,5.35C1093.43,452.54,1093.32,452.99,1093.32,453.43z"/>
	</g>
	<g>
		<path class="st0" d="M428.35,298.85c-8.87,10.95-17.74,21.8-26.61,32.53c8.96,6.9,14.47,17.29,16.08,32.55
			c0.07,1.36,0.15,2.73,0.22,4.1c1.34,24.82-7.24,48.91-20.13,70.48c-10.07-32.04-23.92-85.95-30.31-127.12
			c-11.3-0.26-22.61-0.8-33.93-1.64c-10.03,35.93-21.2,74.81-37.24,115.24c-9.36-43.05-15.15-82.57-16.14-91.32
			c-0.31-0.88-0.37-2-0.41-2.84c-0.41-7.58,1.56-14.37,12.46-15.01c-0.19-3.53-0.38-7.07-0.57-10.6
			c-26.41-3.79-52.92-9.4-79.55-17.2c0.2,3.68,0.4,7.36,0.6,11.03c7.76,3.94,16.23,11.18,21.24,31.6
			c8.3,33.03,24.62,108.48,31.6,150.79c12.62,2.23,25.21,4.01,37.78,5.38c7.8-29.06,24.43-77.7,34.73-108.59
			c8.44,30.92,20.79,80.96,27.16,112.15c10.16,0.09,20.3-0.05,30.44-0.4c13.57-23.38,47.94-90.55,58.2-165.65
			C445.42,315.98,436.89,307.49,428.35,298.85z"/>
		<path class="st0" d="M499.71,465.77c-1.51,0.23-3.02,0.45-4.72,0.7c-0.52-9.65-0.2-31.71-0.06-43.22
			c1.89-0.27,3.77-0.53,6.04-0.86c10.38-1.5,23.39-3.41,30.79-3.71c1.94-6.38,3.87-12.76,5.81-19.13
			c-6.74,1.96-18.03,4.04-28.41,5.59c-5.09,0.77-10,1.47-13.97,1.82c0,0,0.45-12.75,2.12-41.69c3.53-0.41,7.05-0.83,10.58-1.28
			c13.4-1.92,25.14,4.22,28.7,17.4c3.35-2.47,6.7-4.95,10.05-7.44c-2.22-11.74-4.44-23.49-6.66-35.25
			c-4.22,2.8-8.44,5.58-12.67,8.35c-24.32,3.83-48.67,6.99-73.08,9.21c0.01,2.59,0.03,5.17,0.04,7.76c7.49,1.3,10.1,3.98,10.51,11.5
			c0.01,0.2,0.02,0.4,0.02,0.4c0.34,9.71-0.06,27.05-0.29,43.79c-0.26,16.35-1,34.15-1.78,44.4c-0.67,8.64-3.76,11.4-11.03,13.95
			c-0.05,2.66-0.09,5.33-0.14,7.99c31.83-3.3,63.56-8.29,95.24-14.32c1.61-13.5,3.23-27,4.84-40.48c-3.26,0.61-6.53,1.21-9.79,1.8
			C535.62,454.67,519.52,462.78,499.71,465.77z"/>
		<path class="st0" d="M610.37,444.79c-1.5,0.33-2.82,0.63-3.96,0.68c-0.37-10.26-0.46-33.06,0-49.14
			c0.52-21.94,1.28-36.12,1.79-44.2c0.7-8.13,3.57-11.24,10.99-14.72c0.06-2.47,0.11-4.94,0.17-7.42
			c-17.8,3.68-35.61,7.21-53.43,10.47c0.01,2.48,0.02,4.96,0.02,7.44c6.88,0.69,10.03,2.63,10.45,10.37
			c0.02,0.39-0.16,0.62-0.15,0.81c0.34,9.72,0.13,26.98-0.13,43.29c-0.28,15.92-1.05,33.32-1.82,43.68c-0.7,8.18-3.93,11.6-11,14.59
			c-0.05,2.63-0.1,5.26-0.14,7.89c30.22-6.07,60.39-12.98,90.55-20.15c0.98-13.59,1.95-27.16,2.93-40.72
			c-3.44,0.8-6.89,1.59-10.33,2.38C643.6,433.5,623.71,441.84,610.37,444.79z"/>
		<path class="st0" d="M716.8,321.24c1.13-0.25,2.24-0.68,3.37-0.93c14.09-3.06,19.07,8.04,20.32,20.68
			c3.13-0.69,6.26-1.37,9.4-2.05c2.48-9.2,4.96-18.38,7.44-27.54c-2.71-3.28-5.43-6.56-8.14-9.85c-3.82-0.34-11.59,0.16-19.67,1.88
			c-3.2,0.68-6.39,1.37-9.37,2.58c-16.42,5.82-30.9,15.69-41.14,30.26c-12.19,17.11-19.5,36.72-18.51,54.84
			c2.22,40.9,30.94,51.7,56.08,45.56c7.88-1.87,14.12-5.99,39.96-27.54c-0.17-3.18-0.34-6.37-0.52-9.55
			c-7.16,4.67-14.05,7.41-20.43,8.91c-11.08,2.59-20.67,1.05-26.97-3.02c-9.84-6.1-15.28-18.85-16.14-34.77
			c-0.1-1.9-0.02-3.83-0.11-5.54C692.65,342.25,701.87,326.4,716.8,321.24z"/>
		<path class="st0" d="M869.15,294.21c-10.73-8.59-25.37-12.11-42.15-9.39c-0.19,0.03-0.56,0.1-0.94,0.16
			c-16.58,2.87-32.22,12.39-44.19,26.66c-11.97,14.27-19,31.87-19.58,49.22c-0.06,2.47-0.11,4.94,0.01,7.19
			c1.1,20.39,10.26,31.39,18.18,37.37c10.89,7.96,25.87,10.85,41.11,7.91c0.38-0.08,0.75-0.15,0.94-0.19
			c33.84-7.09,61.78-38.75,63.86-74.07c0.04-2.76,0.08-5.53-0.06-8.08C885.51,315.48,879.49,302.68,869.15,294.21z M850.14,382.09
			c-3.49,5.83-8.8,9.6-15.36,11.25c-0.38,0.07-0.75,0.15-1.13,0.22c-16.37,3.19-31.69-12.85-36.91-39.04
			c-0.79-3.97-1.18-7.84-1.4-11.74c-0.64-11.89,1.44-22.64,6.33-30.52c3.5-5.55,8.24-9.25,13.87-10.66
			c0.38-0.07,0.75-0.14,1.13-0.21c15.81-2.88,30.95,13.24,36.75,39.68c1.22,4.98,1.87,9.88,2.11,14.47
			C856.13,366.19,854.34,375.39,850.14,382.09z"/>
		<path class="st0" d="M1042.76,368.57c-3.33-19.38-5.69-52.34-7.68-78.58c0,0-0.01-0.18-0.02-0.35
			c-0.38-7.08,3.49-9.38,10.64-10.63c0.01-2.23,0.01-4.46,0.02-6.69c-15.59-1.14-31.15-1.7-46.68-1.75
			c-2.58,18.99-16.69,53.35-25.63,74.41c-8.81-22.21-20.54-56.34-25.05-72.87c-15.54,0.97-31.05,2.36-46.55,4.1
			c0.06,2.31,0.12,4.62,0.19,6.93c6.71,1.07,9.87,3.13,10.19,9.11c0.03,0.54,0.05,0.91-0.11,1.47c-0.05,20.09-1.24,54.35-6.78,82.02
			c-1.66,7.92-5.1,11.13-12.4,13.32c-0.05,2.52-0.11,5.04-0.16,7.56c14.46-2.18,28.93-4.08,43.42-5.63c0-2.42-0.01-4.85-0.01-7.27
			c-6.87-0.55-10.4-2.49-10.81-10.1c-0.76-13.95,0.58-41.99,2.87-62.94c9.25,23.32,23.07,60.91,29.65,80.62
			c5.55-1.66,11.1-3.27,16.66-4.81c6.25-18.06,27-70.13,31.06-79.54c1.3,9.98,1.88,20.67,2.43,30.82
			c0.35,6.41,0.69,12.83,1.01,18.71c0.22,4.1,0.43,8.02,0.44,11.58c0.02,7.31-3.28,9.64-10.79,11.44c0,2.38,0.01,4.77,0.01,7.15
			c18.67-0.55,37.37-0.37,56.12,0.65c-0.06-2.35-0.13-4.7-0.19-7.05C1047.69,378.81,1044.12,376.04,1042.76,368.57z"/>
		<path class="st0" d="M1156.59,367.55c-6.54,16.09-23.05,16.72-43.19,13.55c-1.53-0.24-3.07-0.48-4.79-0.74
			c-0.46-8.56,0.02-27.7,0.24-37.7c1.92,0.31,3.84,0.63,6.14,1.03c10.55,1.79,23.83,4.75,31.39,7.4c2.02-4.77,4.05-9.52,6.07-14.25
			c-6.9-1.06-18.44-3.54-29.01-5.56c-5.19-1-10.18-1.89-14.22-2.73c0,0.01,0.55-10.99,2.44-35.68c3.59,0.71,7.18,1.46,10.77,2.25
			c13.65,2.76,25.6,12.82,29.15,25.65c3.44-0.78,6.89-1.51,10.34-2.21c-2.18-11.09-4.37-22.17-6.55-33.26
			c-4.34,0.64-8.67,1.34-13,2.1c-24.86-6.08-49.61-10.32-74.28-13.03c0,2.27-0.01,4.54-0.01,6.82c7.55,2.57,10.19,5.55,10.55,12.21
			c0.01,0.18,0.02,0.35,0.02,0.35c0.27,8.58-0.24,23.69-0.59,38.31c-0.37,14.27-1.24,29.73-2.09,38.57
			c-0.74,7.46-3.87,9.24-11.23,10.27c-0.06,2.34-0.13,4.67-0.19,7.01c32.13,2.26,64.39,7.07,96.83,15.1
			c1.75-10.99,3.5-21.94,5.26-32.86C1163.28,369.24,1159.93,368.38,1156.59,367.55z"/>
	</g>
	<g>
		<g>
			<path class="st0" d="M494.13,1078.83c-1.09,0-1.95,0.31-2.18,1.32l-0.31,2.49c-0.23,1.48-0.47,4.05-0.47,4.6
				c0.08,2.03,1.48,3.51,3.43,3.51c2.8,0,3.66-1.64,4.05-4.21l0.16-1.01c0.16-1.48,1.09-2.96,3.19-2.96h4.36
				c1.09,0,1.87,0.39,2.34,0.93c0.55,0.62,0.78,1.4,0.78,2.18c0,1.01-0.23,2.03-0.47,3.04c-0.54,2.49-1.64,5.84-3.82,8.03
				c-2.65,2.73-6,4.36-10.83,4.36c-5.69,0-9.5-2.03-11.77-5.3c-1.48-2.18-2.1-4.68-2.18-7.79c0-1.79,0.31-4.36,0.7-6.94l1.87-13.95
				c0.78-6,2.26-9.58,4.68-12.23c2.57-2.88,6.23-4.36,10.99-4.36c5.69,0,9.19,2.03,11.45,5.3c1.48,2.18,2.1,4.75,2.18,7.87
				c0,0.39,0,3.97-0.62,7.72l-0.7,4.36c-0.23,1.79-1.32,3.04-3.27,3.04H494.13z M497.94,1060.9c-1.32,0-2.03,0.39-2.73,1.09
				c-0.62,0.78-0.86,1.48-1.25,3.74c-0.16,0.94-0.23,1.79-0.23,2.26c0,1.01,0.7,1.56,1.95,1.56h3.27c1.17,0,2.1-0.78,2.26-1.79
				l0.08-1.01c0.16-1.25,0.16-1.87,0.16-2.42C501.37,1061.76,499.66,1060.9,497.94,1060.9z"/>
		</g>
		<g>
			<path class="st0" d="M533.32,1070.88l4.44,2.73c5.3,3.2,7.17,5.53,7.17,10.91c0,4.52-1.09,8.65-4.13,12
				c-2.49,2.88-6.47,4.6-11.22,4.6c-5.69,0-9.51-2.03-11.77-5.3c-1.4-2.1-2.11-4.75-2.11-7.17c0-3.12,0.55-6.16,3.74-6.16h4.29
				c2.26,0,2.96,1.71,3.04,2.81c0,0.7-0.16,1.25-0.16,2.03c0.08,2.57,1.87,3.43,3.43,3.43c2.41,0,4.05-2.26,4.05-5.06
				c0-2.18-0.78-3.2-3.27-4.75l-4.99-3.04c-5.3-3.27-7.17-6.47-7.17-10.68c0-7.56,3.04-10.91,4.21-12.16
				c2.49-2.88,6.55-4.52,11.3-4.52c5.45,0.08,9.12,2.03,11.38,5.3c1.48,2.18,2.18,4.83,2.18,7.4c0,2.8-0.55,5.69-3.9,5.69h-4.21
				c-2.26,0-2.8-1.71-2.88-2.65c0-0.86,0.16-1.4,0.16-2.18c-0.08-2.57-1.87-3.43-3.43-3.43c-2.49,0-3.97,2.42-4.05,4.99
				C529.5,1067.92,530.13,1068.85,533.32,1070.88z"/>
		</g>
		<g>
			<path class="st0" d="M564.26,1082.72c-0.31,2.42-0.47,3.66-0.47,4.91c0,1.32,0.47,2.26,2.34,2.49l0.62,0.08
				c2.26,0.31,2.73,1.79,2.73,2.73c0,0.62-0.16,2.26-0.31,3.19l-0.23,1.48c-0.16,1.48-1.48,2.96-3.58,2.96h-0.86
				c-7.4,0-12-2.88-12.08-9.74c0-0.94,0.23-2.65,0.7-5.84l2.49-17.45c0.39-2.73,0.62-3.9,0.62-4.44c-0.08-1.17-0.54-1.64-1.71-1.79
				l-0.55-0.08c-1.4-0.23-1.64-1.79-1.64-2.57c0-0.62,0.16-1.95,0.31-2.88l0.23-1.79c0.16-1.25,1.17-2.49,2.5-2.73l0.39-0.08
				c1.01-0.23,2.18-0.47,2.42-1.87l0.7-4.6c0.23-1.48,1.17-3.04,3.27-3.04h4.29c2.26,0,3.12,1.79,3.2,3.04c0,0.55,0,1.25-0.31,2.96
				c-0.16,0.93-0.16,1.56-0.16,1.87c0,0.94,0.86,1.56,2.02,1.56h1.25c2.34,0,2.73,1.79,2.8,2.73c0,0.62-0.23,2.18-0.39,3.12
				l-0.16,1.48c-0.23,1.48-1.25,2.96-3.35,2.96h-2.18c-1.09,0-1.95,0.78-2.11,1.79L564.26,1082.72z"/>
		</g>
		<g>
			<path class="st0" d="M585.15,1097.53c-0.31,1.79-1.32,3.04-3.27,3.04h-4.6c-2.18,0-3.12-1.79-3.12-3.04
				c0-0.55,0.16-1.32,0.47-3.9l0.23-1.32c0.23-1.48,1.09-2.96,3.2-2.96h4.6c2.26,0,3.2,1.79,3.2,3.04c0,0.55-0.08,1.48-0.31,3.2
				L585.15,1097.53z"/>
		</g>
		<g>
			<path class="st0" d="M620.77,1126.23h18.45c3.88,0,5.35,3.07,5.35,5.21c0,0.94-0.13,2.01-0.4,4.68l-0.67,3.88
				c-0.4,2.54-2.01,5.08-5.61,5.08h-41.31c-3.74,0-5.35-3.07-5.35-5.21c0-1.07,0.53-3.88,0.93-6.28
				c3.61-17.78,16.18-32.22,27.14-44.92c4.01-4.68,7.22-8.69,9.89-13.1c2.41-4.01,3.61-7.09,4.81-14.04
				c0.13-1.47,0.27-2.81,0.27-3.48c0-3.07-1.6-5.88-5.61-5.88c-4.81,0-6.69,3.74-7.22,8.16l-0.94,5.35
				c-0.27,2.54-2.01,5.08-5.61,5.08h-8.16c-3.88,0-5.48-3.07-5.48-5.21c0-1.2,0.27-2.14,0.67-5.08c1.34-9.89,3.61-14.7,7.62-19.12
				c4.54-4.95,10.83-7.49,19.39-7.49c8.69,0,16.31,3.48,19.92,8.42c3.34,4.41,4.81,9.09,4.81,14.44c0,1.87-0.13,3.88-0.4,5.88
				c-1.6,9.89-5.21,18.85-11.1,27.01c-2,2.81-4.28,5.48-6.42,8.15c-5.48,6.55-9.49,11.5-12.43,15.37
				c-3.88,4.95-5.75,7.75-5.75,10.43C617.56,1125.29,618.5,1126.23,620.77,1126.23z"/>
		</g>
		<g>
			<path class="st0" d="M660.87,1137.59c-3.21-4.28-4.41-8.69-4.41-15.37c0-2.14,0.27-6.55,1.07-12.03l6.82-47.73
				c1.47-9.89,3.61-16.71,7.62-21.12c4.54-4.95,10.83-7.49,19.39-7.49c8.69,0,16.31,3.48,19.92,8.42c3.21,4.28,4.41,8.69,4.41,15.37
				c0,2.14-0.27,6.55-1.07,12.03l-6.82,47.73c-1.47,9.89-3.61,16.71-7.62,21.12c-4.54,4.95-10.83,7.49-19.38,7.49
				C672.1,1146.01,664.48,1142.54,660.87,1137.59z M688.28,1119.54l8.02-56.55c0.27-2,0.27-3.88,0.27-4.81
				c0-3.48-2.27-6.02-5.62-6.02c-4.81,0-6.42,3.48-7.08,8.16l-8.02,56.55c-0.27,2.01-0.27,3.88-0.27,4.81
				c0,3.48,2.27,6.02,5.61,6.02C686,1127.7,687.61,1124.22,688.28,1119.54z"/>
		</g>
		<g>
			<path class="st0" d="M745.08,1126.23h18.45c3.88,0,5.35,3.07,5.35,5.21c0,0.94-0.13,2.01-0.4,4.68l-0.67,3.88
				c-0.4,2.54-2.01,5.08-5.61,5.08h-41.31c-3.74,0-5.35-3.07-5.35-5.21c0-1.07,0.53-3.88,0.93-6.28
				c3.61-17.78,16.18-32.22,27.14-44.92c4.01-4.68,7.22-8.69,9.89-13.1c2.41-4.01,3.61-7.09,4.81-14.04
				c0.13-1.47,0.27-2.81,0.27-3.48c0-3.07-1.6-5.88-5.61-5.88c-4.81,0-6.69,3.74-7.22,8.16l-0.94,5.35
				c-0.27,2.54-2.01,5.08-5.61,5.08h-8.16c-3.88,0-5.48-3.07-5.48-5.21c0-1.2,0.27-2.14,0.67-5.08c1.34-9.89,3.61-14.7,7.62-19.12
				c4.54-4.95,10.83-7.49,19.39-7.49c8.69,0,16.31,3.48,19.92,8.42c3.34,4.41,4.81,9.09,4.81,14.44c0,1.87-0.13,3.88-0.4,5.88
				c-1.6,9.89-5.21,18.85-11.1,27.01c-2.01,2.81-4.28,5.48-6.42,8.15c-5.48,6.55-9.49,11.5-12.43,15.37
				c-3.88,4.95-5.75,7.75-5.75,10.43C741.87,1125.29,742.81,1126.23,745.08,1126.23z"/>
		</g>
		<g>
			<path class="st0" d="M785.18,1137.59c-3.21-4.28-4.41-8.69-4.41-15.37c0-2.14,0.27-6.55,1.07-12.03l6.82-47.73
				c1.47-9.89,3.61-16.71,7.62-21.12c4.54-4.95,10.83-7.49,19.39-7.49c8.69,0,16.31,3.48,19.92,8.42c3.21,4.28,4.41,8.69,4.41,15.37
				c0,2.14-0.27,6.55-1.07,12.03l-6.82,47.73c-1.47,9.89-3.61,16.71-7.62,21.12c-4.54,4.95-10.83,7.49-19.38,7.49
				C796.41,1146.01,788.79,1142.54,785.18,1137.59z M812.59,1119.54l8.02-56.55c0.27-2,0.27-3.88,0.27-4.81
				c0-3.48-2.27-6.02-5.62-6.02c-4.81,0-6.42,3.48-7.08,8.16l-8.02,56.55c-0.27,2.01-0.27,3.88-0.27,4.81
				c0,3.48,2.27,6.02,5.61,6.02C810.31,1127.7,811.92,1124.22,812.59,1119.54z"/>
		</g>
	</g>
	<g>
		<path class="st0" d="M563.92,526.06h-32.96c-15.08,0-21.79,10.62-23.46,21.23l-23.46,160.89c-1.12,6.7-6.15,12.29-13.41,12.29
			h-25.7c-7.26,0-13.41-5.59-13.41-12.29c0-1.68,0.56-10.05,2.23-21.23l16.76-116.2c1.68-11.73,2.23-18.99,2.23-22.9
			c0-8.94-6.7-21.79-22.9-21.79h-33.52c-15.08,0-21.79,10.62-23.46,21.23l-54.75,389.38c-2.79,18.44-3.35,24.58-3.35,28.49
			c0,8.94,6.15,21.79,22.35,21.79h33.52c13.97,0,21.23-8.94,23.46-21.79l23.46-159.21c1.12-6.7,6.14-12.29,13.41-12.29h25.7
			c7.26,0,13.41,5.59,13.41,12.29c0,1.68-1.12,11.17-2.23,20.67l-16.2,111.73c-2.23,15.64-2.79,22.9-2.79,26.81
			c0,8.94,6.7,21.79,22.9,21.79h32.96c15.08,0,21.79-10.61,23.46-21.23l55.87-392.17c2.23-14.53,2.79-21.79,2.79-25.7
			C586.82,538.91,580.12,526.06,563.92,526.06z"/>
		<path class="st0" d="M851.61,547.85c0-8.94-6.7-21.79-22.9-21.79h-33.52c-15.08,0-21.79,10.62-23.46,21.23l-47.48,332.95
			c-2.23,18.44-9.5,34.08-29.61,34.08c-13.97,0-23.46-10.61-23.46-25.14c0-3.91,0-10.05,1.12-17.32l43.02-311.72
			c0.56-3.35,1.68-8.38,1.68-12.29c0-8.94-6.15-21.79-22.35-21.79h-33.52c-15.08,0-21.79,10.62-23.46,21.23l-43.02,299.43
			c-2.79,18.44-3.35,35.75-3.35,50.28c0,22.35,5.03,40.78,18.44,58.66c15.08,20.67,46.93,35.19,83.24,35.19
			c35.75,0,62.01-10.61,81-31.28c16.76-18.44,26.26-46.93,32.4-88.27l43.02-303.35C851.05,557.34,851.61,551.76,851.61,547.85z"/>
		<path class="st0" d="M1073.95,550.08c-16.76-15.08-41.9-24.02-77.65-24.02h-71.51c-15.08,0-21.79,10.62-23.46,21.23L845.46,945.6
			c-1.12,11.17-2.23,15.64-2.23,19.55c0,8.94,6.14,21.79,22.35,21.79h91.06c27.37,0,46.93-5.03,62.01-13.97
			c32.4-18.44,45.25-52.51,51.95-97.2l2.79-17.88c1.12-8.94,2.23-21.23,2.23-27.93c0-21.23-1.68-43.57-17.32-57.54l-4.47-3.91
			c-2.79-2.79-3.35-5.03-3.35-7.26c0-3.35,1.68-6.7,5.03-9.5l5.59-3.91c22.35-15.64,31.28-31.84,38.55-74.3
			c2.79-18.44,3.35-43.57,3.35-55.31C1102.99,590.31,1092.94,566.28,1073.95,550.08z M995.18,833.32l-6.7,44.69
			c-2.23,17.32-5.59,21.23-10.61,26.81c-5.03,5.03-11.17,7.26-20.67,7.26h-10.61c-9.5,0-13.97-3.91-13.97-12.29
			c0-6.14,13.41-94.97,13.41-94.97c1.12-7.26,6.7-12.85,15.08-12.85h11.73c11.17,0,24.02,6.14,24.02,24.58
			C996.85,820.47,996.29,824.38,995.18,833.32z M1021.99,642.26l-6.14,44.13c-1.68,13.97-3.91,21.23-8.94,26.82
			c-5.03,5.03-11.17,7.26-20.67,7.26h-12.29c-9.5,0-13.97-3.91-13.97-12.29c0-8.38,12.85-94.41,12.85-94.41
			c1.12-7.26,6.7-12.85,15.08-12.85h10.61c15.64,0,24.58,11.73,24.58,24.58C1023.11,629.41,1023.11,636.11,1021.99,642.26z"/>
		<path class="st0" d="M240.71,704.97c-6.37-6.37-15.93-8.31-24.28-4.94l-93.06,37.62c-18.71,7.56-18.71,34.05,0,41.62l93.06,37.62
			c8.35,3.38,17.91,1.43,24.28-4.94l37.62-37.62c8.77-8.77,8.77-22.98,0-31.74L240.71,704.97z"/>
		<path class="st0" d="M1294.38,746.99l-93.06-37.62c-8.35-3.38-17.91-1.43-24.28,4.94l-37.62,37.62c-8.77,8.77-8.77,22.98,0,31.74
			l37.62,37.62c6.37,6.37,15.93,8.31,24.28,4.94l93.06-37.62C1313.09,781.05,1313.09,754.56,1294.38,746.99z"/>
	</g>
</g>
<g>
	<circle class="st3" cx="164.86" cy="758.56" r="9"/>
</g>
<g>
	<circle class="st3" cx="225.51" cy="758.56" r="9"/>
</g>
<g>
	<circle class="st3" cx="1192.37" cy="768.86" r="9"/>
</g>
<g>
	<circle class="st3" cx="1253.02" cy="768.86" r="9"/>
</g>
<g>
	<circle class="st3" cx="411.49" cy="565.21" r="9"/>
</g>
<g>
	<circle class="st3" cx="402.37" cy="628.5" r="9"/>
</g>
<g>
	<circle class="st3" cx="393.26" cy="691.79" r="9"/>
</g>
<g>
	<circle class="st3" cx="383.67" cy="758.37" r="9"/>
</g>
<g>
	<circle class="st3" cx="453.94" cy="758.37" r="9"/>
</g>
<g>
	<circle class="st3" cx="374.08" cy="824.96" r="9"/>
</g>
<g>
	<circle class="st3" cx="364.73" cy="891.54" r="9"/>
</g>
<g>
	<circle class="st3" cx="355.86" cy="951.54" r="9"/>
</g>
<g>
	<circle class="st3" cx="543.53" cy="565.21" r="9"/>
</g>
<g>
	<circle class="st3" cx="534.41" cy="628.5" r="9"/>
</g>
<g>
	<circle class="st3" cx="525.3" cy="691.79" r="9"/>
</g>
<g>
	<circle class="st3" cx="515.71" cy="758.37" r="9"/>
</g>
<g>
	<circle class="st3" cx="506.12" cy="824.96" r="9"/>
</g>
<g>
	<circle class="st3" cx="496.77" cy="891.54" r="9"/>
</g>
<g>
	<circle class="st3" cx="487.9" cy="951.54" r="9"/>
</g>
<g>
	<circle class="st3" cx="675.78" cy="565.21" r="9"/>
</g>
<g>
	<circle class="st3" cx="666.66" cy="628.5" r="9"/>
</g>
<g>
	<circle class="st3" cx="657.55" cy="691.79" r="9"/>
</g>
<g>
	<circle class="st3" cx="647.96" cy="758.37" r="9"/>
</g>
<g>
	<circle class="st3" cx="638.37" cy="824.96" r="9"/>
</g>
<g>
	<circle class="st3" cx="629.02" cy="891.54" r="9"/>
</g>
<g>
	<circle class="st3" cx="655.15" cy="951.54" r="9"/>
</g>
<g>
	<circle class="st3" cx="810.62" cy="565.21" r="9"/>
</g>
<g>
	<circle class="st3" cx="801.51" cy="628.5" r="9"/>
</g>
<g>
	<circle class="st3" cx="792.39" cy="691.79" r="9"/>
</g>
<g>
	<circle class="st3" cx="782.81" cy="758.37" r="9"/>
</g>
<g>
	<circle class="st3" cx="773.22" cy="824.96" r="9"/>
</g>
<g>
	<circle class="st3" cx="763.87" cy="891.54" r="9"/>
</g>
<g>
	<circle class="st3" cx="724.11" cy="951.54" r="9"/>
</g>
<g>
	<circle class="st3" cx="939.98" cy="565.21" r="9"/>
</g>
<g>
	<circle class="st3" cx="930.86" cy="628.5" r="9"/>
</g>
<g>
	<circle class="st3" cx="921.75" cy="691.79" r="9"/>
</g>
<g>
	<circle class="st3" cx="912.16" cy="758.37" r="9"/>
</g>
<g>
	<circle class="st3" cx="902.57" cy="824.96" r="9"/>
</g>
<g>
	<circle class="st3" cx="893.22" cy="891.54" r="9"/>
</g>
<g>
	<circle class="st3" cx="884.35" cy="951.54" r="9"/>
</g>
<g>
	<circle class="st3" cx="1021.71" cy="565.21" r="9"/>
</g>
<g>
	<circle class="st3" cx="1064.07" cy="628.5" r="9"/>
</g>
<g>
	<circle class="st3" cx="1054.96" cy="691.79" r="9"/>
</g>
<g>
	<circle class="st3" cx="998.02" cy="758.37" r="9"/>
</g>
<g>
	<circle class="st3" cx="1035.78" cy="824.96" r="9"/>
</g>
<g>
	<circle class="st3" cx="1026.43" cy="891.54" r="9"/>
</g>
<g>
	<circle class="st3" cx="970.2" cy="951.54" r="9"/>
</g>
</svg>
