<?xml version="1.0" encoding="utf-8"?>
<!-- Generator: Fusion 360, Shaper Origin Export Add-In, Version 1.7.0  -->
<svg xmlns="http://www.w3.org/2000/svg" xmlns:xlink="http://www.w3.org/1999/xlink" xmlns:shaper="http://www.shapertools.com/namespaces/shaper" shaper:fusionaddin="version:1.7.0" width="56.4cm" height="19.45cm" version="1.1" x="0cm" y="0cm" viewBox="0 0 56.4 19.45" enable-background="new 0 0 56.4 19.45" xml:space="preserve"><path d="M25,9.725 L-25,9.725 A3.2,3.2 90 0,1 -28.2,6.525 L-28.2,-9.725 28.2,-9.725 28.2,6.525 A3.2,3.2 0 0,1 25,9.725z" transform="matrix(1,0,0,-1,28.2,9.725)" fill="rgb(0,0,0)" shaper:cutDepth="1.8cm" stroke-linecap="round" stroke-linejoin="round" /><path d="M-18.4133514,5.5861436 L-8.5138564,-4.3133514 -9.7866486,-5.5861436 -19.6861436,4.3133514 -18.4133514,5.5861436z" transform="matrix(1,0,0,-1,28.2,9.725)" fill="rgb(133,133,133)" fill-rule="nonzero" shaper:cutDepth="0.6cm" stroke-linecap="round" stroke-linejoin="round" /><path d="M9.7866486,-5.5861436 L8.5138564,-4.3133514 18.4133514,5.5861436 19.6861436,4.3133514 9.7866486,-5.5861436z" transform="matrix(1,0,0,-1,28.2,9.725)" fill="rgb(133,133,133)" fill-rule="nonzero" shaper:cutDepth="0.6cm" stroke-linecap="round" stroke-linejoin="round" /></svg>