<?xml version="1.0" encoding="utf-8"?>
<!-- Generator: Fusion 360, Shaper Origin Export Add-In, Version 1.8.0  -->
<svg xmlns="http://www.w3.org/2000/svg" xmlns:xlink="http://www.w3.org/1999/xlink" xmlns:shaper="http://www.shapertools.com/namespaces/shaper" shaper:fusionaddin="version:1.8.0" width="45.4048491cm" height="8.3182518cm" version="1.1" x="0cm" y="0cm" viewBox="0 0 45.4048491 8.3182518" enable-background="new 0 0 45.4048491 8.3182518" xml:space="preserve"><path d="M-18.9570634,-5.0083192 L-19.3745827,-2.037515 -22.3745827,-2.037515 -22.3745827,0.062485 -19.6697185,0.062485 -20.1261175,3.3099326 A6.3,6.3 219.4714701 0,1 -15.5699614,1.0222924 L11.7040058,-0.3086727 A2.1,2.1 267.2061916 0,1 13.887182,2.0720182 L13.8697136,2.2003733 15.9543871,2.4933551 16.131352,1.1930419 A2.1,2.1 187.75 0,1 18.1098125,-0.6212751 L22.5323692,-0.8370951 A0.3,0.3 87.2061916 0,0 22.8148271,-1.0949866 L23.0273468,-2.6071425 A0.3,0.3 8 0,0 22.8383284,-2.9287562 L-14.2796805,-2.9287562 A6.3,6.3 90 0,1 -18.9570634,-5.0083192z" transform="matrix(1,0,0,-1,22.3745827,3.3099326)" fill="rgb(0,0,0)" shaper:cutDepth="1.27cm" stroke-linecap="round" stroke-linejoin="round" /></svg>