<?xml version="1.0" encoding="utf-8"?>
<!-- Generator: Fusion 360, Shaper Origin Export Add-In, Version 1.8.0  -->
<svg xmlns="http://www.w3.org/2000/svg" xmlns:xlink="http://www.w3.org/1999/xlink" xmlns:shaper="http://www.shapertools.com/namespaces/shaper" shaper:fusionaddin="version:1.8.0" width="60.9569229cm" height="15.2369229cm" version="1.1" x="0cm" y="0cm" viewBox="0 0 60.9569229 15.2369229" enable-background="new 0 0 60.9569229 15.2369229" xml:space="preserve"><path d="M-30.3673275,4.2867409 L-30.3673275,4.2867409 -30.3559566,4.1206373 -30.3440776,3.9554027 -30.3316736,3.7910454 -30.3187278,3.6275738 -30.3052235,3.4649962 -30.2911438,3.303321 -30.2764719,3.1425565 -30.2611911,2.9827112 -30.2452846,2.8237934 -30.2287354,2.6658113 -30.2115269,2.5087735 -30.1936422,2.3526882 -30.1750646,2.1975638 -30.1557772,2.0434087 -30.1357633,1.8902312 -30.115006,1.7380397 -30.0934885,1.5868425 -30.0711941,1.436648 -30.0481059,1.2874646 -30.0242071,1.1393006 -29.999481,0.9921644 -29.9739108,0.8460644 -29.9474796,0.7010088 -29.9201706,0.5570061 -29.891967,0.4140646 -29.8628521,0.2721926 -29.8328091,0.1313986 -29.8018211,-0.0083091 -29.7698713,-0.1469221 -29.736943,-0.2844322 -29.7030193,-0.4208308 -29.6680835,-0.5561098 -29.632115,-0.690274 -29.5949109,-0.8239497 -29.5563368,-0.9574411 -29.5163558,-1.0906908 -29.4749313,-1.223641 -29.4320263,-1.3562341 -29.3876041,-1.4884125 -29.3416279,-1.6201185 -29.2940611,-1.7512946 -29.2448667,-1.881883 -29.194008,-2.0118262 -29.1414482,-2.1410664 -29.0871507,-2.2695462 -29.0310784,-2.3972078 -28.9731948,-2.5239936 -28.913463,-2.649846 -28.8518463,-2.7747074 -28.7883078,-2.89852 -28.7228108,-3.0212264 -28.6553185,-3.1427688 -28.6208126,-3.2030855 -28.5857942,-3.2630896 -28.5502585,-3.3227739 -28.514201,-3.3821311 -28.4776171,-3.4411542 -28.4405022,-3.4998359 -28.4028517,-3.5581689 -28.3646873,-3.616108 -28.3260363,-3.673603 -28.2868957,-3.73065 -28.2472619,-3.7872455 -28.2071318,-3.8433858 -28.166502,-3.8990673 -28.1253691,-3.9542864 -28.0837299,-4.0090393 -28.041581,-4.0633224 -27.9989191,-4.1171321 -27.955741,-4.1704648 -27.9120431,-4.2233168 -27.8678223,-4.2756845 -27.8230753,-4.3275642 -27.7777986,-4.3789522 -27.7319891,-4.429845 -27.6856432,-4.4802389 -27.6387579,-4.5301302 -27.5913296,-4.5795153 -27.5433552,-4.6283906 -27.4948312,-4.6767524 -27.4457543,-4.724597 -27.3961214,-4.7719209 -27.3459289,-4.8187204 -27.2951736,-4.8649918 -27.2438522,-4.9107314 -27.1919614,-4.9559358 -27.1394977,-5.0006011 -27.086458,-5.0447238 -27.0328389,-5.0883002 -26.978637,-5.1313267 -26.9238491,-5.1737996 -26.8684719,-5.2157153 -26.8125019,-5.2570702 -26.7559688,-5.2978375 -26.6990706,-5.3378789 -26.6418432,-5.3771785 -26.5842899,-5.4157441 -26.5264138,-5.4535835 -26.4682179,-5.4907046 -26.4097053,-5.5271152 -26.3508792,-5.5628232 -26.2917426,-5.5978363 -26.2322987,-5.6321626 -26.1725505,-5.6658097 -26.1125011,-5.6987856 -26.0521536,-5.7310981 -25.9915112,-5.7627549 -25.930577,-5.7937641 -25.8693539,-5.8241333 -25.8078452,-5.8538705 -25.7460539,-5.8829835 -25.6839831,-5.9114801 -25.621636,-5.9393683 -25.5590156,-5.9666557 -25.496125,-5.9933503 -25.4329673,-6.0194599 -25.3695457,-6.0449923 -25.3058632,-6.0699554 -25.2419228,-6.0943571 -25.1777278,-6.1182051 -25.0485862,-6.1642717 -24.918463,-6.2082179 -24.7873831,-6.2501065 -24.6553711,-6.2900001 -24.522452,-6.3279616 -24.3886506,-6.3640537 -24.2539915,-6.3983391 -24.118318,-6.4309227 -23.9813556,-6.4619244 -23.8431021,-6.4913921 -23.7035586,-6.5193726 -23.5627264,-6.5459131 -23.4206066,-6.5710606 -23.2772004,-6.5948621 -23.1325091,-6.6173645 -22.9865339,-6.638615 -22.8392759,-6.6586604 -22.6907363,-6.677548 -22.5409164,-6.6953245 -22.3898174,-6.7120371 -22.2374404,-6.7277328 -22.0837866,-6.7424586 -21.9288573,-6.7562615 -21.7726536,-6.7691885 -21.6151767,-6.7812867 -21.4564279,-6.792603 -21.2964083,-6.8031844 -21.1351192,-6.8130781 -20.9725617,-6.8223309 -20.808737,-6.8309899 -20.6436464,-6.8391021 -20.477291,-6.8467146 -20.3096721,-6.8538743 -20.1407907,-6.8606283 -19.9706483,-6.8670235 -19.7992458,-6.873107 -19.6265846,-6.8789258 -19.4526658,-6.8845269 -19.2774906,-6.8899574 -19.1010603,-6.8952642 -18.9233759,-6.9004944 -18.7444388,-6.9056949 A1699.9969229,1699.9969229 268.340786 0,1 30.4784614,-7.6184614 L30.4784614,7.6184614 -30.4784614,7.6184614 A49.9969229,49.9969229 180 0,1 -30.3673275,4.2867409z" transform="matrix(1,0,0,-1,30.4784614,7.6184614)" fill="rgb(0,0,0)" shaper:cutDepth="1.27cm" stroke-linecap="round" stroke-linejoin="round" /><path d="M-21.2701007,-3.2492671 a0.396875,0.396875 0 1,1 0.79375,0 a0.396875,0.396875 0 1,1 -0.79375,0z" transform="matrix(1,0,0,-1,30.4784614,7.6184614)" fill="rgb(255,255,255)" stroke="rgb(0,0,0)" stroke-width="0.0010cm" stroke-linecap="round" stroke-linejoin="round" shaper:cutDepth="1.27cm" /></svg>