<?xml version="1.0" encoding="utf-8"?>
<!-- Generator: Fusion 360, Shaper Origin Export Add-In, Version 1.8.0  -->
<svg xmlns="http://www.w3.org/2000/svg" xmlns:xlink="http://www.w3.org/1999/xlink" xmlns:shaper="http://www.shapertools.com/namespaces/shaper" shaper:fusionaddin="version:1.8.0" width="53.4809503cm" height="15.2388904cm" version="1.1" x="0cm" y="0cm" viewBox="0 0 53.4809503 15.2388904" enable-background="new 0 0 53.4809503 15.2388904" xml:space="preserve"><path d="M-24.352987,-4.1086914 L-24.352987,-4.1086914 -24.3371113,-4.1471701 -24.3222915,-4.1853481 -24.3085294,-4.2231954 -24.2958268,-4.2606816 -24.2841855,-4.2977768 -24.2736074,-4.3344506 -24.2640943,-4.3706729 -24.255648,-4.4064136 -24.2482703,-4.4416424 -24.2419628,-4.4763281 -24.2367156,-4.5104208 -24.2325086,-4.5439036 -24.2293224,-4.5767729 -24.2271375,-4.6090254 -24.2259345,-4.6406574 -24.2256939,-4.6716656 -24.2263963,-4.7020463 -24.2280222,-4.7317962 -24.2305522,-4.7609118 -24.2339668,-4.7893894 -24.2382465,-4.8172257 -24.243372,-4.8444172 -24.2493213,-4.8709648 -24.2560658,-4.8969004 -24.2635992,-4.9222426 -24.2719187,-4.9470051 -24.2810216,-4.9712019 -24.2909051,-4.9948467 -24.3015665,-5.0179535 -24.313003,-5.040536 -24.325212,-5.0626082 -24.3381905,-5.084184 -24.351936,-5.1052771 -24.3664469,-5.1259027 -24.3817409,-5.1460816 -24.3978372,-5.165814 -24.414752,-5.1850951 -24.432502,-5.2039203 -24.4511036,-5.2222851 -24.4705733,-5.2401847 -24.4909274,-5.2576145 -24.5121826,-5.2745699 -24.5343552,-5.2910461 -24.5574617,-5.3070386 -24.5815186,-5.3225428 -24.6065431,-5.3375532 -24.632567,-5.3520436 -24.659596,-5.3659866 -24.6876238,-5.3793614 -24.716644,-5.3921473 -24.7466501,-5.4043238 -24.7776358,-5.41587 -24.8095946,-5.4267654 -24.8425201,-5.4369891 -24.876406,-5.4465207 -24.9112459,-5.4553392 -24.9470332,-5.4634241 -24.9837543,-5.470755 -25.0213625,-5.4773169 -25.0598233,-5.4831011 -25.0991047,-5.4880987 -25.1391746,-5.4923009 -25.1800007,-5.4956989 -25.221551,-5.498284 A1002.1000017,1002.1000017 92.9722987 0,1 -25.856888,-5.5314748 L-25.7516067,-7.6194452 A1000,1000 93.0089576 0,0 26.7404751,-6.2407855 L26.7404751,7.6194452 -26.7404751,7.6194452 A30,30 180 0,1 -24.352987,-4.1086914z" transform="matrix(1,0,0,-1,26.7404751,7.6194452)" fill="rgb(0,0,0)" shaper:cutDepth="1.27cm" stroke-linecap="round" stroke-linejoin="round" /></svg>