<?xml version="1.0" encoding="utf-8"?>
<!-- Generator: Fusion 360, Shaper Origin Export Add-In, Version 1.6.10  -->
<svg xmlns="http://www.w3.org/2000/svg" xmlns:xlink="http://www.w3.org/1999/xlink" xmlns:shaper="http://www.shapertools.com/namespaces/shaper" shaper:fusionaddin="version:1.6.10" width="5.7162347cm" height="3.2710182cm" version="1.1" x="0cm" y="0cm" viewBox="0 0 5.7162347 3.2710182" enable-background="new 0 0 5.7162347 3.2710182" xml:space="preserve"><path d="M0.773268,-1.6741143 L-0.7786931,-1.6741143 -0.7786931,-1.6741143 -0.8323897,-1.6754675 -0.8851616,-1.6757571 -0.9369888,-1.6750824 -0.9878515,-1.6735427 -1.0377298,-1.6712372 -1.0866039,-1.6682653 -1.1344541,-1.6647262 -1.1812603,-1.6607193 -1.226329,-1.6563923 -1.2694571,-1.651834 -1.310527,-1.6471327 -1.349412,-1.6423777 -1.3859858,-1.6376582 -1.4033663,-1.6353397 -1.4201215,-1.6330635 -1.4362356,-1.6308408 -1.4516928,-1.6286828 -1.4664772,-1.6266006 -1.480573,-1.6246054 -1.480573,-1.6246054 -1.5171922,-1.6190773 -1.5537367,-1.6127336 -1.5901901,-1.6055696 -1.6265363,-1.5975805 -1.662759,-1.5887617 -1.698842,-1.5791083 -1.7347691,-1.5686158 -1.7705241,-1.5572793 -1.8060907,-1.5450941 -1.8414528,-1.5320556 -1.8765941,-1.5181589 -1.9114984,-1.5033993 -1.9461494,-1.4877722 -1.9805311,-1.4712728 -2.014627,-1.4538963 -2.0484211,-1.4356381 -2.0818971,-1.4164934 -2.1150403,-1.3964488 -2.147761,-1.3755345 -2.1800307,-1.3537578 -2.2118248,-1.3311236 -2.2431185,-1.307637 -2.2738871,-1.2833032 -2.3041058,-1.2581273 -2.3337499,-1.2321142 -2.3627947,-1.2052692 -2.3912154,-1.1775972 -2.4189873,-1.1491034 -2.4460856,-1.1197928 -2.4724856,-1.0896706 -2.4981626,-1.0587418 -2.5230918,-1.0270115 -2.5472072,-0.9945365 -2.5703914,-0.9614508 -2.5926356,-0.9277826 -2.6139323,-0.8935613 -2.634274,-0.8588163 -2.6536532,-0.823577 -2.6720624,-0.7878728 -2.6894943,-0.751733 -2.7059411,-0.7151872 -2.7213955,-0.6782646 -2.73585,-0.6409946 -2.7492971,-0.6034067 -2.7617292,-0.5655302 -2.773139,-0.5273945 -2.7835189,-0.4890291 -2.7928447,-0.4505674 -2.8011153,-0.4121749 -2.8083585,-0.3738629 -2.814599,-0.3356506 -2.8198616,-0.2975569 -2.8241712,-0.2596011 -2.8275525,-0.2218022 -2.8300303,-0.1841792 -2.8316295,-0.1467513 -2.8323747,-0.1095375 -2.8322908,-0.072557 -2.8314026,-0.0358288 -2.829735,0.000628 -2.8273125,0.0367944 -2.8241602,0.0726512 -2.8203027,0.1081793 -2.8157649,0.1433597 -2.7641859,0.5140724 -2.7641859,0.5140724 -2.7563643,0.5635001 -2.746525,0.6133766 -2.7345863,0.6635723 -2.7204666,0.7139577 -2.7040844,0.7644032 -2.6853581,0.8147793 -2.6750904,0.8399008 -2.6642061,0.8649564 -2.6526949,0.8899299 -2.6405467,0.914805 -2.6277513,0.9395656 -2.6142985,0.9641956 -2.6001761,0.9886818 -2.5853844,1.0129781 -2.5699879,1.0369577 -2.5539968,1.0606043 -2.5374217,1.0839019 -2.520273,1.1068343 -2.5025613,1.1293854 -2.484297,1.1515389 -2.4654905,1.1732789 -2.4461524,1.1945891 -2.426293,1.2154534 -2.405923,1.2358557 -2.3850527,1.2557798 -2.3636926,1.2752096 -2.3418532,1.294129 -2.319545,1.3125218 -2.2967784,1.3303718 -2.2735848,1.3476538 -2.2500598,1.3643124 -2.2262253,1.3803443 -2.2020981,1.3957501 -2.1776947,1.4105302 -2.1530318,1.4246854 -2.1281259,1.4382162 -2.1029936,1.4511231 -2.0776517,1.4634068 -2.0521166,1.4750677 -2.0264049,1.4861066 -2.0005334,1.4965239 -1.9745186,1.5063202 -1.9483771,1.5154962 -1.9221527,1.5240458 -1.8958896,1.5319705 -1.8695943,1.5392804 -1.8169488,1.5520879 -1.7643002,1.5625337 -1.7117325,1.5706831 -1.6593297,1.5766015 -1.6071756,1.580354 -1.5812181,1.5814385 -1.5682739,1.5817864 -1.5618109,1.5819122 -1.5587768,1.5819602 -1.5572703,1.5819826 -1.5572703,1.5819826 -1.5023854,1.5825294 -1.4464414,1.5830796 -1.3894959,1.5836319 -1.3316044,1.584185 -1.2728226,1.5847379 -1.2132058,1.5852892 -1.1528097,1.5858378 -1.0916897,1.5863826 -1.0299013,1.5869222 -0.9675001,1.5874556 -0.8410812,1.5884986 -0.7128772,1.5895022 -0.5833322,1.5904567 -0.0606242,1.5935928 0.068964,1.5941585 0.1972285,1.5946177 0.3237252,1.5949609 0.3861718,1.595086 0.4480098,1.5951786 0.5091838,1.5952373 0.5696383,1.595261 0.6293177,1.5952486 0.6881666,1.5951988 0.7461293,1.5951104 0.8031504,1.5949823 0.859225,1.5948133 0.91458,1.5946025 0.9691929,1.5943475 1.0229966,1.5940459 1.0759242,1.5936953 1.1279084,1.5932934 1.1788821,1.5928377 1.2287784,1.5923259 1.2775299,1.5917555 1.3250698,1.5911243 1.3713308,1.5904297 1.4162459,1.5896694 1.459748,1.588841 1.5017665,1.5879431 1.5422654,1.5869716 1.58125,1.5859173 1.6187268,1.5847709 1.6547019,1.5835229 1.6891816,1.582164 1.7221564,1.5806887 1.7536465,1.5790958 1.7841084,1.5772995 1.84406,1.5726945 1.8748753,1.5696278 1.8913396,1.5677021 1.9090414,1.5653723 1.9090414,1.5653723 1.9307871,1.5622194 1.9530727,1.5586995 1.9758864,1.5547586 1.9992163,1.5503426 2.0230507,1.5453975 2.0473776,1.5398691 2.0721855,1.5337034 2.0974623,1.5268463 2.1231963,1.5192437 2.1493757,1.5108416 2.1759887,1.5015858 2.2030235,1.4914224 2.2304682,1.4802972 2.2583111,1.4681561 2.2865404,1.4549452 2.3151441,1.4406102 2.344074,1.4251047 2.3731155,1.4083476 2.4021708,1.3903029 2.4311389,1.3709771 2.4599189,1.3503763 2.4884099,1.3285068 2.5165108,1.305375 2.5441209,1.280987 2.5711391,1.2553493 2.5974646,1.228468 2.6229963,1.2003495 2.6476324,1.1710013 2.6710383,1.140785 2.693017,1.1100503 2.7135911,1.0788954 2.7327834,1.0474186 2.7506165,1.0157181 2.7671129,0.9838922 2.7822953,0.9520391 2.7961864,0.9202571 2.8088087,0.8886445 2.820185,0.8572994 2.8303476,0.8263197 2.8393902,0.7958532 2.8473816,0.7659464 2.8543848,0.7366082 2.8604627,0.7078471 2.8656782,0.6796717 2.8700943,0.6520907 2.8737739,0.6251126 2.8767799,0.598746 2.8791753,0.5729996 2.8810231,0.5478821 2.8823861,0.5234019 2.8833221,0.4994845 2.88386,0.4760288 2.8838305,0.4304731 2.8824763,0.3866717 2.8799767,0.3445607 2.8765108,0.304076 2.8722576,0.2651535 2.8673962,0.2277293 2.8076502,-0.2016823 2.8076502,-0.2016823 2.8015043,-0.243563 2.7947189,-0.2852752 2.7872573,-0.3268112 2.7790826,-0.3681633 2.770158,-0.4093236 2.7604466,-0.4502845 2.7499118,-0.4910382 2.7385166,-0.531577 2.7262243,-0.5718932 2.712998,-0.6119789 2.698801,-0.6518265 2.6835964,-0.6914282 2.6673474,-0.7307762 2.6500172,-0.7698629 2.6315694,-0.8086791 2.6119942,-0.8471402 2.5911731,-0.8853282 2.5690777,-0.9232155 2.5457241,-0.9607207 2.5211285,-0.9977624 2.4953068,-1.0342592 2.4682751,-1.0701296 2.4400496,-1.1052923 2.4106968,-1.1396136 2.3805722,-1.1727215 2.3498141,-1.2045629 2.3185098,-1.2351444 2.2867466,-1.2644727 2.2546119,-1.2925542 2.2221931,-1.3193957 2.1895774,-1.3450037 2.1854909,-1.3481183 2.1817462,-1.3509548 2.1769999,-1.3545416 2.1675073,-1.3617154 2.1675073,-1.3617154 2.1566452,-1.3690587 2.1539297,-1.3708945 2.1525719,-1.3718124 2.1504577,-1.3732398 2.1409368,-1.3796017 2.1022065,-1.404408 2.0625075,-1.428168 2.0219271,-1.4508558 1.9805528,-1.472445 1.9384717,-1.4929095 1.8957713,-1.5122232 1.8525388,-1.5303598 1.8088617,-1.5472932 1.7648271,-1.5629972 1.7205226,-1.5774455 1.6760353,-1.5906121 1.6314521,-1.6024723 1.5868032,-1.6131328 1.5420512,-1.6227263 1.4973068,-1.6313535 1.4526969,-1.6390499 1.4081824,-1.6458618 1.3637247,-1.651835 1.3192849,-1.6570156 1.2748241,-1.6614496 1.2303035,-1.6651831 1.1856843,-1.6682621 1.1409277,-1.6707326 1.0508468,-1.6740322 0.9597503,-1.6754503 0.8673276,-1.6753549 0.773268,-1.6741143z" transform="matrix(1,0,0,-1,2.8323747,1.595261)" fill="rgb(0,0,0)" shaper:cutDepth="0.0127" stroke-linecap="round" stroke-linejoin="round" /></svg>