<?xml version="1.0" encoding="utf-8"?>
<!-- Generator: Fusion 360, Shaper Origin Export Add-In, Version 1.6.10  -->
<svg xmlns="http://www.w3.org/2000/svg" xmlns:xlink="http://www.w3.org/1999/xlink" xmlns:shaper="http://www.shapertools.com/namespaces/shaper" shaper:fusionaddin="version:1.6.10" width="36.9590795cm" height="46.1635546cm" version="1.1" x="0cm" y="0cm" viewBox="0 0 36.9590795 46.1635546" enable-background="new 0 0 36.9590795 46.1635546" xml:space="preserve"><path d="M3.5435954,18.8352021 L3.5435954,18.8352021 3.5777091,18.7743782 3.6103509,18.7128049 3.6415074,18.6505033 3.6711651,18.5874943 3.6993108,18.5237992 3.7259309,18.4594388 3.7510121,18.3944343 3.7745408,18.3288066 3.7964895,18.2626212 3.8168285,18.195963 3.83555,18.1288597 3.8526462,18.0613386 3.8681096,17.9934269 3.8819322,17.9251519 3.8941065,17.8565409 3.9046247,17.7876212 3.9046247,17.7876212 3.9136583,17.7168861 3.9209378,17.6460224 3.9264649,17.5750626 3.9302415,17.5040392 3.9322693,17.4329848 3.9325501,17.3619319 3.9310856,17.2909132 3.9278777,17.219961 3.9229282,17.1491081 3.9162388,17.0783869 3.9078113,17.0078299 3.8976475,16.9374698 3.8857492,16.8673391 3.8721182,16.7974703 3.8567562,16.727896 3.8396664,16.6586539 3.8208902,16.5899064 3.8004554,16.5217362 3.7783751,16.4541676 3.7546621,16.3872251 3.7293296,16.320933 3.7023906,16.2553157 3.6738581,16.1903976 3.6437451,16.1262031 3.6120647,16.0627566 3.5788297,16.0000825 3.5440534,15.9382051 3.5077486,15.8771488 3.4699284,15.816938 3.4306059,15.7575972 3.389794,15.6991506 3.3475057,15.6416228 3.2946449,15.5715132 3.2946449,15.5715132 3.3131332,15.5720402 3.3312895,15.5725246 3.3488779,15.5729603 3.3656698,15.5733415 3.3814469,15.5736633 3.3960041,15.5739216 3.4091523,15.5741129 3.4207205,15.5742348 3.4207205,15.5742348 3.4859254,15.5741188 4.1174915,15.5640336 4.1174915,15.5640336 4.2914897,15.5613253 4.4661982,15.5565458 4.6413761,15.5495218 4.7290659,15.5451138 4.8167829,15.5400796 4.9044968,15.5343975 4.9921776,15.5280459 5.0797953,15.521003 5.1673198,15.5132471 5.2547208,15.5047566 5.3419685,15.4955098 5.4290326,15.485485 5.5158831,15.4746606 5.6024899,15.4630147 5.6888381,15.4505258 5.7749478,15.4371701 5.8608223,15.4229228 5.946464,15.4077593 6.0318753,15.3916547 6.1170586,15.3745842 6.2020164,15.356523 6.2867511,15.3374463 6.3712652,15.3173293 6.455561,15.2961473 6.539641,15.2738753 6.6235075,15.2504887 6.7071631,15.2259626 6.7906102,15.2002723 6.8738512,15.1733929 6.8738512,15.1733929 6.9666473,15.1418861 7.0587888,15.1089168 7.1502583,15.0744723 7.2410384,15.0385396 7.3311119,15.0011061 7.4204612,14.9621588 7.5090691,14.9216849 7.5969182,14.8796718 7.6839912,14.8361064 7.7702707,14.7909761 7.8557393,14.7442681 7.9403796,14.6959694 8.0241744,14.6460673 8.1071063,14.594549 8.1891579,14.5414017 8.2703118,14.4866126 8.3504371,14.4302501 8.4292917,14.3724786 8.506867,14.3133092 8.5831614,14.252748 8.6581734,14.1908015 8.7319012,14.1274756 8.8043435,14.0627768 8.8754985,13.9967112 8.9453648,13.929285 9.0139406,13.8605045 9.0812246,13.7903758 9.147215,13.7189053 9.2119104,13.6460991 9.2753091,13.5719634 9.3374095,13.4965046 9.3982102,13.4197288 9.3982102,13.4197288 9.4630884,13.3361407 9.5260043,13.2514643 9.5869836,13.1657088 9.6460521,13.0788836 9.7032354,12.9909981 9.7585594,12.9020616 9.8120497,12.8120835 9.8637321,12.7210732 9.9136323,12.6290401 9.961776,12.5359934 10.008189,12.4419426 10.052897,12.346897 10.0959257,12.250866 10.1373009,12.153859 10.1770483,12.0558853 10.2151504,11.9570652 10.251569,11.8576006 10.2863374,11.7575307 10.3194899,11.6568927 10.3510607,11.5557235 10.381084,11.4540602 10.4095939,11.3519398 10.4366247,11.2493994 10.4622106,11.146476 10.4863858,11.0432066 10.5091845,10.9396284 10.5306409,10.8357784 10.5507893,10.7316935 10.5696637,10.6274109 10.5872985,10.5229676 10.6037278,10.4184007 10.6189859,10.3137471 10.8972668,8.3298141 10.8972668,8.3298141 10.9674074,8.3463179 11.0380572,8.3614145 11.10919,8.3750983 11.1807791,8.3873642 11.2527979,8.3982076 11.2527979,8.3982076 11.2974795,8.4041517 11.3427442,8.4095613 11.4342913,8.418854 11.5259764,8.4262408 11.6164599,8.4318834 11.707056,8.4360441 11.7981742,8.4388222 11.8893158,8.4402508 11.9799819,8.4403632 13.6772364,8.436204 13.6772364,8.436204 13.6893579,8.4361236 13.6893579,8.4361236 13.7399555,8.435515 13.7921312,8.434478 13.8458148,8.432937 13.9009362,8.4308162 13.9574254,8.4280396 14.0152124,8.4245315 14.074227,8.4202161 14.1343993,8.4150176 14.1956592,8.4088601 14.2579365,8.4016678 14.3211614,8.3933649 14.3852637,8.3838756 14.4501733,8.373124 14.5158202,8.3610344 14.5821343,8.347531 14.6487035,8.332618 14.7147591,8.3164212 14.7802656,8.2989272 14.8452123,8.2801173 14.9095884,8.2599729 14.9733832,8.2384754 15.0365859,8.215606 15.0991857,8.1913461 15.1611718,8.165677 15.2225335,8.1385801 15.28326,8.1100367 15.3433405,8.0800282 15.4027642,8.0485359 15.4615205,8.0155411 15.5195984,7.9810252 15.5769873,7.9449695 15.6336763,7.9073553 15.6336763,7.9073553 15.6366596,7.9053321 15.6390598,7.9036533 15.6427397,7.9011452 15.6427397,7.9011452 15.7065458,7.8558386 15.7689536,7.8089159 15.8299444,7.7604002 15.8894993,7.7103143 15.9475994,7.6586811 16.004226,7.6055233 16.0593602,7.550864 16.1129831,7.4947259 16.165076,7.4371319 16.2156199,7.3781048 16.2645961,7.3176677 16.3119856,7.2558432 16.3577697,7.1926543 16.4019296,7.1281238 16.4444019,7.0623458 16.4850711,6.9955199 16.5239327,6.9276885 16.5609868,6.8588867 16.5962338,6.7891494 16.6296741,6.7185115 16.6613077,6.6470081 16.6911352,6.5746741 16.7191567,6.5015445 16.7453454,6.4277354 16.7696868,6.3533507 16.7921935,6.2784241 16.8128781,6.2029892 16.8317534,6.1270797 16.848832,6.050729 16.8641264,5.9739709 16.8776495,5.8968388 16.8894138,5.8193666 16.8894138,5.8193666 16.8997147,5.7386427 16.9079899,5.6577757 16.9142335,5.5768245 16.9184409,5.4958486 16.920609,5.4149071 16.9207361,5.3340592 16.9188223,5.253364 16.914869,5.1728807 16.9088789,5.092668 16.9008565,5.0127847 16.8908077,4.9332892 16.8908077,4.9332892 16.9187326,4.8674406 16.944606,4.8007865 16.9684078,4.7333787 16.9901195,4.6652694 17.0097243,4.5965115 17.027207,4.5271583 17.0425541,4.4572636 17.0557535,4.3868817 17.0667951,4.3160672 17.2692214,2.8729205 17.2692214,2.8729205 17.2782979,2.7998499 17.285044,2.7266659 17.2894546,2.6534244 17.2915262,2.5801812 17.2912573,2.506992 17.2886481,2.4339126 17.2837006,2.3609988 17.2764186,2.288306 17.2764186,2.288306 17.3078224,2.2107167 17.3372115,2.1322477 17.3645742,2.0529304 17.3898996,1.9727964 17.4131775,1.8918776 17.4343986,1.8102063 17.4535546,1.7278151 17.4706377,1.6447368 17.4856412,1.5610047 17.498559,1.4766519 17.498559,1.4766519 17.5088708,1.395852 17.5171554,1.3149238 17.5234069,1.2339245 17.527621,1.1529114 17.5297946,1.0719415 17.5299262,0.991072 17.5280158,0.9103601 17.5240647,0.8298627 17.5180756,0.7496366 17.5100528,0.6697385 17.500002,0.5902248 17.500002,0.5902248 17.5279269,0.5243762 17.5538003,0.4577222 17.5776021,0.3903143 17.5993138,0.322205 17.6189187,0.2534471 17.6364014,0.1840939 17.6517484,0.1141993 17.6649478,0.0438173 17.6759894,-0.0269972 17.8784157,-1.4701438 17.8784157,-1.4701438 17.8842111,-1.5145537 17.8891443,-1.5589985 17.8932152,-1.6034685 17.8964236,-1.6479543 17.8987691,-1.6924464 17.9002517,-1.7369352 17.900871,-1.7814112 17.9006268,-1.8258649 17.899519,-1.8702867 17.8975473,-1.9146672 17.8947115,-1.9589969 17.8910114,-2.0032661 17.8864467,-2.0474654 17.8810172,-2.0915852 17.8747227,-2.1356161 17.867563,-2.1795485 17.8595379,-2.2233728 17.8506471,-2.2670797 17.8408904,-2.3106594 17.8302684,-2.3540993 17.818799,-2.397316 17.8064949,-2.4402679 17.7933622,-2.4829434 17.7794072,-2.5253306 17.7646362,-2.5674181 17.7490555,-2.609194 17.7326713,-2.6506467 17.7154899,-2.6917646 17.6975175,-2.7325359 17.6787604,-2.7729489 17.659225,-2.812992 17.6389174,-2.8526536 17.6178439,-2.8919218 17.5960109,-2.9307851 17.5734245,-2.9692317 17.550091,-3.00725 17.5260167,-3.0448283 17.5012079,-3.0819549 17.4756708,-3.1186181 17.4494163,-3.1548001 17.4224746,-3.1904588 17.3948575,-3.2255794 17.3665739,-3.2601517 17.3376326,-3.2941651 17.3080425,-3.3276093 17.2778124,-3.3604739 17.2469512,-3.3927485 17.2154677,-3.4244227 17.1833708,-3.4554861 17.1506692,-3.4859284 17.1173719,-3.5157391 17.0834897,-3.5449061 17.0490575,-3.5733982 17.014093,-3.6012008 16.9786062,-3.6283061 16.9426069,-3.6547065 16.9061051,-3.6803941 16.8691106,-3.7053613 16.8316334,-3.7296003 16.7936833,-3.7531034 16.7552703,-3.7758628 16.7164042,-3.7978709 16.677095,-3.8191199 16.6373525,-3.8396021 16.6373525,-3.8396021 16.6469808,-3.8859359 16.6558566,-3.932419 16.6638778,-3.979045 16.6709523,-4.025822 16.6709523,-4.025822 16.6809313,-4.1049243 16.6886852,-4.1840835 16.6942091,-4.2632498 16.6974995,-4.3423738 16.6985544,-4.421406 16.6973731,-4.5002968 16.6939563,-4.5789969 16.6883062,-4.6574571 16.6883062,-4.6574571 16.7151736,-4.7302179 16.7399322,-4.8036539 16.7625689,-4.8777258 16.7830714,-4.9523936 16.8014287,-5.0276171 16.8176309,-5.103356 16.8316693,-5.1795693 16.8435364,-5.2562162 16.8435364,-5.2562162 16.8534308,-5.3344034 16.8611848,-5.4126866 16.8667792,-5.4910249 16.8701952,-5.5693773 16.8714138,-5.6477027 16.8704161,-5.7259601 16.867183,-5.8041085 16.8616957,-5.8821068 16.8539353,-5.9599142 16.8438827,-6.0374895 16.831519,-6.1147917 16.8168253,-6.1917798 16.7997826,-6.2684128 16.7903745,-6.3065833 16.7803749,-6.3446377 16.7697984,-6.382509 16.7586479,-6.420183 16.7469248,-6.4576543 16.7346301,-6.4949175 16.7217651,-6.5319672 16.7083308,-6.5687979 16.6943285,-6.6054043 16.6797592,-6.6417809 16.6646242,-6.6779224 16.6489245,-6.7138233 16.6326614,-6.7494782 16.615836,-6.7848818 16.5984495,-6.8200285 16.580503,-6.854913 16.5619976,-6.8895299 16.5429346,-6.9238738 16.5233151,-6.9579393 16.5031432,-6.991716 16.4824526,-7.0251477 16.4612554,-7.0582176 16.4395557,-7.0909228 16.4173574,-7.12326 16.3946647,-7.1552263 16.3714815,-7.1868186 16.3478118,-7.2180336 16.3236598,-7.2488685 16.2990293,-7.2793202 16.2739245,-7.3093854 16.2483494,-7.3390612 16.222308,-7.3683445 16.1958044,-7.3972322 16.1688425,-7.4257213 16.1414264,-7.4538086 16.1135601,-7.4814911 16.0852477,-7.5087657 16.0564931,-7.5356293 16.0564931,-7.5356293 16.0435408,-7.5474202 16.0435408,-7.5474202 15.984887,-7.5988933 15.9248927,-7.6483864 15.8635713,-7.6958884 15.8009369,-7.7413884 15.7370037,-7.7848761 15.6717861,-7.8263417 15.605299,-7.8657757 15.5375574,-7.9031692 15.4685767,-7.9385137 15.3983727,-7.9718012 15.3269611,-8.0030242 15.2543583,-8.0321754 15.1805806,-8.0592484 15.1056449,-8.084237 15.0295682,-8.1071355 14.9523676,-8.1279387 14.8740608,-8.1466419 14.7946655,-8.1632409 14.7141997,-8.1777318 14.7141997,-8.1777318 14.6615461,-8.1858294 14.6615461,-8.1858294 14.5941791,-8.1944373 14.527045,-8.2013885 14.4597846,-8.2068217 14.3920513,-8.2108747 14.3238776,-8.2136684 14.2555699,-8.2153388 14.1874099,-8.2160292 14.1196796,-8.2158831 13.6434836,-8.2189143 13.6434836,-8.2189143 13.5918096,-8.2190199 13.5401626,-8.2183921 13.4885471,-8.2170154 13.4369673,-8.2148739 13.3854274,-8.2119521 13.3339318,-8.2082341 13.2824849,-8.2037042 13.2310907,-8.1983468 13.1797866,-8.1921504 13.1286464,-8.1851117 13.077671,-8.17722 13.0268584,-8.1684647 12.9762068,-8.1588351 12.9257144,-8.1483203 12.8753792,-8.1369097 12.8251993,-8.1245925 12.8251993,-8.1245925 12.8073877,-8.1686013 12.7888768,-8.2123051 12.7696487,-8.2556977 12.7496859,-8.2987726 12.7289854,-8.3414933 12.7075461,-8.3838259 12.6853523,-8.4257673 12.6623889,-8.4673145 12.6623889,-8.4673145 12.6610141,-8.4707868 12.6609254,-8.4746446 12.6609254,-8.4746446 12.6620721,-8.4783327 12.664349,-8.4812892 12.664349,-8.4812892 12.7063549,-8.5235858 12.7473922,-8.5667078 12.787454,-8.6106426 12.8265334,-8.6553775 12.8646234,-8.7008997 12.901717,-8.7471965 12.9378072,-8.7942552 12.9728871,-8.842063 13.0069498,-8.8906073 13.0399882,-8.9398754 13.0719954,-8.9898545 13.1029644,-9.040532 13.1328882,-9.091895 13.16176,-9.143931 13.1895727,-9.1966271 13.2163139,-9.2499593 13.2419209,-9.3037895 13.2663807,-9.3580689 13.2896976,-9.4127833 13.3118758,-9.4679184 13.3329196,-9.52346 13.3528331,-9.5793936 13.3716208,-9.6357051 13.3892867,-9.6923801 13.4058351,-9.7494045 13.4212703,-9.8067638 13.4355964,-9.8644438 13.4488179,-9.9224302 13.4609388,-9.9807088 13.4719634,-10.0392652 13.481896,-10.0980851 13.4907408,-10.1571544 13.6549946,-11.3281605 13.6549946,-11.3281605 13.6641598,-11.3989832 13.671779,-11.4698208 13.6778346,-11.5406565 13.6823088,-11.6114733 13.6851839,-11.6822542 13.6864422,-11.7529823 13.6860661,-11.8236407 13.6840378,-11.8942125 13.6803397,-11.9646808 13.674954,-12.0350285 13.667863,-12.1052388 13.659049,-12.1752948 13.6484944,-12.2451794 13.6361814,-12.3148759 13.6220923,-12.3843672 13.6062095,-12.4536365 13.5885188,-12.5226518 13.5690753,-12.5911288 13.5479132,-12.6589479 13.5250456,-12.7260871 13.5004857,-12.7925245 13.4742467,-12.8582383 13.4463417,-12.9232065 13.416784,-12.9874073 13.3855867,-13.0508188 13.3527629,-13.113419 13.3183259,-13.1751861 13.2822889,-13.2360981 13.2446648,-13.2961332 13.2054671,-13.3552695 13.1647088,-13.4134851 13.1224235,-13.4707304 13.0787249,-13.5268594 13.0336557,-13.5818368 12.9872476,-13.6356429 12.9395324,-13.6882575 12.890542,-13.7396609 12.8403083,-13.7898332 12.788863,-13.8387544 12.736238,-13.8864046 12.6824651,-13.9327639 12.6275761,-13.9778125 12.571603,-14.0215304 12.5145774,-14.0638977 12.4565314,-14.1048946 12.3974965,-14.1445011 12.3375068,-14.182696 12.2766145,-14.2194475 12.2148602,-14.2547321 12.1522801,-14.2885293 12.0889103,-14.3208187 12.0247869,-14.3515798 11.959946,-14.3807922 11.8944237,-14.4084353 11.8282563,-14.4344888 11.7614792,-14.4589321 11.6941284,-14.4817444 11.6262428,-14.5029035 11.5578616,-14.5223875 11.4890237,-14.5401741 11.4197685,-14.5562413 11.3501349,-14.570567 11.2801623,-14.5831291 11.2098896,-14.5939055 11.2098896,-14.5939055 11.1438464,-14.6025468 11.0771464,-14.6100371 11.0092096,-14.6164602 10.9394562,-14.6218998 10.9037171,-14.6242769 10.8673064,-14.6264397 10.8301517,-14.6283984 10.7921804,-14.6301637 10.7533202,-14.6317459 10.7134985,-14.6331555 10.6725698,-14.6343972 10.6304829,-14.6354726 10.5873527,-14.6363898 10.5432944,-14.637157 10.4984234,-14.6377825 10.452855,-14.6382745 10.3600873,-14.6388908 10.2659139,-14.639072 10.0770407,-14.6383918 9.984186,-14.6376622 9.9385578,-14.6372288 9.8936161,-14.6367606 7.7134301,-14.6358655 7.7134301,-14.6358655 7.7085623,-14.6369023 7.7045812,-14.6399037 7.7021721,-14.6442807 7.7017718,-14.6492555 7.7017718,-14.6492555 7.7027297,-14.6524142 7.7044001,-14.6552985 7.7044001,-14.6552985 7.7349328,-14.6936231 7.764798,-14.7324359 7.7939901,-14.7717282 7.8225037,-14.8114915 7.8503333,-14.851717 7.8774735,-14.8923963 7.9039187,-14.9335207 7.9296636,-14.9750815 7.9547027,-15.0170701 7.9790306,-15.059478 8.0026416,-15.1022965 8.0255305,-15.145517 8.0476918,-15.1891308 8.0691199,-15.2331294 8.0898094,-15.2775041 8.1097549,-15.3222463 8.1289405,-15.3673227 8.1473503,-15.4126954 8.164981,-15.4583544 8.1818296,-15.5042894 8.1978929,-15.5504904 8.2131678,-15.5969472 8.2276512,-15.6436497 8.2413399,-15.6905877 8.2542307,-15.7377512 8.2663207,-15.78513 8.2776065,-15.832714 8.2880851,-15.8804931 8.2977534,-15.9284571 8.3066081,-15.9765959 8.3146463,-16.0248994 8.3218647,-16.0733575 8.3218647,-16.0733575 8.3318206,-16.1522147 8.3396023,-16.2313017 8.3452048,-16.310568 8.3486246,-16.3899629 8.3498594,-16.4694358 8.3489085,-16.5489359 8.3457725,-16.6284126 8.3404533,-16.707815 8.3329544,-16.7870926 8.3232806,-16.8661946 8.311438,-16.9450706 8.2974342,-17.0236703 8.2812781,-17.1019435 8.2629801,-17.1798402 7.4047525,-20.615195 7.4047525,-20.615195 7.3911892,-20.6674204 7.3766963,-20.7193257 7.3612776,-20.7709003 7.3449368,-20.822133 7.3276778,-20.8730131 7.3095044,-20.9235295 7.2904205,-20.9736715 7.2704297,-21.0234281 7.249536,-21.0727884 7.2277432,-21.1217415 7.205055,-21.1702764 7.1814753,-21.2183823 7.1570079,-21.2660483 7.1316566,-21.3132634 7.1054252,-21.3600168 7.0783176,-21.4062975 7.0503374,-21.4520947 7.0214886,-21.4973974 6.991775,-21.5421947 6.9612004,-21.5864756 6.9297685,-21.6302294 6.8975206,-21.6733941 6.8645004,-21.7159108 6.8307181,-21.7577703 6.7961838,-21.7989631 6.7609075,-21.83948 6.7248993,-21.8793117 6.6881694,-21.9184488 6.6507278,-21.9568821 6.6125846,-21.9946022 6.5737499,-22.0315999 6.5342337,-22.0678657 6.4940462,-22.1033904 6.4531974,-22.1381647 6.4116974,-22.1721793 6.3695563,-22.2054248 6.3267843,-22.237892 6.2833913,-22.2695714 6.2393875,-22.3004539 6.1947829,-22.33053 6.1495877,-22.3597906 6.1038134,-22.3882252 6.057519,-22.4157964 6.0107389,-22.4424849 5.9634848,-22.4682856 5.9157684,-22.4931937 5.8676016,-22.5172041 5.8189959,-22.5403118 5.7699633,-22.562512 5.7205154,-22.5837995 5.6706639,-22.6041694 5.6204206,-22.6236169 5.5697991,-22.6421361 5.5188582,-22.6597068 5.4676294,-22.6763207 5.4161241,-22.6919772 5.3643532,-22.7066755 5.312328,-22.7204151 5.2600596,-22.7331952 5.2075593,-22.7450151 5.154838,-22.7558743 5.1019071,-22.7657721 5.0487776,-22.7747077 4.9954607,-22.7826805 4.9954607,-22.7826805 4.9419579,-22.7896904 4.8884032,-22.7957186 4.834808,-22.8007645 4.781184,-22.8048275 4.7275426,-22.8079072 4.6738954,-22.8100029 4.6202539,-22.8111141 4.5666297,-22.8112401 4.5130343,-22.8103805 4.4594793,-22.8085346 4.4059761,-22.8057019 4.3525365,-22.8018818 4.2991718,-22.7970737 4.2458937,-22.7912771 4.1927136,-22.7844913 4.1396432,-22.7767159 4.0866939,-22.7679502 4.0338774,-22.7581937 3.9812051,-22.7474457 3.9286886,-22.7357058 3.8763395,-22.7229734 3.8242303,-22.7092632 3.7724323,-22.694594 3.7209581,-22.6789717 3.6698201,-22.6624019 3.6190306,-22.6448907 3.5686021,-22.6264439 3.518547,-22.6070672 3.4688777,-22.5867666 3.4196066,-22.565548 3.3707463,-22.543417 3.322309,-22.5203797 3.2743072,-22.4964419 3.2267534,-22.4716093 3.1796599,-22.4458879 3.1330392,-22.4192835 3.0869037,-22.3918019 3.0412658,-22.3634491 2.9961379,-22.3342308 2.9515325,-22.3041529 2.9074619,-22.2732212 2.8639402,-22.2414428 2.8210243,-22.2088581 2.7787451,-22.175492 2.7371114,-22.1413533 2.6961324,-22.1064512 2.6558171,-22.0707946 2.6161744,-22.0343926 2.5772134,-21.9972542 2.5389431,-21.9593884 2.5013725,-21.9208042 2.4645107,-21.8815106 2.4283678,-21.8415182 2.3929851,-21.8008739 2.3583818,-21.759604 2.3245629,-21.7177186 2.2915332,-21.6752277 2.2592973,-21.6321415 2.2278602,-21.5884701 2.1972265,-21.5442235 2.1674012,-21.4994119 2.1383889,-21.4540454 2.1101944,-21.408134 2.0828226,-21.3616878 0.3125741,-18.2950223 0.3125741,-18.2950223 0.2784604,-18.2341983 0.2458186,-18.172625 0.2146621,-18.1103232 0.1850043,-18.0473142 0.1568586,-17.9836189 0.1302385,-17.9192584 0.1051573,-17.8542538 0.0816285,-17.7886261 0.0596799,-17.7224405 0.0393409,-17.6557822 0.0206194,-17.5886788 0.0035231,-17.5211576 -0.0119402,-17.4532458 -0.0257629,-17.3849707 -0.0379372,-17.3163596 -0.0484554,-17.2474398 -0.0484554,-17.2474398 -0.0574565,-17.1767065 -0.0647065,-17.1058435 -0.0702072,-17.0348835 -0.0739603,-16.9638593 -0.0759676,-16.8928035 -0.0762308,-16.821749 -0.0747516,-16.7507284 -0.0715318,-16.6797744 -0.0665731,-16.6089199 -0.0598772,-16.5381975 -0.051446,-16.46764 -0.041281,-16.3972801 -0.0293841,-16.3271505 -0.0157571,-16.257284 -0.0004015,-16.1877133 0.0166796,-16.1184751 0.0354467,-16.0497272 0.0558709,-15.9815561 0.0779397,-15.9139863 0.1016401,-15.8470423 0.1269595,-15.7807486 0.1538849,-15.7151297 0.1824037,-15.65021 0.2125031,-15.5860142 0.2441702,-15.5225666 0.2773923,-15.4598917 0.3121567,-15.3980142 0.3484504,-15.3369584 0.3862608,-15.2767489 0.425575,-15.2174102 0.4663803,-15.1589667 0.5086638,-15.101443 0.8468513,-14.6529034 0.8468513,-14.6529034 0.8488879,-14.6486942 0.8491679,-14.6440296 0.8491679,-14.6440296 0.8478495,-14.6399672 0.8452149,-14.6366095 0.8415671,-14.6343908 0.8373716,-14.6335729 -3.7092359,-14.6322564 -3.7092359,-14.6322564 -3.7141075,-14.6332921 -3.7180969,-14.636293 -3.720511,-14.6406682 -3.7208942,-14.6456465 -3.7206492,-14.6473928 -3.7206492,-14.6473928 -3.7030346,-14.7099366 -3.6873491,-14.7726971 -3.6736019,-14.8356382 -3.6618008,-14.8987234 -3.6519526,-14.9619163 -3.6519526,-14.9619163 -3.644983,-15.017006 -3.639525,-15.0721179 -3.6355819,-15.1272183 -3.6331562,-15.1822732 -3.6331562,-15.1822732 -3.6300762,-15.2885752 -3.6275015,-15.3950258 -3.6254331,-15.5015844 -3.6238718,-15.6082103 -3.6228182,-15.7148625 -3.6222726,-15.8215004 -3.6222354,-15.9280831 -3.6227064,-16.0345699 -3.6236855,-16.14092 -3.6251724,-16.2470928 -3.6271665,-16.3530477 -3.6296669,-16.4587441 -3.6326729,-16.5641416 -3.6361831,-16.6691999 -3.6361831,-16.6691999 -3.6380237,-16.7098468 -3.6406407,-16.7503999 -3.6440322,-16.7908497 -3.6481961,-16.8311868 -3.6531302,-16.8714017 -3.6588325,-16.9114851 -3.6653009,-16.9514275 -3.6725333,-16.9912195 -3.6805276,-17.0308515 -3.6892817,-17.0703143 -3.6987936,-17.1095984 -3.7090612,-17.1486942 -3.7200823,-17.1875925 -3.7318549,-17.2262837 -3.7443769,-17.2647585 -3.7576462,-17.3030074 -3.7716607,-17.341021 -3.7864184,-17.3787897 -3.8019171,-17.4163043 -3.8181547,-17.453555 -3.8351088,-17.490487 -3.8527596,-17.5270583 -3.8711002,-17.5632594 -3.8901238,-17.5990806 -3.9098235,-17.6345125 -3.9301924,-17.6695453 -3.9512238,-17.7041697 -3.9729107,-17.7383759 -3.9952464,-17.7721545 -4.018224,-17.8054958 -4.0418366,-17.8383902 -4.0660774,-17.8708283 -4.0909395,-17.9028004 -4.1164162,-17.9342969 -4.1425005,-17.9653084 -4.1691857,-17.9958251 -4.1964648,-18.0258376 -4.224331,-18.0553362 -4.2527775,-18.0843115 -4.2817975,-18.1127537 -4.3113652,-18.140636 -4.3414511,-18.1679305 -4.3720465,-18.19463 -4.4031426,-18.2207275 -4.4347307,-18.246216 -4.4668021,-18.2710885 -4.4993482,-18.2953378 -4.5323601,-18.318957 -4.5658292,-18.341939 -4.5997468,-18.3642767 -4.6341042,-18.3859632 -4.6688922,-18.4069911 -4.7040716,-18.4273365 -4.7396135,-18.4469842 -4.7755094,-18.4659308 -4.8117504,-18.4841732 -4.848328,-18.5017082 -4.8852335,-18.5185326 -4.9224581,-18.5346431 -4.9599931,-18.5500366 -4.99783,-18.5647099 -5.03596,-18.5786597 -5.0743743,-18.5918828 -5.1130644,-18.6043761 -5.1130644,-18.6043761 -5.1842496,-18.6267172 -5.2568186,-18.6497193 -5.3306833,-18.6733471 -5.405756,-18.6975657 -5.4819488,-18.7223398 -5.5591738,-18.7476344 -5.6373432,-18.7734142 -5.7163689,-18.7996443 -5.7961633,-18.8262894 -5.8766384,-18.8533145 -6.0392791,-18.908364 -6.2035881,-18.9645117 -6.3688624,-19.0214768 -6.6994947,-19.1367348 -6.8634468,-19.1944658 -7.0255521,-19.2518901 -7.1056926,-19.2803994 -7.1851077,-19.3087267 -7.2637097,-19.3368368 -7.3414105,-19.3646947 -7.4181224,-19.3922651 -7.4937576,-19.419513 -7.568228,-19.4464032 -7.6414458,-19.4729007 -7.7135116,-19.4990386 -7.7862044,-19.5254611 -7.8599101,-19.5523095 -7.9345352,-19.5795514 -8.0099861,-19.6071541 -8.0861695,-19.6350854 -8.1629917,-19.6633127 -8.2403593,-19.6918035 -8.3963568,-19.7494461 -8.553414,-19.8077534 -8.8677156,-19.9253235 -9.0234641,-19.9840669 -9.1772805,-20.0424364 -9.2532304,-20.0713997 -9.3284168,-20.1001722 -9.4027463,-20.1287213 -9.4761252,-20.1570146 -9.5484601,-20.1850197 -9.6196576,-20.212704 -9.689624,-20.2400352 -9.7582661,-20.2669807 -9.8254901,-20.2935082 -9.8912027,-20.319585 -9.9553103,-20.3451789 -10.0177195,-20.3702573 -10.0177195,-20.3702573 -10.020905,-20.3723067 -10.0234195,-20.3753312 -10.0234195,-20.3753312 -10.0521259,-20.4242239 -10.0821082,-20.4722715 -10.1133454,-20.519451 -10.1458165,-20.565739 -10.1795008,-20.6111124 -10.2143773,-20.6555478 -10.2504252,-20.6990221 -10.2876234,-20.741512 -10.3259512,-20.7829942 -10.3653876,-20.8234456 -10.4059117,-20.8628429 -10.4475027,-20.9011628 -10.4901396,-20.9383821 -10.5338015,-20.9744776 -10.5784481,-21.0094112 -10.6239937,-21.0431152 -10.6704075,-21.0755692 -10.717663,-21.1067563 -10.7657339,-21.1366599 -10.814594,-21.165263 -10.8642168,-21.1925489 -10.914576,-21.2185008 -10.9656453,-21.2431018 -11.017359,-21.2663187 -11.0696354,-21.2881165 -11.1224483,-21.3084874 -11.175772,-21.3274238 -11.2295807,-21.3449179 -11.2838484,-21.360962 -11.3385494,-21.3755484 -11.3936579,-21.3886695 -11.4491481,-21.4003176 -11.8315361,-21.4753275 -11.8315361,-21.4753275 -11.8694029,-21.4823856 -11.9073535,-21.4887457 -11.9453791,-21.4944079 -11.9834707,-21.4993722 -12.0216194,-21.5036386 -12.0598165,-21.5072072 -12.0980529,-21.510078 -12.1363198,-21.5122511 -12.1746083,-21.5137265 -12.2129095,-21.5145043 -12.2512146,-21.5145844 -12.2895146,-21.513967 -12.3278007,-21.5126521 -12.366064,-21.5106397 -12.4042956,-21.50793 -12.4424865,-21.5045228 -12.480628,-21.5004183 -12.5187111,-21.4956164 -12.556727,-21.4901174 -12.5946667,-21.4839211 -12.6325214,-21.4770277 -12.6702525,-21.4694429 -12.707811,-21.4611767 -12.7451875,-21.4522328 -12.7823729,-21.4426147 -12.8193582,-21.4323261 -12.8561342,-21.4213704 -12.8926919,-21.4097512 -12.9290223,-21.3974722 -12.9651161,-21.3845368 -13.0009643,-21.3709487 -13.036558,-21.3567114 -13.0718878,-21.3418285 -13.1069449,-21.3263036 -13.1417201,-21.3101402 -13.1762043,-21.293342 -13.2103884,-21.2759124 -13.2442634,-21.2578551 -13.2778201,-21.2391736 -13.3110496,-21.2198715 -13.3439426,-21.1999523 -13.3764901,-21.1794197 -13.408674,-21.1582837 -13.4404342,-21.1365855 -13.4717572,-21.1143368 -13.5026381,-21.0915433 -13.5330721,-21.068211 -13.5630542,-21.0443455 -13.5925796,-21.0199527 -13.6216433,-20.9950384 -13.6502403,-20.9696084 -13.6783659,-20.9436685 -13.7060151,-20.9172246 -13.7331829,-20.8902823 -13.7598645,-20.8628476 -13.786055,-20.8349262 -13.8117495,-20.8065239 -13.836943,-20.7776465 -13.8616307,-20.7482999 -13.8858076,-20.7184899 -13.9094689,-20.6882221 -13.9326096,-20.6575026 -13.9552248,-20.626337 -13.9773096,-20.5947312 -13.9773096,-20.5947312 -14.0104636,-20.5447286 -14.042064,-20.4938091 -14.0721047,-20.4420046 -14.1005799,-20.3893473 -14.1274836,-20.3358692 -14.1528099,-20.2816024 -14.1765528,-20.226579 -14.1987063,-20.1708312 -14.2192441,-20.1144497 -14.2381439,-20.0575352 -14.2554093,-20.000126 -14.2710436,-19.9422603 -14.2850506,-19.8839762 -14.2974337,-19.825312 -14.3081965,-19.7663058 -14.3173425,-19.7069958 -14.3173425,-19.7069958 -14.3252424,-19.6440748 -14.3313449,-19.5807679 -14.335644,-19.5171349 -14.3381358,-19.4532355 -14.338818,-19.38913 -14.3376897,-19.3248788 -14.3347523,-19.2605423 -14.3300083,-19.1961811 -14.3234623,-19.1318559 -14.3151204,-19.0676273 -14.3151204,-19.0676273 -14.2958072,-18.9301408 -14.2775493,-18.7921314 -14.2603509,-18.6536305 -14.244216,-18.5146694 -14.2291481,-18.3752798 -14.2151507,-18.2354934 -14.2022271,-18.0953419 -14.19038,-17.9548572 -14.1796123,-17.8140712 -14.1699263,-17.6730159 -14.1613243,-17.5317233 -14.1538083,-17.3902256 -14.1473798,-17.2485549 -14.1420405,-17.1067434 -14.1377914,-16.9648233 -14.1346337,-16.8228269 -14.1325679,-16.6807865 -14.1315946,-16.5387343 -14.1315946,-16.5387343 -14.1302764,-16.4701582 -14.1267567,-16.401771 -14.1210383,-16.3336306 -14.1131261,-16.2657948 -14.1030269,-16.1983207 -14.090749,-16.1312657 -14.076303,-16.0646862 -14.0597011,-15.9986388 -14.0409572,-15.9331792 -14.0200873,-15.8683629 -14.0200873,-15.8683629 -14.0196288,-15.8659791 -14.0197254,-15.8633245 -14.0197254,-15.8633245 -14.0204665,-15.8605792 -14.0204665,-15.8605792 -14.0445425,-15.7992442 -14.0666873,-15.7371691 -14.0868811,-15.674409 -14.1051059,-15.6110201 -14.1213454,-15.5470587 -14.1355851,-15.482582 -14.1478124,-15.4176474 -14.1580164,-15.3523128 -14.1580164,-15.3523128 -14.1631232,-15.3134552 -14.1675373,-15.2745132 -14.1712323,-15.2354977 -14.1741835,-15.1964192 -14.1741835,-15.1964192 -14.1808035,-15.0983539 -14.1879143,-14.9999681 -14.1955118,-14.9013173 -14.2035918,-14.8024568 -14.2121497,-14.7034423 -14.2211808,-14.6043294 -14.2306799,-14.505174 -14.2406418,-14.4060317 -14.2510607,-14.3069584 -14.2619309,-14.2080098 -14.2732462,-14.1092415 -14.2732462,-14.1092415 -14.2799417,-14.0427733 -14.284533,-13.9762069 -14.2870163,-13.9095968 -14.2873895,-13.8429977 -14.2856524,-13.7764643 -14.2818064,-13.7100513 -14.2758547,-13.643813 -14.267802,-13.577804 -14.2576551,-13.5120784 -14.2454223,-13.4466902 -14.2454223,-13.4466902 -14.2452624,-13.4427499 -14.2452624,-13.4427499 -14.2466664,-13.4386823 -14.2494844,-13.4355052 -14.2494844,-13.4355052 -14.2847567,-13.4060313 -14.3193494,-13.3758195 -14.3532517,-13.3448824 -14.3864528,-13.3132325 -14.4189422,-13.2808825 -14.4507091,-13.247845 -14.4817426,-13.2141326 -14.5120323,-13.1797578 -14.5415672,-13.1447333 -14.5703367,-13.1090717 -14.5983301,-13.0727855 -14.6255367,-13.0358875 -14.6519457,-12.9983901 -14.6775464,-12.960306 -14.7023281,-12.9216477 -14.72628,-12.8824281 -14.7493675,-12.8427026 -14.7715637,-12.8025205 -14.7928632,-12.7618963 -14.8132602,-12.7208442 -14.8327492,-12.6793787 -14.8513246,-12.6375141 -14.8689808,-12.5952649 -14.8857123,-12.5526455 -14.9015133,-12.5096702 -14.9163783,-12.4663534 -14.9303017,-12.4227095 -14.943278,-12.378753 -14.9553014,-12.3344981 -14.9663665,-12.2899594 -14.9764676,-12.2451511 -14.9855992,-12.2000877 -14.9855992,-12.2000877 -14.9946775,-12.1490145 -15.0024514,-12.097723 -15.0024514,-12.097723 -15.0090615,-12.0459462 -15.0143821,-11.9940825 -15.0184146,-11.9421548 -15.0211605,-11.8901865 -15.0226212,-11.8382007 -15.0227982,-11.7862205 -15.0216929,-11.734269 -15.0193069,-11.6823695 -15.0156415,-11.6305452 -15.0106982,-11.578819 -15.0044786,-11.5272143 -14.9969839,-11.4757542 -14.9882158,-11.4244617 -14.9781756,-11.3733602 -14.9668649,-11.3224727 -14.9542869,-11.27183 -14.9404626,-11.2215246 -14.9254036,-11.171596 -14.9091181,-11.1220672 -14.891614,-11.0729608 -14.8728995,-11.0242998 -14.8529825,-10.9761071 -14.8318711,-10.9284054 -14.8095743,-10.8812195 -14.7861232,-10.8346158 -14.7615381,-10.7886315 -14.7358308,-10.7432852 -14.709013,-10.6985954 -14.6810964,-10.6545808 -14.6520929,-10.6112599 -14.6220141,-10.5686512 -14.5908716,-10.5267733 -14.5908716,-10.5267733 -14.5257272,-10.4414141 -14.4600417,-10.3550462 -14.393831,-10.2676902 -14.3271107,-10.179367 -14.259897,-10.0900977 -14.1922058,-9.9999037 -14.1240534,-9.9088066 -14.055456,-9.816828 -13.9864301,-9.7239901 -13.9169921,-9.630315 -13.8471587,-9.5358252 -13.8471587,-9.5358252 -13.8078751,-9.4844152 -13.7667924,-9.4340222 -13.7239386,-9.3846804 -13.6793429,-9.3364234 -13.6330357,-9.2892842 -13.5850485,-9.2432947 -13.5850485,-9.2432947 -13.5827619,-9.2404437 -13.5815366,-9.2369694 -13.5814801,-9.2331767 -13.5817251,-9.2314304 -13.5817251,-9.2314304 -13.5877699,-9.2104207 -13.5894902,-9.2044624 -13.5914798,-9.1975751 -13.5920301,-9.1956703 -13.5927725,-9.1931005 -13.5939683,-9.18896 -13.5955027,-9.1836445 -13.5990909,-9.1711997 -13.6025443,-9.159189 -13.6025443,-9.159189 -13.6077096,-9.150296 -13.6077096,-9.150296 -13.6351083,-9.1205123 -13.6619064,-9.090237 -13.6880983,-9.0594779 -13.7136784,-9.0282433 -13.7386411,-8.9965412 -13.7629806,-8.9643797 -13.7866914,-8.9317668 -13.8097678,-8.8987108 -13.8322042,-8.8652196 -13.8539948,-8.8313014 -13.8751341,-8.7969643 -13.8956164,-8.7622162 -13.9154361,-8.7270654 -13.9345875,-8.6915199 -13.953065,-8.6555879 -13.9708629,-8.6192773 -13.9879647,-8.5826194 -14.0043485,-8.5456614 -14.0200111,-8.5084149 -14.0349492,-8.4708908 -14.0491598,-8.4331002 -14.0626397,-8.395054 -14.0753858,-8.3567633 -14.0873951,-8.3182391 -14.0986643,-8.2794923 -14.1091904,-8.240534 -14.1189702,-8.2013752 -14.1280007,-8.1620269 -14.1362787,-8.1225 -14.1438011,-8.0828056 -14.1505647,-8.0429547 -14.1565666,-8.0029583 -14.1565666,-8.0029583 -14.164755,-7.9370027 -14.1708573,-7.8707744 -14.1748669,-7.8043424 -14.1767798,-7.7377758 -14.176594,-7.6711436 -14.1743096,-7.6045151 -14.1699291,-7.5379597 -14.1634569,-7.4715465 -14.1548999,-7.4053446 -14.1548999,-7.4053446 -14.1549914,-7.4021505 -14.1549914,-7.4021505 -14.155635,-7.4001036 -14.155635,-7.4001036 -14.2274158,-7.1853064 -14.2999348,-6.9707817 -14.3731309,-6.7565502 -14.4469469,-6.5426211 -14.521446,-6.3286609 -14.5965673,-6.114703 -14.6721684,-5.9010148 -14.7481074,-5.6878636 -14.7481074,-5.6878636 -14.7678607,-5.6296765 -14.7859131,-5.5710336 -14.8022478,-5.5119901 -14.8168492,-5.4526018 -14.8297036,-5.3929247 -14.8407988,-5.3330152 -14.8501244,-5.2729299 -14.8501244,-5.2729299 -14.858415,-5.2060348 -14.8645552,-5.1388893 -14.8685385,-5.0715635 -14.8703608,-5.0041276 -14.8700201,-4.9366521 -14.8675169,-4.8692074 -14.8628537,-4.801864 -14.8560355,-4.734692 -14.8470692,-4.6677618 -14.8359644,-4.601143 -14.8227325,-4.5349054 -14.8073875,-4.469118 -14.7899453,-4.4038495 -14.7704241,-4.3391681 -14.7488443,-4.2751414 -14.7252284,-4.211836 -14.6996012,-4.1493182 -14.6996012,-4.1493182 -14.6987163,-4.1461922 -14.6986878,-4.143135 -14.6986878,-4.143135 -14.7000021,-4.1388687 -14.70256,-4.1358424 -14.70256,-4.1358424 -14.7810244,-4.0683402 -14.8581683,-3.9991232 -14.9339665,-3.9282141 -15.0083946,-3.8556357 -15.0814283,-3.7814117 -15.153044,-3.7055661 -15.2232184,-3.6281235 -15.2919287,-3.5491091 -15.3591526,-3.4685485 -15.4248684,-3.3864678 -15.4890547,-3.3028937 -15.5516906,-3.2178534 -15.6127559,-3.1313744 -15.6722306,-3.0434847 -15.7300956,-2.954213 -15.7863321,-2.8635881 -15.8409217,-2.7716395 -15.8938468,-2.678397 -15.9450902,-2.5838909 -15.9450902,-2.5838909 -15.9661724,-2.5454549 -15.9866661,-2.506836 -16.0260049,-2.4289265 -16.0633417,-2.3499157 -16.0989112,-2.2695568 -16.1160466,-2.2289343 -16.1323436,-2.1890751 -16.147723,-2.1503803 -16.1621822,-2.1130807 -16.1757187,-2.0774075 -16.18833,-2.0435916 -16.2000137,-2.0118643 -16.2055068,-1.9968559 -16.2107671,-1.9824563 -16.2107671,-1.9824563 -16.2327708,-1.9210385 -16.2540972,-1.8591837 -16.2747228,-1.7969593 -16.2946241,-1.7344329 -16.3137777,-1.6716721 -16.3321601,-1.6087443 -16.3497477,-1.5457171 -16.3665171,-1.482658 -16.3824876,-1.41946 -16.3977272,-1.3557611 -16.41218,-1.2916545 -16.4257836,-1.2272573 -16.4384756,-1.1626867 -16.4501938,-1.0980599 -16.4608758,-1.0334941 -16.4704594,-0.9691064 -16.4704594,-0.9691064 -16.4769119,-0.9207679 -16.4826146,-0.8731042 -16.4875598,-0.826179 -16.4917408,-0.7800554 -16.4951522,-0.734795 -16.4977893,-0.6904586 -16.4977893,-0.6904586 -16.5000053,-0.6298592 -16.5004273,-0.5690547 -16.4990548,-0.5080977 -16.4958889,-0.4470411 -16.4909325,-0.3859379 -16.4841899,-0.324841 -16.4756668,-0.2638036 -16.4653708,-0.2028785 -16.4653708,-0.2028785 -16.4651233,-0.2008851 -16.4651618,-0.1992878 -16.4651618,-0.1992878 -16.4660576,-0.1960901 -16.4677907,-0.1932449 -16.4677907,-0.1932449 -16.5340089,-0.114376 -16.5983805,-0.0343072 -16.6608745,0.0469232 -16.7214611,0.1292765 -16.7801114,0.2127132 -16.8367973,0.2971934 -16.8914916,0.3826768 -16.9441683,0.4691225 -16.9948022,0.5564892 -17.0433691,0.6447351 -17.0898457,0.7338179 -17.1342097,0.8236952 -17.1764401,0.9143238 -17.2165166,1.0056606 -17.2544201,1.0976619 -17.2901324,1.1902835 -17.3236364,1.2834814 -17.3549162,1.3772108 -17.3637761,1.4048217 -17.3637761,1.4048217 -17.3662663,1.412702 -17.3675168,1.4166405 -17.3678295,1.4176251 -17.3680117,1.4181985 -17.3685138,1.4197799 -17.3702652,1.4253033 -17.372091,1.4310849 -17.372091,1.4310849 -17.3981601,1.518829 -17.4224032,1.6065862 -17.4448142,1.6943346 -17.4653874,1.7820519 -17.4841177,1.8697163 -17.5010004,1.9573055 -17.5160312,2.0447977 -17.5292064,2.1321709 -17.5292064,2.1321709 -17.541377,2.2265016 -17.5514124,2.3207365 -17.5593083,2.4148379 -17.5650618,2.5087679 -17.5686704,2.6024888 -17.5701327,2.6959629 -17.5694481,2.7891528 -17.566617,2.882021 -17.5616403,2.9745302 -17.5545202,3.0666432 -17.5452595,3.1583231 -17.5452595,3.1583231 -17.5453025,3.1611674 -17.5453025,3.1611674 -17.5463203,3.1645642 -17.5483295,3.1675111 -17.5483295,3.1675111 -17.5943126,3.2169834 -17.63864,3.2678696 -17.6812813,3.3201299 -17.7222062,3.3737247 -17.7613844,3.4286143 -17.7987853,3.4847591 -17.8343788,3.5421194 -17.8681336,3.6006541 -17.8999652,3.6602146 -17.929826,3.7206936 -17.9577078,3.7820526 -17.9836024,3.8442532 -18.0075019,3.9072567 -18.029398,3.9710247 -18.0492827,4.0355186 -18.0671478,4.1006998 -18.0671478,4.1006998 -18.0968469,4.2171674 -18.1261038,4.3334303 -18.1549092,4.4494509 -18.1832536,4.565192 -18.211128,4.6806161 -18.2385234,4.7956859 -18.2654308,4.9103644 -18.2918417,5.0246146 -18.3177476,5.1383995 -18.3431399,5.2516825 -18.3680107,5.364427 -18.3923518,5.4765966 -18.4161554,5.5881552 -18.4394137,5.6990666 -18.4621194,5.8092952 -18.4621194,5.8092952 -18.474039,5.8736737 -18.484142,5.9383642 -18.484142,5.9383642 -18.4909052,5.991429 -18.4963237,6.0446039 -18.5003948,6.0978684 -18.5031158,6.1512023 -18.504484,6.2045853 -18.5044965,6.2579971 -18.5031507,6.3114174 -18.5004438,6.3648259 -18.4963765,6.4181611 -18.490955,6.4713437 -18.4841842,6.5243495 -18.4760688,6.5771544 -18.4666134,6.6297347 -18.4558229,6.6820663 -18.443702,6.7341252 -18.4302554,6.7858876 -18.4302554,6.7858876 -18.4297955,6.7881771 -18.4298445,6.7905763 -18.4298445,6.7905763 -18.4316276,6.7956703 -18.4316276,6.7956703 -18.4659047,6.8466048 -18.4986581,6.8984842 -18.5298685,6.9512757 -18.5595164,7.0049466 -18.5875825,7.0594641 -18.6140474,7.1147956 -18.6388917,7.1709083 -18.6620959,7.2277686 -18.6836119,7.285261 -18.7034125,7.3433003 -18.7214929,7.4018568 -18.7378488,7.4609005 -18.7524753,7.5204017 -18.7653679,7.5803306 -18.776522,7.6406574 -18.785933,7.7013524 -18.7869131,7.7083397 -18.7869131,7.7083397 -18.8030949,7.8287195 -18.8187214,7.9490724 -18.8337874,8.069359 -18.848288,8.1895402 -18.8622186,8.3095769 -18.8755745,8.4294298 -18.8883514,8.54906 -18.9005452,8.6684284 -18.9121519,8.7874961 -18.9231677,8.9062243 -18.9335889,9.0245744 -18.9434123,9.1425077 -18.9526346,9.2599858 -18.9612528,9.3769704 -18.9692641,9.4934234 -18.9692641,9.4934234 -18.9724079,9.5553854 -18.9737357,9.6174064 -18.9732468,9.6794485 -18.9709415,9.7414735 -18.9668211,9.8034432 -18.9608882,9.8653197 -18.9531464,9.9270649 -18.9531464,9.9270649 -18.953189,9.9299071 -18.9533362,9.9309561 -18.9533362,9.9309561 -18.9646638,9.9812813 -18.9748865,10.0318422 -18.9839309,10.0826192 -18.9917347,10.1336007 -18.9917347,10.1336007 -18.9987618,10.1892574 -19.0043275,10.2456111 -19.008429,10.3026326 -19.0110642,10.3602924 -19.0110642,10.3602924 -19.0152537,10.5171813 -19.0183767,10.6740946 -19.0204324,10.8309977 -19.0214205,10.9878561 -19.0213407,11.1446356 -19.020193,11.3013015 -19.0179777,11.4578196 -19.0146952,11.6141555 -19.0103463,11.7702748 -19.004932,11.9261433 -18.9984534,12.0817269 -18.9909119,12.2369912 -18.9823093,12.3919023 -18.9726473,12.5464261 -18.9619282,12.7005288 -18.9501542,12.8541764 -18.9501542,12.8541764 -18.9513729,12.8654026 -18.9513729,12.8654026 -18.9705372,12.9267933 -18.9878145,12.988388 -19.003201,13.0501737 -19.0166935,13.1121373 -19.0282891,13.1742656 -19.0379854,13.2365456 -19.0379854,13.2365456 -19.0438059,13.2815783 -19.048645,13.3266711 -19.0525036,13.3718094 -19.0553829,13.4169787 -19.0572842,13.4621646 -19.0582085,13.5073526 -19.058157,13.5525282 -19.0571308,13.5976769 -19.0551312,13.6427842 -19.0521592,13.6878356 -19.0482159,13.7328167 -19.0433027,13.7777129 -19.0374205,13.8225097 -19.0305705,13.8671927 -19.022754,13.9117474 -19.013972,13.9561593 -19.0042256,14.0004139 -18.9935172,14.0444925 -18.9818657,14.0883164 -18.9692834,14.1318487 -18.9557775,14.1750744 -18.9413552,14.2179784 -18.9260237,14.2605458 -18.9097903,14.3027613 -18.8926622,14.3446101 -18.8746467,14.386077 -18.8557509,14.4271469 -18.8359821,14.4678049 -18.8153475,14.5080358 -18.7938544,14.5478246 -18.7715099,14.5871563 -18.7483214,14.6260158 -18.7242959,14.664388 -18.6994408,14.7022579 -18.6737633,14.7396104 -18.6472721,14.7764286 -18.620005,14.8126576 -18.5919837,14.8482697 -18.5632188,14.8832531 -18.5337205,14.9175961 -18.5034992,14.951287 -18.4725654,14.984314 -18.4409293,15.0166655 -18.4086014,15.0483297 -18.375592,15.0792949 -18.3419115,15.1095493 -18.3075703,15.1390814 -18.2725788,15.1678793 -18.2369473,15.1959313 -18.2006922,15.2232215 -18.1638871,15.2496959 -18.1265597,15.2753379 -18.088721,15.3001434 -18.0503821,15.3241081 -18.011554,15.3472281 -17.9722475,15.3694991 -17.9324738,15.3909171 -17.8922438,15.4114778 -17.8515684,15.4311771 -17.8104588,15.450011 -17.7689258,15.4679752 -17.7269806,15.4850657 -17.684634,15.5012782 -17.641897,15.5166087 -16.5117209,15.9084606 -16.5117209,15.9084606 -16.4773187,15.9200618 -16.4427597,15.9310694 -16.4080493,15.9414811 -16.3731931,15.9512949 -16.3381963,15.9605086 -16.3030646,15.9691201 -16.2678031,15.9771272 -16.2324175,15.9845277 -16.1969132,15.9913195 -16.1612955,15.9975005 -16.1255699,16.0030685 -16.0897418,16.0080213 -16.0538167,16.0123569 -16.0178,16.016073 -15.9816972,16.0191675 -15.9455135,16.0216383 -15.9092716,16.0234822 -15.8730243,16.0246959 -15.836782,16.0252802 -15.8005521,16.0252362 -15.7643424,16.0245647 -15.7281604,16.0232669 -15.6920138,16.0213436 -15.6559103,16.018796 -15.6198574,16.0156249 -15.5838627,16.0118313 -15.547934,16.0074163 -15.5120788,16.0023809 -15.4763047,15.996726 -15.4406194,15.9904526 -15.4050305,15.9835618 -15.3695456,15.9760544 -15.3695456,15.9760544 -15.3661233,15.9759391 -15.3627453,15.976788 -15.3599111,15.9784755 -15.3599111,15.9784755 -15.3238001,16.0068354 -15.2871066,16.0343844 -15.249845,16.0611137 -15.2120298,16.0870146 -15.1736753,16.1120782 -15.1347961,16.136296 -15.0954065,16.1596591 -15.055521,16.1821587 -15.015154,16.2037862 -14.97432,16.2245328 -14.9330333,16.2443898 -14.8913085,16.2633484 -14.8491599,16.2813998 -14.806602,16.2985354 -14.7636492,16.3147463 -14.7203196,16.3300228 -14.6767019,16.3443344 -14.6328378,16.3576704 -14.5887402,16.3700298 -14.5444215,16.3814115 -14.4998946,16.3918147 -14.4551719,16.4012383 -14.4102662,16.4096814 -14.3651902,16.4171429 -14.3199564,16.423622 -14.2745775,16.4291175 -14.2290663,16.4336286 -14.1834352,16.4371543 -14.137697,16.4396936 -14.0918643,16.4412455 -14.0459498,16.441809 -13.9999661,16.4413832 -13.9999661,16.4413832 -12.8291343,16.4189542 -12.8291343,16.4189542 -12.7745588,16.4172316 -12.7201159,16.4141017 -12.665831,16.4095702 -12.6117296,16.4036426 -12.5578372,16.3963247 -12.5041791,16.3876223 -12.4507809,16.3775409 -12.3976679,16.3660863 -12.3448658,16.3532642 -12.2923998,16.3390803 -12.2402955,16.3235402 -12.1885784,16.3066496 -12.1372738,16.2884143 -12.0864072,16.2688399 -12.0360047,16.2479324 -11.9861528,16.2257243 -11.9369165,16.202245 -11.8883203,16.1775079 -11.8403886,16.1515266 -11.7931457,16.1243147 -11.7466161,16.0958855 -11.7008243,16.0662528 -11.6557946,16.0354301 -11.6115635,16.0034398 -11.5682026,15.9703344 -11.5257361,15.9361349 -11.4841828,15.9008586 -11.4435615,15.8645225 -11.4038909,15.8271438 -11.3651899,15.7887396 -11.3274771,15.7493271 -11.2907713,15.7089235 -11.2907713,15.7089235 -11.2463399,15.657035 -11.2036685,15.6037798 -11.1627834,15.5492004 -11.123711,15.4933396 -11.0864775,15.4362398 -11.0511092,15.3779438 -11.0176325,15.318494 -10.9860735,15.2579332 -10.9564887,15.1963689 -10.9289319,15.1339257 -10.903418,15.0706562 -10.8799617,15.0066127 -10.8585777,14.9418475 -10.8392806,14.876413 -10.8220852,14.8103613 -10.8070062,14.7437449 -10.8070062,14.7437449 -10.8049729,14.7391028 -10.8012683,14.7358705 -10.7964526,14.734537 -10.7964526,14.734537 -10.7366939,14.7298691 -10.6770461,14.7238562 -10.6770461,14.7238562 -10.6721547,14.7245423 -10.6721547,14.7245423 -10.6150403,14.743331 -10.5574445,14.7605848 -10.4993917,14.7762076 -10.4409039,14.7901096 -10.2985905,14.8218251 -10.2985905,14.8218251 -10.2634559,14.8293727 -10.2282362,14.8363156 -10.1929383,14.8426535 -10.157569,14.8483864 -10.1221351,14.8535138 -10.0866433,14.8580358 -10.0511006,14.861952 -10.0155137,14.8652622 -9.9798893,14.8679662 -9.9442344,14.8700638 -9.9085557,14.8715549 -9.87286,14.872439 -9.8371542,14.8727162 -9.801445,14.8723861 -9.7657392,14.8714485 -9.7300437,14.8699033 -9.6943653,14.8677501 -9.6587107,14.8649889 -9.6230867,14.8616193 -9.5875003,14.8576412 -9.5519581,14.8530544 -9.516467,14.8478586 -9.4810399,14.8420546 -9.4457298,14.8356501 -9.4105537,14.8286493 -9.3755192,14.8210547 -9.3406339,14.8128691 -9.3059055,14.8040953 -9.2713416,14.7947358 -9.2369498,14.7847935 -9.2027378,14.7742711 -9.168713,14.7631712 -9.1348833,14.7514966 -9.1012562,14.73925 -9.0678393,14.7264341 -9.0346402,14.7130515 -9.0016666,14.6991051 -8.9689261,14.6845976 -8.9364263,14.6695316 -8.9041748,14.6539098 -8.8721793,14.637735 -8.8404473,14.6210099 -8.8089866,14.6037372 -8.7778212,14.5859292 -8.746986,14.5676061 -8.7164873,14.5487731 -8.6863311,14.5294346 -8.656523,14.5095954 -8.6270691,14.4892601 -8.597975,14.4684333 -8.5692467,14.4471197 -8.54089,14.4253241 -8.5129106,14.4030509 -8.4853145,14.3803049 -8.4581075,14.3570907 -8.4312954,14.3334131 -8.404884,14.3092765 -8.3788792,14.2846858 -8.3532869,14.2596455 -8.3281127,14.2341603 -8.3033627,14.2082348 -8.2790426,14.1818738 -8.2551582,14.1550818 -8.2317154,14.1278635 -8.2317154,14.1278635 -8.2281313,14.1249202 -8.2236981,14.1235947 -8.2191178,14.1242035 -8.2151548,14.1266251 -8.2151548,14.1266251 -8.1402773,14.1923372 -8.0641881,14.2564395 -7.9869088,14.3189293 -7.9084612,14.379804 -7.828867,14.439061 -7.7481478,14.4966976 -7.6663254,14.5527112 -7.5834214,14.6070992 -7.4994575,14.6598589 -7.4144554,14.7109876 -7.3284369,14.7604828 -7.2414236,14.8083419 -7.1534371,14.854562 -7.0644992,14.8991407 -6.9746316,14.9420754 -6.8838707,14.9833569 -6.7923981,15.0229178 -6.7002804,15.0607486 -6.6075406,15.0968593 -6.5142018,15.1312598 -6.420287,15.1639602 -6.3258193,15.1949706 -6.2308218,15.224301 -6.1353174,15.2519614 -6.0393293,15.2779618 -5.9428805,15.3023122 -5.8459941,15.3250228 -5.748693,15.3461035 -5.6510004,15.3655643 -5.5529394,15.3834154 -5.4545328,15.3996666 -5.3558039,15.4143281 -5.3558039,15.4143281 -5.2826987,15.4244056 -5.2075707,15.4344232 -5.1309319,15.4443244 -5.0532947,15.4540527 -4.897073,15.4727637 -4.7409902,15.490328 -4.5834764,15.5068925 -4.4252454,15.5223225 -4.2670865,15.5364751 -4.1097891,15.5492069 -4.1097891,15.5492069 -4.1051246,15.5503839 -4.1013644,15.5533939 -4.0991482,15.5576797 -4.09883,15.5624978 -4.09883,15.5624978 -4.0994426,15.5648157 -4.1005161,15.5668923 -4.1005161,15.5668923 -4.1396647,15.6366278 -4.176875,15.7074033 -4.2121184,15.7791646 -4.2453682,15.8518567 -4.2765986,15.9254239 -4.3057859,15.9998099 -4.3329077,16.0749576 -4.3579432,16.1508096 -4.3808732,16.2273077 -4.4016802,16.3043934 -4.4203482,16.3820075 -4.4368629,16.4600906 -4.4512116,16.538583 -4.4633835,16.6174245 -4.4633835,16.6174245 -4.4722172,16.6864052 -4.4793897,16.7555432 -4.4848984,16.8248105 -4.4887405,16.8941793 -4.4909134,16.9636218 -4.4914143,17.0331102 -4.4902407,17.1026167 -4.4873899,17.1721129 -4.4828648,17.2415051 -4.4766724,17.3107203 -4.4688182,17.3797355 -4.4593075,17.4485281 -4.4481456,17.517075 -4.4353379,17.5853536 -4.4208897,17.653341 -4.4048063,17.7210142 -3.5468796,21.1559725 -3.5468796,21.1559725 -3.5333306,21.2082019 -3.5188519,21.2601117 -3.5034471,21.311691 -3.4871203,21.3629287 -3.469875,21.4138141 -3.4517153,21.4643361 -3.4326447,21.5144839 -3.4126672,21.5642465 -3.3917866,21.613613 -3.3700066,21.6625724 -3.3473311,21.711114 -3.3237639,21.7592267 -3.2993087,21.8068996 -3.2739693,21.8541218 -3.2477497,21.9008823 -3.2206535,21.9471703 -3.1926845,21.9929749 -3.1638467,22.038285 -3.1341437,22.0830898 -3.1035793,22.1273784 -3.0721575,22.1711398 -3.0399192,22.2143122 -3.0069084,22.2568364 -2.9731352,22.2987033 -2.9386097,22.3399036 -2.9033418,22.3804277 -2.8673418,22.4202666 -2.8306196,22.4594108 -2.7931854,22.497851 -2.7550493,22.535578 -2.7162212,22.5725823 -2.6767114,22.6088546 -2.6365298,22.6443857 -2.5956865,22.6791663 -2.5541917,22.7131869 -2.5120554,22.7464383 -2.4692876,22.7789111 -2.4258985,22.8105961 -2.3818981,22.8414839 -2.3372966,22.8715652 -2.2921039,22.9008306 -2.2463318,22.92927 -2.2000395,22.9568454 -2.1532612,22.9835377 -2.1060088,23.009342 -2.0582939,23.0342532 -2.0101283,23.0582665 -1.9615237,23.0813768 -1.9124918,23.1035793 -1.8630444,23.1248689 -1.8131933,23.1452406 -1.76295,23.1646896 -1.7123284,23.1832102 -1.6613873,23.200782 -1.6101585,23.2173967 -1.5586529,23.2330537 -1.5068819,23.2477525 -1.4548565,23.2614923 -1.4025878,23.2742725 -1.3500871,23.2860926 -1.2973655,23.2969518 -1.244434,23.3068495 -1.191304,23.3157852 -1.1379864,23.3237581 -1.1379864,23.3237581 -1.084489,23.3307673 -1.0309395,23.336795 -0.9773496,23.3418405 -0.9237307,23.3459033 -0.8700946,23.3489827 -0.8164527,23.3510781 -0.7628166,23.3521888 -0.7091978,23.3523144 -0.6556079,23.3514541 -0.6020585,23.3496074 -0.5485611,23.3467736 -0.4951272,23.3429521 -0.4417685,23.3381423 -0.3884964,23.3323436 -0.3353226,23.3255554 -0.2822586,23.317777 -0.2293159,23.3090078 -0.1765061,23.2992473 -0.1238408,23.2884947 -0.0713315,23.2767496 -0.0189898,23.2640112 0.0331116,23.2502944 0.084901,23.2356179 0.1363661,23.2199876 0.1874943,23.2034092 0.2382733,23.1858887 0.2886905,23.1674318 0.3387337,23.1480444 0.3883903,23.1277323 0.437648,23.1065013 0.4864942,23.0843573 0.5349166,23.061306 0.5829027,23.0373534 0.6304401,23.0125052 0.6775163,22.9867673 0.724119,22.9601455 0.7702357,22.9326457 0.8158539,22.9042736 0.8609613,22.8750351 0.9055453,22.844936 0.9495937,22.8139822 0.993092,22.7821808 1.0359823,22.7495732 1.0782346,22.7161837 1.11984,22.6820212 1.1607893,22.6470948 1.2010737,22.6114134 1.2406842,22.5749862 1.2796117,22.5378221 1.3178473,22.4999302 1.355382,22.4613196 1.3922067,22.4219992 1.4283111,22.3819797 1.4636537,22.3413087 1.4982154,22.3000123 1.5319913,22.2581006 1.5649769,22.2155837 1.5971672,22.1724717 1.6285578,22.1287747 1.6591437,22.0845029 1.6889202,22.0396664 1.7178827,21.9942753 1.7460264,21.9483397 1.7733466,21.9018698 3.5435954,18.8352021z" transform="matrix(1,0,0,-1,19.0582085,23.3523144)" fill="rgb(0,0,0)" shaper:cutDepth="0.0127" stroke-linecap="round" stroke-linejoin="round" /><path d="M10.7941906,-11.8108957 L10.7942332,-11.8108891 10.7942332,-11.8108891 10.7957637,-11.8105592 10.7990671,-11.8097313 10.8036217,-11.808421 10.8089057,-11.8066444 10.8200724,-11.8018986 10.8306463,-11.7963081 10.8352154,-11.7934876 10.8391518,-11.7907758 10.8424139,-11.7882936 10.845039,-11.7860918 10.8470672,-11.7842194 10.8485382,-11.7827252 10.8494923,-11.7816581 10.8499695,-11.781067 10.8499695,-11.781067 10.8503686,-11.7797887 10.8510563,-11.776884 10.8518723,-11.7719766 10.8525866,-11.7649746 10.8529758,-11.7557657 10.8529787,-11.7502986 10.8528165,-11.7442378 10.8524614,-11.7375691 10.8518854,-11.7302787 10.8510606,-11.7223524 10.8499591,-11.7137762 10.6857052,-10.5427701 10.6857052,-10.5427701 10.6830326,-10.5262242 10.6800807,-10.5118798 10.6770199,-10.4997202 10.674021,-10.4897285 10.6712544,-10.4818879 10.6688907,-10.4761816 10.6671016,-10.4725173 10.6659659,-10.4705053 10.6659659,-10.4705053 10.6644661,-10.4694701 10.6620145,-10.4679524 10.6584523,-10.4659869 10.653621,-10.4636084 10.6473597,-10.4608509 10.6394973,-10.4578287 10.630103,-10.4547003 10.6192438,-10.4515318 10.6069865,-10.448389 10.593398,-10.4453381 10.5785451,-10.4424449 10.5624948,-10.4397757 10.5453139,-10.4373963 10.5270693,-10.4353727 10.5078278,-10.4337711 10.4876564,-10.4326573 4.8142218,-10.3932741 4.8142218,-10.3932741 4.8086751,-10.3931283 4.8070928,-10.3930867 4.804104,-10.3930039 4.798125,-10.3928181 4.7741943,-10.391802 4.7262773,-10.3884468 4.6783199,-10.3832987 4.6303622,-10.3763228 4.5824443,-10.367484 4.5346062,-10.3567476 4.4868882,-10.3440786 4.4393303,-10.329442 4.3919463,-10.3127872 4.3448234,-10.2940606 4.2980674,-10.2732155 4.2517755,-10.2502029 4.2060445,-10.2249736 4.1609716,-10.1974783 4.1387121,-10.1828656 4.1166536,-10.1676679 4.094808,-10.1518792 4.0731876,-10.1354933 4.0518263,-10.1185103 4.0307857,-10.1009575 4.0100841,-10.0828427 3.9897396,-10.0641734 3.9697706,-10.0449573 3.950195,-10.025202 3.9310312,-10.0049151 3.9122974,-9.9841041 3.8940116,-9.9627769 3.8761923,-9.9409408 3.8588574,-9.9186037 3.8420254,-9.895773 3.8257142,-9.8724564 3.8099422,-9.8486616 3.7947275,-9.8243961 3.7801299,-9.7997361 3.7662203,-9.774798 3.7529918,-9.7495978 3.7404415,-9.7241588 3.7285661,-9.6985043 3.7173627,-9.6726576 3.7068279,-9.6466421 3.6969588,-9.6204809 3.6877523,-9.5941975 3.6792051,-9.5678151 3.6713142,-9.541357 3.6640765,-9.5148465 3.6574889,-9.4883069 3.6515483,-9.4617615 3.6462515,-9.4352336 3.6415954,-9.4087466 3.6375769,-9.3823236 3.5116423,-8.484505 3.5116423,-8.484505 3.5082181,-8.457931 3.5053898,-8.4312876 3.5015245,-8.3778404 3.5000523,-8.3242595 3.5002155,-8.2974489 3.5009793,-8.270641 3.5023444,-8.2438477 3.5043115,-8.2170812 3.5068802,-8.1903556 3.5100457,-8.1637069 3.5138062,-8.1371459 3.5181604,-8.1106817 3.5231067,-8.0843231 3.5286437,-8.0580789 3.5347699,-8.0319582 3.5414838,-8.0059698 3.548784,-7.9801227 3.556669,-7.9544256 3.5651354,-7.9288834 3.574177,-7.9035162 3.583795,-7.8783337 3.5939911,-7.8533452 3.6047666,-7.8285602 3.6161231,-7.8039881 3.6280621,-7.7796384 3.640585,-7.7555203 3.6536933,-7.7316435 3.6673885,-7.7080172 3.6816721,-7.684651 3.6965455,-7.6615542 3.7120103,-7.6387363 3.7280679,-7.6162066 3.7447198,-7.5939747 3.7619675,-7.5720499 3.7798274,-7.5504267 3.7982989,-7.5291333 3.8173726,-7.5082009 3.8370477,-7.4876494 3.8573234,-7.4674985 3.8781991,-7.4477679 3.8996738,-7.4284773 3.921747,-7.4096465 3.9444176,-7.3912953 3.9676851,-7.3734433 3.9915486,-7.3561103 4.0160074,-7.3393161 4.0410606,-7.3230803 4.0667075,-7.3074228 4.0929469,-7.2923649 4.1197139,-7.2779779 4.1469573,-7.2643015 4.1746535,-7.2513519 4.2027783,-7.239145 4.2313081,-7.2276969 4.2602188,-7.2170238 4.2894866,-7.2071416 4.3190875,-7.1980666 4.3489978,-7.1898147 4.3791936,-7.182402 4.4096508,-7.1758447 4.4403458,-7.1701588 4.4712545,-7.1653603 4.4712545,-7.1653603 4.4797365,-7.164213 4.4873635,-7.1632557 4.5008369,-7.1617131 4.5127639,-7.1604789 4.5234977,-7.1594867 4.5426493,-7.1579976 4.560779,-7.1567931 4.5975773,-7.1547109 4.6166823,-7.1537932 4.6366079,-7.152913 4.6574625,-7.1520566 4.6792294,-7.151222 4.7018947,-7.1504061 4.725444,-7.1496055 4.7498634,-7.1488172 4.7751387,-7.1480379 4.8277731,-7.1465048 4.9310712,-7.1437247 4.9831281,-7.1424196 5.0097794,-7.141771 5.0370444,-7.1411182 5.0650719,-7.1404564 5.0940108,-7.1397807 5.1240098,-7.1390859 5.1552178,-7.1383672 5.1877837,-7.1376196 5.2218562,-7.136838 5.2575842,-7.1360176 5.2950696,-7.1351546 9.2865452,-7.1536392 9.2865452,-7.1536392 9.3436708,-7.1536999 9.4025886,-7.1536175 9.4627788,-7.1533721 9.5237213,-7.152944 9.645784,-7.1514601 9.7058643,-7.1503647 9.7646175,-7.1490072 9.8215235,-7.1473678 9.8491213,-7.1464362 9.8760625,-7.1454267 9.9284255,-7.1431362 9.9791156,-7.1403546 10.0034124,-7.1388029 10.0267434,-7.1371703 10.0489086,-7.1354765 10.0697079,-7.1337415 10.0889411,-7.1319848 10.1064082,-7.1302263 10.121909,-7.1284858 10.1352434,-7.126783 10.1352434,-7.126783 10.1375408,-7.1260996 10.1409818,-7.1249122 10.1496261,-7.1211979 10.158966,-7.1162259 10.1675532,-7.1106293 10.1745288,-7.1050971 10.179835,-7.1000749 10.1834675,-7.095973 10.1857433,-7.092904 10.1884903,-7.087632 10.1897391,-7.0834073 10.1905086,-7.0803539 10.1913095,-7.0764577 10.1920599,-7.0716978 10.192692,-7.0660265 10.1931379,-7.0593961 10.1933296,-7.051759 10.1931993,-7.0430673 10.1926791,-7.0332736 10.1917011,-7.0223299 10.1901973,-7.0101888 10.0286875,-5.8587459 10.0286875,-5.8587459 10.0265118,-5.8449886 10.024115,-5.8327265 10.0215849,-5.8219294 10.0190094,-5.812567 10.0164761,-5.8046092 10.0140729,-5.7980256 10.0118876,-5.7927862 10.0100259,-5.7888589 10.0085924,-5.786064 10.0075195,-5.7841693 10.0061227,-5.7822273 10.00517,-5.7813259 10.0035871,-5.7798259 10.0020564,-5.7786099 9.9998464,-5.7770851 9.9968176,-5.7752531 9.9928304,-5.7731155 9.9877451,-5.7706738 9.9814234,-5.7679308 9.9737789,-5.7650244 9.964847,-5.7620956 9.9547162,-5.7592118 9.9434748,-5.7564407 9.9312114,-5.7538496 9.9180142,-5.7515063 9.9039718,-5.7494783 9.8891725,-5.747833 9.8737048,-5.7466381 9.857657,-5.745961 -4.1140547,-5.7158746 -4.1140547,-5.7158746 -4.1662737,-5.7152641 -4.2195288,-5.7147992 -4.3281441,-5.714382 -4.4372431,-5.7147823 -4.4911029,-5.7153391 -4.5440383,-5.7161604 -4.5957008,-5.7172663 -4.645742,-5.7186767 -4.6940236,-5.7204195 -4.7436792,-5.7226936 -4.7944426,-5.7257251 -4.8192604,-5.727472 -4.8431273,-5.7293296 -4.865612,-5.7312649 -4.8862833,-5.7332452 -4.8958042,-5.7342421 -4.90471,-5.7352379 -4.9129468,-5.7362286 -4.9204608,-5.7372101 -4.9204608,-5.7372101 -4.9227817,-5.7378991 -4.9262576,-5.739096 -4.9349866,-5.7428393 -4.9444166,-5.7478524 -4.953094,-5.7534986 -4.9601479,-5.7590846 -4.9655184,-5.7641608 -4.9692021,-5.7683149 -4.9715106,-5.7714263 -4.9742893,-5.7767454 -4.9755427,-5.780978 -4.9763133,-5.7840314 -4.977116,-5.787928 -4.9778684,-5.7926889 -4.9785025,-5.7983619 -4.9789502,-5.804995 -4.9791434,-5.8126363 -4.9790142,-5.8213335 -4.9784944,-5.8311349 -4.9775159,-5.8420882 -4.9760109,-5.8542414 -4.8145009,-7.0056853 -4.8145009,-7.0056853 -4.8123249,-7.0194412 -4.8099279,-7.0316973 -4.8073978,-7.0424845 -4.8048227,-7.0518338 -4.8022907,-7.0597758 -4.7998898,-7.0663416 -4.7977081,-7.0715619 -4.7958525,-7.0754699 -4.7944247,-7.0782496 -4.7933554,-7.0801332 -4.7919567,-7.0820684 -4.790987,-7.0829883 -4.7893517,-7.0845322 -4.7877837,-7.0857719 -4.7855293,-7.0873209 -4.7824488,-7.0891774 -4.7784025,-7.0913396 -4.7732507,-7.0938056 -4.7668558,-7.0965715 -4.7591355,-7.0994905 -4.7501291,-7.1024279 -4.739926,-7.1053163 -4.7286154,-7.1080881 -4.7162869,-7.1106759 -4.7030297,-7.113012 -4.6889332,-7.1150291 -4.6740867,-7.1166596 -4.6585797,-7.117836 -4.6425015,-7.1184908 1.095582,-7.1496793 1.095582,-7.1496793 1.1011321,-7.1498252 1.1025197,-7.1498617 1.1051048,-7.1499315 1.111095,-7.1501127 1.1350693,-7.1511112 1.1830682,-7.1544364 1.2311006,-7.1595607 1.2791263,-7.1665181 1.3271048,-7.1753425 1.3749959,-7.1860677 1.4227593,-7.1987278 1.4703547,-7.2133566 1.5177676,-7.2300031 1.5649139,-7.2487203 1.6116877,-7.2695539 1.6579926,-7.2925525 1.7037324,-7.3177645 1.7488106,-7.3452386 1.7710716,-7.3598391 1.7931311,-7.3750232 1.814977,-7.3907971 1.8365973,-7.4071668 1.8579611,-7.4241335 1.8790058,-7.4416702 1.8997127,-7.4597689 1.9200634,-7.4784221 1.9400399,-7.4976223 1.959624,-7.5173621 1.9787975,-7.537634 1.9975422,-7.5584304 2.01584,-7.5797438 2.0336727,-7.6015668 2.0510221,-7.6238919 2.0678701,-7.6467116 2.0841984,-7.6700183 2.0999889,-7.6938046 2.1152235,-7.7180631 2.1298468,-7.742725 2.1437832,-7.7676691 2.1570389,-7.7928787 2.1696167,-7.8183307 2.1815195,-7.8440016 2.1927501,-7.8698681 2.2033115,-7.895907 2.2132066,-7.9220948 2.2224382,-7.9484084 2.2310093,-7.9748243 2.2389227,-8.0013193 2.2461813,-8.0278701 2.252788,-8.0544532 2.2587458,-8.0810455 2.2640574,-8.1076235 2.2687258,-8.134164 2.2727539,-8.1606437 2.3986885,-9.0584623 2.3986885,-9.0584623 2.4021127,-9.0850362 2.404941,-9.1116796 2.4088063,-9.1651269 2.4102785,-9.2187078 2.4101153,-9.2455183 2.4093515,-9.2723263 2.4079864,-9.2991195 2.4060193,-9.3258861 2.4034506,-9.3526117 2.4002851,-9.3792604 2.3965246,-9.4058213 2.3921704,-9.4322856 2.3872241,-9.4586442 2.3816871,-9.4848883 2.3755609,-9.5110091 2.368847,-9.5369974 2.3615468,-9.5628446 2.3536618,-9.5885416 2.3451954,-9.6140839 2.3361538,-9.6394511 2.3265358,-9.6646336 2.3163397,-9.6896221 2.3055642,-9.714407 2.2942077,-9.7389791 2.2822687,-9.7633289 2.2697458,-9.7874469 2.2566375,-9.8113238 2.2429423,-9.83495 2.2286588,-9.8583163 2.2137853,-9.8814131 2.1983205,-9.904231 2.1822629,-9.9267607 2.165611,-9.9489926 2.1483633,-9.9709174 2.1305034,-9.9925406 2.1120319,-10.013834 2.0929582,-10.0347663 2.0732831,-10.0553178 2.0530074,-10.0754688 2.0321317,-10.0951994 2.010657,-10.11449 1.9885839,-10.1333207 1.9659132,-10.151672 1.9426457,-10.169524 1.9187822,-10.186857 1.8943234,-10.2036512 1.8692702,-10.219887 1.8436233,-10.2355445 1.8173839,-10.2506024 1.7906169,-10.2649894 1.7633735,-10.2786657 1.7356773,-10.2916154 1.7075525,-10.3038223 1.6790227,-10.3152704 1.650112,-10.3259435 1.6208443,-10.3358257 1.5912433,-10.3449007 1.561333,-10.3531526 1.5311372,-10.3605653 1.50068,-10.3671226 1.469985,-10.3728085 1.4390764,-10.377607 1.4390764,-10.377607 1.4285018,-10.3790421 1.4189341,-10.3802503 1.4015501,-10.3822285 1.3671483,-10.3856482 1.3490604,-10.3872425 1.3300608,-10.3887971 1.309906,-10.3903411 1.288435,-10.3918905 1.2656825,-10.3934324 1.2416528,-10.3949599 1.2163487,-10.3964661 1.1897733,-10.3979444 1.1619295,-10.3993879 1.1328202,-10.4007899 1.0726801,-10.4033691 0.9512478,-10.4073651 0.8289558,-10.4098523 0.7065561,-10.4108825 0.5848006,-10.4105074 -3.5542975,-10.3944135 -3.5542975,-10.3944135 -3.6482746,-10.3944671 -3.7434338,-10.3952273 -3.8381588,-10.3967861 -3.8848534,-10.3978938 -3.9308333,-10.3992358 -3.9758964,-10.4008235 -4.0198408,-10.4026685 -4.0634931,-10.4048345 -4.1086825,-10.4075412 -4.1537355,-10.4107714 -4.1754599,-10.4125226 -4.1962488,-10.4143323 -4.2158018,-10.4161762 -4.2338183,-10.4180303 -4.2499978,-10.4198704 -4.2640397,-10.4216723 -4.2640397,-10.4216723 -4.2663358,-10.4223552 -4.2697759,-10.4235422 -4.2784198,-10.4272559 -4.28776,-10.4322276 -4.2963481,-10.4378242 -4.3033245,-10.4433568 -4.3086314,-10.4483793 -4.3122646,-10.4524817 -4.3145407,-10.455551 -4.317288,-10.4608231 -4.3185368,-10.4650476 -4.3193062,-10.4681008 -4.3201071,-10.4719969 -4.3208576,-10.4767567 -4.3214898,-10.482428 -4.3219357,-10.4890585 -4.3221275,-10.4966957 -4.3219972,-10.5053875 -4.321477,-10.5151815 -4.320499,-10.5261254 -4.3189952,-10.538267 -4.1547413,-11.7092731 -4.1547413,-11.7092731 -4.1525715,-11.7229937 -4.1501817,-11.7352226 -4.147659,-11.7459904 -4.1450909,-11.7553278 -4.1425647,-11.7632652 -4.1401677,-11.7698333 -4.1379873,-11.7750628 -4.1361284,-11.7789856 -4.1346953,-11.7817808 -4.1336207,-11.7836794 -4.1322146,-11.785637 -4.1312452,-11.7865577 -4.1296464,-11.7880731 -4.1281098,-11.7892957 -4.1258969,-11.7908261 -4.1228692,-11.7926623 -4.1188879,-11.7948027 -4.1138147,-11.7972454 -4.1075119,-11.7999879 -4.0998933,-11.8028965 -4.0909901,-11.8058286 -4.080891,-11.8087168 -4.0696846,-11.8114938 -4.0574594,-11.8140921 -4.044304,-11.8164444 -4.0303071,-11.8184831 -4.0155573,-11.820141 -4.0001432,-11.8213506 -3.9841533,-11.8220445 9.8836663,-11.8266797 9.8836663,-11.8266797 9.9147076,-11.8270073 9.9474597,-11.8273303 9.9817899,-11.8276417 10.0175008,-11.8279337 10.0544231,-11.8281969 10.0923858,-11.8284212 10.1705209,-11.8287293 10.3292294,-11.8286165 10.3680812,-11.8284017 10.4061458,-11.8281004 10.4431945,-11.8277065 10.4789988,-11.8272142 10.5133302,-11.8266175 10.5459601,-11.8259103 10.5767781,-11.8250869 10.591376,-11.8246405 10.6053628,-11.8241759 10.6315496,-11.8231965 10.6554207,-11.8221595 10.6769751,-11.821089 10.6963493,-11.8199946 10.7137212,-11.8188805 10.7292684,-11.8177511 10.7431689,-11.8166107 10.7556003,-11.8154636 10.7667403,-11.8143143 10.7767669,-11.8131669 10.7858577,-11.812026 10.7941905,-11.8108957z" transform="matrix(1,0,0,-1,19.0582085,23.3523144)" fill="rgb(255,255,255)" stroke="rgb(0,0,0)" stroke-width="0.0010cm" stroke-linecap="round" stroke-linejoin="round" shaper:cutDepth="0.0127" /><path d="M-5.2809331,-2.5710468 L5.3872606,-2.6066621 5.3872606,-2.6066621 5.4904271,-2.6071771 5.593544,-2.6064532 5.6968341,-2.6045213 5.8003181,-2.6014103 5.9040168,-2.5971491 6.0079513,-2.5917667 6.1121421,-2.5852921 6.2166103,-2.5777542 6.3213215,-2.5691892 6.4257376,-2.5596885 6.529965,-2.5492811 6.6342817,-2.5379796 6.7389655,-2.5257966 6.8442946,-2.5127448 6.9505467,-2.4988366 7.0579999,-2.4840849 7.0579999,-2.4840849 7.1221084,-2.4746255 7.1848231,-2.4644217 7.2461905,-2.4534583 7.3062571,-2.4417202 7.3650693,-2.4291923 7.4226737,-2.4158592 7.4791167,-2.401706 7.5344449,-2.3867173 7.5887047,-2.370878 7.6419426,-2.3541731 7.6942052,-2.3365872 7.7455388,-2.3181052 7.7959901,-2.298712 7.8456054,-2.2783924 7.8944314,-2.2571313 7.9424569,-2.2349422 7.9895797,-2.2118959 8.0358771,-2.1879602 8.0813952,-2.1631122 8.1261799,-2.1373294 8.1702769,-2.1105892 8.2137322,-2.0828688 8.2565916,-2.0541456 8.2989012,-2.024397 8.3407067,-1.9936003 8.382054,-1.9617329 8.422989,-1.9287721 8.4635577,-1.8946954 8.5038059,-1.8594799 8.5437795,-1.8231031 8.5835244,-1.7855423 8.6033254,-1.7663109 8.6132105,-1.7565812 8.6181496,-1.7516876 8.6206637,-1.7491885 8.6236973,-1.7461703 8.6236973,-1.7461703 8.6259131,-1.7440232 8.6277443,-1.7422482 8.6306398,-1.7394292 8.6364197,-1.733749 8.6479337,-1.7222213 8.6707722,-1.6985084 8.6933448,-1.6739405 8.7156356,-1.648544 8.7376288,-1.6223452 8.7593086,-1.5953701 8.7806591,-1.5676452 8.8016645,-1.5391967 8.8223089,-1.5100508 8.8425766,-1.4802339 8.8624515,-1.4497721 8.881918,-1.4186917 8.9009602,-1.387019 8.9195622,-1.3547803 8.9377102,-1.3219981 8.9554237,-1.2886504 8.9726952,-1.2547717 8.9895209,-1.2203837 9.0058972,-1.1855076 9.0218203,-1.1501652 9.0372866,-1.1143778 9.0522923,-1.078167 9.0668338,-1.0415542 9.0809075,-1.0045611 9.1076361,-0.9295194 9.1324488,-0.8532141 9.1553159,-0.7758171 9.1762244,-0.6974363 9.1859982,-0.6576779 9.1953292,-0.6174883 9.2042119,-0.5768778 9.2126409,-0.5358567 9.2206107,-0.4944353 9.228116,-0.4526241 9.2351512,-0.4104332 9.241711,-0.3678731 9.2533824,-0.2816865 9.2630868,-0.1941467 9.2707807,-0.1053365 9.2764207,-0.0153384 9.2799631,0.0757649 9.2813646,0.1678908 9.2805817,0.2609567 9.2775709,0.3548799 9.2752165,0.4021372 9.2722887,0.4495778 9.2687823,0.4971915 9.2646917,0.5449678 9.2600115,0.5928965 9.2547363,0.6409673 9.2488607,0.6891698 9.2423792,0.7374936 9.2423792,0.7374936 9.2294444,0.8246579 9.2151492,0.9112342 9.1994651,0.9971472 9.1823637,1.0823218 9.1638167,1.1666827 9.1437955,1.2501546 9.1222718,1.3326624 9.0992172,1.4141309 9.0746032,1.4944847 9.0484014,1.5736487 9.0206036,1.6515314 8.991212,1.7280534 8.9601959,1.8032 8.9275247,1.8769572 8.8931674,1.9493109 8.8570934,2.0202469 8.8192717,2.0897513 8.7796717,2.1578098 8.7382625,2.2244086 8.7169219,2.2570961 8.6952228,2.2892939 8.6731585,2.3210091 8.6507227,2.352249 8.6279089,2.3830207 8.6047107,2.4133314 8.5571353,2.4725987 8.5079451,2.5301082 8.4570884,2.5859174 8.4045139,2.6400838 8.35017,2.6926648 8.2940052,2.743718 8.235968,2.7933006 8.176007,2.8414703 8.1452889,2.8650432 8.1140705,2.8882844 8.0823454,2.9112011 8.0501072,2.9338005 8.0501072,2.9338005 7.9976198,2.9683373 7.9431662,3.001835 7.8865958,3.0343431 7.8574968,3.050224 7.827845,3.0658548 7.7976328,3.0812344 7.7668524,3.0963619 7.7354961,3.1112361 7.7035563,3.1258562 7.6710253,3.140221 7.6378955,3.1543296 7.604159,3.1681809 7.5698082,3.1817739 7.5348355,3.1951076 7.4992332,3.2081809 7.4629935,3.220993 7.4261088,3.2335426 7.3885714,3.2458289 7.3503736,3.2578507 7.3115078,3.2696071 7.2719662,3.281097 7.2317411,3.2923195 7.1908249,3.3032735 7.1492099,3.313958 7.1068884,3.3243719 7.0638527,3.3345143 7.0200951,3.3443841 6.975608,3.3539803 6.9303933,3.3632978 6.8845789,3.3723049 6.8381879,3.381 6.7912247,3.3893858 6.7436937,3.3974651 6.6955992,3.4052407 6.6469457,3.4127153 6.5977375,3.4198918 6.547979,3.4267729 6.4976747,3.4333613 6.4468288,3.4396599 6.3954459,3.4456714 6.3435302,3.4513985 6.2381181,3.4620108 6.1306278,3.4715191 6.0210943,3.4799455 5.9095527,3.487312 5.7960382,3.493641 5.6805857,3.4989545 5.5632304,3.5032746 5.4440075,3.5066237 5.3229519,3.5090237 5.2000988,3.5104969 -5.6104747,3.5269174 -5.6104747,3.5269174 -5.6530208,3.527507 -5.6971139,3.5279961 -5.7423868,3.5283615 -5.788295,3.528578 -5.8798406,3.5284641 -5.9243894,3.5280835 -5.9673964,3.5274535 -6.0083174,3.526549 -6.0468648,3.5253359 -6.0652744,3.5246032 -6.0830103,3.5237939 -6.1000509,3.5229135 -6.1163746,3.5219673 -6.1319601,3.5209607 -6.1467856,3.5198991 -6.1608298,3.5187879 -6.1740709,3.5176324 -6.1864876,3.5164381 -6.1980583,3.5152102 -6.2087613,3.5139543 -6.2185752,3.5126756 -6.2185752,3.5126756 -6.2208729,3.5119921 -6.224314,3.5108046 -6.2329584,3.5070901 -6.2422982,3.5021181 -6.2508852,3.4965216 -6.2578605,3.4909894 -6.2631665,3.4859673 -6.2667989,3.4818655 -6.2690746,3.4787966 -6.2718217,3.4735245 -6.2730705,3.4692996 -6.27384,3.4662461 -6.2746409,3.4623498 -6.2753913,3.4575898 -6.2760234,3.4519184 -6.2764692,3.445288 -6.2766609,3.4376507 -6.2765306,3.428959 -6.2760104,3.4191652 -6.2750324,3.4082215 -6.2735286,3.3960804 -6.1092746,2.2250732 -6.1092746,2.2250732 -6.1071024,2.211339 -6.1047098,2.1990996 -6.1021843,2.1883243 -6.0996136,2.1789824 -6.0970851,2.1710432 -6.0946866,2.164476 -6.0925057,2.15925 -6.0906481,2.1553329 -6.0892171,2.1525437 -6.0881445,2.1506508 -6.0867413,2.1487019 -6.0857717,2.1477815 -6.0841592,2.1462554 -6.0826107,2.1450263 -6.0803819,2.1434888 -6.0773339,2.1416447 -6.0733278,2.139496 -6.0682244,2.1370443 -6.0618863,2.1342927 -6.0542286,2.13138 -6.0452857,2.1284457 -6.0351465,2.1255573 -6.0238999,2.1227821 -6.0116347,2.1201877 -5.99844,2.1178415 -5.9844046,2.1158109 -5.9696173,2.1141633 -5.9541671,2.1129663 -5.9381429,2.1122872 5.9127473,2.0851392 5.9127473,2.0851392 5.9853087,2.08574 6.0586518,2.0850656 6.1327408,2.082942 6.2075326,2.0791647 6.2829841,2.073529 6.3590522,2.0658304 6.397304,2.0611435 6.4356938,2.0558642 6.4742162,2.0499668 6.5128659,2.0434258 6.5516374,2.0362156 6.5905254,2.0283106 6.6295244,2.0196853 6.6686292,2.010314 6.7078342,2.0001712 6.7471342,1.9892313 6.7865237,1.9774688 6.8259974,1.964858 6.8656366,1.951322 6.9055231,1.9367431 6.9456017,1.9210739 6.9858179,1.9042679 7.0261171,1.8862785 7.0664449,1.8670591 7.1067466,1.8465632 7.1469679,1.8247441 7.1870541,1.8015552 7.2269508,1.77695 7.2666033,1.7508818 7.3059573,1.7233041 7.3449579,1.6941704 7.3833044,1.6635808 7.4207286,1.631682 7.4571814,1.5985236 7.4926138,1.5641553 7.5269769,1.5286269 7.5602215,1.4919879 7.5922988,1.4542882 7.6231597,1.4155772 7.6527551,1.3759048 7.6810361,1.3353206 7.7079537,1.2938743 7.7334587,1.2516166 7.757405,1.2089118 7.7797372,1.1660488 7.800508,1.1230727 7.81977,1.0800286 7.8375759,1.0369615 7.8539784,0.9939166 7.86903,0.9509389 7.8827834,0.9080735 7.8952913,0.8653655 7.9066064,0.8228599 7.9167812,0.7806018 7.9258684,0.7386363 7.9339208,0.6970085 7.9409909,0.6557635 7.9471313,0.6149462 7.9471313,0.6149462 7.9517725,0.5789827 7.9556396,0.5426983 7.9587108,0.5061153 7.9609645,0.4692558 7.9623789,0.4321419 7.9629323,0.3947957 7.962603,0.3572395 7.9613691,0.3194953 7.9592091,0.2815852 7.9561011,0.2435315 7.9520234,0.2053561 7.9469543,0.1670814 7.9408721,0.1287293 7.933755,0.0903222 7.9255813,0.0518819 7.9163283,0.0134269 7.9059897,-0.0249358 7.8946018,-0.0630257 7.8821756,-0.1008147 7.8687222,-0.1382744 7.8542525,-0.1753767 7.8387776,-0.2120933 7.8223085,-0.2483961 7.8048562,-0.2842568 7.7864317,-0.3196471 7.767046,-0.3545389 7.7467102,-0.3889039 7.7254352,-0.4227139 7.7032321,-0.4559407 7.680112,-0.4885561 7.6561191,-0.5204937 7.6313816,-0.5516179 7.6059351,-0.5819193 7.5798079,-0.6113959 7.5530285,-0.6400457 7.5256254,-0.6678669 7.4976269,-0.6948574 7.4690616,-0.7210153 7.4399577,-0.7463387 7.4103438,-0.7708256 7.3802484,-0.7944742 7.3496997,-0.8172824 7.3187263,-0.8392483 7.2873566,-0.8603699 7.255619,-0.8806454 7.2235437,-0.9000718 7.1911426,-0.9186632 7.1583201,-0.9364924 7.1250909,-0.9535595 7.0914698,-0.9698648 7.0574714,-0.9854084 7.0231105,-1.0001906 6.9884018,-1.0142116 6.9533599,-1.0274715 6.9179996,-1.0399706 6.8823357,-1.0517091 6.8463827,-1.0626871 6.8101555,-1.072905 6.7736687,-1.0823628 6.736937,-1.0910608 6.6999751,-1.0989992 6.6627978,-1.1061782 6.6254198,-1.112598 6.5878557,-1.1182589 6.5878557,-1.1182589 6.5737959,-1.1202307 6.5588675,-1.1223165 6.5430942,-1.1245023 6.5264999,-1.1267738 6.5091085,-1.129117 6.490944,-1.1315175 6.4720302,-1.1339614 6.4523909,-1.1364345 6.43205,-1.1389226 6.4110315,-1.1414115 6.3893593,-1.1438872 6.3670571,-1.1463354 6.3206586,-1.151093 6.2722485,-1.1555519 6.1743957,-1.1629115 6.1252121,-1.165749 6.0758463,-1.1680012 6.02629,-1.1696502 5.9765352,-1.1706782 5.9265737,-1.1710672 5.8763974,-1.1707995 -5.2289622,-1.1954076 -5.2289622,-1.1954076 -5.2407053,-1.1950984 -5.2554775,-1.1946662 -5.2844099,-1.1936794 -5.3126271,-1.1925932 -5.3400781,-1.1914678 -5.3667117,-1.1903637 -5.3924771,-1.1893409 -5.4173231,-1.1884597 -5.4411987,-1.1877804 -5.4640271,-1.1873588 -5.4856038,-1.1873124 -5.5054854,-1.187595 -5.5146242,-1.1878257 -5.5231396,-1.1880977 -5.5309652,-1.1883975 -5.5380344,-1.1887115 -5.5442806,-1.1890259 -5.5496375,-1.1893272 -5.5540383,-1.1896017 -5.5574167,-1.1898358 -5.5597062,-1.1900159 -5.5608401,-1.1901283 -5.5608827,-1.1901348 -5.5608827,-1.1901348 -5.5624134,-1.1904647 -5.5657171,-1.1912927 -5.5702718,-1.192603 -5.5755559,-1.1943798 -5.5867227,-1.1991258 -5.5972966,-1.2047165 -5.6018657,-1.207537 -5.605802,-1.2102488 -5.6090641,-1.212731 -5.6116891,-1.2149328 -5.6137171,-1.2168052 -5.6151882,-1.2182994 -5.6161422,-1.2193664 -5.6166192,-1.2199574 -5.6166192,-1.2199574 -5.6170183,-1.2212356 -5.617706,-1.2241401 -5.618522,-1.2290472 -5.6192363,-1.2360491 -5.6196254,-1.2452577 -5.6196283,-1.2507247 -5.6194662,-1.2567855 -5.6191111,-1.263454 -5.6185351,-1.2707443 -5.6177103,-1.2786705 -5.6166088,-1.2872466 -5.4523547,-2.4582538 -5.4523547,-2.4582538 -5.4501813,-2.4719951 -5.4477872,-2.4842401 -5.4452602,-2.4950194 -5.442688,-2.5043637 -5.4401584,-2.5123039 -5.4377591,-2.5188706 -5.4355779,-2.5240947 -5.433721,-2.5280087 -5.432291,-2.5307948 -5.4312195,-2.5326845 -5.4298179,-2.5346288 -5.428848,-2.5355493 -5.4272282,-2.5370811 -5.4256732,-2.5383137 -5.4234359,-2.5398551 -5.420377,-2.5417033 -5.4163575,-2.5438566 -5.411238,-2.546313 -5.404881,-2.5490694 -5.3972024,-2.5519843 -5.3882383,-2.5549197 -5.3780777,-2.5578081 -5.3668097,-2.5605822 -5.3545234,-2.5631745 -5.3413077,-2.5655174 -5.3272518,-2.5675435 -5.3124447,-2.5691855 -5.2969755,-2.5703757 -5.2809331,-2.5710468z" transform="matrix(1,0,0,-1,19.0582085,23.3523144)" fill="rgb(255,255,255)" stroke="rgb(0,0,0)" stroke-width="0.0010cm" stroke-linecap="round" stroke-linejoin="round" shaper:cutDepth="0.0127" /><path d="M5.4805812,-16.4006959 L3.9819994,-15.2708027 3.9819994,-15.2708027 3.9738004,-15.2651991 3.9658915,-15.2608831 3.9579823,-15.2575226 3.9498396,-15.2549905 3.9413025,-15.2532444 3.9323524,-15.2523193 3.9231386,-15.2522552 3.9138246,-15.2530947 3.9046386,-15.2548538 3.8958448,-15.2574504 3.8875621,-15.260795 3.879906,-15.2647986 3.8727935,-15.2694237 3.8662414,-15.2746824 3.8599871,-15.2809283 3.8536481,-15.288663 2.7236348,-16.7874053 2.7236348,-16.7874053 2.7162279,-16.7987805 2.7108351,-16.8106674 2.7071714,-16.8235223 2.7053684,-16.8369718 2.705515,-16.8505719 2.7076015,-16.8638779 2.711538,-16.8764747 2.7175444,-16.8887915 4.4876228,-19.9551621 4.4876228,-19.9551621 4.4933899,-19.9644574 4.498673,-19.9717624 4.5034901,-19.9774822 4.5078208,-19.9819358 4.5118317,-19.9854598 4.5157232,-19.988369 4.5240241,-19.9932475 4.5288281,-19.9953389 4.5342389,-19.9971925 4.5403845,-19.9988036 4.5473096,-20.0000791 4.5548946,-20.0008957 4.5629641,-20.0012039 4.5713425,-20.000954 4.5798539,-20.0000964 4.5882999,-19.9985925 4.5964121,-19.9965118 4.6040507,-19.9939653 4.6110942,-19.9910616 4.6174209,-19.9879095 4.6229244,-19.9846205 4.6276354,-19.9813274 4.6316819,-19.9780008 4.6383522,-19.9709637 4.6413488,-19.9670009 4.6443847,-19.9624114 4.6473924,-19.9569307 4.6503721,-19.950171 4.6533241,-19.9417443 4.6562489,-19.9312625 5.5144656,-16.4959508 5.5144656,-16.4959508 5.5159411,-16.4891154 5.5168623,-16.4825755 5.5171853,-16.4696531 5.5155519,-16.4565021 5.5119829,-16.4435091 5.5065624,-16.4311157 5.4994653,-16.4197246 5.4909304,-16.4096863 5.4805812,-16.4006959z" transform="matrix(1,0,0,-1,19.0582085,23.3523144)" fill="rgb(255,255,255)" stroke="rgb(0,0,0)" stroke-width="0.0010cm" stroke-linecap="round" stroke-linejoin="round" shaper:cutDepth="0.0127" /><path d="M3.4265531,12.7725786 L3.4265531,12.7725786 3.372746,12.7715832 3.3175651,12.7702819 3.2613898,12.76869 3.2045997,12.7668228 3.090693,12.7623244 3.0343353,12.7597237 2.9788807,12.7569094 2.9244118,12.7538796 2.8962777,12.7522052 2.8673043,12.7503989 2.8076663,12.7463947 2.7469113,12.7418069 2.6870998,12.7367365 2.6582939,12.7340784 2.6306193,12.7313693 2.6043743,12.7286326 2.5798574,12.7258914 2.5573672,12.7231691 2.5469753,12.7218222 2.5372019,12.7204888 2.5372019,12.7204888 2.4106633,12.7019384 2.3479761,12.6920786 2.2858259,12.6817921 2.2243247,12.671051 2.1635842,12.6598274 2.1037161,12.6480936 2.0448324,12.6358217 1.9870449,12.6229839 1.9304652,12.6095524 1.8752053,12.5954993 1.821377,12.5807968 1.7690919,12.5654171 1.7184146,12.5493184 1.6691922,12.532426 1.6214993,12.514765 1.5753947,12.4963534 1.5309368,12.4772089 1.4881843,12.4573494 1.4471955,12.4367927 1.4080292,12.4155566 1.3707439,12.3936591 1.3353981,12.3711178 1.3020436,12.3479564 1.2707374,12.3243792 1.2414003,12.3003753 1.2138799,12.2758118 1.1880235,12.2505557 1.1636788,12.2244742 1.1406931,12.1974345 1.1189141,12.1693037 1.0981891,12.1399489 0.9730132,11.9486032 0.9730132,11.9486032 0.9647242,11.9376092 0.9605797,11.9321122 0.9595436,11.930738 0.9590255,11.9300509 0.9580597,11.9287711 0.9538725,11.9232584 0.9367794,11.9013386 0.9190979,11.8796279 0.900719,11.8580986 0.8816338,11.8367878 0.8618566,11.8157459 0.8414015,11.7950235 0.8202827,11.7746709 0.7985143,11.7547388 0.7761106,11.7352776 0.7530857,11.7163378 0.7294538,11.6979698 0.7052291,11.6802243 0.6804257,11.6631516 0.6550579,11.6468022 0.6291404,11.6312265 0.6028087,11.6164928 0.5762277,11.6026654 0.5495533,11.5898576 0.5229093,11.5780811 0.4963942,11.5672973 0.4701067,11.5574674 0.4441456,11.5485529 0.4186093,11.5405151 0.3935967,11.5333152 0.3692062,11.5269145 0.3455366,11.5212745 0.3226864,11.5163564 0.3007544,11.5121215 0.2798392,11.5085311 0.2600395,11.5055467 0.2600395,11.5055467 0.22317,11.5010437 0.1862977,11.4978579 0.1494847,11.4959686 0.1127929,11.4953551 0.0762842,11.4959966 0.0400205,11.4978725 0.0040639,11.5009621 -0.0314587,11.5052282 -0.0664108,11.510604 -0.1007656,11.5170347 -0.1344968,11.524466 -0.1675781,11.5328438 -0.199983,11.5421135 -0.2316853,11.5522211 -0.2626655,11.5631137 -0.2930701,11.5747975 -0.3229568,11.5872643 -0.3523233,11.6004883 -0.3811671,11.6144436 -0.4094861,11.6291041 -0.4372777,11.6444439 -0.4645398,11.6604372 -0.49127,11.6770579 -0.5174659,11.6942801 -0.5431251,11.7120778 -0.5682455,11.7304251 -0.5928245,11.7492961 -0.61686,11.7686648 -0.6403494,11.7885052 -0.6632718,11.8087745 -0.6855505,11.828923 -0.8699204,12.0269403 -0.8699204,12.0269403 -0.8967779,12.0554962 -0.9232776,12.0831107 -0.9494455,12.109808 -0.9753073,12.1356123 -1.0008891,12.1605477 -1.0262168,12.1846384 -1.0513161,12.2079085 -1.076213,12.2303821 -1.1009335,12.2520835 -1.1255034,12.2730368 -1.1499486,12.2932661 -1.174295,12.3127957 -1.1985685,12.3316495 -1.222795,12.3498519 -1.2470004,12.367427 -1.2711614,12.3843693 -1.3193796,12.4164527 -1.3678137,12.446348 -1.4168075,12.4742415 -1.4667048,12.5003195 -1.5178494,12.5247684 -1.5705852,12.5477744 -1.5976572,12.5587945 -1.625256,12.5695237 -1.6534244,12.5799854 -1.6822322,12.5902029 -1.7117972,12.600188 -1.7421592,12.6099407 -1.7733523,12.6194605 -1.8054106,12.6287468 -1.8383686,12.6377991 -1.8722603,12.6466169 -1.90712,12.6551998 -1.942988,12.6635418 -1.9799037,12.6716296 -2.0178845,12.6794625 -2.0569471,12.6870401 -2.0971078,12.6943623 -2.1383834,12.7014289 -2.1807904,12.7082396 -2.2243453,12.7147941 -2.2690647,12.7210923 -2.3149651,12.7271339 -2.3620632,12.7329186 -2.4103755,12.7384463 -2.4599185,12.7437168 -2.5107088,12.7487296 -2.5627629,12.7534848 -2.6160975,12.7579819 -2.6707291,12.7622209 -2.7266742,12.7662013 -2.7839495,12.7699231 -2.8425714,12.773386 -2.9025565,12.7765897 -2.9639215,12.779534 -3.0266828,12.7822187 -3.090857,12.7846436 -3.1564607,12.7868084 -3.1564607,12.7868084 -3.2096043,12.7870355 -3.26417,12.7867387 -3.3200028,12.7859434 -3.3769477,12.7846747 -3.4348499,12.7829582 -3.4935545,12.7808191 -3.5529065,12.7782828 -3.6127509,12.7753745 -3.7332976,12.7685437 -3.8539551,12.7605293 -3.9734841,12.751534 -4.032438,12.7467319 -4.090645,12.7417606 -4.2050561,12.731341 -4.3203919,12.7200505 -4.4364269,12.7079507 -4.5521987,12.6951621 -4.6667449,12.6818047 -4.7232577,12.6749503 -4.7791031,12.6679988 -4.834161,12.6609653 -4.8883109,12.6538648 -4.9414327,12.6467122 -4.9934059,12.6395227 -4.9934059,12.6395227 -5.0630026,12.6289928 -5.1320287,12.6170501 -5.2004484,12.6036862 -5.2682257,12.5888928 -5.3353247,12.5726615 -5.4017094,12.5549839 -5.467344,12.5358517 -5.5321926,12.5152564 -5.5962192,12.4931897 -5.6593831,12.4696452 -5.721556,12.4446594 -5.7826832,12.4182447 -5.8427453,12.3903981 -5.9017226,12.3611163 -5.9595956,12.3303964 -6.0163448,12.298235 -6.0719506,12.2646292 -6.1263934,12.2295757 -6.1796537,12.1930714 -6.2315965,12.1552141 -6.2820784,12.1161221 -6.3311049,12.0757867 -6.3786816,12.0341993 -6.424814,11.9913509 -6.469508,11.9472329 -6.5127689,11.9018363 -6.5546026,11.8551524 -6.5950146,11.8071724 -6.6340105,11.7578875 -6.6715959,11.7072888 -6.7077765,11.6553676 -6.7253418,11.6289083 -6.7339935,11.6155535 -6.7382866,11.6088447 -6.7438056,11.6001763 -6.7438056,11.6001763 -6.7470061,11.5954305 -6.7498795,11.5911684 -6.7545658,11.5841746 -6.763849,11.5701257 -6.7820597,11.5417809 -6.8170729,11.4840887 -6.8502358,11.4250319 -6.8815818,11.3645774 -6.911144,11.3026919 -6.9389555,11.239342 -6.9650479,11.1744974 -6.9893724,11.1083027 -7.011907,11.040879 -7.0326738,10.9722638 -7.0516952,10.9024943 -7.0689932,10.8316081 -7.08459,10.7596426 -7.0985079,10.6866351 -7.1107576,10.6126001 -7.1213474,10.5375204 -7.1303134,10.4614615 -7.1376921,10.3844936 -7.1435198,10.3066867 -7.1478331,10.2281111 -7.1506685,10.1488368 -7.1520625,10.0689339 -7.1520515,9.9884726 -7.1506721,9.9075231 -7.1479606,9.8261553 -7.1439537,9.7444395 -7.1386877,9.6624457 -7.1321991,9.5802442 -7.1245245,9.4979049 -7.1157003,9.4154981 -7.105763,9.3330939 -7.0947491,9.2507623 -6.7443374,6.7525915 -6.7443374,6.7525915 -6.7421681,6.7388731 -6.7397787,6.7266459 -6.7372565,6.7158793 -6.7346888,6.7065427 -6.732163,6.6986056 -6.7297663,6.6920373 -6.7275859,6.6868072 -6.7257269,6.6828834 -6.7242935,6.6800873 -6.7232186,6.6781876 -6.721812,6.6762287 -6.7208428,6.675308 -6.7192463,6.6737945 -6.7177119,6.6725731 -6.7155018,6.671044 -6.7124774,6.6692091 -6.7085004,6.6670701 -6.7034323,6.6646289 -6.6971354,6.661888 -6.6895234,6.65898 -6.6806269,6.6560482 -6.6705344,6.6531598 -6.6593346,6.6503824 -6.6471159,6.6477833 -6.6339669,6.64543 -6.6199763,6.6433897 -6.6052324,6.6417299 -6.589824,6.640518 -6.5738395,6.6398213 7.5941194,6.6398213 7.5941194,6.6398213 7.6356082,6.6412924 7.6763276,6.6425557 7.7161759,6.6436301 7.7549883,6.6445311 7.7925999,6.6452742 7.8288457,6.6458752 7.8635607,6.6463495 7.8965799,6.6467129 7.9277384,6.6469808 7.9568711,6.647169 7.9838131,6.6472929 7.996411,6.6473357 8.0083994,6.6473682 8.0197576,6.6473925 8.030465,6.6474105 8.040501,6.6474242 8.049845,6.6474354 8.0669041,6.6474612 8.082963,6.6475018 8.0980349,6.6475637 8.1121092,6.6476531 8.1251446,6.647782 8.1370752,6.6479628 8.1479258,6.6481874 8.1577253,6.6484465 8.1665024,6.648731 8.1742862,6.6490318 8.1811054,6.6493397 8.1869888,6.6496456 8.1919654,6.6499402 8.1960639,6.6502145 8.1993133,6.6504594 8.2017422,6.6506656 8.2033797,6.6508241 8.2042546,6.6509256 8.2042868,6.6509305 8.2042868,6.6509305 8.205749,6.651244 8.2089803,6.6520463 8.2134696,6.6533229 8.218706,6.6550596 8.2298132,6.6597254 8.2403823,6.6652568 8.2449818,6.668061 8.2489539,6.6707642 8.25226,6.6732485 8.2549303,6.6754592 8.2570046,6.6773489 8.2585228,6.6788701 8.2595246,6.6799754 8.2600498,6.6806174 8.2600498,6.6806174 8.2604613,6.6819557 8.2611568,6.6849452 8.261967,6.6899177 8.2626681,6.6969637 8.2630417,6.7061912 8.2630374,6.7116567 8.2628693,6.7177081 8.2625101,6.7243589 8.2619325,6.7316226 8.2611092,6.7395126 8.2600128,6.7480425 7.8138027,9.9291836 7.8138027,9.9291836 7.804555,9.9929251 7.7946991,10.0565471 7.784225,10.1199994 7.7731226,10.1832318 7.7613818,10.2461943 7.7489927,10.3088366 7.7359451,10.3711087 7.7222292,10.4329603 7.7078347,10.4943414 7.6927517,10.5552018 7.6769702,10.6154914 7.6604801,10.67516 7.6432714,10.7341574 7.625334,10.7924336 7.606658,10.8499384 7.5872331,10.9066217 7.5670496,10.9624332 7.5460917,11.0173433 7.5243706,11.071351 7.501895,11.1244161 7.4786435,11.1765471 7.4545943,11.2277524 7.4297258,11.2780406 7.4040164,11.3274201 7.3774445,11.3758995 7.3499884,11.4234872 7.3216265,11.4701917 7.2923373,11.5160215 7.262099,11.560985 7.23089,11.6050908 7.1986887,11.6483474 7.1822092,11.6696598 7.1738736,11.6802375 7.1696816,11.6855068 7.1673135,11.6884701 7.1645317,11.6919492 7.1645317,11.6919492 7.1601234,11.6976668 7.1565486,11.7022888 7.149378,11.7114938 7.1349516,11.7297488 7.1057499,11.7656454 7.0760665,11.8007379 7.045882,11.8350428 7.0151771,11.8685762 6.9839323,11.9013544 6.9521282,11.9333939 6.9197452,11.9647108 6.8867641,11.9953215 6.8531653,12.0252423 6.8189294,12.0544895 6.7840371,12.0830793 6.7484688,12.1110282 6.7122051,12.1383523 6.6752267,12.1650681 6.637514,12.1911918 6.5991472,12.2166601 6.5602188,12.2414047 6.5207256,12.2654366 6.4806642,12.2887667 6.4400314,12.3114057 6.3988241,12.3333647 6.3570388,12.3546544 6.3146725,12.3752858 6.2717217,12.3952697 6.2281834,12.414617 6.1840541,12.4333387 6.1393307,12.4514455 6.09401,12.4689484 6.0480886,12.4858582 6.0015633,12.5021858 5.9544249,12.5179439 5.9065729,12.5331689 5.8579662,12.5478709 5.8085859,12.56204 5.7584328,12.5756788 5.7075106,12.5887925 5.6558235,12.6013862 5.6033753,12.6134648 5.5501699,12.6250335 5.4962112,12.6360973 5.4415033,12.6466613 5.38605,12.6567305 5.3298553,12.66631 5.272923,12.6754049 5.2152572,12.6840202 5.1568617,12.692161 5.0977404,12.6998323 5.0378974,12.7070392 4.9773366,12.7137868 4.9160618,12.7200801 4.854077,12.7259242 4.7913861,12.7313242 4.7279931,12.7362851 4.6639019,12.7408119 4.5991164,12.7449098 4.5336406,12.7485838 4.4674783,12.7518389 4.4006335,12.7546802 4.3331102,12.7571129 4.2649123,12.7591418 4.1960436,12.7607722 4.1265082,12.762009 4.0562065,12.7628585 3.4265531,12.7725786z" transform="matrix(1,0,0,-1,19.0582085,23.3523144)" fill="rgb(255,255,255)" stroke="rgb(0,0,0)" stroke-width="0.0010cm" stroke-linecap="round" stroke-linejoin="round" shaper:cutDepth="0.0127" /><path d="M1.087267,17.4370902 L-0.6828113,20.5034624 -0.6828113,20.5034624 -0.6885777,20.5127563 -0.6938605,20.5200608 -0.6986772,20.5257801 -0.7030076,20.5302333 -0.7070182,20.533757 -0.7109094,20.536666 -0.7192101,20.5415443 -0.7240142,20.5436357 -0.729425,20.5454892 -0.7355708,20.5471003 -0.7424961,20.5483759 -0.7500812,20.5491924 -0.758151,20.5495006 -0.7665296,20.5492506 -0.7750412,20.5483929 -0.7834876,20.546889 -0.7915999,20.5448082 -0.7992387,20.5422616 -0.8062824,20.5393579 -0.8126093,20.5362056 -0.818113,20.5329166 -0.8228241,20.5296234 -0.8268705,20.5262967 -0.8335409,20.5192595 -0.8365376,20.5152967 -0.8395734,20.5107073 -0.842581,20.5052267 -0.8455607,20.4984671 -0.8485127,20.4900405 -0.8514374,20.4795589 -1.7096545,17.0442493 -1.7096545,17.0442493 -1.7111299,17.0374142 -1.7120511,17.0308746 -1.712374,17.0179524 -1.7107406,17.0048011 -1.7071715,16.9918077 -1.7017508,16.9794137 -1.6946535,16.9680223 -1.6861186,16.9579839 -1.6757698,16.9489938 -0.1771871,15.8191004 -0.1771871,15.8191004 -0.168988,15.8134968 -0.1610791,15.8091807 -0.15317,15.8058203 -0.1450273,15.8032881 -0.1364904,15.8015421 -0.1275405,15.800617 -0.1183269,15.8005529 -0.1090131,15.8013924 -0.0998274,15.8031515 -0.0910337,15.805748 -0.0827512,15.8090926 -0.0750952,15.8130961 -0.0679828,15.8177211 -0.0614308,15.8229798 -0.0551765,15.8292258 -0.0488371,15.8369611 1.0811766,17.3357033 1.0811766,17.3357033 1.0885833,17.3470781 1.0939761,17.3589651 1.0976398,17.3718202 1.0994428,17.3852701 1.0992963,17.3988707 1.0972097,17.412177 1.0932733,17.4247738 1.087267,17.4370902z" transform="matrix(1,0,0,-1,19.0582085,23.3523144)" fill="rgb(255,255,255)" stroke="rgb(0,0,0)" stroke-width="0.0010cm" stroke-linecap="round" stroke-linejoin="round" shaper:cutDepth="0.0127" /></svg>