<?xml version="1.0" encoding="utf-8"?>
<!-- Generator: Fusion 360, Shaper Origin Export Add-In, Version 1.6.10  -->
<svg xmlns="http://www.w3.org/2000/svg" xmlns:xlink="http://www.w3.org/1999/xlink" xmlns:shaper="http://www.shapertools.com/namespaces/shaper" shaper:fusionaddin="version:1.6.10" width="148.2942217cm" height="8cm" version="1.1" x="0cm" y="0cm" viewBox="0 0 148.2942217 8" enable-background="new 0 0 148.2942217 8" xml:space="preserve"><path d="M58.1481333,0.664858 A42,42 82.7570306 0,0 72.7274961,-4 L74.1471108,-1.3571429 A45,45 61.7574628 0,1 52.8528892,4 L-74.1471108,4 -74.1471108,1 -72.1471108,1 A5,5 90 0,0 -67.1471108,-4 L-64.1471108,-4 A5,5 180 0,0 -59.1471108,1 L-39.1471169,1 A5,5 90 0,0 -34.1471169,-4 L-31.1471169,-4 A5,5 180 0,0 -26.1471169,1 L-8.6471169,1 A5,5 90 0,0 -3.6471169,-4 L-0.6471169,-4 A5,5 180 0,0 4.3528831,1 L19.3528831,1 A5,5 90 0,0 24.3528831,-4 L27.3528831,-4 A5,5 180 0,0 32.3528831,1 L44.8528892,1 A5,5 90 0,0 49.8528892,-4 L52.8528892,-4 A4.702381,4.702381 180 0,0 58.1481333,0.664858z" transform="matrix(1,0,0,-1,74.1471108,4)" fill="rgb(0,0,0)" shaper:cutDepth="0.02" stroke-linecap="round" stroke-linejoin="round" /></svg>