<?xml version="1.0" encoding="utf-8"?>
<!-- Generator: Fusion 360, Shaper Origin Export Add-In, Version 1.6.10  -->
<svg xmlns="http://www.w3.org/2000/svg" xmlns:xlink="http://www.w3.org/1999/xlink" xmlns:shaper="http://www.shapertools.com/namespaces/shaper" shaper:fusionaddin="version:1.6.10" width="16.8154486cm" height="7.5472244cm" version="1.1" x="0cm" y="0cm" viewBox="0 0 16.8154486 7.5472244" enable-background="new 0 0 16.8154486 7.5472244" xml:space="preserve"><path d="M0.7336735,-3.0312827 L0.5696884,-2.8551593 0.5696884,-2.8551593 0.5486846,-2.8369497 0.5274596,-2.8200954 0.5060383,-2.8045934 0.4844455,-2.7904406 0.462706,-2.7776342 0.4408447,-2.7661711 0.4188863,-2.7560483 0.3968557,-2.747263 0.3746758,-2.7397814 0.3521644,-2.7335706 0.3293439,-2.7286858 0.3062428,-2.7251845 0.2829602,-2.7231286 0.2596615,-2.7225636 0.236384,-2.7235102 0.2131621,-2.7259891 0.2131621,-2.7259891 0.1840262,-2.731128 0.1695039,-2.7346111 0.1549911,-2.7388224 0.1404721,-2.7438514 0.125931,-2.7497876 0.1113522,-2.7567203 0.09672,-2.7647391 0.0820205,-2.7739319 0.0672399,-2.7843862 0.0523621,-2.7961913 0.037371,-2.8094361 0.0222505,-2.8242098 0.0069846,-2.8406013 -0.0084428,-2.8586998 -0.0240477,-2.8785943 -0.1387373,-3.0539104 -0.1387373,-3.0539104 -0.1579895,-3.0819857 -0.1777973,-3.1095044 -0.1981576,-3.136472 -0.2190673,-3.1628937 -0.240523,-3.188775 -0.2625217,-3.2141212 -0.2850601,-3.2389378 -0.3081351,-3.26323 -0.3317434,-3.2870034 -0.355882,-3.3102632 -0.3805476,-3.3330149 -0.4057371,-3.3552638 -0.4314472,-3.3770153 -0.4576748,-3.3982749 -0.4844167,-3.4190478 -0.5116697,-3.4393395 -0.5394238,-3.4591505 -0.5675745,-3.4784181 -0.5960766,-3.4971299 -0.6249159,-3.5152964 -0.6540784,-3.5329285 -0.6835501,-3.5500368 -0.7433649,-3.5827243 -0.8042477,-3.6134444 -0.8660861,-3.6422823 -0.9287678,-3.6693233 -0.9921802,-3.6946527 -1.0562109,-3.7183558 -1.1207475,-3.7405179 -1.1857793,-3.7612532 -1.251533,-3.7807315 -1.3179379,-3.7990262 -1.3848985,-3.816203 -1.4523189,-3.8323274 -1.5201034,-3.8474653 -1.5881563,-3.8616823 -1.6563819,-3.8750439 -1.7246844,-3.887616 -1.7929681,-3.8994642 -1.8611373,-3.9106541 -1.9290962,-3.9212515 -1.9967491,-3.9313219 -2.0640004,-3.9409312 -2.0640004,-3.9409312 -2.0928834,-3.9447996 -2.123029,-3.9484985 -2.1542437,-3.9520294 -2.1863341,-3.9553939 -2.2523685,-3.9616294 -2.3195848,-3.9672175 -2.3864355,-3.9721705 -2.4192402,-3.9744126 -2.4513733,-3.9765005 -2.4826413,-3.9784358 -2.5128508,-3.9802199 -2.5714457,-3.9834538 -2.6309855,-3.9864517 -2.6912992,-3.9892088 -2.8129069,-3.993943 -2.8735298,-3.9958914 -2.933585,-3.9975416 -2.9927367,-3.9988791 -3.0506497,-3.9998897 -3.6889515,-3.9900361 -3.6889515,-3.9900361 -3.7627403,-3.9891425 -3.8360346,-3.9878544 -3.908832,-3.9861607 -3.9811304,-3.9840506 -4.0529272,-3.9815131 -4.1242203,-3.9785371 -4.1950073,-3.9751118 -4.2652858,-3.9712261 -4.3350535,-3.9668692 -4.4043082,-3.96203 -4.4730473,-3.9566975 -4.5412688,-3.9508609 -4.6089701,-3.9445091 -4.676149,-3.9376313 -4.7428032,-3.9302163 -4.8089303,-3.9222533 -4.8745279,-3.9137313 -4.9395939,-3.9046393 -5.0041258,-3.8949664 -5.0681212,-3.8847016 -5.131578,-3.873834 -5.1944937,-3.8623525 -5.256866,-3.8502462 -5.3186926,-3.8375042 -5.3799712,-3.8241155 -5.4406994,-3.810069 -5.5008749,-3.795354 -5.5604954,-3.7799593 -5.6195586,-3.7638741 -5.678062,-3.7470873 -5.7360035,-3.729588 -5.7933806,-3.7113653 -5.8502376,-3.6923921 -5.906705,-3.6726071 -5.9627806,-3.6519894 -6.018453,-3.6305213 -6.0737111,-3.6081851 -6.1285435,-3.584963 -6.1829391,-3.5608371 -6.2368865,-3.5357897 -6.2903745,-3.5098031 -6.3433919,-3.4828594 -6.3959273,-3.4549408 -6.4479696,-3.4260296 -6.4995075,-3.396108 -6.5505296,-3.3651583 -6.6010248,-3.3331625 -6.6509819,-3.3001031 -6.7002512,-3.2660599 -6.7486552,-3.2311517 -6.7961999,-3.1953787 -6.842892,-3.1587406 -6.8887384,-3.121237 -6.9337457,-3.0828677 -6.9779207,-3.0436322 -7.0212701,-3.0035302 -7.0638008,-2.9625616 -7.1055193,-2.9207258 -7.1464326,-2.8780227 -7.1865473,-2.8344518 -7.2258702,-2.7900129 -7.264408,-2.7447056 -7.3021674,-2.6985296 -7.3391553,-2.6514846 -7.3391553,-2.6514846 -7.3827744,-2.5955314 -7.4248754,-2.5387138 -7.4654896,-2.4810518 -7.5046486,-2.4225656 -7.5423837,-2.3632753 -7.5787264,-2.3032009 -7.6137081,-2.2423625 -7.6473603,-2.1807803 -7.6797144,-2.1184743 -7.7108019,-2.0554646 -7.7406542,-1.9917714 -7.7693028,-1.9274146 -7.7967791,-1.8624145 -7.8231144,-1.7967911 -7.8483383,-1.7305648 -7.8724738,-1.6637691 -7.8955457,-1.5964479 -7.9175791,-1.5286454 -7.9385992,-1.460406 -7.9586309,-1.3917737 -7.9776994,-1.3227929 -7.9958297,-1.2535077 -8.013047,-1.1839625 -8.0293762,-1.1142013 -8.0448424,-1.0442685 -8.0594708,-0.9742082 -8.0732864,-0.9040648 -8.0863143,-0.8338824 -8.0985795,-0.7637052 -8.1101072,-0.6935775 -8.1209224,-0.6235435 -8.1310501,-0.5536474 -8.5772602,2.6274937 -8.5772602,2.6274937 -8.5819382,2.6659191 -8.585156,2.7043922 -8.5868427,2.7428681 -8.5869274,2.7813017 -8.5853392,2.8196483 -8.5820071,2.8578626 -8.5768601,2.8958999 -8.5698274,2.9337151 -8.5608389,2.9712597 -8.5499161,3.0081922 -8.5371022,3.0442894 -8.5224012,3.0795212 -8.505817,3.1138573 -8.4873538,3.1472676 -8.4670154,3.1797218 -8.4448076,3.2111874 -8.4208972,3.2414302 -8.3954518,3.2702945 -8.3685541,3.2977588 -8.3402871,3.3238012 -8.3107338,3.3484001 -8.2799771,3.3715336 -8.2480994,3.3931803 -8.2151708,3.4133234 -8.1812984,3.4319231 -8.1466034,3.4489316 -8.1112071,3.4643013 -8.0752032,3.4779941 -8.0384831,3.4900264 -8.0011737,3.5002982 -7.9634671,3.5086832 -7.9255557,3.515055 -7.9255557,3.515055 -7.9022347,3.5179581 -7.8782179,3.5202503 -7.8532823,3.522005 -7.8272045,3.5232951 -7.7997615,3.5241939 -7.7707302,3.5247745 -7.7398874,3.5251101 -7.70701,3.5252738 -7.6897386,3.525314 -7.6718288,3.525339 -7.6622121,3.5253513 -7.6519708,3.5253671 -7.6296939,3.5254162 -7.6051573,3.5255008 -7.5785201,3.5256354 -7.5499418,3.5258348 -7.5195815,3.5261135 -7.4875985,3.5264861 -7.454152,3.5269672 -7.4194012,3.5275714 -7.3835056,3.5283134 -7.3466242,3.5292076 -7.3089163,3.5302687 -7.2316582,3.53295 6.9568992,3.53295 6.9568992,3.53295 6.9954343,3.5316938 7.0340052,3.529193 7.0725335,3.5254134 7.1109407,3.5203207 7.1491482,3.5138809 7.1870776,3.5060597 7.2246504,3.4968228 7.261788,3.4861361 7.2984121,3.4739655 7.334444,3.4602765 7.3697669,3.4450532 7.4042218,3.428311 7.4377459,3.4100312 7.4702806,3.3901935 7.5017673,3.3687777 7.5321473,3.3457633 7.561362,3.3211301 7.5893527,3.2948577 7.6159107,3.2670932 7.6408038,3.2380908 7.6640451,3.2078848 7.6856497,3.1765076 7.7056325,3.1439914 7.7240086,3.1103687 7.7407766,3.0757081 7.7558481,3.0403192 7.7692579,3.0043187 7.7810669,2.9677716 7.7913363,2.9307427 7.8001272,2.893297 7.8075006,2.8554995 7.8135175,2.8174151 8.1639292,0.3192443 8.1639292,0.3192443 8.1760748,0.2286302 8.187118,0.1375774 8.1969982,0.0461441 8.2056551,-0.0456114 8.2130282,-0.1376309 8.219057,-0.2298562 8.2236812,-0.322229 8.2268402,-0.414691 8.2284737,-0.5071841 8.2285211,-0.5996499 8.2269221,-0.6920303 8.2236162,-0.7842669 8.2185429,-0.8763016 8.2116418,-0.9680761 8.2028526,-1.0595321 8.1921146,-1.1506115 8.1793675,-1.2412559 8.1645506,-1.3314087 8.1475897,-1.4210837 8.1284117,-1.510258 8.1069491,-1.5988669 8.0953401,-1.642939 8.0831348,-1.6868456 8.0703247,-1.7305784 8.0569015,-1.7741294 8.0428567,-1.8174905 8.0281818,-1.8606537 8.0128686,-1.9036108 7.9969086,-1.9463537 7.9802982,-1.9888623 7.963056,-2.0310655 7.9451804,-2.0729488 7.9266665,-2.1145071 7.9075091,-2.1557356 7.8877032,-2.1966293 7.8672437,-2.2371831 7.8461255,-2.2773922 7.8243435,-2.3172515 7.8018927,-2.3567561 7.7787679,-2.395901 7.7549642,-2.4346812 7.7304763,-2.4730917 7.7052992,-2.5111276 7.7052992,-2.5111276 7.6823148,-2.5466358 7.6588378,-2.5817296 7.6348713,-2.6164075 7.610418,-2.6506675 7.585481,-2.6845079 7.5600631,-2.7179269 7.5341672,-2.7509227 7.5077964,-2.7834935 7.4809535,-2.8156376 7.4536414,-2.847353 7.425863,-2.8786381 7.3976214,-2.909491 7.3689193,-2.93991 7.3397597,-2.9698933 7.3101455,-2.999439 7.2800797,-3.0285453 7.2495652,-3.0572106 7.2186049,-3.085433 7.1872016,-3.1132106 7.1553584,-3.1405418 7.1230782,-3.1674247 7.0903638,-3.1938575 7.0572182,-3.2198385 7.0236443,-3.2453658 6.989645,-3.2704377 6.9552276,-3.2950493 6.9204621,-3.3191535 6.8853772,-3.342736 6.8499787,-3.3657987 6.8142726,-3.3883435 6.7419612,-3.4318875 6.6684906,-3.4733835 6.5939081,-3.5128471 6.5182614,-3.5502941 6.4415979,-3.5857398 6.3639651,-3.6192 6.2854105,-3.6506903 6.2060387,-3.6802064 6.1259934,-3.7077375 6.0453211,-3.7333116 5.9640673,-3.7569573 5.8822769,-3.7787029 5.7999952,-3.7985771 5.7172674,-3.8166083 5.6341387,-3.8328252 5.5506541,-3.8472562 5.466859,-3.8599298 5.466859,-3.8599298 5.412117,-3.8675045 5.356317,-3.8750211 5.2995678,-3.8824662 5.241978,-3.889826 5.1836563,-3.8970872 5.1247112,-3.9042361 5.005386,-3.918143 4.8848717,-3.9314385 4.7640375,-3.9440141 4.6437529,-3.9557616 4.5240664,-3.9666448 4.4630619,-3.9718645 4.4012041,-3.9769205 4.3386226,-3.9817832 4.2754471,-3.9864229 4.147833,-3.9949149 4.0193991,-4.0021597 3.8911828,-4.0079204 3.8274804,-4.0101702 3.7642214,-4.0119601 3.7015355,-4.0132605 3.6395523,-4.0140418 3.5784016,-4.0142744 3.518213,-4.0139287 3.518213,-4.0139287 3.4492521,-4.0116934 3.3815434,-4.0091908 3.3150666,-4.0064148 3.2498013,-4.0033593 3.1857269,-4.0000183 3.1228232,-3.9963856 3.0610696,-3.9924551 3.0004457,-3.9882208 2.9409311,-3.9836766 2.8825053,-3.9788165 2.825148,-3.9736342 2.7688387,-3.9681237 2.7135569,-3.962279 2.6592822,-3.956094 2.6059942,-3.9495625 2.5536725,-3.9426785 2.5022966,-3.9354359 2.4518461,-3.9278287 2.4023006,-3.9198506 2.3536396,-3.9114958 2.3058427,-3.9027579 2.2588895,-3.8936311 2.2127595,-3.8841091 2.1674323,-3.874186 2.1228875,-3.8638556 2.0791047,-3.8531118 2.0360633,-3.8419486 1.993743,-3.8303598 1.9521234,-3.8183394 1.911184,-3.8058813 1.8709043,-3.7929794 1.831264,-3.7796277 1.7922374,-3.765818 1.7536955,-3.7515027 1.715578,-3.736653 1.6778684,-3.7212555 1.6405499,-3.7052964 1.6036059,-3.6887621 1.5670198,-3.6716392 1.5307748,-3.6539139 1.4948545,-3.6355727 1.459242,-3.6166019 1.4239208,-3.596988 1.3888743,-3.5767174 1.3540857,-3.5557764 1.3195384,-3.5341515 1.2852159,-3.5118291 1.2511013,-3.4887955 1.2171931,-3.4650484 1.1835895,-3.440666 1.1502913,-3.4156612 1.117273,-3.3900281 1.0845093,-3.3637608 1.051975,-3.3368535 1.0196446,-3.3093002 0.9874929,-3.2810951 0.9554946,-3.2522323 0.9236243,-3.2227059 0.8918568,-3.19251 0.8601666,-3.1616388 0.8285285,-3.1300863 0.7969172,-3.0978467 0.7653072,-3.0649142 0.7336735,-3.0312827z" transform="matrix(1,0,0,-1,8.5869274,3.53295)" fill="rgb(0,0,0)" shaper:cutDepth="0.0127" stroke-linecap="round" stroke-linejoin="round" /><path d="M-1.240481,-0.164201 L-1.29796,0.2455808 -1.29796,0.2455808 -1.3017416,0.2693643 -1.3063962,0.2929173 -1.311941,0.3162114 -1.3183936,0.3392185 -1.3257712,0.3619102 -1.3340911,0.3842583 -1.3433708,0.4062344 -1.3536275,0.4278103 -1.3648787,0.4489577 -1.3771255,0.4696213 -1.3902811,0.4896202 -1.4043191,0.5089087 -1.4192267,0.5274657 -1.4349909,0.5452705 -1.4515987,0.5623021 -1.4690374,0.5785397 -1.487294,0.5939623 -1.5063447,0.6085412 -1.52605,0.6221718 -1.5463443,0.6348252 -1.567194,0.6464986 -1.5885656,0.657189 -1.6104255,0.6668938 -1.6327402,0.67561 -1.6554717,0.6833335 -1.6785102,0.6900423 -1.7017952,0.6957384 -1.7252938,0.7004332 -1.7489729,0.704138 -1.7727995,0.7068644 -1.7967405,0.7086237 -1.820763,0.7094274 -1.820763,0.7094274 -1.8694339,0.7099352 -1.9190168,0.7104485 -1.9694695,0.7109665 -2.0207496,0.7114885 -2.0728148,0.7120137 -2.1256229,0.7125413 -2.1791314,0.7130705 -2.2332981,0.7136007 -2.3434367,0.7146605 -2.4557002,0.7157147 -2.56975,0.7167572 -2.6852476,0.7177817 -2.8018544,0.7187822 -2.9192318,0.7197525 -3.1549446,0.7215779 -3.3896774,0.7232091 -3.5058301,0.7239364 -3.6207221,0.7245968 -3.7340149,0.725184 -3.8453701,0.725692 -3.9002152,0.7259144 -3.954449,0.7261146 -4.0080291,0.726292 -4.0609131,0.7264457 -4.1130588,0.726575 -4.1644239,0.7266792 -4.214966,0.7267573 -4.2647856,0.7268089 -4.2902585,0.726825 -4.3163722,0.7268338 -4.3702819,0.7268259 -4.4260344,0.726778 -4.4831493,0.7266827 -4.5995455,0.7263197 -4.7156282,0.7256777 -4.7723512,0.7252336 -4.8275551,0.7246975 -4.8807594,0.7240619 -4.9064616,0.7237045 -4.9315028,0.7233195 -4.9558697,0.7229057 -4.9795103,0.722462 -5.002371,0.7219875 -5.0243983,0.721481 -5.0455385,0.7209415 -5.065738,0.720368 -5.0849434,0.7197594 -5.1031009,0.7191147 -5.120157,0.7184328 -5.1360581,0.7177126 -5.1507506,0.7169531 -5.164181,0.7161532 -5.1762955,0.715312 -5.1870407,0.7144283 -5.1963629,0.713501 -5.2042085,0.7125293 -5.2042085,0.7125293 -5.2275603,0.7089041 -5.2509287,0.7045247 -5.2742111,0.6993262 -5.2973054,0.6932442 -5.320109,0.6862139 -5.3425198,0.6781706 -5.3644351,0.6690498 -5.3857528,0.6587866 -5.4063339,0.6473401 -5.4259865,0.6347274 -5.444651,0.6209075 -5.4622766,0.6058343 -5.4788129,0.5894616 -5.4942089,0.5717437 -5.5082244,0.5529115 -5.5207176,0.5332292 -5.5317488,0.5127461 -5.5413783,0.4915115 -5.5496665,0.4695746 -5.5566599,0.4470332 -5.562392,0.424093 -5.5669452,0.4008537 -5.5704046,0.3774073 -5.572855,0.3538457 -5.5743816,0.3302611 -5.5750703,0.3066231 -5.5749908,0.2828471 -5.5742011,0.2590005 -5.5707227,0.2113681 -5.5650982,0.1642714 -5.5131074,-0.2063838 -5.5131074,-0.2063838 -5.5086011,-0.2368762 -5.5037375,-0.2666314 -5.4985114,-0.2956639 -5.4929174,-0.3239881 -5.4869503,-0.3516186 -5.4806047,-0.3785698 -5.4738752,-0.4048561 -5.4667567,-0.4304921 -5.4592438,-0.4554923 -5.4513312,-0.4798711 -5.4430136,-0.503643 -5.4342856,-0.5268225 -5.425142,-0.549424 -5.4155774,-0.5714621 -5.4055866,-0.5929512 -5.3951642,-0.6139057 -5.3842822,-0.6343807 -5.3728879,-0.6544613 -5.3609663,-0.6741553 -5.3485032,-0.6934683 -5.3354846,-0.7124065 -5.3218964,-0.7309755 -5.3077244,-0.7491813 -5.2929546,-0.7670297 -5.2776415,-0.7844511 -5.2618787,-0.8013539 -5.2456727,-0.8177559 -5.2290291,-0.8336757 -5.2119538,-0.849132 -5.1944526,-0.8641433 -5.1581956,-0.8929053 -5.1581956,-0.8929053 -5.1164735,-0.9208664 -5.0755475,-0.9475064 -5.0345682,-0.972735 -4.9926864,-0.9964616 -4.9711416,-1.0077334 -4.9490528,-1.0185957 -4.9263136,-1.0290374 -4.902818,-1.0390471 -4.8784598,-1.0486134 -4.8531329,-1.0577251 -4.826731,-1.0663708 -4.7991754,-1.074532 -4.7705502,-1.0821552 -4.7408166,-1.0892332 -4.7099058,-1.095768 -4.677749,-1.1017617 -4.6442771,-1.107216 -4.6094215,-1.1121331 -4.5731133,-1.1165149 -4.5352835,-1.1203634 -4.4958634,-1.1236804 -4.4547841,-1.1264681 -4.4119768,-1.1287283 -4.3673725,-1.1304631 -4.3209025,-1.1316743 -4.2724978,-1.132364 -4.2220897,-1.1325342 -4.1696093,-1.1321867 -2.5755524,-1.1472598 -2.5755524,-1.1472598 -2.5470677,-1.1468153 -2.5196153,-1.1463978 -2.4931561,-1.1460032 -2.4676513,-1.1456271 -2.4430619,-1.1452654 -2.419349,-1.144914 -2.3964737,-1.1445687 -2.374397,-1.1442252 -2.3530801,-1.1438794 -2.332484,-1.143527 -2.3125698,-1.143164 -2.2932985,-1.1427861 -2.2565292,-1.1419688 -2.2218645,-1.1410417 -2.188909,-1.1399678 -2.1571427,-1.1386923 -2.1263713,-1.1371607 -2.0964243,-1.1353193 -2.0671313,-1.1331141 -2.0383217,-1.1304911 -1.9814708,-1.1237762 -1.9814708,-1.1237762 -1.9388873,-1.117119 -1.8965252,-1.1090646 -1.8544843,-1.099537 -1.8128642,-1.0884604 -1.7717649,-1.0757586 -1.731286,-1.0613559 -1.6915273,-1.0451762 -1.6525885,-1.0271437 -1.6145695,-1.0071822 -1.5776563,-0.9852692 -1.5422242,-0.9615375 -1.5250904,-0.9489894 -1.5083537,-0.9359837 -1.492021,-0.9225182 -1.4760991,-0.9085906 -1.4605949,-0.8941988 -1.4455152,-0.8793406 -1.4308668,-0.8640139 -1.4166565,-0.8482165 -1.4028912,-0.8319461 -1.3895777,-0.8152007 -1.3767428,-0.7980051 -1.3644666,-0.7804683 -1.3527536,-0.7626106 -1.3415999,-0.7444423 -1.331002,-0.7259736 -1.320956,-0.7072147 -1.3114583,-0.6881757 -1.3025051,-0.6688669 -1.2862176,-0.6294806 -1.2720639,-0.5891372 -1.2600237,-0.5479538 -1.2501006,-0.5061917 -1.2422437,-0.463984 -1.2363955,-0.4214438 -1.2324985,-0.3786841 -1.2304945,-0.3357819 -1.2303325,-0.2927612 -1.2319706,-0.2497413 -1.2353673,-0.2068464 -1.240481,-0.164201z" transform="matrix(1,0,0,-1,8.5869274,3.53295)" fill="rgb(255,255,255)" stroke="rgb(0,0,0)" stroke-width="0.0010cm" stroke-linecap="round" stroke-linejoin="round" shaper:cutDepth="0.0127" /><path d="M5.5596052,-0.1251412 L5.5076144,0.245514 5.5076144,0.245514 5.5038328,0.2692975 5.4991782,0.2928505 5.4936333,0.3161447 5.4871808,0.3391517 5.4798032,0.3618434 5.4714833,0.3841915 5.4622036,0.4061676 5.4519469,0.4277435 5.4406957,0.448891 5.4284489,0.4695545 5.4152933,0.4895535 5.4012552,0.5088419 5.3863477,0.5273989 5.3705835,0.5452037 5.3539756,0.5622353 5.336537,0.5784729 5.3182804,0.5938956 5.2992297,0.6084745 5.2795243,0.6221051 5.2592301,0.6347584 5.2383804,0.6464318 5.2170088,0.6571223 5.1951489,0.6668271 5.1728342,0.6755433 5.1501027,0.6832668 5.1270642,0.6899756 5.1037791,0.6956717 5.0802806,0.7003664 5.0566015,0.7040713 5.0327749,0.7067977 5.0088339,0.708557 4.9848113,0.7093606 4.9848113,0.7093606 4.9300045,0.7098456 4.8741429,0.7103324 4.8172825,0.7108202 4.7594795,0.7113076 4.7007902,0.7117936 4.6412705,0.712277 4.5809767,0.7127568 4.5199649,0.7132319 4.4582912,0.713701 4.3960119,0.7141631 4.2698605,0.7150618 4.14196,0.7159189 4.0127595,0.7167255 3.7522548,0.7181513 3.4919396,0.7192673 3.3629759,0.7196867 3.235407,0.7200017 3.1096819,0.7202034 3.0476512,0.720259 2.9862499,0.7202829 2.9255342,0.7202739 2.8655601,0.720231 2.8063839,0.720153 2.7480616,0.7200389 2.6906495,0.7198874 2.6342036,0.7196976 2.5787169,0.7194681 2.5239669,0.7191972 2.4699957,0.7188833 2.4168815,0.7185244 2.3647027,0.7181188 2.3135376,0.7176646 2.2634644,0.7171602 2.2145614,0.7166038 2.166907,0.7159934 2.1205794,0.7153274 2.0756569,0.7146039 2.0322178,0.7138213 1.9903404,0.7129776 1.950103,0.7120711 1.9115839,0.7111 1.8748613,0.7100625 1.8400136,0.7089568 1.807119,0.7077812 1.7762559,0.7065338 1.7475026,0.7052129 1.7209372,0.7038167 1.6966382,0.7023433 1.6746838,0.7007911 1.6646102,0.6999848 1.6551522,0.6991581 1.6463195,0.6983108 1.6381219,0.6974427 1.6305691,0.6965535 1.623671,0.695643 1.623671,0.695643 1.6003193,0.6920179 1.5769509,0.6876384 1.5536685,0.68244 1.5305742,0.676358 1.5077705,0.6693277 1.4853598,0.6612844 1.4634445,0.6521635 1.4421268,0.6419004 1.4215457,0.6304538 1.4018931,0.6178412 1.3832286,0.6040213 1.365603,0.5889481 1.3490667,0.5725754 1.3336707,0.5548575 1.3196552,0.5360252 1.307162,0.516343 1.2961308,0.4958599 1.2865013,0.4746252 1.2782131,0.4526884 1.2712197,0.430147 1.2654876,0.4072068 1.2609343,0.3839675 1.257475,0.360521 1.2550246,0.3369595 1.253498,0.3133749 1.2528093,0.2897369 1.2528888,0.2659609 1.2536785,0.2421143 1.2571569,0.1944819 1.2627814,0.1473851 1.3230045,-0.2819598 1.3230045,-0.2819598 1.3275108,-0.3124523 1.3323743,-0.3422075 1.3376004,-0.3712399 1.3431944,-0.3995642 1.3491616,-0.4271946 1.3555072,-0.4541458 1.3622366,-0.4804322 1.3693551,-0.5060682 1.376868,-0.5310684 1.3847807,-0.5554472 1.3930983,-0.5792191 1.4018263,-0.6023985 1.4109699,-0.6250001 1.4205345,-0.6470381 1.4305253,-0.6685272 1.4409477,-0.6894818 1.4518296,-0.7099567 1.4632239,-0.7300374 1.4751456,-0.7497313 1.4876087,-0.7690444 1.5006273,-0.7879825 1.5142155,-0.8065516 1.5283875,-0.8247574 1.5431573,-0.8426058 1.5584703,-0.8600272 1.5742331,-0.8769299 1.5904392,-0.8933319 1.6070828,-0.9092517 1.624158,-0.924708 1.6416593,-0.9397193 1.6779163,-0.9684813 1.6779163,-0.9684813 1.6994063,-0.982547 1.721187,-0.9959444 1.7432966,-1.0086863 1.7657734,-1.0207857 1.7886557,-1.0322555 1.8119817,-1.0431086 1.8357898,-1.053358 1.8601182,-1.0630164 1.8850053,-1.0720968 1.9104892,-1.0806122 1.9366083,-1.0885754 1.9634009,-1.0959994 1.9909053,-1.102897 2.0191596,-1.1092811 2.0481725,-1.1151572 2.0778981,-1.1205219 2.1083443,-1.1253901 2.1395217,-1.1297772 2.1714407,-1.1336987 2.204112,-1.1371702 2.2375459,-1.1402072 2.2717532,-1.1428252 2.3067441,-1.1450397 2.3425294,-1.1468663 2.3791195,-1.1483204 2.416525,-1.1494175 2.4547563,-1.1501732 2.493824,-1.150603 2.5337386,-1.1507225 2.5745106,-1.150547 2.6161506,-1.1500922 2.6586691,-1.1493736 4.2304186,-1.1476275 4.2304186,-1.1476275 4.2701134,-1.1488049 4.3101364,-1.1491543 4.3503785,-1.1487354 4.3907305,-1.1476081 4.4713281,-1.1434678 4.5510561,-1.1372121 4.5899991,-1.1334782 4.6275422,-1.1295029 4.6636416,-1.1253531 4.6982652,-1.1210943 4.7313809,-1.116792 4.7629566,-1.1125118 4.7929602,-1.1083192 4.8213595,-1.1042797 4.8213595,-1.1042797 4.8639136,-1.0973478 4.9060717,-1.0885401 4.9477523,-1.0778596 4.9888738,-1.0653094 5.0293548,-1.0508928 5.0691136,-1.0346129 5.1080687,-1.0164728 5.1461385,-0.9964756 5.1832246,-0.9746344 5.2191158,-0.9510381 5.2537086,-0.9257298 5.2869271,-0.8987381 5.3186955,-0.8700914 5.348938,-0.8398182 5.3775786,-0.807947 5.4045418,-0.7745061 5.4296749,-0.7396388 5.4527756,-0.7036281 5.4738279,-0.6665322 5.4928216,-0.6284016 5.5097465,-0.5892868 5.5245926,-0.5492384 5.5373495,-0.5083068 5.5480008,-0.4665726 5.5564837,-0.4244361 5.5628337,-0.3820466 5.5671126,-0.3394532 5.5693823,-0.2967048 5.5697045,-0.2538505 5.5681412,-0.2109391 5.5647541,-0.1680197 5.5596052,-0.1251412z" transform="matrix(1,0,0,-1,8.5869274,3.53295)" fill="rgb(255,255,255)" stroke="rgb(0,0,0)" stroke-width="0.0010cm" stroke-linecap="round" stroke-linejoin="round" shaper:cutDepth="0.0127" /><path d="M6.2027744,2.0949143 a0.317489,0.317489 0 1,1 0.634978,0 a0.317489,0.317489 0 1,1 -0.634978,0z" transform="matrix(1,0,0,-1,8.5869274,3.53295)" fill="rgb(255,255,255)" stroke="rgb(0,0,0)" stroke-width="0.0010cm" stroke-linecap="round" stroke-linejoin="round" shaper:cutDepth="0.0127" /><path d="M3.9470764,2.1033853 a0.317489,0.317489 0 1,1 0.634978,0 a0.317489,0.317489 0 1,1 -0.634978,0z" transform="matrix(1,0,0,-1,8.5869274,3.53295)" fill="rgb(255,255,255)" stroke="rgb(0,0,0)" stroke-width="0.0010cm" stroke-linecap="round" stroke-linejoin="round" shaper:cutDepth="0.0127" /><path d="M6.6032659,-0.7602874 a0.317489,0.317489 0 1,1 0.634978,0 a0.317489,0.317489 0 1,1 -0.634978,0z" transform="matrix(1,0,0,-1,8.5869274,3.53295)" fill="rgb(255,255,255)" stroke="rgb(0,0,0)" stroke-width="0.0010cm" stroke-linecap="round" stroke-linejoin="round" shaper:cutDepth="0.0127" /><path d="M2.34418,-2.542126 a0.317489,0.317489 0 1,1 0.634978,0 a0.317489,0.317489 0 1,1 -0.634978,0z" transform="matrix(1,0,0,-1,8.5869274,3.53295)" fill="rgb(255,255,255)" stroke="rgb(0,0,0)" stroke-width="0.0010cm" stroke-linecap="round" stroke-linejoin="round" shaper:cutDepth="0.0127" /><path d="M-2.4020409,-2.5246377 a0.317489,0.317489 0 1,1 0.634978,0 a0.317489,0.317489 0 1,1 -0.634978,0z" transform="matrix(1,0,0,-1,8.5869274,3.53295)" fill="rgb(255,255,255)" stroke="rgb(0,0,0)" stroke-width="0.0010cm" stroke-linecap="round" stroke-linejoin="round" shaper:cutDepth="0.0127" /><path d="M-7.5660916,2.1452385 a0.317489,0.317489 0 1,1 0.634978,0 a0.317489,0.317489 0 1,1 -0.634978,0z" transform="matrix(1,0,0,-1,8.5869274,3.53295)" fill="rgb(255,255,255)" stroke="rgb(0,0,0)" stroke-width="0.0010cm" stroke-linecap="round" stroke-linejoin="round" shaper:cutDepth="0.0127" /><path d="M-5.4265533,2.1293796 a0.317489,0.317489 0 1,1 0.634978,0 a0.317489,0.317489 0 1,1 -0.634978,0z" transform="matrix(1,0,0,-1,8.5869274,3.53295)" fill="rgb(255,255,255)" stroke="rgb(0,0,0)" stroke-width="0.0010cm" stroke-linecap="round" stroke-linejoin="round" shaper:cutDepth="0.0127" /><path d="M-0.6815084,2.1202756 a0.317489,0.317489 0 1,1 0.634978,0 a0.317489,0.317489 0 1,1 -0.634978,0z" transform="matrix(1,0,0,-1,8.5869274,3.53295)" fill="rgb(255,255,255)" stroke="rgb(0,0,0)" stroke-width="0.0010cm" stroke-linecap="round" stroke-linejoin="round" shaper:cutDepth="0.0127" /><path d="M4.599829,-2.5502477 a0.317489,0.317489 0 1,1 0.634978,0 a0.317489,0.317489 0 1,1 -0.634978,0z" transform="matrix(1,0,0,-1,8.5869274,3.53295)" fill="rgb(255,255,255)" stroke="rgb(0,0,0)" stroke-width="0.0010cm" stroke-linecap="round" stroke-linejoin="round" shaper:cutDepth="0.0127" /><path d="M-3.0547935,2.1289952 a0.317489,0.317489 0 1,1 0.634978,0 a0.317489,0.317489 0 1,1 -0.634978,0z" transform="matrix(1,0,0,-1,8.5869274,3.53295)" fill="rgb(255,255,255)" stroke="rgb(0,0,0)" stroke-width="0.0010cm" stroke-linecap="round" stroke-linejoin="round" shaper:cutDepth="0.0127" /><path d="M-0.2607792,-0.8792059 a0.317489,0.317489 0 1,1 0.634978,0 a0.317489,0.317489 0 1,1 -0.634978,0z" transform="matrix(1,0,0,-1,8.5869274,3.53295)" fill="rgb(255,255,255)" stroke="rgb(0,0,0)" stroke-width="0.0010cm" stroke-linecap="round" stroke-linejoin="round" shaper:cutDepth="0.0127" /><path d="M1.6914274,2.1115069 a0.317489,0.317489 0 1,1 0.634978,0 a0.317489,0.317489 0 1,1 -0.634978,0z" transform="matrix(1,0,0,-1,8.5869274,3.53295)" fill="rgb(255,255,255)" stroke="rgb(0,0,0)" stroke-width="0.0010cm" stroke-linecap="round" stroke-linejoin="round" shaper:cutDepth="0.0127" /><path d="M-4.7738007,-2.5242534 a0.317489,0.317489 0 1,1 0.634978,0 a0.317489,0.317489 0 1,1 -0.634978,0z" transform="matrix(1,0,0,-1,8.5869274,3.53295)" fill="rgb(255,255,255)" stroke="rgb(0,0,0)" stroke-width="0.0010cm" stroke-linecap="round" stroke-linejoin="round" shaper:cutDepth="0.0127" /><path d="M-7.1454114,-0.8538936 a0.317489,0.317489 0 1,1 0.634978,0 a0.317489,0.317489 0 1,1 -0.634978,0z" transform="matrix(1,0,0,-1,8.5869274,3.53295)" fill="rgb(255,255,255)" stroke="rgb(0,0,0)" stroke-width="0.0010cm" stroke-linecap="round" stroke-linejoin="round" shaper:cutDepth="0.0127" /></svg>