<?xml version="1.0" encoding="utf-8"?>
<!-- Generator: Fusion 360, Shaper Origin Export Add-In, Version 1.6.10  -->
<svg xmlns="http://www.w3.org/2000/svg" xmlns:xlink="http://www.w3.org/1999/xlink" xmlns:shaper="http://www.shapertools.com/namespaces/shaper" shaper:fusionaddin="version:1.6.10" width="17.2445811cm" height="7.5069595cm" version="1.1" x="0cm" y="0cm" viewBox="0 0 17.2445811 7.5069595" enable-background="new 0 0 17.2445811 7.5069595" xml:space="preserve"><path d="M6.1802514,1.9586217 L6.1802514,1.9586217 6.2187933,1.9574545 6.2573733,1.9550437 6.2959129,1.9513547 6.3343341,1.9463529 6.3725583,1.9400035 6.4105074,1.9322721 6.448103,1.9231238 6.4852669,1.9125242 6.5219206,1.9004386 6.557986,1.8868322 6.5933456,1.8716888 6.6278396,1.8550235 6.6614055,1.8368176 6.6939846,1.8170504 6.7255185,1.7957014 6.7559487,1.7727502 6.7852165,1.7481761 6.8132635,1.7219586 6.8398783,1.694247 6.86483,1.6652935 6.8881321,1.6351324 6.9097997,1.6037961 6.9298479,1.5713171 6.9482916,1.537728 6.9651294,1.5030981 6.9802724,1.4677369 6.9937556,1.4317605 7.0056399,1.3952341 7.0159864,1.358223 7.024856,1.3207923 7.0323097,1.2830072 7.0384085,1.244933 7.2023974,0.0938406 7.2023974,0.0938406 7.2071993,0.0550363 7.210515,0.016197 7.2122818,-0.0226369 7.2124365,-0.0614255 7.210916,-0.1001285 7.2076575,-0.1387059 7.2025979,-0.1771175 7.1956741,-0.2153232 7.1868232,-0.2532828 7.1760568,-0.2907065 7.1634291,-0.3273309 7.1489487,-0.3631238 7.1326245,-0.3980527 7.1144651,-0.4320855 7.0944793,-0.4651896 7.0726759,-0.4973329 7.0491353,-0.5283869 7.0240449,-0.5581312 6.9974888,-0.5865255 6.9695479,-0.6135343 6.940303,-0.639122 6.909835,-0.6632532 6.8782247,-0.6858923 6.8455426,-0.7070101 6.8118521,-0.7265753 6.7772629,-0.7445218 6.7418879,-0.7607816 6.7058362,-0.7752881 6.6690283,-0.7880284 6.6315368,-0.7988932 6.5935716,-0.8077161 6.5553423,-0.8143308 6.5553423,-0.8143308 6.5316727,-0.8175145 6.5070254,-0.8204764 6.481494,-0.8232265 6.455172,-0.8257746 6.4281529,-0.8281307 6.4005304,-0.8303047 6.3438491,-0.8341465 6.2858764,-0.8373796 6.2273218,-0.8400847 6.1673384,-0.8423794 6.1056312,-0.8443214 6.0426605,-0.8459369 5.9788865,-0.8472517 5.85077,-0.8490834 5.787348,-0.8496523 5.7249639,-0.8500246 5.6640779,-0.8502261 5.6051504,-0.850283 1.6224991,-0.8404155 1.6224991,-0.8404155 1.5856901,-0.8413417 1.5506618,-0.8422213 1.5172679,-0.8430593 1.4853621,-0.843861 1.454798,-0.8446316 1.4254293,-0.8453761 1.3971096,-0.8460998 1.3696925,-0.8468077 1.3430317,-0.8475052 1.3169808,-0.8481973 1.2661235,-0.849586 1.1652883,-0.8525262 1.1395594,-0.8533215 1.1145309,-0.8541213 1.0904481,-0.8549211 1.0673684,-0.8557209 1.0453491,-0.8565209 1.0244476,-0.8573213 1.0047212,-0.8581222 0.9862273,-0.8589237 0.9690232,-0.859726 0.9531662,-0.8605292 0.9387138,-0.8613335 0.9257233,-0.862139 0.914252,-0.8629459 0.9043573,-0.8637542 0.8960965,-0.8645643 0.889527,-0.865376 0.889527,-0.865376 0.8676562,-0.8691372 0.8461214,-0.87413 0.8249535,-0.8803335 0.8041832,-0.8877265 0.7838412,-0.8962881 0.7639583,-0.9059971 0.7445737,-0.9168274 0.7258183,-0.928689 0.7077449,-0.9415203 0.6903759,-0.9552759 0.6737336,-0.9699105 0.6578404,-0.9853788 0.6427186,-1.0016355 0.628391,-1.0186344 0.6148977,-1.0363041 0.6022626,-1.0545883 0.5904993,-1.0734445 0.5796211,-1.09283 0.5696416,-1.1127022 0.560574,-1.1330183 0.5524319,-1.1537359 0.5452286,-1.1748123 0.5389813,-1.1961899 0.5337025,-1.2178163 0.529399,-1.2396558 0.5260775,-1.2616724 0.5237447,-1.2838302 0.5224086,-1.3060596 0.5220706,-1.3283053 0.5227295,-1.3505386 0.524384,-1.3727309 0.5270327,-1.3948535 0.6549003,-2.2923989 0.6549003,-2.2923989 0.6584739,-2.314041 0.6629953,-2.335398 0.6684729,-2.3564492 0.6749153,-2.3771738 0.6823308,-2.3975511 0.690728,-2.4175603 0.7001153,-2.4371806 0.7105012,-2.4563912 0.7218716,-2.4751349 0.7341223,-2.4932364 0.7472164,-2.5106658 0.7611275,-2.5274117 0.775829,-2.5434626 0.7912945,-2.5588073 0.8074975,-2.5734343 0.8244115,-2.5873324 0.8419744,-2.6004649 0.8600915,-2.6127828 0.8787245,-2.624285 0.8978366,-2.6349714 0.9173905,-2.6448415 0.9373494,-2.6538952 0.9576762,-2.6621322 0.9783338,-2.6695523 0.9992749,-2.6761527 1.0204571,-2.6819333 1.0418486,-2.6868974 1.0634177,-2.691048 1.0851326,-2.6943886 1.1069615,-2.6969222 1.1288728,-2.6986521 1.1508347,-2.6995814 6.8277968,-2.7267641 6.8277968,-2.7267641 6.8669233,-2.7284384 6.9061027,-2.7311301 6.9452598,-2.7348971 6.9843194,-2.7397973 7.0232063,-2.7458888 7.0618452,-2.7532296 7.1001609,-2.7618776 7.1380782,-2.7718908 7.1755219,-2.7833272 7.2124167,-2.7962448 7.2486856,-2.8107008 7.2841353,-2.8266992 7.3186321,-2.8442497 7.3521175,-2.8633893 7.3845332,-2.8841551 7.4158208,-2.906584 7.4459218,-2.9307129 7.4747778,-2.956579 7.5022749,-2.9841601 7.5280457,-3.0131053 7.5520539,-3.0433202 7.5743249,-3.0747689 7.5948837,-3.1074155 7.6137556,-3.141224 7.6309637,-3.1761541 7.64644,-3.2119362 7.6601909,-3.2483718 7.6722864,-3.2853842 7.6827962,-3.3228966 7.6917904,-3.3608322 7.6993387,-3.3991141 7.7055111,-3.4376655 7.8722862,-4.6083152 7.8722862,-4.6083152 7.8770458,-4.6467277 7.8803438,-4.6851903 7.8821095,-4.7236586 7.8822719,-4.7620876 7.8807603,-4.8004329 7.8775038,-4.8386498 7.8724315,-4.8766935 7.8654726,-4.9145194 7.8565572,-4.952079 7.8457068,-4.9890295 7.8329641,-5.0251492 7.8183331,-5.060408 7.8018182,-5.0947756 7.7834233,-5.1282219 7.7631527,-5.1607167 7.7410122,-5.1922273 7.7171684,-5.2225196 7.6917873,-5.2514385 7.664952,-5.2789619 7.6367454,-5.3050677 7.6072502,-5.3297337 7.5765496,-5.352938 7.5447255,-5.3746586 7.5118477,-5.3948787 7.4780223,-5.4135583 7.4433705,-5.430649 7.4080135,-5.4461024 7.3720452,-5.4598797 7.3353565,-5.4719974 7.2980738,-5.4823548 7.2603891,-5.4908244 7.2224946,-5.4972789 7.2224946,-5.4972789 7.2070124,-5.4994015 7.1907878,-5.501451 7.1737046,-5.5034254 7.1556465,-5.5053223 7.1364972,-5.5071395 7.1161405,-5.5088748 7.09446,-5.510526 7.0713394,-5.5120908 7.0466626,-5.5135671 7.0203131,-5.5149525 6.9921747,-5.5162448 6.9621312,-5.5174419 6.9300661,-5.5185414 6.8959341,-5.5195376 6.8602132,-5.5204069 6.8231752,-5.5211515 6.7850153,-5.5217787 6.7459289,-5.5222956 6.6657582,-5.523028 6.5028952,-5.5234903 6.4627937,-5.5234394 6.4233287,-5.5233365 6.3846955,-5.5231887 6.3470895,-5.5230034 6.3107061,-5.5227879 6.2757405,-5.5225494 6.2423883,-5.5222951 6.2108447,-5.5220324 -7.6602376,-5.5472658 -7.6602376,-5.5472658 -7.6987753,-5.5460928 -7.7373515,-5.5436752 -7.7758878,-5.5399787 -7.8143059,-5.5349689 -7.8525272,-5.5286115 -7.8904733,-5.520872 -7.9280659,-5.5117161 -7.9652265,-5.5011095 -8.0018766,-5.4890177 -8.0379379,-5.4754065 -8.0732935,-5.4602592 -8.1077844,-5.4435912 -8.1413477,-5.4253837 -8.1739251,-5.4056161 -8.2054578,-5.3842681 -8.2358873,-5.3613192 -8.2651549,-5.3367489 -8.2932022,-5.3105368 -8.3198198,-5.2828296 -8.3447753,-5.2538809 -8.3680816,-5.223725 -8.3897537,-5.1923944 -8.4098065,-5.1599213 -8.428255,-5.1263383 -8.4450976,-5.0917139 -8.4602453,-5.0563576 -8.4737325,-5.0203861 -8.4856203,-4.9838644 -8.4959694,-4.9468578 -8.5048409,-4.9094311 -8.5122956,-4.8716496 -8.5183946,-4.8335782 -8.6851697,-3.6629285 -8.6851697,-3.6629285 -8.6899715,-3.6241241 -8.6932873,-3.5852849 -8.695054,-3.546451 -8.6952087,-3.5076624 -8.6936883,-3.4689594 -8.6904298,-3.430382 -8.6853702,-3.3919704 -8.6784464,-3.3537647 -8.6695955,-3.3158051 -8.6588291,-3.2783814 -8.6462013,-3.241757 -8.631721,-3.2059641 -8.6153967,-3.1710351 -8.5972374,-3.1370024 -8.5772516,-3.1038983 -8.5554482,-3.071755 -8.5319075,-3.040701 -8.5068171,-3.0109567 -8.4802611,-2.9825624 -8.4523201,-2.9555536 -8.4230752,-2.9299659 -8.3926072,-2.9058347 -8.360997,-2.8831955 -8.3283149,-2.8620778 -8.2946243,-2.8425126 -8.2600352,-2.8245661 -8.2246602,-2.8083062 -8.1886084,-2.7937998 -8.1518005,-2.7810595 -8.1143091,-2.7701947 -8.0763438,-2.7613718 -8.0381145,-2.7547571 -8.0381145,-2.7547571 -8.0140864,-2.7515187 -7.9891801,-2.7485034 -7.9374118,-2.7431102 -7.8841669,-2.7385139 -7.8308026,-2.7346512 -7.7786762,-2.7314586 -7.7535015,-2.7300938 -7.7290619,-2.7288686 -7.679988,-2.72668 -7.6302179,-2.724796 -7.5292646,-2.7218758 -7.4275532,-2.7199751 -7.3264348,-2.7189612 -7.2765202,-2.7187453 -7.2272605,-2.7187012 -3.085712,-2.7258859 -3.085712,-2.7258859 -2.9717499,-2.7260042 -2.8572702,-2.7248045 -2.7432582,-2.7222565 -2.630699,-2.7183299 -2.5753034,-2.7158416 -2.5486617,-2.7145023 -2.52332,-2.7131346 -2.4993129,-2.7117483 -2.4766748,-2.7103536 -2.4554403,-2.7089604 -2.4356438,-2.7075787 -2.4173199,-2.7062185 -2.4005031,-2.7048898 -2.3852278,-2.7036026 -2.3715286,-2.7023669 -2.35944,-2.7011927 -2.3489964,-2.70009 -2.3402324,-2.6990688 -2.3331825,-2.6981391 -2.3331825,-2.6981391 -2.3113116,-2.694378 -2.2897769,-2.6893852 -2.268609,-2.6831817 -2.2478387,-2.6757887 -2.2274967,-2.6672271 -2.2076138,-2.6575181 -2.1882292,-2.6466878 -2.1694738,-2.6348262 -2.1514004,-2.6219949 -2.1340314,-2.6082393 -2.1173891,-2.5936047 -2.1014959,-2.5781364 -2.0863741,-2.5618797 -2.0720465,-2.5448808 -2.0585532,-2.5272111 -2.0459181,-2.5089268 -2.0341548,-2.4900707 -2.0232766,-2.4706852 -2.0132971,-2.450813 -2.0042295,-2.4304968 -1.9960874,-2.4097793 -1.9888841,-2.3887029 -1.9826368,-2.3673253 -1.977358,-2.3456988 -1.9730545,-2.3238594 -1.969733,-2.3018428 -1.9674002,-2.279685 -1.9660641,-2.2574556 -1.9657261,-2.2352099 -1.966385,-2.2129766 -1.9680395,-2.1907843 -1.9706882,-2.1686617 -2.0985558,-1.2711163 -2.0985558,-1.2711163 -2.1021301,-1.2494775 -2.1066542,-1.2281242 -2.1121361,-1.207077 -2.1185842,-1.1863568 -2.1260064,-1.1659841 -2.1344109,-1.1459796 -2.1438059,-1.1263642 -2.1541994,-1.1071585 -2.1655759,-1.0884215 -2.1778314,-1.0703269 -2.1909297,-1.0529032 -2.2048443,-1.0361619 -2.2195484,-1.0201143 -2.2350155,-1.0047721 -2.2512188,-0.9901465 -2.2681317,-0.9762491 -2.2856916,-0.9631167 -2.3038051,-0.9507975 -2.3224343,-0.9392925 -2.3415421,-0.9286023 -2.3610917,-0.9187273 -2.3810461,-0.909668 -2.4013682,-0.9014248 -2.422021,-0.8939983 -2.4429574,-0.8873915 -2.4641349,-0.8816045 -2.4855219,-0.8766345 -2.5070868,-0.8724784 -2.5287978,-0.8691332 -2.5506231,-0.866596 -2.5725312,-0.8648639 -2.5944902,-0.8639337 -8.3301242,-0.8451097 -8.3301242,-0.8451097 -8.3686619,-0.8439367 -8.4072382,-0.8415191 -8.4457745,-0.8378226 -8.4841926,-0.8328128 -8.5224139,-0.8264554 -8.56036,-0.818716 -8.5979526,-0.8095601 -8.6351132,-0.7989535 -8.6717634,-0.7868618 -8.7078247,-0.7732505 -8.7431804,-0.7581033 -8.7776712,-0.7414353 -8.8112346,-0.7232278 -8.8438119,-0.7034602 -8.8753446,-0.6821122 -8.9057741,-0.6591633 -8.9350418,-0.634593 -8.963089,-0.6083809 -8.9897067,-0.5806737 -9.0146621,-0.551725 -9.0379684,-0.5215691 -9.0596405,-0.4902384 -9.0796933,-0.4577653 -9.0981417,-0.4241823 -9.1149843,-0.3895579 -9.130132,-0.3542015 -9.1436192,-0.31823 -9.155507,-0.2817084 -9.1658561,-0.2447017 -9.1747276,-0.207275 -9.1821823,-0.1694935 -9.1882812,-0.1314221 -9.3522703,1.0196713 -9.3522703,1.0196713 -9.3570724,1.0584788 -9.3603883,1.097321 -9.3621549,1.1361579 -9.3623092,1.1749492 -9.3607882,1.213655 -9.3575289,1.2522352 -9.3524683,1.2906497 -9.3455434,1.3288585 -9.3366912,1.3668212 -9.3259234,1.404248 -9.3132944,1.4408754 -9.2988129,1.4766713 -9.2824878,1.5116035 -9.2643278,1.5456396 -9.2443419,1.5787477 -9.2225387,1.6108954 -9.1989987,1.6419546 -9.1739096,1.6717049 -9.1473553,1.7001063 -9.1194168,1.7271233 -9.0901749,1.7527206 -9.0597106,1.7768629 -9.0281047,1.7995148 -8.9954276,1.8206472 -8.9617424,1.8402294 -8.9271588,1.8581954 -8.8917894,1.8744776 -8.8557433,1.8890094 -8.8189412,1.9017784 -8.7814547,1.9126757 -8.7434934,1.9215353 -8.7052669,1.928191 -8.7052669,1.928191 -8.6776463,1.9318693 -8.6490141,1.9352125 -8.6196078,1.9382381 -8.5896651,1.9409637 -8.5291207,1.9455842 -8.4692815,1.9492138 -8.4402204,1.9507006 -8.4120485,1.9519921 -8.3578435,1.9541098 -8.3026878,1.9558327 -8.246468,1.9572041 -8.1320174,1.9589962 -8.0168542,1.9596922 -7.9597437,1.9596937 -7.9033411,1.9594986 -7.8479415,1.9591326 -7.7938403,1.9586217 6.1802514,1.9586217z" transform="matrix(1,0,0,-1,9.3623092,1.9596937)" fill="rgb(0,0,0)" shaper:cutDepth="0.0127" stroke-linecap="round" stroke-linejoin="round" /><path d="M-8.2010392,0.5023597 a0.317489,0.317489 0 1,1 0.634978,0 a0.317489,0.317489 0 1,1 -0.634978,0z" transform="matrix(1,0,0,-1,9.3623092,1.9596937)" fill="rgb(255,255,255)" stroke="rgb(0,0,0)" stroke-width="0.0010cm" stroke-linecap="round" stroke-linejoin="round" shaper:cutDepth="0.0127" /><path d="M-5.2883773,-4.1126095 a0.317489,0.317489 0 1,1 0.634978,0 a0.317489,0.317489 0 1,1 -0.634978,0z" transform="matrix(1,0,0,-1,9.3623092,1.9596937)" fill="rgb(255,255,255)" stroke="rgb(0,0,0)" stroke-width="0.0010cm" stroke-linecap="round" stroke-linejoin="round" shaper:cutDepth="0.0127" /><path d="M6.2248541,-4.1296705 a0.317489,0.317489 0 1,1 0.634978,0 a0.317489,0.317489 0 1,1 -0.634978,0z" transform="matrix(1,0,0,-1,9.3623092,1.9596937)" fill="rgb(255,255,255)" stroke="rgb(0,0,0)" stroke-width="0.0010cm" stroke-linecap="round" stroke-linejoin="round" shaper:cutDepth="0.0127" /><path d="M-1.3167177,0.4918229 a0.317489,0.317489 0 1,1 0.634978,0 a0.317489,0.317489 0 1,1 -0.634978,0z" transform="matrix(1,0,0,-1,9.3623092,1.9596937)" fill="rgb(255,255,255)" stroke="rgb(0,0,0)" stroke-width="0.0010cm" stroke-linecap="round" stroke-linejoin="round" shaper:cutDepth="0.0127" /><path d="M-3.0327161,-4.1158738 a0.317489,0.317489 0 1,1 0.634978,0 a0.317489,0.317489 0 1,1 -0.634978,0z" transform="matrix(1,0,0,-1,9.3623092,1.9596937)" fill="rgb(255,255,255)" stroke="rgb(0,0,0)" stroke-width="0.0010cm" stroke-linecap="round" stroke-linejoin="round" shaper:cutDepth="0.0127" /><path d="M1.7135315,-4.1231417 a0.317489,0.317489 0 1,1 0.634978,0 a0.317489,0.317489 0 1,1 -0.634978,0z" transform="matrix(1,0,0,-1,9.3623092,1.9596937)" fill="rgb(255,255,255)" stroke="rgb(0,0,0)" stroke-width="0.0010cm" stroke-linecap="round" stroke-linejoin="round" shaper:cutDepth="0.0127" /><path d="M3.4283358,0.4929367 a0.317489,0.317489 0 1,1 0.634978,0 a0.317489,0.317489 0 1,1 -0.634978,0z" transform="matrix(1,0,0,-1,9.3623092,1.9596937)" fill="rgb(255,255,255)" stroke="rgb(0,0,0)" stroke-width="0.0010cm" stroke-linecap="round" stroke-linejoin="round" shaper:cutDepth="0.0127" /><path d="M-1.0093877,-1.6654282 a0.317489,0.317489 0 1,1 0.634978,0 a0.317489,0.317489 0 1,1 -0.634978,0z" transform="matrix(1,0,0,-1,9.3623092,1.9596937)" fill="rgb(255,255,255)" stroke="rgb(0,0,0)" stroke-width="0.0010cm" stroke-linecap="round" stroke-linejoin="round" shaper:cutDepth="0.0127" /><path d="M-0.6597669,-4.1195327 a0.317489,0.317489 0 1,1 0.634978,0 a0.317489,0.317489 0 1,1 -0.634978,0z" transform="matrix(1,0,0,-1,9.3623092,1.9596937)" fill="rgb(255,255,255)" stroke="rgb(0,0,0)" stroke-width="0.0010cm" stroke-linecap="round" stroke-linejoin="round" shaper:cutDepth="0.0127" /><path d="M-3.6896669,0.4954817 a0.317489,0.317489 0 1,1 0.634978,0 a0.317489,0.317489 0 1,1 -0.634978,0z" transform="matrix(1,0,0,-1,9.3623092,1.9596937)" fill="rgb(255,255,255)" stroke="rgb(0,0,0)" stroke-width="0.0010cm" stroke-linecap="round" stroke-linejoin="round" shaper:cutDepth="0.0127" /><path d="M4.0852866,-4.1184188 a0.317489,0.317489 0 1,1 0.634978,0 a0.317489,0.317489 0 1,1 -0.634978,0z" transform="matrix(1,0,0,-1,9.3623092,1.9596937)" fill="rgb(255,255,255)" stroke="rgb(0,0,0)" stroke-width="0.0010cm" stroke-linecap="round" stroke-linejoin="round" shaper:cutDepth="0.0127" /><path d="M-5.9453282,0.4987461 a0.317489,0.317489 0 1,1 0.634978,0 a0.317489,0.317489 0 1,1 -0.634978,0z" transform="matrix(1,0,0,-1,9.3623092,1.9596937)" fill="rgb(255,255,255)" stroke="rgb(0,0,0)" stroke-width="0.0010cm" stroke-linecap="round" stroke-linejoin="round" shaper:cutDepth="0.0127" /><path d="M1.0565807,0.4882138 a0.317489,0.317489 0 1,1 0.634978,0 a0.317489,0.317489 0 1,1 -0.634978,0z" transform="matrix(1,0,0,-1,9.3623092,1.9596937)" fill="rgb(255,255,255)" stroke="rgb(0,0,0)" stroke-width="0.0010cm" stroke-linecap="round" stroke-linejoin="round" shaper:cutDepth="0.0127" /><path d="M5.5679032,0.481685 a0.317489,0.317489 0 1,1 0.634978,0 a0.317489,0.317489 0 1,1 -0.634978,0z" transform="matrix(1,0,0,-1,9.3623092,1.9596937)" fill="rgb(255,255,255)" stroke="rgb(0,0,0)" stroke-width="0.0010cm" stroke-linecap="round" stroke-linejoin="round" shaper:cutDepth="0.0127" /><path d="M-7.5440884,-4.1089959 a0.317489,0.317489 0 1,1 0.634978,0 a0.317489,0.317489 0 1,1 -0.634978,0z" transform="matrix(1,0,0,-1,9.3623092,1.9596937)" fill="rgb(255,255,255)" stroke="rgb(0,0,0)" stroke-width="0.0010cm" stroke-linecap="round" stroke-linejoin="round" shaper:cutDepth="0.0127" /></svg>