<?xml version="1.0" encoding="utf-8"?>
<!-- Generator: Fusion 360, Shaper Origin Export Add-In, Version 1.6.10  -->
<svg xmlns="http://www.w3.org/2000/svg" xmlns:xlink="http://www.w3.org/1999/xlink" xmlns:shaper="http://www.shapertools.com/namespaces/shaper" shaper:fusionaddin="version:1.6.10" width="16.9655513cm" height="7.516982cm" version="1.1" x="0cm" y="0cm" viewBox="0 0 16.9655513 7.516982" enable-background="new 0 0 16.9655513 7.516982" xml:space="preserve"><path d="M-6.7620025,-4.47636 L-6.7620025,-4.47636 -6.8026928,-4.448001 -6.8428407,-4.4191397 -6.8824466,-4.3897744 -6.9215106,-4.3599032 -6.9600333,-4.3295246 -6.9980149,-4.2986367 -7.0354558,-4.2672378 -7.0723563,-4.2353262 -7.1087167,-4.2029001 -7.1445374,-4.1699578 -7.1798187,-4.1364975 -7.214561,-4.1025176 -7.2487645,-4.0680162 -7.2824297,-4.0329916 -7.3155569,-3.9974421 -7.3481463,-3.961366 -7.3801984,-3.9247614 -7.4117135,-3.8876268 -7.4426918,-3.8499602 -7.4731339,-3.8117601 -7.5030399,-3.7730246 -7.5324102,-3.733752 -7.5612452,-3.6939406 -7.5895451,-3.6535886 -7.6173105,-3.6126943 -7.6445414,-3.571256 -7.6711821,-3.5293617 -7.69717,-3.487122 -7.7225124,-3.4445443 -7.7472166,-3.4016354 -7.7712897,-3.3584024 -7.7947389,-3.3148524 -7.8175717,-3.2709923 -7.8397951,-3.2268291 -7.8614165,-3.1823698 -7.882443,-3.1376216 -7.902882,-3.0925913 -7.9227407,-3.047286 -7.9420263,-3.0017126 -7.9607461,-2.9558783 -7.9789073,-2.90979 -7.9965171,-2.8634548 -8.0301118,-2.7700714 -8.0615709,-2.6758354 -8.0909388,-2.5808599 -8.1182755,-2.4852194 -8.1436409,-2.388988 -8.1670952,-2.2922402 -8.1886982,-2.1950504 -8.20851,-2.0974929 -8.2265906,-1.9996421 -8.243,-1.9015722 -8.2577982,-1.8033577 -8.2577982,-1.8033577 -8.2655098,-1.7468838 -8.2725247,-1.6905296 -8.2788474,-1.6343044 -8.2844825,-1.5782176 -8.2894345,-1.5222783 -8.2937079,-1.466496 -8.2973073,-1.4108798 -8.3002373,-1.355439 -8.3025023,-1.300183 -8.304107,-1.2451211 -8.3050558,-1.1902624 -8.3053534,-1.1356164 -8.3050042,-1.0811922 -8.3040129,-1.0269993 -8.3023838,-0.9730467 -8.3001217,-0.919344 -8.297231,-0.8659002 -8.2937164,-0.8127248 -8.2895822,-0.759827 -8.2848331,-0.707216 -8.2794736,-0.6549013 -8.2735083,-0.602892 -8.2669417,-0.5511974 -8.2597784,-0.4998269 -8.2520228,-0.4487897 -8.2436796,-0.3980952 -8.2347533,-0.3477525 -8.2252484,-0.2977709 -8.2151695,-0.2481599 -8.2045211,-0.1989286 -8.1933077,-0.1500863 -8.181534,-0.1016424 -8.1692022,-0.0535975 -8.1562592,-0.0057541 -8.1426771,0.0419587 -8.1284511,0.0895206 -8.1135761,0.136911 -8.0980473,0.1841095 -8.0818596,0.2310958 -8.0650082,0.2778493 -8.0474881,0.3243496 -8.0292944,0.3705764 -8.010422,0.4165091 -7.9908661,0.4621274 -7.9706217,0.5074108 -7.9496838,0.5523388 -7.9280475,0.5968911 -7.9057079,0.6410472 -7.88266,0.6847867 -7.8588815,0.7281181 -7.8343344,0.7710694 -7.8090139,0.8136066 -7.7829159,0.8556946 -7.7560366,0.8972979 -7.7283719,0.9383813 -7.6999181,0.9789095 -7.670671,1.018847 -7.6406268,1.0581586 -7.6097814,1.0968089 -7.5781311,1.1347627 -7.5456717,1.1719846 -7.5123994,1.2084393 -7.4783103,1.2440915 -7.4434003,1.2789058 -7.4434003,1.2789058 -7.3947584,1.32664 -7.3454631,1.3732388 -7.2954878,1.4186966 -7.2448058,1.4630078 -7.1933908,1.5061668 -7.1412162,1.5481678 -7.0882554,1.5890053 -7.0344819,1.6286736 -6.9798693,1.667167 -6.924391,1.70448 -6.8680204,1.7406068 -6.8107311,1.7755418 -6.7524965,1.8092794 -6.6932902,1.841814 -6.6330855,1.8731399 -6.5718559,1.9032514 -6.5096564,1.9321088 -6.4467705,1.9595934 -6.3832083,1.9857208 -6.3189505,2.0105201 -6.253978,2.03402 -6.1882718,2.0562495 -6.1218126,2.0772375 -6.0545813,2.0970128 -5.9865588,2.1156045 -5.9177259,2.1330412 -5.8480635,2.1493521 -5.7775524,2.1645659 -5.7061735,2.1787115 -5.6339076,2.1918179 -5.5607356,2.2039139 -5.4866384,2.2150284 -5.4866384,2.2150284 -5.3752258,2.2305833 -5.2645827,2.2453235 -5.154465,2.2592258 -5.0446286,2.2722667 -4.9348293,2.2844229 -4.824823,2.2956711 -4.7143654,2.3059878 -4.6033168,2.315339 -4.4921926,2.3236266 -4.3810887,2.3308019 -4.2699894,2.3368283 -4.1588791,2.341669 -4.0477421,2.3452873 -3.9365629,2.3476464 -3.8253258,2.3487097 -3.7140153,2.3484403 6.9572996,2.3372605 6.9572996,2.3372605 6.9958374,2.3360925 7.034414,2.3336801 7.0729508,2.3299887 7.1113696,2.3249841 7.1495917,2.3186318 7.187539,2.3108975 7.2251328,2.3017467 7.2622948,2.2911452 7.2989467,2.2790584 7.3350099,2.2654521 7.3703676,2.2503097 7.4048607,2.2336464 7.4384266,2.2154435 7.4710067,2.1956804 7.5025423,2.1743367 7.5329749,2.151392 7.562246,2.1268258 7.5902968,2.1006176 7.6169183,2.072914 7.6418778,2.0439687 7.6651883,2.013816 7.6868647,1.9824884 7.7069219,1.9500181 7.725375,1.9164375 7.7422224,1.8818155 7.7573749,1.8464612 7.7708671,1.8104915 7.7827598,1.7739715 7.793114,1.7369663 7.8019907,1.6995408 7.8094506,1.6617603 7.8155548,1.6236898 7.9824909,0.4530619 7.9824909,0.4530619 7.9872557,0.4146501 7.990559,0.376188 7.9923299,0.33772 7.9924976,0.299291 7.9909913,0.2609456 7.9877399,0.2227283 7.9826728,0.184684 7.9757191,0.1468571 7.9668088,0.1092963 7.9559634,0.0723444 7.9432256,0.036223 7.9285995,0.0009623 7.9120892,-0.0334075 7.8936989,-0.0668563 7.8734327,-0.0993538 7.8512966,-0.1308674 7.8274569,-0.1611629 7.8020798,-0.1900853 7.7752483,-0.2176123 7.7470452,-0.2437219 7.7175535,-0.268392 7.686856,-0.2916004 7.655035,-0.3133254 7.62216,-0.33355 7.5883372,-0.3522343 7.5536878,-0.3693298 7.518333,-0.384788 7.4823666,-0.3985703 7.4456796,-0.410693 7.4083983,-0.4210555 7.3707148,-0.4295303 7.3328213,-0.43599 7.3328213,-0.43599 7.3064535,-0.4392886 7.2792101,-0.4418507 7.2512574,-0.4437453 7.2227621,-0.4450413 7.1648089,-0.446113 7.1066819,-0.4456175 7.0494169,-0.4440915 7.0214393,-0.4431037 6.9941365,-0.442053 6.9676874,-0.4410045 6.9422706,-0.4400237 6.9180648,-0.4391757 6.8952487,-0.4385257 -4.205272,-0.4885523 -4.205272,-0.4885523 -4.2877118,-0.4887207 -4.3699274,-0.4910254 -4.452157,-0.4953872 -4.5346386,-0.5017274 -4.5758494,-0.5055948 -4.6156299,-0.5097473 -4.6536712,-0.5140828 -4.6899142,-0.518521 -4.7242997,-0.5229816 -4.7567687,-0.5273844 -4.787262,-0.531649 -4.8157206,-0.5356954 -4.8157206,-0.5356954 -4.8624402,-0.5433271 -4.9080281,-0.552715 -4.9524535,-0.5638227 -4.9956858,-0.5766141 -5.0376944,-0.5910529 -5.0784485,-0.6071029 -5.1179176,-0.624728 -5.1560709,-0.6438919 -5.1928777,-0.6645584 -5.2284137,-0.6867665 -5.2627341,-0.7105765 -5.2957671,-0.7359768 -5.3274406,-0.762956 -5.3576825,-0.7915027 -5.3864208,-0.8216053 -5.4135835,-0.8532524 -5.4390927,-0.8864246 -5.4627098,-0.9208576 -5.4843256,-0.9563896 -5.5039205,-0.9929691 -5.5214752,-1.0305448 -5.5369703,-1.0690651 -5.5503865,-1.1084788 -5.5617042,-1.1487343 -5.5708647,-1.1895671 -5.5778475,-1.2306765 -5.5827033,-1.2720097 -5.585483,-1.3135143 -5.5862373,-1.3551377 -5.585017,-1.3968277 -5.581873,-1.4385318 -5.5768561,-1.4801976 -5.5768561,-1.4801976 -5.5680867,-1.5338439 -5.5628603,-1.5604756 -5.5570497,-1.5869561 -5.5506377,-1.6132678 -5.543607,-1.639393 -5.5359403,-1.665314 -5.5276205,-1.6910133 -5.5186303,-1.7164732 -5.5089524,-1.741676 -5.4985695,-1.7666041 -5.4874645,-1.7912397 -5.47562,-1.8155654 -5.4630188,-1.8395634 -5.4496437,-1.8632161 -5.4355409,-1.8864054 -5.4207783,-1.9090098 -5.4053566,-1.9310301 -5.3892765,-1.9524673 -5.3725387,-1.9733222 -5.355144,-1.9935958 -5.337093,-2.0132891 -5.3183864,-2.032403 -5.2990249,-2.0509385 -5.2790093,-2.0688966 -5.2583403,-2.0862781 -5.237019,-2.1030836 -5.2151586,-2.1192336 -5.1928596,-2.1346775 -5.170142,-2.1494303 -5.1470263,-2.1635067 -5.1235324,-2.1769218 -5.0996807,-2.1896904 -5.0754913,-2.2018275 -5.0509845,-2.2133478 -5.0261803,-2.2242665 -5.0010991,-2.2345982 -4.9757611,-2.2443581 -4.9243897,-2.2622233 -4.8719228,-2.2780681 -4.8182989,-2.2920278 -4.7636122,-2.3041778 -4.7079575,-2.3145937 -4.6514291,-2.3233509 -4.5941216,-2.3305249 -4.5361295,-2.3361912 -4.4775473,-2.3404253 -4.4184696,-2.3433026 -4.3589907,-2.3448988 -4.2992054,-2.3452892 -4.2392079,-2.3445493 7.6249462,-2.3445493 7.6249462,-2.3445493 7.6634841,-2.3457172 7.7020606,-2.3481297 7.7405975,-2.351821 7.7790162,-2.3568257 7.8172384,-2.363178 7.8551856,-2.3709123 7.8927794,-2.3800631 7.9299415,-2.3906646 7.9665933,-2.4027514 8.0026565,-2.4163577 8.0380142,-2.4315001 8.0725074,-2.4481634 8.1060732,-2.4663663 8.1386533,-2.4861294 8.170189,-2.5074731 8.2006216,-2.5304178 8.2298926,-2.554984 8.2579435,-2.5811922 8.284565,-2.6088958 8.3095245,-2.6378411 8.3328349,-2.6679937 8.3545113,-2.6993214 8.3745686,-2.7317917 8.3930216,-2.7653722 8.409869,-2.7999943 8.4250216,-2.8353486 8.4385137,-2.8713183 8.4504065,-2.9078383 8.4607607,-2.9448435 8.4696373,-2.9822689 8.4770972,-3.0200495 8.4832014,-3.05812 8.6501375,-4.2287478 8.6501375,-4.2287478 8.6549447,-4.2675516 8.6582658,-4.3063904 8.6600379,-4.3452242 8.6601979,-4.3840127 8.6586829,-4.422716 8.6554297,-4.4612939 8.6503753,-4.4997062 8.6434569,-4.5379129 8.6346112,-4.5758737 8.62385,-4.6132989 8.6112273,-4.6499252 8.5967518,-4.6857201 8.5804324,-4.7206513 8.5622778,-4.7546866 8.5422966,-4.7877935 8.5204976,-4.8199398 8.4969612,-4.8509971 8.4718749,-4.8807448 8.4453228,-4.9091428 8.4173856,-4.9361555 8.3881442,-4.9617473 8.3576795,-4.9858828 8.3260723,-5.0085263 8.2933931,-5.0296486 8.2597052,-5.0492184 8.2251186,-5.0671697 8.1897457,-5.0834344 8.153696,-5.0979459 8.1168898,-5.1106912 8.0793998,-5.1215612 8.0414357,-5.1303893 8.0032073,-5.1370093 8.0032073,-5.1370093 7.9665842,-5.1417767 7.9285414,-5.1458737 7.8890912,-5.1493549 7.8482457,-5.152275 7.8060173,-5.1546884 7.7624182,-5.1566497 7.7174131,-5.1582122 7.6708027,-5.1594123 7.6229365,-5.1602822 7.5742612,-5.1608552 7.476271,-5.1612445 7.4278498,-5.1611274 7.3804071,-5.160847 7.3343897,-5.1604367 7.2902446,-5.1599299 -3.5179687,-5.1682723 -3.5179687,-5.1682723 -3.6462061,-5.1670615 -3.7729884,-5.164897 -3.8982957,-5.1617377 -4.0221082,-5.1575426 -4.1444062,-5.1522706 -4.2651699,-5.1458806 -4.3843795,-5.1383315 -4.5020152,-5.1295822 -4.6180573,-5.1195916 -4.7324859,-5.1083187 -4.8452812,-5.0957223 -4.9564235,-5.0817614 -5.0658931,-5.0663949 -5.17367,-5.0495818 -5.2797346,-5.0312808 -5.384067,-5.011451 -5.4355711,-5.0009511 -5.4865315,-4.9900735 -5.5369171,-4.9788213 -5.586731,-4.9671916 -5.6359763,-4.9551814 -5.684656,-4.9427878 -5.7327734,-4.9300078 -5.7803315,-4.9168386 -5.8273333,-4.9032772 -5.8737821,-4.8893207 -5.9196809,-4.874966 -5.9650328,-4.8602103 -6.0098409,-4.8450507 -6.0541083,-4.8294842 -6.0978382,-4.8135078 -6.1410336,-4.7971187 -6.1836976,-4.7803139 -6.2258333,-4.7630904 -6.2674438,-4.7454453 -6.3085323,-4.7273758 -6.3491019,-4.7088788 -6.3891555,-4.6899514 -6.4286964,-4.6705906 -6.4677277,-4.6507936 -6.5062524,-4.6305575 -6.5442737,-4.6098791 -6.5817946,-4.5887558 -6.6188182,-4.5671844 -6.6553478,-4.545162 -6.6913863,-4.5226858 -6.7269368,-4.4997528 -6.7620025,-4.47636z" transform="matrix(1,0,0,-1,8.3053534,2.3487097)" fill="rgb(0,0,0)" shaper:cutDepth="0.0127" stroke-linecap="round" stroke-linejoin="round" /><path d="M-7.3908555,-0.286443 a0.317489,0.317489 0 1,1 0.634978,0 a0.317489,0.317489 0 1,1 -0.634978,0z" transform="matrix(1,0,0,-1,8.3053534,2.3487097)" fill="rgb(255,255,255)" stroke="rgb(0,0,0)" stroke-width="0.0010cm" stroke-linecap="round" stroke-linejoin="round" shaper:cutDepth="0.0127" /><path d="M6.2037829,0.9170881 a0.317489,0.317489 0 1,1 0.634978,0 a0.317489,0.317489 0 1,1 -0.634978,0z" transform="matrix(1,0,0,-1,8.3053534,2.3487097)" fill="rgb(255,255,255)" stroke="rgb(0,0,0)" stroke-width="0.0010cm" stroke-linecap="round" stroke-linejoin="round" shaper:cutDepth="0.0127" /><path d="M6.875312,-3.7919622 a0.317489,0.317489 0 1,1 0.634978,0 a0.317489,0.317489 0 1,1 -0.634978,0z" transform="matrix(1,0,0,-1,8.3053534,2.3487097)" fill="rgb(255,255,255)" stroke="rgb(0,0,0)" stroke-width="0.0010cm" stroke-linecap="round" stroke-linejoin="round" shaper:cutDepth="0.0127" /><path d="M3.9480714,0.9203917 a0.317489,0.317489 0 1,1 0.634978,0 a0.317489,0.317489 0 1,1 -0.634978,0z" transform="matrix(1,0,0,-1,8.3053534,2.3487097)" fill="rgb(255,255,255)" stroke="rgb(0,0,0)" stroke-width="0.0010cm" stroke-linecap="round" stroke-linejoin="round" shaper:cutDepth="0.0127" /><path d="M4.6196503,-3.7890078 a0.317489,0.317489 0 1,1 0.634978,0 a0.317489,0.317489 0 1,1 -0.634978,0z" transform="matrix(1,0,0,-1,8.3053534,2.3487097)" fill="rgb(255,255,255)" stroke="rgb(0,0,0)" stroke-width="0.0010cm" stroke-linecap="round" stroke-linejoin="round" shaper:cutDepth="0.0127" /><path d="M1.6924097,0.9233461 a0.317489,0.317489 0 1,1 0.634978,0 a0.317489,0.317489 0 1,1 -0.634978,0z" transform="matrix(1,0,0,-1,8.3053534,2.3487097)" fill="rgb(255,255,255)" stroke="rgb(0,0,0)" stroke-width="0.0010cm" stroke-linecap="round" stroke-linejoin="round" shaper:cutDepth="0.0127" /><path d="M-5.4255933,0.9249129 a0.317489,0.317489 0 1,1 0.634978,0 a0.317489,0.317489 0 1,1 -0.634978,0z" transform="matrix(1,0,0,-1,8.3053534,2.3487097)" fill="rgb(255,255,255)" stroke="rgb(0,0,0)" stroke-width="0.0010cm" stroke-linecap="round" stroke-linejoin="round" shaper:cutDepth="0.0127" /><path d="M2.3639388,-3.7857042 a0.317489,0.317489 0 1,1 0.634978,0 a0.317489,0.317489 0 1,1 -0.634978,0z" transform="matrix(1,0,0,-1,8.3053534,2.3487097)" fill="rgb(255,255,255)" stroke="rgb(0,0,0)" stroke-width="0.0010cm" stroke-linecap="round" stroke-linejoin="round" shaper:cutDepth="0.0127" /><path d="M-0.0089611,-3.7827207 a0.317489,0.317489 0 1,1 0.634978,0 a0.317489,0.317489 0 1,1 -0.634978,0z" transform="matrix(1,0,0,-1,8.3053534,2.3487097)" fill="rgb(255,255,255)" stroke="rgb(0,0,0)" stroke-width="0.0010cm" stroke-linecap="round" stroke-linejoin="round" shaper:cutDepth="0.0127" /><path d="M-0.68054,0.9266788 a0.317489,0.317489 0 1,1 0.634978,0 a0.317489,0.317489 0 1,1 -0.634978,0z" transform="matrix(1,0,0,-1,8.3053534,2.3487097)" fill="rgb(255,255,255)" stroke="rgb(0,0,0)" stroke-width="0.0010cm" stroke-linecap="round" stroke-linejoin="round" shaper:cutDepth="0.0127" /><path d="M-3.0538389,0.9299618 a0.317489,0.317489 0 1,1 0.634978,0 a0.317489,0.317489 0 1,1 -0.634978,0z" transform="matrix(1,0,0,-1,8.3053534,2.3487097)" fill="rgb(255,255,255)" stroke="rgb(0,0,0)" stroke-width="0.0010cm" stroke-linecap="round" stroke-linejoin="round" shaper:cutDepth="0.0127" /><path d="M-4.7540144,-3.7844866 a0.317489,0.317489 0 1,1 0.634978,0 a0.317489,0.317489 0 1,1 -0.634978,0z" transform="matrix(1,0,0,-1,8.3053534,2.3487097)" fill="rgb(255,255,255)" stroke="rgb(0,0,0)" stroke-width="0.0010cm" stroke-linecap="round" stroke-linejoin="round" shaper:cutDepth="0.0127" /><path d="M-2.38226,-3.7794378 a0.317489,0.317489 0 1,1 0.634978,0 a0.317489,0.317489 0 1,1 -0.634978,0z" transform="matrix(1,0,0,-1,8.3053534,2.3487097)" fill="rgb(255,255,255)" stroke="rgb(0,0,0)" stroke-width="0.0010cm" stroke-linecap="round" stroke-linejoin="round" shaper:cutDepth="0.0127" /><path d="M-7.0474215,-2.6947499 a0.317489,0.317489 0 1,1 0.634978,0 a0.317489,0.317489 0 1,1 -0.634978,0z" transform="matrix(1,0,0,-1,8.3053534,2.3487097)" fill="rgb(255,255,255)" stroke="rgb(0,0,0)" stroke-width="0.0010cm" stroke-linecap="round" stroke-linejoin="round" shaper:cutDepth="0.0127" /></svg>