<?xml version="1.0" encoding="utf-8"?>
<!-- Generator: Fusion 360, Shaper Origin Export Add-In, Version 1.7.0  -->
<svg xmlns="http://www.w3.org/2000/svg" xmlns:xlink="http://www.w3.org/1999/xlink" xmlns:shaper="http://www.shapertools.com/namespaces/shaper" shaper:fusionaddin="version:1.7.0" width="15.1667253cm" height="13.5551282cm" version="1.1" x="0cm" y="0cm" viewBox="0 0 15.1667253 13.5551282" enable-background="new 0 0 15.1667253 13.5551282" xml:space="preserve"><path d="M-3.6422205,2.5907897 A2.2941869,2.2941869 90 1,0 -4.0134113,-1.9673564 L-7.4981384,-1.3960127 -7.8309187,-5.4824852 0.6797588,-6.8778661 1.729458,-5.3593943 4.3243216,-2.7331454 7.3358066,-0.5973885 4.7095578,1.9974751 2.5738008,5.0089601 1.7836153,6.6772622 -6.8406945,6.6772622 -7.1734748,2.5907897 -3.6422205,2.5907897z" transform="matrix(1,0,0,-1,7.8309187,6.6772622)" fill="rgb(0,0,0)" shaper:cutDepth="0.6cm" stroke-linecap="round" stroke-linejoin="round" /><path d="M0.6344988,-0.1331048 a1,1 0 1,1 2,0 a1,1 0 1,1 -2,0z" transform="matrix(1,0,0,-1,7.8309187,6.6772622)" fill="rgb(255,255,255)" stroke="rgb(0,0,0)" stroke-width="0.0010cm" stroke-linecap="round" stroke-linejoin="round" shaper:cutDepth="0.6cm" /></svg>