<?xml version="1.0" encoding="utf-8"?>
<!-- Generator: Fusion 360, Shaper Origin Export Add-In, Version 1.7.0  -->
<svg xmlns="http://www.w3.org/2000/svg" xmlns:xlink="http://www.w3.org/1999/xlink" xmlns:shaper="http://www.shapertools.com/namespaces/shaper" shaper:fusionaddin="version:1.7.0" width="15cm" height="8.9573585cm" version="1.1" x="0cm" y="0cm" viewBox="0 0 15 8.9573585" enable-background="new 0 0 15 8.9573585" xml:space="preserve"><path d="M7.5,4.3610157 L-7.5,4.3610157 -7.5,-4.5963429 7.5,-4.5963429 7.5,4.3610157z" transform="matrix(1,0,0,-1,7.5,4.3610157)" fill="rgb(0,0,0)" shaper:cutDepth="0.6cm" stroke-linecap="round" stroke-linejoin="round" /><path d="M4.5455822,0.8825 A0.3175,0.3175 0 0,1 4.2280822,1.2 L2.4630822,1.2 A0.3175,0.3175 90 0,1 2.1455822,0.8825 L2.1455822,-0.8825 A0.3175,0.3175 180 0,1 2.4630822,-1.2 L4.2280822,-1.2 A0.3175,0.3175 270 0,1 4.5455822,-0.8825 L4.5455822,0.8825z" transform="matrix(1,0,0,-1,7.5,4.3610157)" fill="rgb(255,255,255)" stroke="rgb(0,0,0)" stroke-width="0.0010cm" stroke-linecap="round" stroke-linejoin="round" shaper:cutDepth="0.6cm" /><path d="M-2.4630822,-1.2 A0.3175,0.3175 270 0,1 -2.1455822,-0.8825 L-2.1455822,0.8825 A0.3175,0.3175 0 0,1 -2.4630822,1.2 L-4.2280822,1.2 A0.3175,0.3175 90 0,1 -4.5455822,0.8825 L-4.5455822,-0.8825 A0.3175,0.3175 180 0,1 -4.2280822,-1.2 L-2.4630822,-1.2z" transform="matrix(1,0,0,-1,7.5,4.3610157)" fill="rgb(255,255,255)" stroke="rgb(0,0,0)" stroke-width="0.0010cm" stroke-linecap="round" stroke-linejoin="round" shaper:cutDepth="0.6cm" /></svg>