<?xml version="1.0" encoding="utf-8"?>
<!-- Generator: Fusion 360, Shaper Origin Export Add-In, Version 1.6.10  -->
<svg xmlns="http://www.w3.org/2000/svg" xmlns:xlink="http://www.w3.org/1999/xlink" xmlns:shaper="http://www.shapertools.com/namespaces/shaper" shaper:fusionaddin="version:1.6.10" width="20.8cm" height="7.5cm" version="1.1" x="0cm" y="0cm" viewBox="0 0 20.8 7.5" enable-background="new 0 0 20.8 7.5" xml:space="preserve"><path d="M10.4008065,-1.325 L10.4008065,5.375 A0.4,0.4 0 0,1 10.0008065,5.775 L-9.9991935,5.775 A0.4,0.4 90 0,1 -10.3991935,5.375 L-10.3991935,-1.325 A0.4,0.4 180 0,1 -9.9991935,-1.725 L10.0008065,-1.725 A0.4,0.4 270 0,1 10.4008065,-1.325z" transform="matrix(1,0,0,-1,10.3991935,5.775)" fill="rgb(0,0,0)" shaper:cutDepth="0.006" stroke-linecap="round" stroke-linejoin="round" /><path d="M-6.7,2.325 L6.7,2.325 6.7,5.775 7.3,5.775 7.3,2.325 10.4008065,2.325 10.4008065,1.725 7.3,1.725 7.3,-1.725 6.7,-1.725 6.7,1.725 -6.7,1.725 -6.7,-1.725 -7.3,-1.725 -7.3,1.725 -10.3991935,1.725 -10.3991935,2.325 -7.3,2.325 -7.3,5.775 -6.7,5.775 -6.7,2.325z" transform="matrix(1,0,0,-1,10.3991935,5.775)" fill="rgb(133,133,133)" fill-rule="nonzero" shaper:cutDepth="0.002" stroke-linecap="round" stroke-linejoin="round" /></svg>