<?xml version="1.0" encoding="utf-8"?>
<!-- Generator: Fusion 360, Shaper Origin Export Add-In, Version 1.6.10  -->
<svg xmlns="http://www.w3.org/2000/svg" xmlns:xlink="http://www.w3.org/1999/xlink" xmlns:shaper="http://www.shapertools.com/namespaces/shaper" shaper:fusionaddin="version:1.6.10" width="17.2cm" height="2.6cm" version="1.1" x="0cm" y="0cm" viewBox="0 0 17.2 2.6" enable-background="new 0 0 17.2 2.6" xml:space="preserve"><path d="M6.7,-1.3 L6.7,-0.65 7.3,-0.65 7.3,-1.3 8.2,-1.3 A0.4,0.4 270 0,1 8.6,-0.9 L8.6,0.9 A0.4,0.4 0 0,1 8.2,1.3 L7.3,1.3 7.3,0.65 6.7,0.65 6.7,1.3 -6.7,1.3 -6.7,0.65 -7.3,0.65 -7.3,1.3 -8.2,1.3 A0.4,0.4 90 0,1 -8.6,0.9 L-8.6,-0.9 A0.4,0.4 180 0,1 -8.2,-1.3 L-7.3,-1.3 -7.3,-0.65 -6.7,-0.65 -6.7,-1.3 6.7,-1.3z" transform="matrix(1,0,0,-1,8.6,1.3)" fill="rgb(0,0,0)" shaper:cutDepth="0.006" stroke-linecap="round" stroke-linejoin="round" /><path d="M-5.625,0 a0.225,0.225 0 1,1 0.45,0 a0.225,0.225 0 1,1 -0.45,0z" transform="matrix(1,0,0,-1,8.6,1.3)" fill="rgb(255,255,255)" stroke="rgb(0,0,0)" stroke-width="0.0010cm" stroke-linecap="round" stroke-linejoin="round" shaper:cutDepth="0.006" /><path d="M5.175,0 a0.225,0.225 0 1,1 0.45,0 a0.225,0.225 0 1,1 -0.45,0z" transform="matrix(1,0,0,-1,8.6,1.3)" fill="rgb(255,255,255)" stroke="rgb(0,0,0)" stroke-width="0.0010cm" stroke-linecap="round" stroke-linejoin="round" shaper:cutDepth="0.006" /></svg>