<?xml version="1.0" encoding="utf-8"?>
<!-- Generator: Fusion 360, Shaper Origin Export Add-In, Version 1.6.10  -->
<svg xmlns="http://www.w3.org/2000/svg" xmlns:xlink="http://www.w3.org/1999/xlink" xmlns:shaper="http://www.shapertools.com/namespaces/shaper" shaper:fusionaddin="version:1.6.10" width="3.9922854cm" height="1.7932726cm" version="1.1" x="0cm" y="0cm" viewBox="0 0 3.9922854 1.7932726" enable-background="new 0 0 3.9922854 1.7932726" xml:space="preserve"><path d="M1.274489,-1.2104519 L1.274489,-1.2104519 1.2578014,-1.2126788 1.239066,-1.214907 1.2183548,-1.2171121 1.1957396,-1.2192696 1.1712923,-1.2213548 1.1450848,-1.2233434 1.1171891,-1.2252107 1.0879518,-1.2269175 1.0286342,-1.229658 0.9687593,-1.2315114 0.9087465,-1.2325057 0.8490153,-1.2326693 -0.8518345,-1.2308928 -0.8518345,-1.2308928 -0.9095637,-1.2301446 -0.965992,-1.22863 -1.0210889,-1.226276 -1.0748238,-1.2230096 -1.1271662,-1.2187579 -1.1780856,-1.2134479 -1.2275514,-1.2070067 -1.2755329,-1.1993612 -1.3220844,-1.19042 -1.3681865,-1.1798346 -1.4139022,-1.1673441 -1.4589431,-1.1527512 -1.4811203,-1.1446047 -1.5030182,-1.1358608 -1.5246081,-1.1264953 -1.54587,-1.1164803 -1.566784,-1.1057878 -1.5873301,-1.0943897 -1.6074883,-1.082258 -1.6272387,-1.0693649 -1.6272387,-1.0693649 -1.6465911,-1.0556671 -1.6654231,-1.0414849 -1.6837354,-1.0268148 -1.7015286,-1.0116538 -1.7188036,-0.9959986 -1.7355609,-0.9798461 -1.7518012,-0.9631929 -1.7675252,-0.946036 -1.7827335,-0.9283721 -1.797427,-0.910198 -1.8116061,-0.8915105 -1.8252717,-0.8723064 -1.8384244,-0.8525825 -1.8510062,-0.8324324 -1.8629697,-0.8119582 -1.8743286,-0.7911737 -1.885097,-0.7700922 -1.8952886,-0.7487274 -1.9049175,-0.7270927 -1.9139974,-0.7052018 -1.930566,-0.6607053 -1.9450902,-0.6153962 -1.9576696,-0.5694515 -1.9684193,-0.5230137 -1.977454,-0.4762256 -1.9848887,-0.4292298 -1.9848887,-0.4292298 -1.9883866,-0.4022795 -1.9912251,-0.3754568 -1.9934125,-0.3487784 -1.9949573,-0.3222606 -1.9958678,-0.2959202 -1.9961523,-0.2697735 -1.9958193,-0.2438371 -1.9948771,-0.2181276 -1.9933341,-0.1926615 -1.9911987,-0.1674552 -1.9884792,-0.1425254 -1.985184,-0.1178886 -1.9813215,-0.0935613 -1.9769001,-0.06956 -1.9719281,-0.0459012 -1.9664139,-0.0226016 -1.9603508,0.0003747 -1.9536806,0.0232049 -1.9463886,0.0458708 -1.9384654,0.0683332 -1.9299016,0.0905529 -1.9206877,0.1124908 -1.9108145,0.1341076 -1.9002725,0.1553642 -1.8890483,0.1762285 -1.8770955,0.1967145 -1.8643978,0.2167708 -1.8509476,0.2363294 -1.8367374,0.2553222 -1.82176,0.273681 -1.8060077,0.2913378 -1.7894732,0.3082245 -1.7894732,0.3082245 -1.7650091,0.3317055 -1.7399824,0.3538296 -1.7142862,0.3746259 -1.687814,0.3941235 -1.660459,0.4123515 -1.6321145,0.429339 -1.6026738,0.4451152 -1.5720302,0.4597091 -1.5401298,0.4731343 -1.5069369,0.4854165 -1.472342,0.4966141 -1.436235,0.5067859 -1.3985062,0.5159903 -1.3590455,0.524286 -1.3177431,0.5317316 -1.274489,0.5383857 -1.274489,0.5383857 -1.2578014,0.5406126 -1.239066,0.5428409 -1.2183548,0.545046 -1.1957396,0.5472034 -1.1712923,0.5492887 -1.1450848,0.5512773 -1.1171891,0.5531446 -1.0879518,0.5548514 -1.0286342,0.5575919 -0.9687593,0.5594452 -0.9087465,0.5604396 -0.8490153,0.5606032 0.8518345,0.5588267 0.8518345,0.5588267 0.9095637,0.5580785 0.965992,0.5565639 1.0210889,0.5542099 1.0748238,0.5509435 1.1271662,0.5466918 1.1780856,0.5413818 1.2275514,0.5349406 1.2755329,0.5272951 1.3220844,0.5183539 1.3681865,0.5077685 1.4139022,0.4952779 1.4589431,0.480685 1.4811203,0.4725386 1.5030182,0.4637947 1.5246081,0.4544292 1.54587,0.4444142 1.566784,0.4337216 1.5873301,0.4223235 1.6074883,0.4101919 1.6272387,0.3972987 1.6272387,0.3972987 1.6465824,0.3836074 1.6654065,0.3694317 1.6837117,0.3547686 1.7014985,0.3396149 1.7187678,0.3239674 1.7355199,0.307823 1.7517557,0.2911786 1.7674758,0.274031 1.7826807,0.2563771 1.7973712,0.2382137 1.8115478,0.2195376 1.8252113,0.2003458 1.8383621,0.180635 1.8509436,0.160497 1.8629071,0.1400352 1.8742666,0.1192631 1.8850359,0.0981943 1.8952288,0.0768421 1.904859,0.05522 1.9139405,0.0333417 1.9305126,-0.01113 1.9450399,-0.0564145 1.9576215,-0.1023345 1.9683721,-0.1487479 1.9774064,-0.1955126 1.9848391,-0.2424867 1.9848391,-0.2424867 1.9883483,-0.2695288 1.9911953,-0.2964443 1.9933885,-0.3232157 1.9949368,-0.3498253 1.9958488,-0.3762554 1.9961331,-0.4024883 1.9957984,-0.4285063 1.9948534,-0.4542917 1.9933066,-0.4798268 1.9911669,-0.505094 1.9884428,-0.5300755 1.9851429,-0.5547538 1.9812761,-0.579111 1.9768508,-0.6031295 1.9718758,-0.6267917 1.9663598,-0.6500798 1.9602977,-0.6730251 1.9536303,-0.6958186 1.9463414,-0.7184479 1.9384213,-0.7408736 1.9298605,-0.7630568 1.9206495,-0.7849581 1.9107786,-0.8065386 1.9002385,-0.827759 1.8890157,-0.8485863 1.8770655,-0.8690325 1.8643712,-0.889047 1.8509252,-0.9085625 1.8367199,-0.9275119 1.8217479,-0.9458279 1.8060015,-0.9634432 1.7894732,-0.9802906 1.7894732,-0.9802906 1.7650091,-1.0037716 1.7399824,-1.0258957 1.7142862,-1.046692 1.687814,-1.0661896 1.660459,-1.0844176 1.6321145,-1.1014052 1.6026738,-1.1171813 1.5720302,-1.1317752 1.5401298,-1.1452004 1.5069369,-1.1574826 1.472342,-1.1686803 1.436235,-1.178852 1.3985062,-1.1880564 1.3590455,-1.1963521 1.3177431,-1.2037977 1.274489,-1.2104519z" transform="matrix(1,0,0,-1,1.9961523,0.5606032)" fill="rgb(0,0,0)" shaper:cutDepth="0.00635" stroke-linecap="round" stroke-linejoin="round" /><path d="M1.0232693,-0.1123476 L-0.9915837,-0.1123476 -0.9915837,-0.1123476 -1.0385736,-0.1138609 -1.0855514,-0.1174803 -1.1082466,-0.119875 -1.1187656,-0.1211129 -1.1286529,-0.1223449 -1.1378604,-0.1235474 -1.1463399,-0.124697 -1.1540432,-0.12577 -1.1609224,-0.1267428 -1.1609224,-0.1267428 -1.1830418,-0.1308029 -1.2040469,-0.1365107 -1.2238792,-0.1437973 -1.2424797,-0.1525937 -1.2598154,-0.1628489 -1.2759558,-0.1746233 -1.2907935,-0.1879128 -1.3041902,-0.2026958 -1.3159629,-0.2188836 -1.3258378,-0.236152 -1.3337573,-0.2543764 -1.339685,-0.2734587 -1.3435554,-0.293084 -1.3453902,-0.3129252 -1.3452875,-0.3328815 -1.3433458,-0.3528523 -1.3433458,-0.3528523 -1.3387935,-0.3779694 -1.3321154,-0.4025654 -1.3278903,-0.4145693 -1.3230272,-0.4263244 -1.3174904,-0.4377915 -1.3112487,-0.448924 -1.3043597,-0.459555 -1.2968491,-0.4696283 -1.2887119,-0.4791458 -1.279943,-0.4881099 -1.2705372,-0.4965225 -1.2605005,-0.5043777 -1.249992,-0.5115759 -1.2390967,-0.5181128 -1.2278541,-0.524022 -1.2163041,-0.5293373 -1.1924401,-0.5383208 -1.1673863,-0.5454388 -1.140941,-0.5509567 -1.1132054,-0.555009 -1.0842809,-0.5577301 -1.0542685,-0.5592544 -1.0232696,-0.5597164 0.9915834,-0.5597164 0.9915834,-0.5597164 1.0385564,-0.558192 1.0855156,-0.5545808 1.1082246,-0.5521887 1.1187467,-0.5509518 1.1286352,-0.5497206 1.1378436,-0.5485185 1.1463252,-0.5473689 1.1540336,-0.5462953 1.1609221,-0.5453212 1.1609221,-0.5453212 1.1830227,-0.5412655 1.2040114,-0.5355652 1.2238297,-0.5282897 1.2424189,-0.5195081 1.2597456,-0.5092721 1.275881,-0.4975211 1.2907183,-0.4842587 1.3041193,-0.4695065 1.3159027,-0.4533502 1.3257936,-0.436112 1.3337318,-0.4179178 1.3396792,-0.3988655 1.3435697,-0.3792634 1.3454212,-0.359445 1.3453306,-0.3395108 1.3433951,-0.3195613 1.3433951,-0.3195613 1.3388402,-0.2944356 1.3321582,-0.269832 1.3279307,-0.2578245 1.3230646,-0.2460658 1.3175245,-0.2345953 1.3112791,-0.2234592 1.3043863,-0.212825 1.296872,-0.2027488 1.2887312,-0.1932282 1.2799587,-0.1842609 1.2705497,-0.1758447 1.2605099,-0.1679851 1.2499985,-0.1607817 1.2391002,-0.1542387 1.227855,-0.1483224 1.2163027,-0.142999 1.1924354,-0.133996 1.1673826,-0.1268542 1.1409384,-0.1213056 1.1132039,-0.1172155 1.0842801,-0.114449 1.0542683,-0.1128713 1.0232693,-0.1123476z" transform="matrix(1,0,0,-1,1.9961523,0.5606032)" fill="rgb(255,255,255)" stroke="rgb(0,0,0)" stroke-width="0.0010cm" stroke-linecap="round" stroke-linejoin="round" shaper:cutDepth="0.00635" /></svg>