<?xml version="1.0" encoding="utf-8"?>
<!-- Generator: Fusion 360, Shaper Origin Export Add-In, Version 1.6.10  -->
<svg xmlns="http://www.w3.org/2000/svg" xmlns:xlink="http://www.w3.org/1999/xlink" xmlns:shaper="http://www.shapertools.com/namespaces/shaper" shaper:fusionaddin="version:1.6.10" width="2.2023194cm" height="3.9234574cm" version="1.1" x="0cm" y="0cm" viewBox="0 0 2.2023194 3.9234574" enable-background="new 0 0 2.2023194 3.9234574" xml:space="preserve"><path d="M-0.5917618,1.2967665 L-0.5917618,1.2967665 -0.6102448,1.2974498 -0.6285281,1.2995815 -0.6465072,1.3032839 -0.664078,1.3086797 -0.6810685,1.3158595 -0.6970631,1.3247353 -0.7119593,1.3352762 -0.7257002,1.3474666 -0.7380768,1.361114 -0.7489322,1.3759535 -0.758247,1.3918223 -0.7660024,1.4085612 -0.7721658,1.4259876 -0.776682,1.4438694 -0.7795072,1.4621493 -0.7804905,1.480556 -0.7804905,1.480556 -0.7802398,1.494357 -0.7794852,1.5093806 -0.778918,1.5175893 -0.7782237,1.5263899 -0.7774018,1.5358777 -0.7764708,1.5459688 -0.7745053,1.5661654 -0.7734383,1.5767315 -0.7722857,1.5879898 -0.7710256,1.6002258 -0.7696358,1.6137246 -0.7680943,1.6287716 -0.7663791,1.6456521 -0.7427444,1.7825254 -0.7427444,1.7825254 -0.7392904,1.8006622 -0.7346293,1.8185883 -0.728718,1.836146 -0.7215136,1.8531779 -0.7129733,1.8695266 -0.7030842,1.8849928 -0.6918638,1.8993764 -0.6792903,1.9125594 -0.6653414,1.9244251 -0.6501931,1.9347383 -0.6341238,1.9433281 -0.6171911,1.9502298 -0.5995467,1.9554565 -0.5815295,1.9590294 -0.5632598,1.9610759 -0.5448434,1.9617287 0.912431,1.9617287 0.912431,1.9617287 0.9308183,1.9610036 0.9489689,1.9587599 0.9667968,1.9548949 0.9842154,1.949306 1.0010422,1.9419365 1.0168894,1.9329005 1.0316726,1.9222514 1.0453309,1.9100351 1.0576836,1.8964398 1.068604,1.8816936 1.0780503,1.865962 1.085984,1.8494023 1.0923637,1.8321513 1.0970989,1.8144191 1.1001015,1.7962568 1.1011597,1.7779392 1.1011597,1.7779392 1.1009406,1.7700448 1.1003068,1.7607901 1.099294,1.7502899 1.0979375,1.7386591 1.0962727,1.7260124 1.0943352,1.7124647 1.0898333,1.6834074 1.0847551,1.652644 1.0793299,1.6208046 1.0683527,1.5564014 1.0683527,1.5564014 1.0556802,1.4987064 1.0412556,1.4416197 1.0251379,1.3851284 1.0073858,1.3292199 0.9880585,1.2738811 0.9672148,1.2190993 0.9449138,1.1648616 0.9212142,1.1111552 0.8961751,1.0579672 0.8698554,1.0052849 0.8423141,0.9530953 0.81361,0.9013856 0.7838309,0.8501911 0.7530756,0.799557 0.7214131,0.7494727 0.6889121,0.6999275 0.6556413,0.6509107 0.6216694,0.6024116 0.5870652,0.5544194 0.5518974,0.5069235 0.5162348,0.4599131 0.4801462,0.4133774 0.4069655,0.3216877 0.3329052,0.2317685 0.2585154,0.1435342 0.1843459,0.0568989 0.1109465,-0.028223 0.1109465,-0.028223 0.0646805,-0.0826085 0.0178256,-0.1387226 -0.0287025,-0.1958917 -0.0739883,-0.2534423 -0.1174564,-0.3111076 -0.1592988,-0.3695504 -0.1994759,-0.4291675 -0.2189248,-0.459537 -0.2379391,-0.490345 -0.2379391,-0.490345 -0.2530721,-0.5159779 -0.2674066,-0.5412948 -0.2809815,-0.5665216 -0.2938357,-0.5918842 -0.3060083,-0.6176083 -0.3175382,-0.6439199 -0.3284643,-0.6710447 -0.3388257,-0.6992086 -0.3486484,-0.7285537 -0.35798,-0.7592407 -0.3668912,-0.7915211 -0.3754529,-0.8256464 -0.3837358,-0.8618683 -0.3877948,-0.8808441 -0.3918106,-0.9004384 -0.3957922,-0.9206826 -0.3997482,-0.9416081 -0.4036876,-0.9632465 -0.4076193,-0.9856292 -0.4076193,-0.9856292 -0.4092593,-1.0038757 -0.4108684,-1.0214557 -0.4124045,-1.0383072 -0.4138254,-1.054368 -0.4150974,-1.0697068 -0.4161544,-1.0842348 -0.416877,-1.0973384 -0.4170752,-1.1031602 -0.4171446,-1.1083909 -0.4171446,-1.1083909 -0.4164597,-1.128818 -0.4143338,-1.1491861 -0.4106604,-1.1693083 -0.405333,-1.1889974 -0.3982469,-1.2080617 -0.389346,-1.2262075 -0.3785755,-1.243207 -0.3724678,-1.2512199 -0.3658672,-1.2588779 -0.3587828,-1.266141 -0.3513091,-1.2729052 -0.34347,-1.2791594 -0.3352758,-1.2849069 -0.326737,-1.2901513 -0.3178641,-1.294896 -0.2992125,-1.3028799 -0.2797951,-1.3088099 -0.2598533,-1.312827 -0.2396077,-1.315101 -0.2192437,-1.3158172 -0.2192437,-1.3158172 -0.1926644,-1.3146812 -0.1794912,-1.3132064 -0.1664324,-1.3110782 -0.1535154,-1.3082602 -0.1407677,-1.3047157 -0.1282169,-1.3004083 -0.1159218,-1.2953156 -0.1040702,-1.289494 -0.0926876,-1.2829575 -0.0817733,-1.2757097 -0.0713263,-1.2677544 -0.0613458,-1.2590953 -0.0518537,-1.2497602 -0.0429585,-1.2398907 -0.0346562,-1.2295449 -0.0269258,-1.2187652 -0.019746,-1.2075937 -0.0069536,-1.1842442 0.0039365,-1.159717 0.0131127,-1.1342081 0.0207138,-1.1079976 0.0268782,-1.0813659 0.0317448,-1.054593 0.035452,-1.0279593 0.0686121,-0.8392306 0.0686121,-0.8392306 0.0712908,-0.820917 0.0754262,-0.802842 0.0810289,-0.7851664 0.0881094,-0.7680507 0.096675,-0.751661 0.1066836,-0.7362225 0.118112,-0.7218814 0.1309509,-0.7087549 0.1451649,-0.6969792 0.1604554,-0.6868249 0.1766863,-0.6783331 0.1937897,-0.671484 0.2115353,-0.6662964 0.2296374,-0.6627356 0.2479963,-0.6606849 0.266513,-0.6600273 0.5543688,-0.6600273 0.5543688,-0.6600273 0.5730337,-0.6607221 0.5914865,-0.6628795 0.6096333,-0.6666084 0.6273807,-0.672018 0.6445802,-0.6791923 0.6608266,-0.6880408 0.6760055,-0.6985204 0.6900576,-0.7106068 0.7028251,-0.7241678 0.7141139,-0.7389387 0.7238776,-0.7547559 0.732072,-0.7714594 0.7386497,-0.7888976 0.743522,-0.8068545 0.7466007,-0.8252489 0.7476836,-0.8438167 0.7476836,-0.8438167 0.7472935,-0.8585592 0.7461563,-0.873314 0.7443213,-0.8888669 0.7418381,-0.9060037 0.7403527,-0.9155029 0.7386251,-0.9262703 0.7366622,-0.9384521 0.734485,-0.952118 0.7321142,-0.967338 0.7295707,-0.9841817 0.7268753,-1.0027191 0.7240489,-1.0230201 0.7240489,-1.0230201 0.7195128,-1.0552628 0.7147804,-1.0864751 0.7098463,-1.1166885 0.7047051,-1.1459344 0.6993513,-1.1742443 0.6937795,-1.2016495 0.687984,-1.2281817 0.6819596,-1.2538721 0.6757008,-1.2787524 0.669202,-1.3028538 0.6624577,-1.326208 0.6554627,-1.3488462 0.6482113,-1.3708001 0.6406981,-1.3921009 0.6329176,-1.4127803 0.6248644,-1.4328696 0.6165355,-1.4523934 0.6079278,-1.4713758 0.5898555,-1.5078398 0.5706058,-1.5425075 0.5501372,-1.5756248 0.5284081,-1.6074376 0.5053769,-1.6381917 0.481002,-1.6681331 0.4552417,-1.6975076 0.4552417,-1.6975076 0.4389623,-1.7147449 0.4222762,-1.7313989 0.4051802,-1.7474699 0.3876709,-1.762958 0.3697452,-1.7778635 0.3513997,-1.7921867 0.3326311,-1.8059278 0.3134363,-1.8190868 0.2938119,-1.8316642 0.2737546,-1.8436602 0.2532613,-1.8550748 0.2323286,-1.8659084 0.2109532,-1.8761612 0.189236,-1.885789 0.1672849,-1.894759 0.1451112,-1.9030869 0.1227266,-1.9107884 0.1001423,-1.9178791 0.07737,-1.9243747 0.054421,-1.9302908 0.0080388,-1.9404472 -0.0388608,-1.9484653 -0.0861167,-1.9544687 -0.1336038,-1.9585913 -0.181197,-1.9609666 -0.2287712,-1.9617287 -0.2287712,-1.9617287 -0.2559456,-1.9614077 -0.2829011,-1.9604517 -0.3096224,-1.9588714 -0.3360943,-1.9566773 -0.3623017,-1.9538801 -0.3882293,-1.9504904 -0.4138619,-1.9465188 -0.4391844,-1.9419759 -0.4641816,-1.9368724 -0.4888382,-1.9312187 -0.5131392,-1.9250256 -0.5370692,-1.9183037 -0.5606132,-1.9110635 -0.5837558,-1.9033157 -0.606482,-1.8950709 -0.6287765,-1.8863396 -0.6506739,-1.8771103 -0.6723413,-1.8673005 -0.6937587,-1.8568981 -0.714886,-1.8458993 -0.735683,-1.8343003 -0.7561098,-1.8220973 -0.7761261,-1.8092865 -0.7956918,-1.7958642 -0.8147733,-1.7818215 -0.833378,-1.7671106 -0.8514526,-1.7517224 -0.8689288,-1.7356591 -0.885738,-1.7189229 -0.9018119,-1.7015159 -0.9170819,-1.6834404 -0.9314795,-1.6646986 -0.9314795,-1.6646986 -0.9517559,-1.6369069 -0.9708852,-1.6085429 -0.9888349,-1.5795772 -1.0055727,-1.5499807 -1.0210661,-1.519724 -1.0352828,-1.4887781 -1.0481903,-1.4571137 -1.0597562,-1.4247015 -1.0698782,-1.3917645 -1.0784848,-1.3586189 -1.0856267,-1.3252645 -1.0913552,-1.2916999 -1.0957215,-1.2579234 -1.0987769,-1.2239335 -1.1005725,-1.1897286 -1.1011597,-1.1553072 -1.1011597,-1.1553072 -1.1002364,-1.1033104 -1.0975436,-1.0513619 -1.093146,-0.9995347 -1.0870482,-0.9478809 -1.0870482,-0.9478809 -1.0757844,-0.8836524 -1.0628304,-0.8199106 -1.0481532,-0.7566607 -1.0317197,-0.6939078 -1.0134969,-0.631657 -0.9934519,-0.5699136 -0.9715514,-0.5086826 -0.9477626,-0.4479694 -0.9221598,-0.38802 -0.894842,-0.3290565 -0.8658194,-0.2710625 -0.8351017,-0.2140217 -0.8026989,-0.1579175 -0.7686209,-0.1027335 -0.7328778,-0.0484534 -0.6954793,0.0049392 -0.6954793,0.0049392 -0.6684492,0.0420765 -0.6406865,0.0787703 -0.5837902,0.1509208 -0.52617,0.2219053 -0.4690044,0.292444 -0.4690044,0.292444 -0.4142052,0.3581018 -0.3584828,0.4252334 -0.3026481,0.4929514 -0.247512,0.5603683 -0.1935201,0.6270495 -0.1386639,0.6956603 -0.0837976,0.7654218 -0.0568593,0.800206 -0.0305171,0.8346445 -0.0305171,0.8346445 -0.0067891,0.8650833 0.0154647,0.8940352 0.0362444,0.9215884 0.0555501,0.9478307 0.0733819,0.9728503 0.0897399,0.9967352 0.104624,1.0195733 0.1180345,1.0414527 0.1300031,1.0625186 0.1406073,1.0830454 0.149797,1.1031304 0.1575126,1.122856 0.1637174,1.1423957 0.1683738,1.1621414 0.1713046,1.1821826 0.1723231,1.2025809 0.1723231,1.2025809 0.1719687,1.2131795 0.1708029,1.223766 0.1686749,1.234177 0.1654346,1.244248 0.1609975,1.2537072 0.1553082,1.26239 0.1483073,1.270212 0.1402658,1.2768781 0.1313785,1.2823906 0.1217936,1.2868377 0.1117543,1.29029 0.1014531,1.2928645 0.0910152,1.29469 0.080398,1.2958955 0.059091,1.2967665 -0.5917618,1.2967665z" transform="matrix(1,0,0,-1,1.1011597,1.9617287)" fill="rgb(0,0,0)" shaper:cutDepth="0.00635" stroke-linecap="round" stroke-linejoin="round" /></svg>