<?xml version="1.0" encoding="utf-8"?>
<!-- Generator: Fusion 360, Shaper Origin Export Add-In, Version 1.6.10  -->
<svg xmlns="http://www.w3.org/2000/svg" xmlns:xlink="http://www.w3.org/1999/xlink" xmlns:shaper="http://www.shapertools.com/namespaces/shaper" shaper:fusionaddin="version:1.6.10" width="0.412734cm" height="0.3958019cm" version="1.1" x="0cm" y="0cm" viewBox="0 0 0.412734 0.3958019" enable-background="new 0 0 0.412734 0.3958019" xml:space="preserve"><path d="M-0.065967,0.197901 L0.0963043,0.197901 0.0963043,0.197901 0.1070301,0.1974775 0.1176177,0.1961674 0.1280167,0.1939107 0.1381768,0.1906477 0.1479909,0.1863455 0.1572331,0.1810711 0.1658545,0.1748557 0.1738194,0.1677261 0.1810222,0.1597928 0.1873895,0.1511886 0.192897,0.1420098 0.1975223,0.1323484 0.2012411,0.1222842 0.204001,0.1119395 0.2057506,0.1013444 0.206367,0.0906589 0.206367,0.0906589 0.205915,0.0802596 0.2053517,0.0741327 0.2045651,0.0671409 0.2035563,0.0590995 0.2023265,0.0498233 0.2021557,0.0485555 0.201857,0.0463164 0.2013719,0.0426558 0.200726,0.0377657 0.1999449,0.0318382 0.1990545,0.0250653 0.1970484,0.0097512 0.1928542,-0.0225737 0.1919176,-0.0298884 0.1910773,-0.0365125 0.1903589,-0.0422538 0.189788,-0.0469206 0.1816751,-0.0934837 0.1816751,-0.0934837 0.1797341,-0.1039826 0.1771526,-0.1143855 0.1738913,-0.1245981 0.1699104,-0.1345257 0.1651706,-0.1440738 0.1596486,-0.1531238 0.15334,-0.1615522 0.1462183,-0.1692854 0.1382571,-0.1762501 0.1295832,-0.1822796 0.1203489,-0.1872843 0.1105865,-0.191291 0.1003979,-0.1943097 0.0899863,-0.1963616 0.0794267,-0.1975303 0.0687897,-0.197901 -0.0934816,-0.197901 -0.0934816,-0.197901 -0.1043742,-0.1974943 -0.1151419,-0.1962326 -0.1257307,-0.1940526 -0.1360864,-0.1908917 -0.146123,-0.1867016 -0.1556044,-0.1815357 -0.1644643,-0.1754199 -0.172668,-0.1683689 -0.1801248,-0.1604591 -0.1867215,-0.1518436 -0.19243,-0.1426181 -0.1972235,-0.1328758 -0.2010739,-0.1227036 -0.2039278,-0.1122271 -0.205732,-0.1014944 -0.206367,-0.0906589 -0.206367,-0.0906589 -0.2060727,-0.0786549 -0.2052789,-0.065466 -0.2026849,-0.0371872 -0.1991917,-0.006942 -0.1973023,0.0080022 -0.1954313,0.0222244 -0.181322,0.0906589 -0.181322,0.0906589 -0.1764524,0.1120145 -0.1730778,0.1224558 -0.1690072,0.1326162 -0.1641883,0.1424035 -0.158579,0.1517094 -0.152182,0.1603778 -0.1449707,0.168328 -0.1369131,0.1754894 -0.1280652,0.1817367 -0.1186446,0.1869175 -0.1086962,0.1910578 -0.0982918,0.1941823 -0.0876439,0.1963078 -0.0768443,0.1975176 -0.065967,0.197901z" transform="matrix(1,0,0,-1,0.206367,0.197901)" fill="rgb(0,0,0)" shaper:cutDepth="0.00635" stroke-linecap="round" stroke-linejoin="round" /></svg>