<?xml version="1.0" encoding="utf-8"?>
<!-- Generator: Fusion 360, Shaper Origin Export Add-In, Version 1.6.10  -->
<svg xmlns="http://www.w3.org/2000/svg" xmlns:xlink="http://www.w3.org/1999/xlink" xmlns:shaper="http://www.shapertools.com/namespaces/shaper" shaper:fusionaddin="version:1.6.10" width="1.8017036cm" height="1.0241294cm" version="1.1" x="0cm" y="0cm" viewBox="0 0 1.8017036 1.0241294" enable-background="new 0 0 1.8017036 1.0241294" xml:space="preserve"><path d="M0.763217,-0.3872594 L0.763217,-0.3872594 0.7830033,-0.3681849 0.8015068,-0.3480395 0.8186603,-0.3267687 0.8343967,-0.3043176 0.848577,-0.2807608 0.8609857,-0.2564382 0.871653,-0.2313781 0.8806227,-0.2055878 0.8879418,-0.1790637 0.8936996,-0.1515618 0.8979056,-0.122953 0.9005369,-0.0932023 0.9015709,-0.0622748 0.9009849,-0.0301356 0.898756,0.0032502 0.8948617,0.0379175 0.8948617,0.0379175 0.8889371,0.0752503 0.8813783,0.1110441 0.8721865,0.1452933 0.8613632,0.1779922 0.8489101,0.2091356 0.8348293,0.2387185 0.8191231,0.2667361 0.8017939,0.2931839 0.7828445,0.3180575 0.7622781,0.341353 0.7400979,0.3630667 0.7163076,0.383195 0.6909109,0.4017346 0.6909109,0.4017346 0.671113,0.4148071 0.6505802,0.4270139 0.6292348,0.4383568 0.6069991,0.4488377 0.5837954,0.4584584 0.5595459,0.4672208 0.534173,0.4751268 0.5075989,0.4821781 0.4797435,0.4883791 0.4505184,0.4937326 0.4198338,0.4982384 0.3875996,0.5018963 0.3537261,0.504706 0.3181231,0.5066674 0.2807009,0.5077802 0.2413695,0.5080442 -0.2551385,0.5080442 -0.2551385,0.5080442 -0.3154651,0.5086165 -0.3762072,0.5080579 -0.4063002,0.5071947 -0.4380923,0.5057011 -0.4702547,0.5033674 -0.4859369,0.5018227 -0.5010662,0.4999924 -0.5010662,0.4999924 -0.5368003,0.4934901 -0.5723393,0.4852561 -0.6073837,0.4750141 -0.6246269,0.4690539 -0.6416342,0.462488 -0.6583285,0.4553021 -0.6745788,0.4475263 -0.6903879,0.4391411 -0.7057674,0.4301234 -0.7207287,0.4204497 -0.7352833,0.4100968 -0.7494426,0.3990414 -0.7632183,0.3872603 -0.7632183,0.3872603 -0.784364,0.3665356 -0.803879,0.3444429 -0.8217212,0.3209772 -0.8378477,0.2961347 -0.8520802,0.270184 -0.8643467,0.2433678 -0.8747052,0.2157431 -0.8832136,0.187367 -0.8899051,0.1584252 -0.8948384,0.1291417 -0.8981177,0.0995995 -0.8998476,0.0698809 -0.9001327,0.0400688 -0.8990773,0.0102455 -0.896786,-0.0195064 -0.8933633,-0.0491042 -0.8933633,-0.0491042 -0.8893326,-0.0755269 -0.8842958,-0.1017781 -0.8781835,-0.1277958 -0.8709264,-0.153518 -0.8624624,-0.1788632 -0.8527711,-0.203668 -0.8418048,-0.2278897 -0.829509,-0.2515067 -0.8158643,-0.2744428 -0.8010727,-0.2963436 -0.7851925,-0.3171897 -0.7682438,-0.3370306 -0.7502465,-0.3559154 -0.7312205,-0.3738936 -0.7111858,-0.3910143 -0.6901624,-0.407327 -0.6901624,-0.407327 -0.6741129,-0.4187778 -0.6573847,-0.4293227 -0.640068,-0.4389982 -0.622253,-0.4478408 -0.60403,-0.4558872 -0.585489,-0.4631739 -0.5667204,-0.4697375 -0.5478143,-0.4756147 -0.5287895,-0.48086 -0.5095054,-0.4855558 -0.4703625,-0.4933808 -0.4308629,-0.4992334 -0.3914979,-0.503253 -0.3914979,-0.503253 -0.3644712,-0.5057746 -0.3372448,-0.5074761 -0.3100795,-0.5076189 -0.2965091,-0.5068684 -0.2830037,-0.5054376 -0.2830037,-0.5054376 -0.272678,-0.5036508 -0.2625395,-0.5010591 -0.2526608,-0.4976351 -0.2431142,-0.4933515 -0.2340164,-0.4882087 -0.2255122,-0.4822557 -0.2176404,-0.4755001 -0.2104365,-0.4679482 -0.2104365,-0.4679482 -0.2038844,-0.4594442 -0.198446,-0.4501756 -0.1941481,-0.4403284 -0.190966,-0.4300447 -0.1888058,-0.4191303 -0.1876873,-0.4074424 -0.187688,-0.3949879 -0.1888857,-0.3817739 -0.2093205,-0.2293322 -0.2093205,-0.2293322 -0.2111101,-0.2188065 -0.2136833,-0.2084713 -0.2171077,-0.1984012 -0.2214509,-0.1886719 -0.2267123,-0.1794664 -0.2328711,-0.1709135 -0.2399404,-0.1630533 -0.2478711,-0.1559765 -0.2564649,-0.1498335 -0.2656432,-0.1446142 -0.2753362,-0.1402997 -0.2854419,-0.1368809 -0.2958282,-0.1343439 -0.3064041,-0.1326534 -0.3170793,-0.1317741 -0.3277633,-0.1316706 -0.363827,-0.1308101 -0.363827,-0.1308101 -0.3805787,-0.130259 -0.3965982,-0.1291467 -0.411861,-0.1273941 -0.4263423,-0.124922 -0.4400175,-0.1216514 -0.4528732,-0.1174991 -0.4650896,-0.1122808 -0.4766419,-0.1058204 -0.4873974,-0.0979753 -0.4969644,-0.0888975 -0.5052239,-0.0787386 -0.5122511,-0.0675282 -0.5181989,-0.0551079 -0.5231557,-0.0412505 -0.5270987,-0.0258847 -0.5300052,-0.0089388 -0.5300052,-0.0089388 -0.5310653,0.0030778 -0.530996,0.0150809 -0.5297508,0.0270124 -0.5272847,0.0388067 -0.5236099,0.0502414 -0.5187618,0.0611877 -0.5127657,0.071585 -0.5056821,0.0813291 -0.4976625,0.0902519 -0.4887892,0.0983221 -0.479139,0.1055167 -0.4688243,0.1117945 -0.458014,0.1171059 -0.446785,0.1214693 -0.435209,0.1249062 -0.423358,0.1274379 -0.423358,0.1274379 -0.4191597,0.1279109 -0.4135616,0.1283995 -0.4067049,0.1288962 -0.3987308,0.1293935 -0.3897807,0.129884 -0.3799957,0.1303601 -0.3584862,0.1312392 -0.3469558,0.13163 -0.3347915,0.1319859 -0.3093625,0.1325357 -0.2839472,0.1327689 -0.2717999,0.132729 -0.2603224,0.1325646 -0.1718099,0.1333962 -0.1718099,0.1333962 -0.1600769,0.1312707 -0.1544262,0.1293412 -0.1490543,0.1267988 -0.144043,0.1236532 -0.139408,0.1199021 -0.1352585,0.1156605 -0.1315956,0.1110095 -0.1255875,0.1006931 -0.1210373,0.0891573 -0.117717,0.0766212 -0.1154422,0.0633618 -0.0518961,-0.4107496 -0.0518961,-0.4107496 -0.0500595,-0.4215428 -0.0474159,-0.4321451 -0.0438961,-0.4424768 -0.0394338,-0.4524522 -0.0340363,-0.4618727 -0.0277054,-0.4706354 -0.0204218,-0.4786921 -0.0122782,-0.4859053 -0.0034595,-0.4921479 0.0059715,-0.4974442 0.0159517,-0.5018191 0.0263269,-0.5052729 0.0369664,-0.5078408 0.0477951,-0.5095831 0.0587384,-0.5105602 0.0697214,-0.5108325 0.225444,-0.5148727 0.225444,-0.5148727 0.2670575,-0.5155129 0.3091403,-0.5149877 0.351218,-0.5134135 0.3928162,-0.5109063 0.4132194,-0.5093447 0.4322012,-0.5076976 0.4492345,-0.5060572 0.464122,-0.5044926 0.4706995,-0.5037601 0.4766666,-0.5030724 0.4819986,-0.502438 0.4866709,-0.5018656 0.4906588,-0.5013637 0.4939376,-0.5009409 0.4964827,-0.5006059 0.4982695,-0.5003673 0.4982695,-0.5003673 0.5343346,-0.4938108 0.5702101,-0.4855239 0.6055877,-0.4752469 0.6229933,-0.4692809 0.6401587,-0.4627199 0.6570163,-0.4555459 0.6734571,-0.4477746 0.6894744,-0.4393838 0.7050684,-0.4303485 0.7202395,-0.4206435 0.7349878,-0.4102437 0.7493135,-0.399124 0.763217,-0.3872594z" transform="matrix(1,0,0,-1,0.9001327,0.5086165)" fill="rgb(0,0,0)" shaper:cutDepth="0.00635" stroke-linecap="round" stroke-linejoin="round" /><path d="M0.5293137,0.0141858 L0.5293137,0.0141858 0.5264687,0.0305433 0.5226116,0.0449243 0.5177482,0.0575956 0.5118843,0.0688246 0.5050191,0.0788795 0.4971508,0.0880153 0.4882804,0.0964819 0.4784091,0.1045288 0.4784091,0.1045288 0.4671429,0.1107263 0.4556004,0.1158317 0.4430716,0.1199739 0.4288467,0.1232816 0.4208891,0.1246615 0.4122673,0.1258792 0.4028955,0.1269512 0.3926879,0.127894 0.381559,0.1287241 0.3694228,0.1294583 0.3561938,0.1301129 0.3417861,0.1307046 0.3417861,0.1307046 0.3196559,0.1311174 0.297604,0.1307823 0.2870414,0.1303325 0.2774353,0.1297273 0.2689384,0.1289926 0.2616895,0.1281542 0.2616895,0.1281542 0.2507638,0.1257972 0.2411958,0.1218368 0.233048,0.116299 0.2263738,0.1092199 0.2212169,0.1006461 0.2176109,0.0906334 0.2155796,0.0792475 0.2151361,0.0665628 0.2162834,0.0526624 0.2316096,-0.0616688 0.2316096,-0.0616688 0.2344915,-0.0752336 0.2394393,-0.0881273 0.2464431,-0.1000798 0.255336,-0.1106438 0.2604403,-0.1153032 0.2659533,-0.1194945 0.2718174,-0.123157 0.2779946,-0.126253 0.28445,-0.1287491 0.2911021,-0.1306015 0.2978941,-0.1317887 0.3047886,-0.1322976 0.3404773,-0.1303605 0.3404773,-0.1303605 0.3633732,-0.1299461 0.3866742,-0.1287986 0.3980352,-0.1278859 0.4082058,-0.1268418 0.4173545,-0.1257331 0.4258412,-0.1246123 0.4258412,-0.1246123 0.4378996,-0.1222273 0.4497778,-0.1190314 0.4613521,-0.1149387 0.472499,-0.1098632 0.4830876,-0.1037237 0.4928599,-0.0965454 0.5016859,-0.0883329 0.5094986,-0.0790583 0.5161422,-0.0688487 0.5214854,-0.0579758 0.5255772,-0.046526 0.5284586,-0.0346352 0.5301819,-0.0225165 0.5308397,-0.010286 0.5305227,0.00198 0.5293137,0.0141858z" transform="matrix(1,0,0,-1,0.9001327,0.5086165)" fill="rgb(255,255,255)" stroke="rgb(0,0,0)" stroke-width="0.0010cm" stroke-linecap="round" stroke-linejoin="round" shaper:cutDepth="0.00635" /></svg>