<?xml version="1.0" encoding="utf-8"?>
<!-- Generator: Fusion 360, Shaper Origin Export Add-In, Version 1.6.10  -->
<svg xmlns="http://www.w3.org/2000/svg" xmlns:xlink="http://www.w3.org/1999/xlink" xmlns:shaper="http://www.shapertools.com/namespaces/shaper" shaper:fusionaddin="version:1.6.10" width="1.3218594cm" height="1.7834951cm" version="1.1" x="0cm" y="0cm" viewBox="0 0 1.3218594 1.7834951" enable-background="new 0 0 1.3218594 1.7834951" xml:space="preserve"><path d="M-0.1412772,-0.1779758 L-0.1412772,-0.1779758 -0.1616124,-0.177946 -0.181256,-0.1776798 -0.2002306,-0.1771603 -0.2185591,-0.1763704 -0.236264,-0.175293 -0.2533681,-0.1739111 -0.2698941,-0.1722075 -0.2858647,-0.1701654 -0.3013025,-0.1677675 -0.3162302,-0.1649968 -0.3306707,-0.1618363 -0.3446465,-0.158269 -0.3581803,-0.1542777 -0.3712949,-0.1498453 -0.3840101,-0.1449559 -0.3963193,-0.1396049 -0.4082386,-0.1337838 -0.419792,-0.1274818 -0.441897,-0.1133918 -0.4628269,-0.0972486 -0.4827831,-0.0789566 -0.492487,-0.0689432 -0.5020454,-0.058322 -0.5114792,-0.0470762 -0.5208096,-0.0351892 -0.5300577,-0.0226442 -0.5392446,-0.0094246 -0.5483914,0.0044864 -0.5575193,0.0191054 -0.5575193,0.0191054 -0.5720933,0.0438479 -0.5858848,0.0690333 -0.5988121,0.0946569 -0.6107931,0.1207141 -0.6217461,0.1472 -0.6315891,0.1741101 -0.6402404,0.2014397 -0.647618,0.229184 -0.6536218,0.2572332 -0.658176,0.2854717 -0.6612399,0.3139072 -0.6627728,0.3425472 -0.6627395,0.3712064 -0.6611448,0.3997329 -0.6580063,0.4281345 -0.653342,0.4564187 -0.653342,0.4564187 -0.647894,0.4833893 -0.640695,0.5098569 -0.6318107,0.5357783 -0.6213069,0.5611098 -0.6092493,0.585808 -0.5957042,0.6098288 -0.5807919,0.6330509 -0.5646244,0.6553994 -0.5472807,0.6768591 -0.5288398,0.6974145 -0.5093821,0.7170493 -0.4890071,0.735732 -0.4677913,0.7534565 -0.4458002,0.7702273 -0.4230995,0.7860487 -0.3997546,0.800925 -0.3997546,0.800925 -0.3740277,0.8159661 -0.3477038,0.8300338 -0.3208171,0.8429995 -0.2934018,0.8547345 -0.2654921,0.86511 -0.2371221,0.8739974 -0.2083261,0.8812679 -0.1791383,0.8867928 -0.1497353,0.8904285 -0.1202739,0.8920681 -0.0907855,0.8916331 -0.0613018,0.8890452 -0.0320725,0.8842693 -0.0034175,0.8773577 0.0246465,0.8683481 0.0521048,0.8572779 0.0521048,0.8572779 0.0670414,0.849933 0.0816888,0.8419538 0.0960267,0.8333759 0.1100347,0.8242348 0.1236926,0.8145662 0.13698,0.8044056 0.162362,0.7827505 0.1861912,0.7593735 0.2084507,0.7343089 0.2288921,0.707777 0.2383533,0.6940298 0.2472667,0.6799986 0.2472667,0.6799986 0.2675252,0.6447531 0.2766098,0.6270457 0.2847738,0.6093789 0.2918491,0.5918252 0.2976675,0.5744574 0.302061,0.5573482 0.3048791,0.5404169 0.305902,0.5233398 0.3047457,0.5063029 0.3032314,0.4978832 0.3010715,0.4896924 0.2982618,0.4817647 0.2947934,0.474102 0.2906576,0.4667067 0.2858733,0.4596186 0.2805464,0.4529553 0.2747249,0.4467102 0.2618164,0.4354473 0.2476545,0.4257786 0.1184143,0.347042 0.1184143,0.347042 0.1092864,0.3419043 0.0998289,0.3374757 0.0900601,0.3338622 0.0799985,0.33117 0.0696903,0.3295083 0.0593596,0.3289766 0.0490693,0.3296041 0.0388418,0.3314111 0.0288504,0.3343662 0.0192632,0.3383717 0.0101169,0.3433428 0.00152,0.3491418 -0.0063017,0.3554901 -0.0133067,0.3621925 -0.0194641,0.3690599 -0.024743,0.3759034 -0.024743,0.3759034 -0.0332828,0.3916418 -0.0405329,0.4073143 -0.0479779,0.4232366 -0.0522536,0.4314545 -0.0571821,0.4399963 -0.0571821,0.4399963 -0.0641074,0.4499043 -0.0716907,0.4593033 -0.0799603,0.4680659 -0.0889448,0.4760647 -0.0986666,0.4831687 -0.1089947,0.4891674 -0.1198566,0.4939523 -0.1312424,0.4974663 -0.1430465,0.4996394 -0.1549621,0.5004361 -0.1669062,0.4999158 -0.1788015,0.4981431 -0.1905078,0.4952041 -0.2019187,0.4911976 -0.2129377,0.4862225 -0.2234682,0.4803775 -0.2234682,0.4803775 -0.236486,0.4713416 -0.2482111,0.460852 -0.2585505,0.4489188 -0.2673271,0.4356933 -0.2743481,0.4215402 -0.2796418,0.4066059 -0.2832311,0.3910949 -0.2851602,0.3752997 -0.2855287,0.3593664 -0.2844381,0.3434348 -0.2819903,0.3276375 -0.2782826,0.3120726 -0.2734106,0.2968301 -0.2674589,0.2819723 -0.2605003,0.2675467 -0.2526079,0.2536059 -0.2526079,0.2536059 -0.2449352,0.2416688 -0.237121,0.230878 -0.2290739,0.2211798 -0.2207029,0.2125204 -0.2119164,0.2048462 -0.2026304,0.1981079 -0.1927637,0.1922567 -0.1822255,0.1872364 -0.1709249,0.1829909 -0.1587876,0.1794681 -0.1458093,0.1766268 -0.1319536,0.1744074 -0.1171784,0.1727487 -0.1014417,0.1715894 -0.0847013,0.1708682 -0.0669154,0.1705238 0.1392091,0.1705238 0.1392091,0.1705238 0.1589704,0.1702417 0.1781624,0.1696211 0.1967964,0.1686612 0.2148837,0.1673615 0.2324354,0.1657211 0.249463,0.1637395 0.2659776,0.1614159 0.2819905,0.1587497 0.3125564,0.1523866 0.3412507,0.1446447 0.3681636,0.1355184 0.3934801,0.1249586 0.4176224,0.1127486 0.4406397,0.0987714 0.4625426,0.0829249 0.4833138,0.0651326 0.5025341,0.0457865 0.5201669,0.025136 0.5363522,0.0032933 0.5512302,-0.019629 0.5512302,-0.019629 0.5621914,-0.0380709 0.5725021,-0.0563321 0.582173,-0.0744117 0.5912149,-0.0923087 0.5996385,-0.110022 0.6074544,-0.1275507 0.6146736,-0.1448936 0.6213067,-0.1620499 0.6328575,-0.1957984 0.6421929,-0.2287879 0.6493987,-0.2610104 0.6545515,-0.2923914 0.6563506,-0.3074298 0.6576634,-0.3219146 0.65853,-0.3358401 0.6589909,-0.3492001 0.6590866,-0.3619887 0.6588573,-0.3741999 0.6583435,-0.3858276 0.6575856,-0.3968659 0.6566239,-0.4073087 0.6554989,-0.4171501 0.6542508,-0.4263841 0.6529202,-0.4350046 0.6515474,-0.4430056 0.6501727,-0.4503813 0.6488366,-0.4571254 0.6475795,-0.4632322 0.6475795,-0.4632322 0.6420627,-0.4902609 0.6346952,-0.5167565 0.6255625,-0.5426759 0.6147501,-0.5679764 0.6023437,-0.5926149 0.5884366,-0.6165365 0.5731728,-0.6396218 0.556657,-0.6618364 0.5389836,-0.6831636 0.5202471,-0.7035871 0.5005412,-0.723091 0.4799472,-0.7416721 0.4585363,-0.7593321 0.4363797,-0.7760722 0.4135486,-0.7918938 0.3901141,-0.8067983 0.3901141,-0.8067983 0.3649254,-0.8210392 0.3391741,-0.8343347 0.3128924,-0.8465577 0.2861126,-0.8575813 0.258867,-0.8672787 0.2311877,-0.8755227 0.2031071,-0.8821866 0.1746574,-0.8871432 0.146029,-0.8902545 0.1173838,-0.891427 0.0887369,-0.8905973 0.0601033,-0.8877019 0.0317369,-0.8827283 0.0039332,-0.8757496 -0.0233101,-0.8668198 -0.0499958,-0.855993 -0.0499958,-0.855993 -0.0655365,-0.8485162 -0.080738,-0.8404024 -0.0955884,-0.8316756 -0.1100761,-0.82236 -0.124189,-0.8124796 -0.1379155,-0.8020585 -0.1512436,-0.7911206 -0.1641615,-0.7796901 -0.1766624,-0.7677859 -0.1887389,-0.7554261 -0.2003767,-0.7426351 -0.2115617,-0.7294375 -0.2325159,-0.7019203 -0.2514877,-0.6730702 -0.2514877,-0.6730702 -0.2699806,-0.6406331 -0.278262,-0.6240737 -0.2856395,-0.6073922 -0.2919175,-0.5906676 -0.2969007,-0.5739787 -0.3004012,-0.5573547 -0.302221,-0.5405716 -0.3020283,-0.5237328 -0.3010683,-0.5153455 -0.2994886,-0.5070678 -0.2972944,-0.4990224 -0.2944823,-0.4912122 -0.2910486,-0.4836369 -0.2869894,-0.4762965 -0.2823377,-0.4692422 -0.2771882,-0.462571 -0.2655641,-0.4503337 -0.2525055,-0.4395266 -0.2384263,-0.4300751 -0.1115949,-0.3528059 -0.1115949,-0.3528059 -0.102866,-0.3478769 -0.093816,-0.3435973 -0.0844683,-0.3400814 -0.0748461,-0.3374438 -0.0649945,-0.3358015 -0.055122,-0.3352629 -0.0452895,-0.3358688 -0.035516,-0.33765 -0.026002,-0.3405711 -0.016901,-0.3445296 -0.0082338,-0.3494373 -0.0001725,-0.3550902 0.0070798,-0.3611735 0.0135052,-0.3674646 0.0190863,-0.3737416 0.0238058,-0.3797822 0.0238058,-0.3797822 0.0292668,-0.3892128 0.0339577,-0.3981431 0.0419649,-0.415019 0.0496911,-0.4314269 0.0540303,-0.4397752 0.0589984,-0.4483947 0.0589984,-0.4483947 0.0659237,-0.4583027 0.073507,-0.4677017 0.0817766,-0.4764643 0.090761,-0.4844632 0.1004829,-0.4915671 0.110811,-0.4975658 0.1216729,-0.5023507 0.1330587,-0.5058648 0.1448628,-0.5080378 0.1567784,-0.5088345 0.1687225,-0.5083142 0.1806178,-0.5065416 0.1923241,-0.5036025 0.203735,-0.4995961 0.214754,-0.4946209 0.2252845,-0.4887759 0.2252845,-0.4887759 0.2381203,-0.4798729 0.2496711,-0.4695375 0.2598439,-0.4577528 0.2684423,-0.4446793 0.2752801,-0.4306905 0.2804088,-0.4159241 0.2838696,-0.4005988 0.2857328,-0.3849895 0.2861152,-0.3692493 0.2851335,-0.3535263 0.2828932,-0.337904 0.2794877,-0.3224739 0.275009,-0.3073408 0.2695176,-0.2925311 0.2630649,-0.2780948 0.2557102,-0.2641152 0.2557102,-0.2641152 0.2475715,-0.2522457 0.2394604,-0.2414963 0.2312223,-0.2318129 0.2227029,-0.2231419 0.2137475,-0.2154293 0.2042016,-0.2086215 0.1939105,-0.2026658 0.1827196,-0.1975096 0.1704745,-0.1931002 0.1570229,-0.1893854 0.1422228,-0.1863135 0.1259205,-0.1838313 0.107961,-0.1818853 0.0881891,-0.180422 0.0664497,-0.1793878 0.0425876,-0.1787293 -0.1412772,-0.1779758z" transform="matrix(1,0,0,-1,0.6627728,0.8920681)" fill="rgb(0,0,0)" shaper:cutDepth="0.00635" stroke-linecap="round" stroke-linejoin="round" /></svg>