<?xml version="1.0" encoding="utf-8"?>
<!-- Generator: Fusion 360, Shaper Origin Export Add-In, Version 1.6.10  -->
<svg xmlns="http://www.w3.org/2000/svg" xmlns:xlink="http://www.w3.org/1999/xlink" xmlns:shaper="http://www.shapertools.com/namespaces/shaper" shaper:fusionaddin="version:1.6.10" width="2.0767061cm" height="0.7841451cm" version="1.1" x="0cm" y="0cm" viewBox="0 0 2.0767061 0.7841451" enable-background="new 0 0 2.0767061 0.7841451" xml:space="preserve"><path d="M0.5769008,0.0825117 L0.5769008,0.0825117 0.5939527,0.0858541 0.6019086,0.0882242 0.6094319,0.0911407 0.6164826,0.0946638 0.6230174,0.0988549 0.6289961,0.1037759 0.6343707,0.1094791 0.6389577,0.1157894 0.6427439,0.1225797 0.6457952,0.1297951 0.6482296,0.1375788 0.6501046,0.1461206 0.6514024,0.1554554 0.6521052,0.1656176 0.6521951,0.176642 0.6518973,0.1986924 0.6518973,0.1986924 0.6528201,0.2179688 0.6541482,0.2275353 0.6561397,0.2369615 0.6588588,0.2461784 0.6623646,0.2551047 0.6666658,0.2635772 0.6717838,0.2715237 0.6777482,0.2788957 0.6845486,0.2856085 0.692017,0.2914897 0.7000789,0.296523 0.708642,0.3006946 0.7172576,0.3038896 0.7256499,0.3061679 0.7336292,0.307637 0.7336292,0.307637 0.737847,0.3081802 0.7427549,0.3087095 0.7543355,0.3097128 0.7677598,0.3106201 0.7824169,0.3114047 0.7980577,0.3120531 0.8146447,0.31254 0.8311656,0.3127859 0.8465756,0.3127099 0.8994068,0.3120546 0.8994068,0.3120546 0.9105992,0.31183 0.9217095,0.310429 0.9326342,0.307907 0.9432668,0.3043205 0.9534904,0.2997352 0.9632301,0.2942033 0.9724204,0.287773 0.9809927,0.2804952 0.988833,0.2724769 0.995892,0.2637907 1.0021497,0.2544847 1.0075812,0.2446171 1.0121276,0.2343481 1.0157978,0.2237555 1.0186193,0.2128853 1.0206196,0.2017834 1.0249058,0.1717504 1.0249058,0.1717504 1.0296552,0.1328032 1.0326781,0.0932043 1.0336138,0.053363 1.0331863,0.0334792 1.0321018,0.0136882 1.0303152,-0.0059588 1.0277814,-0.0254107 1.024455,-0.0446186 1.0202781,-0.0635862 1.0151928,-0.0822795 1.0091448,-0.1006381 1.0020798,-0.1186017 0.9939436,-0.13611 0.984682,-0.1531028 0.9742665,-0.1694818 0.9628338,-0.1849631 0.9504167,-0.1995014 0.9370201,-0.2130989 0.922649,-0.2257578 0.9073081,-0.2374801 0.8911093,-0.2482023 0.874287,-0.2578321 0.8569084,-0.2664162 0.8390366,-0.2740041 0.8207429,-0.2806427 0.8021179,-0.286375 0.7832334,-0.2912535 0.7641595,-0.2953311 0.7449665,-0.298661 0.7449665,-0.298661 0.7370515,-0.2996506 0.72828,-0.3004924 0.7186662,-0.3011992 0.7082239,-0.3017837 0.6969672,-0.3022589 0.6849102,-0.3026375 0.6720668,-0.3029322 0.6580098,-0.3031533 0.6425593,-0.3033082 0.6262166,-0.3034062 0.592862,-0.3034688 0.576854,-0.303452 0.5619615,-0.3034157 0.5486862,-0.303369 0.5375302,-0.3033213 -0.0842793,-0.3033356 -0.0842793,-0.3033356 -0.0988307,-0.3033174 -0.1127485,-0.3032712 -0.1259366,-0.3032027 -0.138299,-0.3031177 -0.1497396,-0.3030222 -0.1601621,-0.3029218 -0.1694706,-0.3028226 -0.177569,-0.3027302 -0.184361,-0.3026505 -0.1897508,-0.3025894 -0.1936929,-0.3025518 -0.1971236,-0.302525 -0.2096014,-0.3024751 -0.2202087,-0.3025434 -0.2291072,-0.3027654 -0.2364585,-0.3031766 -0.2424241,-0.3038126 -0.2424241,-0.3038126 -0.2495676,-0.3055111 -0.2561271,-0.307446 -0.2621218,-0.3096363 -0.267571,-0.3121006 -0.2770311,-0.3180242 -0.281153,-0.3216492 -0.2848341,-0.325789 -0.2879738,-0.3303809 -0.2905128,-0.3352785 -0.2940465,-0.3459237 -0.2959518,-0.3582143 -0.2963556,-0.3650793 -0.2964142,-0.3724528 -0.2964654,-0.3920584 -0.2964654,-0.3920584 -0.2970568,-0.3996988 -0.298546,-0.4071511 -0.3009932,-0.4143802 -0.304402,-0.4212537 -0.3086563,-0.4275777 -0.3136904,-0.4333615 -0.3193815,-0.4385708 -0.3255769,-0.4431858 -0.3390159,-0.4507519 -0.3529373,-0.4562566 -0.3662862,-0.4599591 -0.3724267,-0.4612224 -0.3780409,-0.4621408 -0.3780409,-0.4621408 -0.3860772,-0.4630878 -0.3950121,-0.4638417 -0.4128474,-0.4648508 -0.4203824,-0.4651465 -0.4261776,-0.4653325 -0.4368739,-0.4655936 -0.4588376,-0.4658316 -0.4801635,-0.465669 -0.5438227,-0.4665591 -0.5438227,-0.4665591 -0.5524939,-0.4663143 -0.5611324,-0.4653544 -0.5696804,-0.4637173 -0.5780803,-0.4614411 -0.5862805,-0.4585613 -0.5942694,-0.4550935 -0.6020034,-0.4510575 -0.6094301,-0.4464762 -0.6164972,-0.4413722 -0.6231524,-0.4357682 -0.6293495,-0.4296809 -0.6350417,-0.4231254 -0.6401761,-0.4161212 -0.6446848,-0.4087148 -0.6485122,-0.4009528 -0.6516211,-0.3928587 -0.6563572,-0.3796368 -0.6563572,-0.3796368 -0.6675523,-0.3523241 -0.6745178,-0.3393037 -0.6830237,-0.327514 -0.6879374,-0.3223278 -0.6933265,-0.3177138 -0.6992374,-0.3137126 -0.7056433,-0.310398 -0.7123665,-0.3078543 -0.7193636,-0.3060454 -0.7265059,-0.3049333 -0.7337238,-0.3044447 -0.8978562,-0.3029249 -0.8978562,-0.3029249 -0.9087195,-0.302444 -0.9195815,-0.3012493 -0.930349,-0.2993098 -0.9409286,-0.2965945 -0.951227,-0.2930723 -0.9611422,-0.2887175 -0.9705689,-0.2835155 -0.9794317,-0.2774422 -0.9876568,-0.270473 -0.9951151,-0.2626485 -1.0016447,-0.2541253 -1.0072471,-0.2449386 -1.0119125,-0.2351593 -1.0156054,-0.2250019 -1.0183852,-0.214552 -1.0203205,-0.2038787 -1.041702,-0.0540611 -1.041702,-0.0540611 -1.0428482,-0.0430477 -1.0430923,-0.0320353 -1.0423504,-0.021074 -1.040539,-0.0102136 -1.0375955,0.0004306 -1.0335492,0.010603 -1.0284138,0.0202587 -1.0222026,0.0293662 -1.0150457,0.0377687 -1.0070791,0.0453882 -0.998403,0.0522102 -0.989178,0.0581842 -0.9796994,0.0632179 -0.9701447,0.0673256 -0.9606833,0.0705275 -0.9514847,0.0728437 -0.9514847,0.0728437 -0.9425098,0.0740887 -0.9322327,0.0753048 -0.9200392,0.0763647 -0.9057466,0.0771233 -0.8757286,0.0774818 -0.8608614,0.0772218 -0.8465698,0.0767703 -0.8465698,0.0767703 -0.8279256,0.0766456 -0.8092637,0.0774013 -0.8001638,0.0781219 -0.792267,0.0789469 -0.785702,0.0797726 -0.7804672,0.0805038 -0.7804672,0.0805038 -0.7743351,0.0817529 -0.7684459,0.0837343 -0.7628409,0.086471 -0.7576276,0.0899365 -0.7529353,0.0940301 -0.748773,0.0986998 -0.7451754,0.1038494 -0.742165,0.1093578 -0.7378085,0.121164 -0.7354958,0.1335794 -0.734986,0.1462092 -0.7360537,0.1588237 -0.7422837,0.2024771 -0.7422837,0.2024771 -0.7437347,0.2200734 -0.7435663,0.2288954 -0.7427003,0.2376572 -0.7410606,0.2463019 -0.7385953,0.2547029 -0.7352946,0.2627188 -0.7311328,0.2703253 -0.726091,0.2774898 -0.7202996,0.2840352 -0.7138636,0.2899211 -0.7068467,0.2951737 -0.6986884,0.3001774 -0.6885004,0.3051647 -0.6825565,0.3075567 -0.6759989,0.3098299 -0.6687921,0.311946 -0.6609007,0.3138666 -0.6609007,0.3138666 -0.6547786,0.3145742 -0.6476796,0.3151338 -0.631934,0.3158799 -0.6164299,0.3162467 -0.6031551,0.3163795 -0.5760978,0.3162838 -0.5626948,0.3160839 -0.5499982,0.3157964 -0.497516,0.317586 -0.497516,0.317586 -0.4866631,0.3170609 -0.4758496,0.3157402 -0.4651642,0.3136022 -0.4546955,0.3106254 -0.4445321,0.3067882 -0.4347945,0.3020877 -0.4255822,0.2965281 -0.4169592,0.2901011 -0.408989,0.2827982 -0.4018163,0.2747145 -0.3955403,0.2659788 -0.390151,0.2566276 -0.3856592,0.2467497 -0.3820835,0.2365311 -0.3793671,0.2260426 -0.3774498,0.2153484 -0.3665846,0.1392172 -0.3665846,0.1392172 -0.3636105,0.1262719 -0.3584698,0.1140729 -0.3512274,0.1029289 -0.3421425,0.0932799 -0.3314535,0.085376 -0.319541,0.0794991 -0.3067712,0.0758218 -0.2935553,0.0744525 0.4030868,0.0744525 0.4030868,0.0744525 0.4200022,0.074696 0.4352385,0.074922 0.4490369,0.0751424 0.4616387,0.0753689 0.4732854,0.0756132 0.4842181,0.075887 0.5049072,0.0765702 0.5245153,0.0774966 0.5427153,0.0787372 0.560009,0.0803797 0.5769008,0.0825117z" transform="matrix(1,0,0,-1,1.0430923,0.317586)" fill="rgb(0,0,0)" shaper:cutDepth="0.00635" stroke-linecap="round" stroke-linejoin="round" /></svg>