<?xml version="1.0" encoding="utf-8"?>
<!-- Generator: Fusion 360, Shaper Origin Export Add-In, Version 1.8.0  -->
<svg xmlns="http://www.w3.org/2000/svg" xmlns:xlink="http://www.w3.org/1999/xlink" xmlns:shaper="http://www.shapertools.com/namespaces/shaper" shaper:fusionaddin="version:1.8.0" width="30.48cm" height="30.48cm" version="1.1" x="0cm" y="0cm" viewBox="0 0 30.48 30.48" enable-background="new 0 0 30.48 30.48" xml:space="preserve"><path d="M-15.24,0 a15.24,15.24 0 1,1 30.48,0 a15.24,15.24 0 1,1 -30.48,0z" transform="matrix(1,0,0,-1,15.24,15.24)" stroke="rgb(100,100,100)" stroke-width="0.0010cm" stroke-linecap="round" stroke-linejoin="round" fill="none" /><path d="M-0.396875,0 a0.396875,0.396875 0 1,1 0.79375,0 a0.396875,0.396875 0 1,1 -0.79375,0z" transform="matrix(1,0,0,-1,15.24,15.24)" stroke="rgb(100,100,100)" stroke-width="0.0010cm" stroke-linecap="round" stroke-linejoin="round" fill="none" /><path d="M-0.396875,10.16 a0.396875,0.396875 0 1,1 0.79375,0 a0.396875,0.396875 0 1,1 -0.79375,0z" transform="matrix(1,0,0,-1,15.24,15.24)" stroke="rgb(100,100,100)" stroke-width="0.0010cm" stroke-linecap="round" stroke-linejoin="round" fill="none" /><path d="M-9.1956931,-5.08 a0.396875,0.396875 0 1,1 0.79375,0 a0.396875,0.396875 0 1,1 -0.79375,0z" transform="matrix(1,0,0,-1,15.24,15.24)" stroke="rgb(100,100,100)" stroke-width="0.0010cm" stroke-linecap="round" stroke-linejoin="round" fill="none" /><path d="M8.4019431,-5.08 a0.396875,0.396875 0 1,1 0.79375,0 a0.396875,0.396875 0 1,1 -0.79375,0z" transform="matrix(1,0,0,-1,15.24,15.24)" stroke="rgb(100,100,100)" stroke-width="0.0010cm" stroke-linecap="round" stroke-linejoin="round" fill="none" /></svg>