<?xml version="1.0" encoding="utf-8"?>
<!-- Generator: Fusion 360, Shaper Origin Export Add-In, Version 1.8.0  -->
<svg xmlns="http://www.w3.org/2000/svg" xmlns:xlink="http://www.w3.org/1999/xlink" xmlns:shaper="http://www.shapertools.com/namespaces/shaper" shaper:fusionaddin="version:1.8.0" width="85.4cm" height="55.6319127cm" version="1.1" x="0cm" y="0cm" viewBox="0 0 85.4 55.6319127" enable-background="new 0 0 85.4 55.6319127" xml:space="preserve"><path d="M42.6925052,-0.95005 L42.6925052,0.94995 A4.5,4.5 0 0,1 38.584706,5.4328261 L32.1714792,5.9939108 A2.1759459,2.1759459 265 0,0 30.1934596,7.9719304 A2.1759459,2.1759459 5 0,1 28.21544,9.94995 A323.7358671,323.7358671 85 0,1 -28.21544,9.94995 A2.1759459,2.1759459 95 0,1 -30.1934596,7.9719304 A2.1759459,2.1759459 355 0,0 -32.1714792,5.9939108 L-38.584706,5.4328261 A4.5,4.5 95 0,1 -42.6925052,0.94995 L-42.6925052,-0.95005 A42.7,42.7 178.92648 1,1 42.6925052,-0.95005z" transform="matrix(1,0,0,-1,42.7,11.1818627)" fill="rgb(0,0,0)" shaper:cutDepth="1.9cm" stroke-linecap="round" stroke-linejoin="round" /><path d="M-40.8,-1.75005 A40.8,40.8 180 0,1 40.8,-1.75005 A0.8,0.8 0 0,1 40,-0.95005 L-40,-0.95005 A0.8,0.8 90 0,1 -40.8,-1.75005z" transform="matrix(1,0,0,-1,42.7,11.1818627)" fill="rgb(126,126,126)" fill-rule="nonzero" shaper:cutDepth="0.5cm" stroke-linecap="round" stroke-linejoin="round" /><path d="M-38.4191101,3.5400562 A2.6,2.6 95 0,1 -40.5215302,2.10565 A0.8,0.8 153.6086467 0,1 -39.8049071,0.95005 L39.8049071,0.95005 A0.8,0.8 270 0,1 40.5215302,2.10565 A2.6,2.6 26.3913533 0,1 38.4191101,3.5400562 L32.0058833,4.1011409 A4.0759459,4.0759459 265 0,0 28.3006896,7.8063345 A0.2759459,0.2759459 5 0,1 28.0498428,8.0571802 A321.8358671,321.8358671 85.0000002 0,1 -28.0498414,8.0571803 A0.2759459,0.2759459 94.9994452 0,1 -28.3006896,7.8063345 A4.0759459,4.0759459 355 0,0 -32.0058833,4.1011409 L-38.4191101,3.5400562z" transform="matrix(1,0,0,-1,42.7,11.1818627)" fill="rgb(126,126,126)" fill-rule="nonzero" shaper:cutDepth="0.5cm" stroke-linecap="round" stroke-linejoin="round" /></svg>