<?xml version="1.0" encoding="utf-8"?>
<!-- Generator: Fusion 360, Shaper Origin Export Add-In, Version 1.8.0  -->
<svg xmlns="http://www.w3.org/2000/svg" xmlns:xlink="http://www.w3.org/1999/xlink" xmlns:shaper="http://www.shapertools.com/namespaces/shaper" shaper:fusionaddin="version:1.8.0" width="85.4cm" height="55.6041423cm" version="1.1" x="0cm" y="0cm" viewBox="0 0 85.4 55.6041423" enable-background="new 0 0 85.4 55.6041423" xml:space="preserve"><path d="M-32.7654989,5.9419908 L-38.4972444,5.440528 -38.4972444,5.440528 -38.5923793,5.432164 -38.6884235,5.4234752 -38.785356,5.4142185 -38.8831559,5.4041505 -38.9818019,5.393028 -39.0812732,5.3806076 -39.1815487,5.3666461 -39.2826073,5.3509003 -39.384428,5.3331267 -39.4356175,5.3234035 -39.4869897,5.3130822 -39.538542,5.3021323 -39.5902715,5.2905234 -39.6421759,5.2782251 -39.6942523,5.2652071 -39.7464983,5.2514388 -39.7989111,5.2368899 -39.8514882,5.22153 -39.9042268,5.2053287 -39.9571244,5.1882555 -40.0101784,5.17028 -40.0633861,5.1513719 -40.1167449,5.1315007 -40.1702521,5.1106359 -40.2239051,5.0887473 -40.2774198,5.0659287 -40.3300563,5.0425044 -40.3817814,5.0185165 -40.4326012,4.9939905 -40.482522,4.9689516 -40.5315497,4.9434253 -40.5796906,4.917437 -40.6269508,4.891012 -40.6733363,4.8641757 -40.7188533,4.8369535 -40.7635079,4.8093708 -40.8073063,4.781453 -40.8502546,4.7532254 -40.8923589,4.7247134 -40.9336254,4.6959425 -40.97406,4.6669379 -41.0136691,4.6377252 -41.0524587,4.6083296 -41.0904349,4.5787765 -41.1276038,4.5490914 -41.1639717,4.5192996 -41.1995445,4.4894265 -41.2343285,4.4594975 -41.2683298,4.4295379 -41.3015544,4.3995732 -41.3340085,4.3696287 -41.3656983,4.3397298 -41.3966298,4.3099019 -41.4268092,4.2801704 -41.4562426,4.2505607 -41.4853506,4.220667 -41.5145931,4.1900006 -41.5439438,4.1585551 -41.5733758,4.126325 -41.602862,4.0933046 -41.6323755,4.0594885 -41.6618895,4.0248709 -41.6913768,3.9894462 -41.7208106,3.9532088 -41.7501639,3.9161531 -41.7794098,3.8782735 -41.8085213,3.8395643 -41.8374714,3.80002 -41.8662333,3.759635 -41.8947798,3.7184035 -41.9230842,3.6763201 -41.9511194,3.6333791 -41.9788585,3.5895748 -42.0062746,3.5449018 -42.0333406,3.4993542 -42.0600296,3.4529266 -42.0863147,3.4056133 -42.1121689,3.3574087 -42.1375653,3.3083073 -42.1624769,3.2583032 -42.1868768,3.2073911 -42.210738,3.1555652 -42.2340335,3.1028199 -42.2567364,3.0491496 -42.2788091,2.9945753 -42.2999417,2.939835 -42.3200246,2.8852666 -42.3390892,2.8308721 -42.3571669,2.7766537 -42.3742889,2.7226133 -42.3904867,2.6687531 -42.4057915,2.6150751 -42.4202348,2.5615814 -42.4338478,2.508274 -42.446662,2.455155 -42.4587086,2.4022266 -42.470019,2.3494906 -42.4806246,2.2969493 -42.4905567,2.2446046 -42.4998466,2.1924587 -42.5085257,2.1405136 -42.524177,2.0372341 -42.5377611,1.9347826 -42.5495291,1.8331757 -42.5597315,1.7324299 -42.5686192,1.6325616 -42.576443,1.5335875 -42.5834536,1.435524 -42.5899018,1.3383878 -42.5960384,1.2421952 -42.6145515,0.95 A42.7,42.7 176.3746633 1,1 42.6145515,0.95 L42.5960384,1.2421952 42.5960384,1.2421952 42.589959,1.3375034 42.5835769,1.4337284 42.5766482,1.5308552 42.5689294,1.6288684 42.5601766,1.7277529 42.5501461,1.8274935 42.5385943,1.928075 42.5252774,2.0294823 42.5099516,2.1317001 42.5014593,2.1831082 42.4923733,2.2347132 42.4826633,2.2865133 42.4722988,2.3385065 42.4612492,2.3906909 42.4494842,2.4430647 42.4369733,2.4956259 42.423686,2.5483727 42.4095919,2.6013031 42.3946604,2.6544152 42.3788611,2.7077072 42.3621636,2.7611771 42.3445374,2.8148231 42.3259519,2.8686432 42.3063769,2.9226356 42.2857817,2.9767983 42.2642534,3.030845 42.2420986,3.0840283 42.2193586,3.136314 42.1960588,3.1877076 42.1722247,3.2382146 42.147882,3.2878407 42.123056,3.3365911 42.0977724,3.3844716 42.0720566,3.4314876 42.0459342,3.4776446 42.0194307,3.5229481 41.9925716,3.5674036 41.9653825,3.6110168 41.9378888,3.6537929 41.9101162,3.6957377 41.88209,3.7368566 41.8538359,3.7771551 41.8253793,3.8166387 41.7967458,3.8553129 41.7679609,3.8931833 41.7390502,3.9302554 41.710039,3.9665347 41.6809531,4.0020267 41.6518179,4.0367368 41.6226588,4.0706708 41.5935015,4.1038339 41.5643715,4.1362318 41.5352943,4.16787 41.5062953,4.198754 41.4774002,4.2288893 41.4482134,4.258706 41.4182573,4.2886758 41.387525,4.3187725 41.3560103,4.3489692 41.3237068,4.3792391 41.2906084,4.4095554 41.2567088,4.4398913 41.2220017,4.47022 41.1864809,4.5005146 41.15014,4.5307485 41.1129729,4.5608947 41.0749733,4.5909264 41.0361349,4.6208169 40.9964515,4.6505393 40.9559168,4.6800668 40.9145245,4.7093726 40.8722684,4.7384299 40.8291422,4.7672119 40.7851397,4.7956918 40.7402546,4.8238427 40.6944806,4.8516378 40.6478115,4.8790504 40.600241,4.9060536 40.5517629,4.9326207 40.5023709,4.9587247 40.4520588,4.9843389 40.4008202,5.0094366 40.348649,5.0339907 40.2955388,5.0579747 40.2415097,5.0813503 40.1872922,5.10379 40.1332212,5.1251763 40.0792998,5.1455403 40.0255306,5.1649135 39.9719166,5.183327 39.9184605,5.2008122 39.8651651,5.2174004 39.8120332,5.2331228 39.7590678,5.2480108 39.7062715,5.2620956 39.6536473,5.2754085 39.6011979,5.2879808 39.5489261,5.2998438 39.4968348,5.3110287 39.4449267,5.321567 39.3932048,5.3314898 39.2903305,5.3496142 39.1882344,5.3656523 39.086939,5.3798544 38.9864669,5.3924708 38.8868406,5.4037518 38.7880827,5.4139477 38.6902156,5.4233089 38.593262,5.4320855 38.4972444,5.440528 32.7654989,5.9419908 32.7654989,5.9419908 32.7131279,5.9465907 32.6601632,5.9513504 32.6066211,5.9563765 32.5525177,5.9617756 32.4978693,5.9676541 32.442692,5.9741186 32.3870022,5.9812755 32.3308159,5.9892315 32.2741494,5.998093 32.2170189,6.0079665 32.1594405,6.0189586 32.1014306,6.0311758 32.0430053,6.0447246 31.9841807,6.0597116 31.9249732,6.0762432 31.8653989,6.094426 31.805474,6.1143666 31.7452148,6.1361713 31.6846374,6.1599468 31.623758,6.1857995 31.5629165,6.213681 31.5033482,6.2430398 31.4451747,6.2737673 31.3883987,6.305808 31.3330231,6.3391062 31.2790506,6.3736062 31.2264841,6.4092525 31.1753264,6.4459894 31.1255803,6.4837612 31.0772486,6.5225124 31.0303341,6.5621873 30.9848397,6.6027302 30.9407682,6.6440856 30.8981223,6.6861977 30.8569049,6.729011 30.817264,6.7723092 30.7794567,6.815713 30.7434325,6.8591497 30.7091326,6.9025551 30.6764982,6.945865 30.6454706,6.9890151 30.615991,7.0319413 30.5880006,7.0745793 30.5614407,7.116865 30.5362525,7.1587341 30.5123773,7.2001225 30.4897562,7.2409658 30.4683305,7.2812 30.4479556,7.3209338 30.4283496,7.3605918 30.4094547,7.4001877 30.3912254,7.4397111 30.3565825,7.5184985 30.324058,7.5968699 30.2932892,7.6747413 30.2639132,7.7520285 30.2355671,7.8286476 30.2078883,7.9045145 30.1790309,7.9837995 30.1790309,7.9837995 30.1610331,8.0331955 30.1427273,8.0831236 30.1240147,8.1335404 30.1047966,8.1844029 30.0849744,8.2356677 30.0644493,8.2872917 30.0431226,8.3392316 30.0208956,8.3914443 29.9976697,8.4438864 29.9733461,8.4965148 29.9478262,8.5492862 29.9210112,8.6021575 29.8928025,8.6550853 29.8631013,8.7080265 29.8318089,8.7609379 29.7988267,8.8137762 29.7640559,8.8664982 29.7273979,8.9190607 29.688754,8.9714204 29.6480254,9.0235342 29.605347,9.0750863 29.5615712,9.1250262 29.5168343,9.1732647 29.4711907,9.2198133 29.4246948,9.2646839 29.3774013,9.307888 29.3293644,9.3494374 29.2806387,9.3893438 29.2312786,9.4276188 29.1813387,9.4642741 29.1308734,9.4993213 29.0799371,9.5327723 29.0285843,9.5646386 28.9768695,9.5949319 28.9248472,9.6236639 28.8727646,9.6507477 28.8210545,9.676033 28.7697741,9.6995874 28.7189702,9.7214845 28.6686897,9.7417975 28.6189793,9.7605998 28.5698859,9.7779648 28.5214563,9.7939659 28.4737373,9.8086764 28.4267756,9.8221698 28.3806182,9.8345195 28.3353118,9.8457987 28.2909032,9.8560809 28.2472498,9.8654777 28.2038688,9.8741514 28.1607317,9.8821543 28.1178369,9.889533 28.0327679,9.9026038 27.948649,9.9137361 27.8654675,9.9233019 27.7832107,9.9316736 27.7018658,9.9392233 27.6214202,9.9463232 27.5793941,9.95 A316.4380589,316.4380589 85 0,1 -27.5793941,9.95 L-27.6214202,9.9463232 -27.6214202,9.9463232 -27.6737912,9.9417233 -27.7267559,9.9369636 -27.7802981,9.9319374 -27.8344014,9.9265384 -27.8890498,9.9206599 -27.9442271,9.9141954 -27.9999169,9.9070385 -28.0561032,9.8990825 -28.1127697,9.890221 -28.1699002,9.8803475 -28.2274786,9.8693554 -28.2854885,9.8571382 -28.3439138,9.8435893 -28.4027384,9.8286024 -28.4619459,9.8120707 -28.5215202,9.7938879 -28.5814451,9.7739474 -28.6417043,9.7521427 -28.7022818,9.7283672 -28.7631612,9.7025145 -28.8240026,9.674633 -28.8835709,9.6452742 -28.9417444,9.6145467 -28.9985204,9.582506 -29.053896,9.5492078 -29.1078685,9.5147078 -29.160435,9.4790615 -29.2115927,9.4423246 -29.2613388,9.4045528 -29.3096705,9.3658016 -29.356585,9.3261267 -29.4020794,9.2855838 -29.446151,9.2442284 -29.4887968,9.2021163 -29.5300142,9.159303 -29.5696551,9.1160048 -29.6074624,9.072601 -29.6434866,9.0291643 -29.6777865,8.9857589 -29.7104209,8.942449 -29.7414485,8.8992989 -29.7709281,8.8563727 -29.7989185,8.8137346 -29.8254784,8.771449 -29.8506666,8.7295799 -29.8745419,8.6881915 -29.8971629,8.6473482 -29.9185886,8.607114 -29.9389635,8.5673801 -29.9585695,8.5277222 -29.9774644,8.4881263 -29.9956937,8.4486029 -30.0303366,8.3698154 -30.0628611,8.2914441 -30.0936299,8.2135727 -30.123006,8.1362855 -30.151352,8.0596664 -30.1790309,7.9837995 -30.2078883,7.9045145 -30.2078883,7.9045145 -30.225886,7.8551185 -30.2441918,7.8051904 -30.2629044,7.7547736 -30.2821225,7.7039111 -30.3019447,7.6526463 -30.3224699,7.6010223 -30.3437965,7.5490823 -30.3660235,7.4968697 -30.3892494,7.4444276 -30.413573,7.3917992 -30.4390929,7.3390278 -30.4659079,7.2861565 -30.4941166,7.2332287 -30.5238178,7.1802875 -30.5551102,7.1273761 -30.5880924,7.0745378 -30.6228632,7.0218158 -30.6595212,6.9692533 -30.6981651,6.9168935 -30.7388937,6.8647797 -30.7815721,6.8132277 -30.8253479,6.7632878 -30.8700848,6.7150493 -30.9157284,6.6685007 -30.9622243,6.6236301 -31.0095179,6.5804259 -31.0575547,6.5388765 -31.1062804,6.4989702 -31.1556405,6.4606952 -31.2055804,6.4240399 -31.2560457,6.3889927 -31.306982,6.3555417 -31.3583348,6.3236754 -31.4100496,6.2933821 -31.4620719,6.2646501 -31.5141545,6.2375663 -31.5658646,6.212281 -31.617145,6.1887265 -31.6679489,6.1668295 -31.7182294,6.1465165 -31.7679398,6.1277142 -31.8170332,6.1103492 -31.8654628,6.0943481 -31.9131818,6.0796376 -31.9601435,6.0661442 -32.0063009,6.0537945 -32.0516073,6.0425153 -32.0960159,6.0322331 -32.1396693,6.0228362 -32.1830503,6.0141626 -32.2261874,6.0061597 -32.2690822,5.998781 -32.3541512,5.9857101 -32.4382701,5.9745779 -32.5214516,5.9650121 -32.6037084,5.9566404 -32.6850533,5.9490907 -32.7654989,5.9419908z" transform="matrix(1,0,0,-1,42.7,11.1541423)" fill="rgb(0,0,0)" shaper:cutDepth="1.9cm" stroke-linecap="round" stroke-linejoin="round" /><path d="M-40.8,-1.75 A40.8,40.8 180 0,1 40.8,-1.75 A0.8,0.8 0 0,1 40,-0.95 L-40,-0.95 A0.8,0.8 90 0,1 -40.8,-1.75z" transform="matrix(1,0,0,-1,42.7,11.1541423)" fill="rgb(126,126,126)" fill-rule="nonzero" shaper:cutDepth="0.5cm" stroke-linecap="round" stroke-linejoin="round" /><path d="M-39.8361072,0.95 L39.8364225,0.95 39.8364225,0.95 39.8801507,0.951196 39.9236656,0.9547715 39.9668712,0.9607075 40.0096715,0.9689851 40.0519707,0.9795854 40.0936727,0.9924894 40.1346817,1.0076783 40.1748218,1.025096 40.2138742,1.044642 40.2517553,1.0662616 40.2883834,1.0899009 40.3236771,1.115506 40.3575547,1.1430229 40.3899346,1.1723977 40.4206924,1.2035307 40.4496479,1.2362351 40.4767399,1.270424 40.5019134,1.3060165 40.5251135,1.342932 40.5462851,1.3810894 40.5653732,1.4204079 40.5823096,1.4607727 40.5969972,1.5019556 40.6094042,1.5438465 40.6195054,1.5863505 40.6272759,1.6293729 40.63269,1.6728111 40.6357185,1.7164462 40.6363582,1.7601379 40.6346122,1.803788 40.6304836,1.8472985 40.6239755,1.8905714 40.6239755,1.8905714 40.6141263,1.9428476 40.6034978,1.9935697 40.5920272,2.042921 40.5796519,2.0910848 40.5663092,2.1382444 40.5519363,2.184583 40.5364706,2.2302841 40.5198492,2.2755307 40.5020013,2.3205099 40.4832324,2.3643848 40.4637258,2.4068363 40.4435118,2.4479717 40.4225955,2.487936 40.4010154,2.5267702 40.3788163,2.5644975 40.3560435,2.6011414 40.3327419,2.6367252 40.3089565,2.6712722 40.2847324,2.7048059 40.2601146,2.7373496 40.2351481,2.7689266 40.209878,2.7995604 40.1843493,2.8292742 40.158607,2.8580915 40.1326963,2.8860356 40.106662,2.9131299 40.0802822,2.9396483 40.0530636,2.9660503 40.0249893,2.9922927 39.9961049,3.0183038 39.9664322,3.0440252 39.9359263,3.0694234 39.9045417,3.0944653 39.8722334,3.1191175 39.8389561,3.1433466 39.8046646,3.1671194 39.7693137,3.1904025 39.7328581,3.2131627 39.6952526,3.2353665 39.6564521,3.2569807 39.6164114,3.2779719 39.5750851,3.2983069 39.5324281,3.3179523 39.4885023,3.33683 39.4442361,3.3545165 39.3995949,3.3710265 39.3543685,3.3864503 39.3083472,3.4008787 39.2613207,3.4144023 39.2130792,3.4271117 39.1634077,3.4390868 39.1120826,3.4503008 39.0589898,3.4607933 39.0040361,3.4706313 38.9471283,3.4798819 38.8881733,3.488612 38.8270778,3.4968886 38.7637486,3.5047788 38.6980926,3.5123496 38.6643629,3.5160362 38.6300166,3.519668 38.595042,3.5232535 38.5594274,3.5268011 38.5231612,3.530319 38.4862317,3.5338158 38.4486274,3.5372997 38.4103365,3.5407791 38.3713474,3.5442625 38.3316485,3.5477581 32.599903,4.0492209 32.599903,4.0492209 32.5795963,4.0509877 32.5586811,4.0527957 32.515052,4.0565766 32.4690705,4.0606471 32.4207913,4.0650904 32.3702691,4.0699901 32.3175586,4.0754295 32.2627146,4.081492 32.2057918,4.088261 32.1468449,4.0958199 32.0859286,4.1042522 32.0230976,4.1136412 31.9584067,4.1240703 31.8919106,4.135623 31.823664,4.1483825 31.7537216,4.1624324 31.6821259,4.177863 31.6454798,4.186205 31.6081551,4.1950241 31.5701734,4.204336 31.5315558,4.2141561 31.492324,4.2244998 31.4524993,4.2353826 31.412103,4.2468199 31.3711567,4.2588271 31.3296817,4.2714199 31.2876995,4.2846135 31.2452314,4.2984234 31.2022989,4.3128652 31.1589234,4.3279542 31.1151263,4.3437059 31.0709291,4.3601358 31.026353,4.3772593 30.9814196,4.3950919 30.9361502,4.413649 30.8905663,4.4329461 30.8446893,4.4529986 30.7985406,4.473822 30.7521416,4.4954317 30.7055137,4.5178433 30.6586784,4.5410721 30.611657,4.5651336 30.5645122,4.5900201 30.5174644,4.6156221 30.4705381,4.6419328 30.4237462,4.6689542 30.3771016,4.6966882 30.3306172,4.7251366 30.2843058,4.7543014 30.2381803,4.7841846 30.1922536,4.8147879 30.1465386,4.8461133 30.1010482,4.8781627 30.0557952,4.9109381 30.0107926,4.9444413 29.9660531,4.9786742 29.9215898,5.0136387 29.8774154,5.0493368 29.8335428,5.0857704 29.789985,5.1229413 29.7467547,5.1608515 29.703865,5.1995029 29.6613286,5.2388973 29.6191584,5.2790368 29.5773674,5.3199231 29.5359684,5.3615583 29.4949742,5.4039441 29.4543978,5.4470826 29.4142521,5.4909757 29.3745498,5.5356251 29.335304,5.5810329 29.2965275,5.627201 29.2583477,5.6739948 29.221169,5.7209125 29.1850114,5.7678812 29.1498643,5.8148634 29.1157172,5.8618221 29.0825597,5.9087199 29.0503813,5.9555197 29.0191716,6.0021841 28.98892,6.0486759 28.9596161,6.0949579 28.9312495,6.1409929 28.9038096,6.1867436 28.877286,6.2321727 28.8516667,6.2772417 28.8269146,6.3218967 28.8030031,6.3661054 28.7799132,6.4098434 28.7576258,6.4530862 28.7361216,6.4958093 28.7153816,6.5379882 28.6953867,6.5795985 28.6761176,6.6206155 28.6575552,6.661015 28.6396805,6.7007723 28.6224742,6.739863 28.6059173,6.7782626 28.5899906,6.8159466 28.574675,6.8528905 28.5599512,6.8890699 28.5458003,6.9244603 28.5322031,6.9590372 28.5191404,6.9927761 28.5065931,7.0256525 28.494542,7.0576419 28.482968,7.0887199 28.4718521,7.1188619 28.461175,7.1480435 28.4509176,7.1762403 28.4410607,7.2034276 28.4315854,7.2295811 28.4224723,7.2546762 28.3936149,7.3339613 28.3936149,7.3339613 28.3801795,7.3707375 28.3673233,7.4056391 28.3550221,7.4387194 28.3432514,7.4700319 28.331987,7.49963 28.3212047,7.5275672 28.31088,7.5538969 28.3009887,7.5786725 28.2915064,7.6019474 28.2824089,7.6237751 28.2736719,7.644209 28.265271,7.6633026 28.2571819,7.6811092 28.2493804,7.6976823 28.2418421,7.7130754 28.2345273,7.7273806 28.2273974,7.7408403 28.2204607,7.7534895 28.2136747,7.7653972 28.206997,7.7766325 28.1937968,7.7973619 28.1805204,7.8162302 28.1668284,7.8337899 28.152381,7.8505934 28.1367828,7.8671913 28.1200882,7.8833229 28.1023418,7.898803 28.0834932,7.9135693 28.063492,7.9275594 28.0422878,7.940711 28.0198302,7.9529617 27.9961447,7.964219 27.9715738,7.9743183 27.9584704,7.9790689 27.94451,7.9836934 27.929459,7.988247 27.9130836,7.9927846 27.8951384,7.9973257 27.8754026,8.0017859 27.8537535,8.0061705 27.8300739,8.0104939 27.8042467,8.0147708 27.7761546,8.0190155 27.7612226,8.0211303 27.7456805,8.0232425 27.7295136,8.0253539 27.7127073,8.0274664 27.6952469,8.0295816 27.6771178,8.0317015 27.6583052,8.0338278 27.6387947,8.0359624 27.6185715,8.038107 27.597621,8.0402635 27.5759285,8.0424337 27.5534795,8.0446194 27.5302592,8.0468224 27.506253,8.0490445 27.4814462,8.0512875 27.4558243,8.0535533 27.4137981,8.0572301 A314.5380589,314.5380589 85 0,1 -27.4137981,8.0572301 L-27.4558243,8.0535533 -27.4558243,8.0535533 -27.4948248,8.0500941 -27.5318645,8.0467091 -27.5670015,8.0433889 -27.6002935,8.0401236 -27.6317985,8.0369036 -27.6615745,8.0337193 -27.6896792,8.030561 -27.7161706,8.0274191 -27.7411067,8.024284 -27.7645452,8.0211459 -27.7865442,8.0179953 -27.8071614,8.0148224 -27.8264549,8.0116176 -27.8444825,8.0083714 -27.8613021,8.0050739 -27.8770131,8.0017109 -27.8918596,7.9983075 -27.9058731,7.994881 -27.9191314,7.9914082 -27.9317121,7.987866 -27.9551517,7.9804807 -27.9768132,7.9725402 -27.9973184,7.9638595 -28.0172885,7.9542535 -28.037358,7.9434826 -28.0572608,7.931532 -28.0768066,7.9183969 -28.095948,7.9040123 -28.1146381,7.8883136 -28.1328297,7.8712358 -28.1504754,7.8527141 -28.1674794,7.8327492 -28.183594,7.8116295 -28.1915741,7.8002021 -28.1996543,7.7879143 -28.2079482,7.7745547 -28.2165695,7.7599117 -28.2256004,7.7437533 -28.2350166,7.7258444 -28.2448549,7.7060678 -28.2551598,7.684314 -28.2659755,7.6604738 -28.2773464,7.6344375 -28.2832538,7.6205617 -28.2893166,7.6060959 -28.2955404,7.5910263 -28.3019307,7.5753394 -28.3084929,7.5590214 -28.3152327,7.5420586 -28.3221556,7.5244375 -28.3292672,7.5061442 -28.3365729,7.4871652 -28.3440783,7.4674867 -28.351789,7.4470951 -28.3597104,7.4259767 -28.3678482,7.4041177 -28.3762078,7.3815046 -28.3847949,7.3581237 -28.3936149,7.3339613 -28.4224723,7.2546762 -28.4224723,7.2546762 -28.4294347,7.2355188 -28.4365943,7.2157841 -28.4515384,7.1746202 -28.4673711,7.131259 -28.4841586,7.0857749 -28.5019674,7.0382423 -28.5208639,6.9887357 -28.5409145,6.9373296 -28.5621856,6.8840983 -28.5847436,6.8291164 -28.6086548,6.7724582 -28.6339858,6.7141982 -28.6608028,6.6544108 -28.6891722,6.5931706 -28.7191605,6.5305518 -28.7508341,6.4666291 -28.7842693,6.4014666 -28.8018116,6.3682283 -28.8199907,6.334458 -28.8388157,6.3001805 -28.8582961,6.2654205 -28.8784413,6.2302026 -28.8992606,6.1945515 -28.9207635,6.1584919 -28.9429593,6.1220485 -28.9658575,6.085246 -28.9894673,6.0481091 -29.0137983,6.0106623 -29.0388597,5.9729305 -29.0646609,5.9349383 -29.0912115,5.8967104 -29.1185206,5.8582715 -29.1465978,5.8196462 -29.1754523,5.7808593 -29.2050937,5.7419354 -29.2355312,5.7028992 -29.2667743,5.6637754 -29.2988324,5.6245886 -29.3317147,5.5853636 -29.3654308,5.5461251 -29.39999,5.5068977 -29.4354016,5.4677061 -29.4716421,5.4286088 -29.5085486,5.3897904 -29.5461082,5.3512728 -29.5843195,5.3130689 -29.623181,5.2751918 -29.6626911,5.2376543 -29.7028485,5.2004693 -29.7436515,5.1636498 -29.7850987,5.1272088 -29.8271887,5.0911591 -29.8699198,5.0555138 -29.9132907,5.0202856 -29.9572998,4.9854877 -30.0019457,4.9511328 -30.0472269,4.917234 -30.0931418,4.8838042 -30.1396889,4.8508562 -30.1868669,4.8184031 -30.2346741,4.7864578 -30.2831092,4.7550332 -30.3321705,4.7241422 -30.3818567,4.6937978 -30.4321662,4.6640129 -30.4830975,4.6348005 -30.5346492,4.6061735 -30.5868197,4.5781448 -30.6396076,4.5507273 -30.6930113,4.523934 -30.7470295,4.4977779 -30.8016605,4.4722718 -30.8567415,4.447504 -30.9116831,4.4237355 -30.9664096,4.4009662 -31.0208878,4.3791766 -31.0750843,4.3583469 -31.1289659,4.3384573 -31.1824993,4.319488 -31.2356514,4.3014193 -31.2883887,4.2842315 -31.3406781,4.2679048 -31.3924863,4.2524195 -31.44378,4.2377557 -31.494526,4.2238939 -31.54469,4.2108122 -31.5942298,4.198461 -31.6431209,4.1868064 -31.6913447,4.1758235 -31.7388824,4.1654876 -31.7857155,4.1557737 -31.8318251,4.1466571 -31.8771925,4.1381129 -31.9217992,4.1301164 -31.9656263,4.1226427 -32.0086553,4.115667 -32.0508673,4.1091644 -32.0922437,4.1031102 -32.1327658,4.0974796 -32.1724149,4.0922476 -32.2111723,4.0873895 -32.2490193,4.0828805 -32.2859372,4.0786957 -32.3219073,4.0748103 -32.356911,4.0711996 -32.3909294,4.0678386 -32.423944,4.0647026 -32.455936,4.0617668 -32.4868867,4.0590062 -32.5167775,4.0563962 -32.5455896,4.0539118 -32.5733043,4.0515283 -32.599903,4.0492209 -38.3316485,3.5477581 -38.3316485,3.5477581 -38.3716654,3.5442446 -38.4109755,3.5407607 -38.4495887,3.5372951 -38.4875148,3.5338363 -38.5247637,3.5303727 -38.5613451,3.5268929 -38.597269,3.5233853 -38.6325452,3.5198386 -38.6671835,3.5162411 -38.7011937,3.5125815 -38.7345858,3.5088483 -38.7673696,3.5050299 -38.8311515,3.4970917 -38.8926181,3.4886751 -38.951819,3.4797262 -39.0087984,3.4702747 -39.0637304,3.4602601 -39.1167962,3.4496156 -39.1681768,3.4382743 -39.2180533,3.4261694 -39.2666066,3.4132341 -39.3140178,3.3994016 -39.360468,3.3846049 -39.4061382,3.3687774 -39.4512094,3.351852 -39.4958627,3.3337621 -39.5401016,3.3144954 -39.5829534,3.2944601 -39.6244014,3.2737344 -39.664572,3.2523362 -39.7035816,3.2302746 -39.7414566,3.2075931 -39.7782213,3.1843359 -39.8139001,3.1605473 -39.8485174,3.1362716 -39.8820974,3.1115532 -39.9146646,3.0864363 -39.9462432,3.0609651 -39.9768576,3.0351841 -40.0065321,3.0091374 -40.0352912,2.9828694 -40.0631591,2.9564243 -40.0901601,2.9298464 -40.1163263,2.9031719 -40.1421252,2.8759388 -40.1677821,2.8478585 -40.1932402,2.818933 -40.2184243,2.7892279 -40.2432898,2.7587298 -40.2678024,2.7273944 -40.2919278,2.6951776 -40.3156317,2.6620351 -40.3388799,2.6279227 -40.3616382,2.5927962 -40.3838723,2.5566113 -40.4055478,2.5193238 -40.4266306,2.4808894 -40.4470864,2.441264 -40.4668809,2.4004032 -40.4859799,2.358263 -40.504349,2.3147989 -40.521822,2.2703081 -40.5380583,2.2256065 -40.5531376,2.1804962 -40.5671453,2.1347657 -40.5801666,2.0882039 -40.5922866,2.0405994 -40.6035906,1.9917409 -40.6141296,1.941405 -40.6238691,1.889396 -40.6238691,1.889396 -40.6302899,1.8462285 -40.6343415,1.8027738 -40.6360237,1.7591624 -40.6353366,1.7155243 -40.6322802,1.6719898 -40.6268544,1.6286891 -40.623253,1.6071672 -40.6190609,1.5857522 -40.6089253,1.543305 -40.5964917,1.5014703 -40.5818048,1.4603712 -40.564909,1.4201304 -40.5458491,1.3808707 -40.5246697,1.342715 -40.5014265,1.3057797 -40.4762001,1.2701666 -40.4490744,1.2359759 -40.4201333,1.2033076 -40.3894606,1.1722617 -40.3571403,1.1429383 -40.3232587,1.1154345 -40.2879207,1.0898253 -40.2512395,1.0661763 -40.2133282,1.0445527 -40.1743,1.0250198 -40.1342682,1.0076431 -40.1139113,0.9997836 -40.0933461,0.9924872 -40.0516532,0.9795995 -40.0093173,0.9690042 -39.9664665,0.9607239 -39.9232291,0.9547813 -39.8797332,0.9511991 -39.8361072,0.95z" transform="matrix(1,0,0,-1,42.7,11.1541423)" fill="rgb(126,126,126)" fill-rule="nonzero" shaper:cutDepth="0.5cm" stroke-linecap="round" stroke-linejoin="round" /></svg>