<?xml version="1.0" encoding="utf-8"?>
<!-- Generator: Fusion 360, Shaper Origin Export Add-In, Version 1.8.0  -->
<svg xmlns="http://www.w3.org/2000/svg" xmlns:xlink="http://www.w3.org/1999/xlink" xmlns:shaper="http://www.shapertools.com/namespaces/shaper" shaper:fusionaddin="version:1.8.0" width="26.5754615cm" height="5.2430563cm" version="1.1" x="0cm" y="0cm" viewBox="0 0 26.5754615 5.2430563" enable-background="new 0 0 26.5754615 5.2430563" xml:space="preserve"><path d="M27.3921066,38.8031059 A40.8,40.8 108 0,0 52.6078934,38.8031059 L53.1950257,40.6101132 A42.7,42.7 72 0,1 26.8049743,40.6101132 L27.3921066,38.8031059z" transform="matrix(1,0,0,-1,-26.7122692,43)" fill="rgb(0,0,0)" stroke-linecap="round" stroke-linejoin="round" /><path d="M27.3921066,38.8031059 A40.8,40.8 108 0,0 52.6078934,38.8031059 L52.2679747,37.7569437 A39.7,39.7 72 0,1 27.7320253,37.7569437 L27.3921066,38.8031059z" transform="matrix(1,0,0,-1,-26.7122692,43)" fill="rgb(0,0,0)" stroke-linecap="round" stroke-linejoin="round" /><path d="M26.8049743,40.6101132 A42.7,42.7 108 0,0 53.1950257,40.6101132 L53.2877308,40.8954302 A43,43 72 0,1 26.7122692,40.8954302 L26.8049743,40.6101132z" transform="matrix(1,0,0,-1,-26.7122692,43)" fill="rgb(0,0,0)" stroke-linecap="round" stroke-linejoin="round" /></svg>