<?xml version="1.0" encoding="utf-8"?>
<!-- Generator: Fusion 360, Shaper Origin Export Add-In, Version 1.8.0  -->
<svg xmlns="http://www.w3.org/2000/svg" xmlns:xlink="http://www.w3.org/1999/xlink" xmlns:shaper="http://www.shapertools.com/namespaces/shaper" shaper:fusionaddin="version:1.8.0" width="94.3850104cm" height="9.95cm" version="1.1" x="0cm" y="0cm" viewBox="0 0 94.3850104 9.95" enable-background="new 0 0 94.3850104 9.95" xml:space="preserve"><path d="M-42.2964013,-4.9076673 L42.2964189,-4.9076673 42.2964189,-4.9076673 42.3114198,-4.9080899 42.3268735,-4.9093316 42.342583,-4.9113534 42.3583514,-4.9141163 42.3739817,-4.9175811 42.3892769,-4.9217089 42.40404,-4.9264605 42.4180741,-4.931797 42.4317716,-4.9379097 42.4455763,-4.9449548 42.4593209,-4.9528209 42.4728378,-4.9613962 42.4859596,-4.9705694 42.4985187,-4.9802288 42.5103476,-4.9902629 42.5212788,-5.0005601 42.531597,-5.0114433 42.5416571,-5.0232312 42.5513467,-5.0357562 42.5605534,-5.0488508 42.569165,-5.0623474 42.5770691,-5.0760783 42.5841532,-5.0898759 42.590305,-5.1035726 42.5956667,-5.1175816 42.6004418,-5.1323273 42.6045909,-5.1476115 42.6080744,-5.1632357 42.6108526,-5.1790017 42.6128861,-5.1947112 42.6141352,-5.2101658 42.6145603,-5.2251673 42.6145603,-5.8576673 43.304514,-5.8576673 43.304514,-5.8576673 43.4240883,-5.8576448 43.5422699,-5.8574875 43.659058,-5.8570605 43.7744518,-5.8562289 43.8884505,-5.8548579 44.0010531,-5.8528126 44.112259,-5.8499582 44.2220672,-5.8461598 44.3304769,-5.8412826 44.4374874,-5.8351917 44.5430977,-5.8277522 44.647307,-5.8188294 44.7501146,-5.8082883 44.8515195,-5.7959942 44.9016957,-5.7891475 44.951521,-5.781812 45.0009952,-5.7739708 45.0501182,-5.7656071 45.09889,-5.7567039 45.1473103,-5.7472445 45.1953833,-5.737211 45.243184,-5.7265692 45.2907322,-5.7152935 45.3380175,-5.7033645 45.3850293,-5.6907629 45.4317569,-5.6774693 45.4781898,-5.6634643 45.5243175,-5.6487285 45.5701293,-5.6332427 45.6156147,-5.6169873 45.6607631,-5.5999431 45.7055638,-5.5820906 45.7500064,-5.5634106 45.7940803,-5.5438836 45.8377748,-5.5234902 45.8810794,-5.5022111 45.9239836,-5.480027 45.9664766,-5.4569184 46.0085481,-5.432866 46.0501873,-5.4078503 46.0913837,-5.3818522 46.1321021,-5.3548683 46.1721099,-5.3270349 46.2113497,-5.2983895 46.2498182,-5.2689353 46.2875125,-5.2386753 46.3244294,-5.2076128 46.3605658,-5.1757509 46.3959188,-5.1430927 46.4304851,-5.1096414 46.4642618,-5.0754001 46.4972457,-5.040372 46.5294338,-5.0045602 46.5608229,-4.9679679 46.5914101,-4.9305983 46.6211922,-4.8924544 46.6501661,-4.8535394 46.6783289,-4.8138565 46.7056762,-4.7734104 46.7320973,-4.73238 46.757532,-4.6908927 46.7819993,-4.6489587 46.8055183,-4.6065883 46.8281077,-4.5637918 46.8497867,-4.5205795 46.8705741,-4.4769616 46.890489,-4.4329485 46.9095504,-4.3885505 46.9277771,-4.3437777 46.9451881,-4.2986406 46.9618025,-4.2531494 46.9776391,-4.2073144 46.992717,-4.1611459 47.0070551,-4.1146541 47.0206724,-4.0678494 47.0335878,-4.0207421 47.0458204,-3.9733423 47.0573962,-3.9256301 47.0683461,-3.8775553 47.0786879,-3.8291172 47.0884389,-3.7803164 47.0976164,-3.7311534 47.1062379,-3.6816287 47.1143208,-3.6317427 47.1218824,-3.581496 47.12894,-3.5308891 47.1416131,-3.4285966 47.1524791,-3.3248692 47.1616769,-3.2197108 47.1693457,-3.1131255 47.1756243,-3.0051172 47.1806518,-2.8956899 47.1845673,-2.7848476 47.1875096,-2.6725944 47.189618,-2.5589341 47.1910312,-2.4438709 47.1918885,-2.3274085 47.1923287,-2.2095512 47.1924908,-2.0903028 47.192514,-1.9696673 47.192514,-1.5426759 47.192514,-1.5426759 47.1924938,-1.4276214 47.1923524,-1.3140228 47.1919686,-1.2018769 47.1912211,-1.0911804 47.1899889,-0.9819298 47.1881506,-0.8741219 47.1855851,-0.7677534 47.1821711,-0.6628208 47.1777875,-0.5593209 47.172313,-0.4572503 47.1656265,-0.3566057 47.1576067,-0.2573837 47.1481324,-0.1595811 47.1370825,-0.0631945 47.1243356,0.0317795 47.1097707,0.1253442 47.1017686,0.1715991 47.0932665,0.217503 47.0842493,0.2630561 47.0747018,0.308259 47.0645978,0.3531597 47.053906,0.3978144 47.0426086,0.4422144 47.0306876,0.4863506 47.0181251,0.5302141 47.0049032,0.5737959 46.9910039,0.6170869 46.9764094,0.6600781 46.9611017,0.7027607 46.945063,0.7451254 46.9282752,0.7871635 46.9107206,0.8288658 46.8923812,0.8702233 46.8732391,0.9112271 46.8532763,0.9518682 46.832475,0.9921374 46.8108173,1.032026 46.7882852,1.0715248 46.7648608,1.1106248 46.7405263,1.1493171 46.7152636,1.1875926 46.689149,1.2253089 46.6622988,1.2622905 46.6347159,1.2985388 46.6064024,1.3340558 46.5773606,1.3688435 46.5475926,1.402904 46.5171007,1.4362392 46.485887,1.4688512 46.4539539,1.5007421 46.4213035,1.5319138 46.387938,1.5623684 46.3538596,1.5921078 46.3190706,1.6211342 46.2835731,1.6494495 46.2473694,1.6770558 46.2104618,1.7039551 46.1728523,1.7301494 46.1345574,1.7556315 46.0957682,1.7802876 46.0565548,1.8040978 46.0169308,1.8270806 45.9769099,1.8492545 45.9365056,1.870638 45.8957315,1.8912495 45.8546014,1.9111077 45.8131288,1.930231 45.7713273,1.948638 45.7292105,1.966347 45.6867921,1.9833768 45.6440857,1.9997457 45.601105,2.0154723 45.5578634,2.0305751 45.5143748,2.0450725 45.4706526,2.0589832 45.4267105,2.0723256 45.3382211,2.0973796 45.248779,2.1204406 45.1578706,2.1417781 45.0654756,2.1615116 44.9715971,2.1797541 44.8762387,2.1966189 44.7794035,2.2122189 44.681095,2.2266672 44.5813164,2.240077 44.4800712,2.2525613 44.3773625,2.2642332 44.2731938,2.2752058 44.1675684,2.2855922 44.0604895,2.2955055 43.9519607,2.3050587 43.841985,2.314365 43.730566,2.3235374 43.617707,2.3326891 A541.473272,541.473272 85.3796045 0,1 -43.6176893,2.3326891 L-43.6176893,2.3326891 -43.7323539,2.3233902 -43.8455591,2.3140653 -43.9572987,2.3045957 -44.0675661,2.2948624 -44.176355,2.2847468 -44.2836588,2.2741298 -44.3894712,2.2628928 -44.4937858,2.2509168 -44.5965961,2.2380831 -44.6978956,2.2242727 -44.797678,2.209367 -44.8959368,2.1932469 -44.9926655,2.1757938 -45.0878579,2.1568888 -45.1815073,2.136413 -45.2736074,2.1142476 -45.3190745,2.1024941 -45.3641518,2.0902738 -45.4088386,2.0775715 -45.453134,2.0643727 -45.4970774,2.0506494 -45.5407308,2.0363637 -45.584085,2.0214984 -45.6271292,2.0060365 -45.6698528,1.9899612 -45.7122452,1.9732556 -45.7542958,1.9559029 -45.7959938,1.9378862 -45.8373287,1.9191886 -45.8782898,1.8997932 -45.9188664,1.8796832 -45.959048,1.8588418 -45.9988238,1.8372519 -46.0381834,1.8148969 -46.0771159,1.7917597 -46.1156107,1.7678236 -46.1536573,1.7430716 -46.191245,1.7174869 -46.2283631,1.6910527 -46.2650011,1.663752 -46.3011481,1.635568 -46.3367064,1.6065563 -46.3714793,1.57687 -46.4054616,1.5465161 -46.4386554,1.5154961 -46.4710628,1.4838117 -46.5026857,1.4514644 -46.5335263,1.4184556 -46.5635865,1.3847868 -46.5928685,1.3504597 -46.6213741,1.3154757 -46.6491054,1.2798363 -46.6760646,1.2435431 -46.7022535,1.2065977 -46.7276743,1.1690014 -46.752329,1.1307558 -46.7762195,1.0918626 -46.799348,1.0523231 -46.8217152,1.0121414 -46.8432346,0.9714907 -46.8638676,0.9304853 -46.8836341,0.8891372 -46.902554,0.8474585 -46.9206471,0.8054611 -46.9379333,0.7631571 -46.9544325,0.7205586 -46.9701646,0.6776775 -46.9851494,0.634526 -46.9994068,0.5911159 -47.0129566,0.5474594 -47.0258188,0.5035685 -47.0380132,0.4594552 -47.0495597,0.4151316 -47.0604781,0.3706097 -47.0707883,0.3259015 -47.0805103,0.281019 -47.0982687,0.1907794 -47.1139443,0.099788 -47.1277714,0.0074893 -47.1398726,-0.0861623 -47.1503628,-0.1811727 -47.1593572,-0.2775479 -47.1669708,-0.3752939 -47.1733186,-0.4744166 -47.1785158,-0.574922 -47.1826774,-0.676816 -47.1859184,-0.7801047 -47.188354,-0.884794 -47.1900992,-0.9908898 -47.191269,-1.0983981 -47.1919786,-1.207325 -47.192343,-1.3176762 -47.1924772,-1.4294579 -47.1924964,-1.5426759 -47.1924964,-1.9696673 -47.1924964,-1.9696673 -47.1924739,-2.0892416 -47.1923166,-2.2074232 -47.1918895,-2.3242113 -47.1910579,-2.4396051 -47.1896869,-2.5536038 -47.1876416,-2.6662064 -47.1847872,-2.7774123 -47.1809889,-2.8872205 -47.1761116,-2.9956302 -47.1700207,-3.1026407 -47.1625813,-3.208251 -47.1536585,-3.3124603 -47.1431174,-3.4152679 -47.1308232,-3.5166728 -47.1239766,-3.5668491 -47.1166411,-3.6166743 -47.1087999,-3.6661485 -47.1004361,-3.7152715 -47.091533,-3.7640433 -47.0820735,-3.8124636 -47.0720401,-3.8605366 -47.0613983,-3.9083373 -47.0501226,-3.9558855 -47.0381936,-4.0031708 -47.025592,-4.0501826 -47.0122983,-4.0969102 -46.9982933,-4.1433432 -46.9835576,-4.1894708 -46.9680717,-4.2352826 -46.9518164,-4.280768 -46.9347721,-4.3259164 -46.9169197,-4.3707172 -46.8982397,-4.4151598 -46.8787126,-4.4592336 -46.8583193,-4.5029281 -46.8370402,-4.5462328 -46.8148561,-4.5891369 -46.7917474,-4.63163 -46.767695,-4.6737014 -46.7426794,-4.7153406 -46.7166812,-4.756537 -46.6896973,-4.7972554 -46.661864,-4.8372633 -46.6332186,-4.876503 -46.6037643,-4.9149715 -46.5735044,-4.9526658 -46.5424419,-4.9895827 -46.5105799,-5.0257192 -46.4779217,-5.0610721 -46.4444704,-5.0956384 -46.4102292,-5.1294151 -46.375201,-5.162399 -46.3393893,-5.1945871 -46.302797,-5.2259762 -46.2654273,-5.2565634 -46.2272834,-5.2863455 -46.1883684,-5.3153195 -46.1486855,-5.3434822 -46.1082394,-5.3708296 -46.0672091,-5.3972506 -46.0257217,-5.4226853 -45.9837877,-5.4471527 -45.9414173,-5.4706716 -45.8986208,-5.493261 -45.8554085,-5.51494 -45.8117907,-5.5357275 -45.7677776,-5.5556424 -45.7233795,-5.5747037 -45.6786068,-5.5929304 -45.6334697,-5.6103414 -45.5879785,-5.6269558 -45.5421435,-5.6427924 -45.495975,-5.6578703 -45.4494832,-5.6722084 -45.4026785,-5.6858257 -45.3555711,-5.6987412 -45.3081714,-5.7109737 -45.2604592,-5.7225495 -45.2123843,-5.7334994 -45.1639463,-5.7438412 -45.1151455,-5.7535922 -45.0659825,-5.7627697 -45.0164577,-5.7713913 -44.9665718,-5.7794741 -44.9163251,-5.7870357 -44.8657182,-5.7940934 -44.7634257,-5.8067664 -44.6596982,-5.8176324 -44.5545399,-5.8268302 -44.4479545,-5.834499 -44.3399462,-5.8407776 -44.230519,-5.8458051 -44.1196767,-5.8497206 -44.0074235,-5.852663 -43.8937632,-5.8547713 -43.7786999,-5.8561845 -43.6622376,-5.8570418 -43.5443803,-5.857482 -43.4251318,-5.8576442 -43.3044964,-5.8576673 -42.6145427,-5.8576673 -42.6145427,-5.2251673 -42.6145427,-5.2251673 -42.6141175,-5.2101658 -42.6128684,-5.1947112 -42.610835,-5.1790017 -42.6080567,-5.1632357 -42.6045733,-5.1476115 -42.6004242,-5.1323273 -42.5956491,-5.1175816 -42.5902874,-5.1035726 -42.5841356,-5.0898759 -42.5770514,-5.0760783 -42.5691474,-5.0623474 -42.5605358,-5.0488508 -42.551329,-5.0357562 -42.5416394,-5.0232312 -42.5315794,-5.0114433 -42.5212611,-5.0005601 -42.5103299,-4.9902629 -42.498501,-4.9802288 -42.4859419,-4.9705694 -42.4728202,-4.9613962 -42.4593032,-4.9528209 -42.4455587,-4.9449548 -42.4317539,-4.9379097 -42.4180565,-4.931797 -42.4040224,-4.9264605 -42.3892593,-4.9217089 -42.3739641,-4.9175811 -42.3583338,-4.9141163 -42.3425654,-4.9113534 -42.3268558,-4.9093316 -42.3114021,-4.9080899 -42.2964013,-4.9076673z" transform="matrix(1,0,0,-1,47.1924964,4.0923327)" fill="rgb(0,0,0)" shaper:cutDepth="1.9cm" stroke-linecap="round" stroke-linejoin="round" /><path d="M23.1749592,-3.873968 A500,500 268.7748809 0,1 44.5421545,-3.8742573 A0.8,0.8 271.2235675 0,1 45.3246374,-3.1007927 A40,40 358.1122695 0,1 45.3231114,-0.4199877 A0.8,0.8 1.9529594 0,1 44.5895708,0.3500224 A540.523272,540.523272 85.2681034 0,1 23.2239548,1.693186 A0.8,0.8 87.5374902 0,1 22.3905824,0.9339156 A40,40 177.1346679 0,1 22.3931146,-3.1151411 A0.8,0.8 182.9369947 0,1 23.1749592,-3.873968z" transform="matrix(1,0,0,-1,47.1924964,4.0923327)" fill="rgb(173,173,173)" fill-rule="nonzero" shaper:cutDepth="1.4cm" stroke-linecap="round" stroke-linejoin="round" /><path d="M-44.5421369,-3.8742573 A500,500 268.7764325 0,1 -23.1749416,-3.873968 A0.8,0.8 271.2251191 0,1 -22.393097,-3.1151411 A40,40 357.0630053 0,1 -22.3905648,0.9339156 A0.8,0.8 2.8653321 0,1 -23.2239371,1.693186 A540.523272,540.523272 92.4625098 0,1 -44.5895531,0.3500224 A0.8,0.8 94.7318966 0,1 -45.3230938,-0.4199877 A40,40 178.0470406 0,1 -45.3246198,-3.1007927 A0.8,0.8 181.8877305 0,1 -44.5421369,-3.8742573z" transform="matrix(1,0,0,-1,47.1924964,4.0923327)" fill="rgb(173,173,173)" fill-rule="nonzero" shaper:cutDepth="1.4cm" stroke-linecap="round" stroke-linejoin="round" /><path d="M1.7851992,-3.8713096 A500,500 268.9790643 0,1 19.5993718,-3.8713733 A0.8,0.8 271.0205261 0,1 20.3840313,-3.1132849 A40,40 357.0060283 0,1 20.3833087,1.0789557 A0.8,0.8 3.0137225 0,1 19.613444,1.8363688 A540.523272,540.523272 87.920508 0,1 1.8012219,2.1893315 A0.8,0.8 89.80907 0,1 0.9998429,1.4346934 A40,40 176.7497717 0,1 1.0007586,-3.1171154 A0.8,0.8 183.2732806 0,1 1.7851992,-3.8713096z" transform="matrix(1,0,0,-1,47.1924964,4.0923327)" fill="rgb(173,173,173)" fill-rule="nonzero" shaper:cutDepth="1.4cm" stroke-linecap="round" stroke-linejoin="round" /><path d="M-19.5993541,-3.8713733 A500,500 268.9794739 0,1 -1.7851816,-3.8713096 A0.8,0.8 271.0209357 0,1 -1.0007409,-3.1171154 A40,40 356.7267194 0,1 -0.9998252,1.4346934 A0.8,0.8 3.2502283 0,1 -1.8012043,2.1893315 A540.523272,540.523272 90.19093 0,1 -19.6134264,1.8363688 A0.8,0.8 92.079492 0,1 -20.3832911,1.0789557 A40,40 176.9862775 0,1 -20.3840137,-3.1132849 A0.8,0.8 182.9939717 0,1 -19.5993541,-3.8713733z" transform="matrix(1,0,0,-1,47.1924964,4.0923327)" fill="rgb(173,173,173)" fill-rule="nonzero" shaper:cutDepth="1.4cm" stroke-linecap="round" stroke-linejoin="round" /></svg>