<?xml version="1.0" encoding="utf-8"?>
<!-- Generator: Fusion 360, Shaper Origin Export Add-In, Version 1.8.0  -->
<svg xmlns="http://www.w3.org/2000/svg" xmlns:xlink="http://www.w3.org/1999/xlink" xmlns:shaper="http://www.shapertools.com/namespaces/shaper" shaper:fusionaddin="version:1.8.0" width="94.3850104cm" height="9.95cm" version="1.1" x="0cm" y="0cm" viewBox="0 0 94.3850104 9.95" enable-background="new 0 0 94.3850104 9.95" xml:space="preserve"><path d="M-42.6925052,5.2704123 L-42.6925052,5.9029123 -44.4925052,5.9029123 A2.7,2.7 90 0,1 -47.1925052,3.2029123 L-47.1925052,0.4931758 A2.7,2.7 180 0,1 -44.7154742,-2.1976019 A541.473272,541.473272 265.2630553 0,1 44.7154742,-2.1976019 A2.7,2.7 274.7369447 0,1 47.1925052,0.4931758 L47.1925052,3.2029123 A2.7,2.7 0 0,1 44.4925052,5.9029123 L42.6925052,5.9029123 42.6925052,5.2704123 A0.3175,0.3175 0 0,0 42.3750052,4.9529123 L-42.3750052,4.9529123 A0.3175,0.3175 270 0,0 -42.6925052,5.2704123z" transform="matrix(1,0,0,-1,47.1925052,5.9029123)" fill="rgb(0,0,0)" shaper:cutDepth="1.9cm" stroke-linecap="round" stroke-linejoin="round" /><path d="M23.1724237,-1.6501543 A540.523272,540.523272 272.4570433 0,1 44.5584538,-0.3073515 A0.8,0.8 274.7285879 0,1 45.2925052,0.4899256 L45.2925052,3.2029123 A0.8,0.8 0 0,1 44.4925052,4.0029123 L23.1381275,4.0029123 A0.8,0.8 90 0,1 22.3381275,3.2029123 L22.3381275,-0.8508897 A0.8,0.8 180 0,1 23.1724237,-1.6501543z" transform="matrix(1,0,0,-1,47.1925052,5.9029123)" fill="rgb(173,173,173)" fill-rule="nonzero" shaper:cutDepth="1.4cm" stroke-linecap="round" stroke-linejoin="round" /><path d="M-19.6672359,-1.7891676 A540.523272,540.523272 267.9148013 0,1 -1.7525939,-2.1442464 A0.8,0.8 269.8142237 0,1 -0.95,-1.3442506 L-0.95,3.2029123 A0.8,0.8 0 0,1 -1.75,4.0029123 L-19.6381275,4.0029123 A0.8,0.8 90 0,1 -20.4381275,3.2029123 L-20.4381275,-0.9896973 A0.8,0.8 180 0,1 -19.6672359,-1.7891676z" transform="matrix(1,0,0,-1,47.1925052,5.9029123)" fill="rgb(173,173,173)" fill-rule="nonzero" shaper:cutDepth="1.4cm" stroke-linecap="round" stroke-linejoin="round" /><path d="M1.7525939,-2.1442464 A540.523272,540.523272 270.1857763 0,1 19.6672359,-1.7891676 A0.8,0.8 272.0851987 0,1 20.4381275,-0.9896973 L20.4381275,3.2029123 A0.8,0.8 0 0,1 19.6381275,4.0029123 L1.75,4.0029123 A0.8,0.8 90 0,1 0.95,3.2029123 L0.95,-1.3442506 A0.8,0.8 180 0,1 1.7525939,-2.1442464z" transform="matrix(1,0,0,-1,47.1925052,5.9029123)" fill="rgb(173,173,173)" fill-rule="nonzero" shaper:cutDepth="1.4cm" stroke-linecap="round" stroke-linejoin="round" /><path d="M-44.5584538,-0.3073515 A540.523272,540.523272 265.2714121 0,1 -23.1724237,-1.6501543 A0.8,0.8 267.5429567 0,1 -22.3381275,-0.8508897 L-22.3381275,3.2029123 A0.8,0.8 0 0,1 -23.1381275,4.0029123 L-44.4925052,4.0029123 A0.8,0.8 90 0,1 -45.2925052,3.2029123 L-45.2925052,0.4899256 A0.8,0.8 180 0,1 -44.5584538,-0.3073515z" transform="matrix(1,0,0,-1,47.1925052,5.9029123)" fill="rgb(173,173,173)" fill-rule="nonzero" shaper:cutDepth="1.4cm" stroke-linecap="round" stroke-linejoin="round" /></svg>