<?xml version="1.0" encoding="utf-8"?>
<!-- Generator: Fusion 360, Shaper Origin Export Add-In, Version 1.6.10  -->
<svg xmlns="http://www.w3.org/2000/svg" xmlns:xlink="http://www.w3.org/1999/xlink" xmlns:shaper="http://www.shapertools.com/namespaces/shaper" shaper:fusionaddin="version:1.6.10" width="3.4189468cm" height="4.8264773cm" version="1.1" x="0cm" y="0cm" viewBox="0 0 3.4189468 4.8264773" enable-background="new 0 0 3.4189468 4.8264773" xml:space="preserve"><path d="M1.1044927,-1.1849477 L1.1044927,-1.1849477 1.1304344,-1.2009916 1.1569867,-1.2160325 1.184101,-1.2300883 1.2117291,-1.2431771 1.2398223,-1.2553167 1.2683323,-1.2665252 1.2972106,-1.2768206 1.3264087,-1.2862207 1.3558781,-1.2947436 1.3855704,-1.3024072 1.415447,-1.309232 1.4455154,-1.3152475 1.4757559,-1.3204725 1.5061432,-1.3249242 1.5366521,-1.3286198 1.5672573,-1.3315764 1.5979336,-1.3338114 1.6286558,-1.3353418 1.6593985,-1.3361849 1.6901367,-1.3363579 1.7208508,-1.335878 1.7515582,-1.334761 1.7822527,-1.3330204 1.812922,-1.3306695 1.8741362,-1.3241897 1.9351028,-1.3154278 1.9957235,-1.30449 2.0559004,-1.2914825 2.0559004,-1.2914825 2.1038931,-1.2795973 2.151527,-1.2666008 2.1988034,-1.2525037 2.2457234,-1.2373169 2.2922884,-1.2210513 2.3384994,-1.2037177 2.3843577,-1.185327 2.4298461,-1.1658983 2.4748657,-1.1454904 2.5194033,-1.1241308 2.5634605,-1.1018404 2.6070391,-1.0786405 2.6501407,-1.0545522 2.6927669,-1.0295967 2.7349195,-1.0037949 2.7766001,-0.9771682 2.7766001,-0.9771682 2.7949446,-1.3140589 2.7949446,-1.3140589 2.7527446,-1.3492246 2.7115401,-1.3835023 2.671314,-1.4169042 2.6320489,-1.4494428 2.5937275,-1.4811302 2.5563328,-1.511979 2.5198473,-1.5420012 2.4842538,-1.5712094 2.4495352,-1.5996157 2.4156741,-1.6272326 2.3826532,-1.6540722 2.3504554,-1.6801471 2.3190634,-1.7054694 2.2884599,-1.7300515 2.2586276,-1.7539057 2.2295494,-1.7770443 2.201208,-1.7994797 2.173586,-1.8212241 2.1466664,-1.84229 2.1204317,-1.8626895 2.0948648,-1.8824351 2.0699484,-1.901539 2.0456653,-1.9200135 2.0219981,-1.9378711 1.9989297,-1.9551239 1.9764428,-1.9717843 1.9545202,-1.9878647 1.9331445,-2.0033774 1.9122986,-2.0183346 1.8919651,-2.0327487 1.8721269,-2.046632 1.8527667,-2.0599968 1.8338711,-2.0728532 1.815427,-2.0852111 1.7974168,-2.0970829 1.779823,-2.108481 1.7458147,-2.1299055 1.7132625,-2.1495837 1.6820264,-2.1676147 1.6519665,-2.1840976 1.622943,-2.1991314 1.594816,-2.2128153 1.5674457,-2.2252482 1.5406923,-2.2365293 1.5144158,-2.2467576 1.4884764,-2.2560323 1.4627342,-2.2644523 1.4370495,-2.2721168 1.4112823,-2.2791249 1.3852927,-2.2855755 1.3852927,-2.2855755 1.3397177,-2.2961548 1.2938689,-2.3056898 1.2477801,-2.3141603 1.201485,-2.321546 1.1550175,-2.3278267 1.1084113,-2.3329823 1.0617003,-2.3369925 1.0149181,-2.339837 0.9680987,-2.3414958 0.9212757,-2.3419486 0.8744829,-2.3411751 0.8277541,-2.3391552 0.7811231,-2.3358686 0.7346238,-2.3312951 0.6882897,-2.3254146 0.6421727,-2.3182093 0.5963764,-2.3096721 0.5509408,-2.2997904 0.5058991,-2.2885508 0.4612842,-2.27594 0.4171291,-2.2619448 0.3734669,-2.2465516 0.3303306,-2.2297471 0.2877532,-2.2115181 0.2457676,-2.1918511 0.204407,-2.1707328 0.1637044,-2.1481498 0.1237235,-2.1241084 0.0847421,-2.0987669 0.0468212,-2.0721757 0.0099642,-2.0443508 -0.0258258,-2.0153085 -0.0605455,-1.9850647 -0.0941918,-1.9536357 -0.1267613,-1.9210376 -0.1582509,-1.8872864 -0.1886574,-1.8523985 -0.2179775,-1.8163897 -0.246208,-1.7792764 -0.2732658,-1.7411924 -0.2990483,-1.7023354 -0.3235774,-1.6627428 -0.3468761,-1.6224507 -0.3689672,-1.5814951 -0.3898736,-1.5399119 -0.4096182,-1.4977374 -0.4282238,-1.4550075 -0.4457133,-1.4117584 -0.4621096,-1.3680259 -0.4774357,-1.3238463 -0.4917134,-1.2792589 -0.5049636,-1.234311 -0.5172112,-1.1890353 -0.5284816,-1.1434633 -0.5388002,-1.0976265 -0.5481923,-1.0515563 -0.5566833,-1.0052844 -0.5642984,-0.9588422 -0.5710631,-0.9122611 -0.5770027,-0.8655727 -0.5821426,-0.8188085 -0.586508,-0.7719999 -0.5901244,-0.7251785 -0.5930171,-0.6783758 -0.5930171,-0.6783758 -0.5955493,-0.6138665 -0.5961345,-0.5493328 -0.5948249,-0.4848125 -0.5916729,-0.4203436 -0.5867307,-0.3559638 -0.5800504,-0.2917111 -0.5716845,-0.2276234 -0.5616851,-0.1637385 -0.5501045,-0.1000944 -0.5369949,-0.0367289 -0.5224087,0.02632 -0.506398,0.0890146 -0.4890151,0.151317 -0.4702886,0.2132752 -0.4502383,0.2749356 -0.4288983,0.3362759 -0.406303,0.3972743 -0.3824866,0.4579085 -0.3574835,0.5181565 -0.331328,0.5779962 -0.3040542,0.6374056 -0.2756965,0.6963625 -0.2462893,0.7548449 -0.2158666,0.8128307 -0.184463,0.8702979 -0.1521125,0.9272243 -0.1188496,0.9835878 -0.0847085,1.0393665 -0.0497234,1.0945381 -0.0139288,1.1490807 0.0226412,1.2029721 0.0599523,1.2561904 0.0599523,1.2561904 0.0934628,1.3028152 0.1278722,1.3486143 0.1631722,1.3935866 0.1993548,1.4377309 0.236412,1.4810464 0.2743356,1.5235319 0.3131176,1.5651863 0.3527499,1.6060086 0.3932244,1.6459977 0.4345331,1.6851526 0.4766678,1.7234722 0.5196206,1.7609555 0.5633832,1.7976013 0.6079477,1.8334087 0.6533059,1.8683765 0.6994499,1.9025037 0.7463037,1.9357424 0.7937571,1.968029 0.8417919,1.9993695 0.8903907,2.0297705 0.9395361,2.0592384 0.9892107,2.0877797 1.0393971,2.1154009 1.0900778,2.1421085 1.1412355,2.167909 1.1928526,2.1928089 1.2449119,2.2168146 1.2973959,2.2399328 1.3502871,2.2621699 1.4035682,2.2835323 1.4572217,2.3040266 1.5112303,2.3236593 1.5112303,2.3236593 1.5512859,2.3389488 1.5918927,2.3526865 1.6329349,2.365086 1.6742965,2.3763607 1.7161841,2.3867947 1.7584572,2.3965908 1.8005186,2.4058498 1.8417714,2.4146723 1.8417714,2.4146723 1.8893584,2.4244296 1.9374018,2.4335436 1.9857665,2.4419931 2.0343173,2.4497567 2.0829192,2.456813 2.1314369,2.4631407 2.1797353,2.4687185 2.2276793,2.4735249 2.2748498,2.4775136 2.3200448,2.4805915 2.3417992,2.4817924 2.3629555,2.4827717 2.3834865,2.4835322 2.4033651,2.4840766 2.4225644,2.4844079 2.4410571,2.4845287 2.4588163,2.484442 2.4758148,2.4841504 2.4920256,2.4836569 2.5074216,2.4829642 2.5219756,2.4820751 2.5356607,2.4809924 2.5356607,2.4809924 2.8228123,2.1335181 2.8228123,2.1335181 2.5603547,1.1620015 2.5603547,1.1620015 2.2287542,1.089685 2.2287542,1.089685 2.2247621,1.1267824 2.2200415,1.1642505 2.2145374,1.2019569 2.2081953,1.2397692 2.2009604,1.2775552 2.192778,1.3151824 2.1835933,1.3525186 2.1733518,1.3894314 2.1619986,1.4257885 2.1494791,1.4614575 2.1357384,1.4963061 2.1206953,1.5302592 2.104118,1.5635034 2.0858905,1.5958802 2.0659237,1.6271673 2.0441284,1.6571425 2.0325172,1.6715686 2.0204154,1.6855833 2.0078118,1.6991588 1.9947139,1.7122496 1.9811968,1.7247556 1.9672665,1.7366569 1.9529189,1.7479442 1.9381503,1.758608 1.9229565,1.7686386 1.9073337,1.7780267 1.891278,1.7867627 1.8747854,1.7948371 1.8578525,1.8022401 1.84061,1.8089137 1.8231691,1.8148309 1.8055416,1.8200111 1.7877397,1.8244734 1.7697751,1.8282369 1.7516599,1.831321 1.7334061,1.8337448 1.7150255,1.8355275 1.6965337,1.8366881 1.6594166,1.8372235 1.6222655,1.8355422 1.585213,1.8318447 1.5483917,1.8263318 1.5119343,1.8192039 1.5119343,1.8192039 1.4821477,1.8115974 1.4524934,1.8028004 1.4228392,1.7940034 1.3930525,1.7863969 1.3930525,1.7863969 1.3652784,1.7763785 1.3378782,1.7656521 1.3108561,1.7542215 1.2842162,1.7420902 1.2579629,1.7292619 1.2321002,1.7157402 1.2066323,1.7015289 1.1815634,1.6866316 1.1568978,1.6710518 1.1326395,1.6547933 1.1087927,1.6378598 1.0853617,1.6202548 1.0623507,1.601982 1.0397637,1.5830451 1.0176227,1.563464 0.99603,1.5433396 0.974998,1.5227011 0.9545223,1.5015628 0.9345988,1.4799392 0.9152232,1.4578446 0.8963912,1.4352935 0.8780986,1.4123004 0.8603411,1.3888796 0.8431145,1.3650457 0.8264145,1.3408129 0.8102368,1.3161958 0.7945773,1.2912088 0.7794315,1.2658663 0.7647954,1.2401827 0.7506646,1.2141725 0.7239325,1.1612976 0.6992161,1.1074155 0.6764587,1.052631 0.6556041,0.9970488 0.6365958,0.9407736 0.6193773,0.8839103 0.6038924,0.8265635 0.5900844,0.7688373 0.5778731,0.7107221 0.5671914,0.6522129 0.5579919,0.5933745 0.5502267,0.5342714 0.5438483,0.4749684 0.5388089,0.4155301 0.535061,0.3560212 0.5325568,0.2965063 0.5312487,0.2370502 0.5312487,0.2370502 0.5322102,0.213281 0.5327249,0.1889484 0.5329576,0.1638139 0.5330733,0.1376832 0.5332191,0.1124313 0.5335236,0.0885565 0.5351286,0.0416178 0.5351286,0.0416178 0.5383254,-0.009065 0.5424037,-0.0590814 0.5473621,-0.1084141 0.5531991,-0.1570456 0.5599133,-0.2049585 0.5675032,-0.2521353 0.5759673,-0.2985587 0.5853043,-0.3442111 0.5955125,-0.3890752 0.6065907,-0.4331334 0.6185372,-0.4763684 0.6313507,-0.5187627 0.6450297,-0.5602989 0.6595728,-0.6009595 0.6749784,-0.640727 0.6912452,-0.6795842 0.7083912,-0.7175544 0.7265874,-0.7549437 0.7458939,-0.7917642 0.7663359,-0.8279492 0.7879387,-0.8634318 0.8107273,-0.8981454 0.8347271,-0.9320232 0.8599632,-0.9649985 0.8864443,-0.996985 0.9140864,-1.027801 0.9428816,-1.057376 0.9728397,-1.0856619 1.0039702,-1.1126102 1.0362827,-1.1381728 1.069787,-1.1623014 1.1044927,-1.1849477z" transform="matrix(1,0,0,-1,0.5961345,2.4845287)" fill="rgb(0,0,0)" shaper:cutDepth="0.00635" stroke-linecap="round" stroke-linejoin="round" /></svg>