<?xml version="1.0" encoding="utf-8"?>
<!-- Generator: Fusion 360, Shaper Origin Export Add-In, Version 1.6.10  -->
<svg xmlns="http://www.w3.org/2000/svg" xmlns:xlink="http://www.w3.org/1999/xlink" xmlns:shaper="http://www.shapertools.com/namespaces/shaper" shaper:fusionaddin="version:1.6.10" width="5.035842cm" height="3.6225649cm" version="1.1" x="0cm" y="0cm" viewBox="0 0 5.035842 3.6225649" enable-background="new 0 0 5.035842 3.6225649" xml:space="preserve"><path d="M-2.1708133,-1.4880072 L-2.1708133,-1.4880072 -2.1996406,-1.2775735 -2.2275983,-1.0670041 -2.2546507,-0.8563045 -2.2807617,-0.6454802 -2.3058955,-0.4345369 -2.3300162,-0.22348 -2.3530878,-0.0123151 -2.3750744,0.1989522 -2.3959408,0.4103233 -2.415652,0.6218016 -2.4341723,0.833384 -2.4514657,1.0450678 -2.4674966,1.25685 -2.4822291,1.4687277 -2.4956276,1.6806981 -2.5076562,1.8927583 -2.5076562,1.8927583 -2.4846148,1.8911799 -2.4607054,1.8895549 -2.4367151,1.8879338 -2.4134311,1.8863671 -2.3916407,1.8849054 -2.3815515,1.8842297 -2.3721309,1.8835991 -2.3550802,1.882458 -2.3391071,1.8813887 -2.3239527,1.8803732 -2.3094456,1.8793994 -2.2816875,1.8775287 -2.254461,1.8756802 -2.2263947,1.8737573 -2.2263947,1.8737573 -2.2185009,1.8477515 -2.2104575,1.8227318 -2.2022169,1.798682 -2.1937316,1.7755856 -2.1849538,1.7534261 -2.1758362,1.7321871 -2.1663309,1.7118522 -2.1563905,1.692405 -2.1459674,1.673829 -2.135014,1.6561078 -2.1234827,1.6392251 -2.1113473,1.6231942 -2.098582,1.6080189 -2.085145,1.5936759 -2.0709946,1.5801421 -2.0560892,1.5673944 -2.0403871,1.5554096 -2.0238465,1.5441646 -2.0065188,1.5336908 -1.9886954,1.5241177 -1.9704535,1.5154029 -1.9518526,1.5074923 -1.9329518,1.5003312 -1.9138103,1.4938655 -1.8944549,1.4880321 -1.8747905,1.4827436 -1.8347866,1.4736574 -1.7944162,1.4663523 -1.75432,1.4605803 -1.75432,1.4605803 -1.7085275,1.4548923 -1.6613402,1.4492328 -1.6129649,1.4436136 -1.5636084,1.438047 -1.462779,1.4271195 -1.3605066,1.4165467 -1.2584456,1.4064251 -1.2080114,1.4015636 -1.1582505,1.396851 -1.1093697,1.3922995 -1.0615758,1.3879211 -0.9669547,1.3794555 -0.8710958,1.3711441 -0.7743168,1.3630144 -0.5793415,1.3474171 -0.384716,1.3328982 -0.2883741,1.3261163 -0.1931273,1.3196918 -0.1931273,1.3196918 0.0036494,1.3069721 0.1990823,1.2941458 0.2957536,1.2878 0.3914396,1.2815563 0.4859237,1.2754577 0.5789894,1.2695471 0.6704204,1.2638673 0.7166349,1.2610563 0.7645288,1.2581952 0.8137694,1.2553181 0.8640242,1.2524591 0.9662463,1.246932 1.068535,1.2418869 1.1188729,1.2396304 1.1682299,1.2375968 1.2162733,1.2358201 1.2626708,1.2343346 1.3070897,1.2331744 1.3284532,1.2327269 1.3491974,1.2323735 1.3633254,1.2323735 1.3633254,1.2323735 1.3872646,1.2327281 1.4102737,1.2335803 1.4323773,1.2349452 1.4536001,1.2368376 1.4739668,1.2392725 1.4935021,1.2422647 1.5122307,1.2458293 1.5301773,1.2499811 1.5473665,1.254735 1.5638824,1.2601277 1.579942,1.2662679 1.5955477,1.2732135 1.6106818,1.2810166 1.6253268,1.2897291 1.639465,1.2994029 1.6530789,1.31009 1.665985,1.3216798 1.678019,1.3339793 1.6892303,1.3469487 1.6996687,1.3605488 1.7093838,1.3747399 1.7184253,1.3894826 1.7268969,1.4048396 1.7349482,1.4210195 1.7426053,1.4380466 1.74989,1.4559383 1.7568243,1.4747119 1.7634299,1.494385 1.769729,1.514975 1.7757432,1.5364993 1.7814946,1.5589753 1.7870051,1.5824204 1.7870051,1.5824204 2.0604807,1.570167 2.0604807,1.570167 2.0674884,1.4078868 2.0752619,1.2456484 2.0837868,1.0834521 2.0930482,0.9212981 2.1030318,0.7591866 2.1137229,0.5971178 2.1251069,0.435092 2.1371692,0.2731092 2.1498948,0.1111739 2.1632689,-0.0507093 2.1772765,-0.212539 2.191903,-0.3743143 2.2229532,-0.6976967 2.2563014,-1.0208471 2.2563014,-1.0208471 2.3918969,-1.2516032 2.5281859,-1.4819451 2.5281859,-1.4819451 1.274511,-1.6545289 1.274511,-1.6545289 1.0300753,-1.2873423 1.0300753,-1.2873423 1.069927,-1.2778277 1.1091977,-1.2666912 1.1478304,-1.2538995 1.185768,-1.2394193 1.2229536,-1.2232174 1.2593301,-1.2052605 1.2948404,-1.1855154 1.3294276,-1.1639486 1.362984,-1.140563 1.3951553,-1.1155696 1.4258628,-1.0890361 1.4550816,-1.0609957 1.4827868,-1.0314815 1.5089536,-1.0005268 1.5335572,-0.9681646 1.5565722,-0.9344287 1.5778604,-0.8995517 1.5973389,-0.863751 1.6150307,-0.8270935 1.6309589,-0.7896461 1.6451463,-0.7514757 1.6576161,-0.7126492 1.6683911,-0.6732336 1.6774939,-0.6332987 1.6849345,-0.5930063 1.6907438,-0.5524584 1.6949631,-0.5117087 1.6976337,-0.4708106 1.6987969,-0.4298176 1.6984937,-0.3887831 1.6967657,-0.3477606 1.6936539,-0.3068037 1.6936539,-0.3068037 1.6798962,-0.1193522 1.6671843,0.0682103 1.6671843,0.0682103 1.579803,0.0776275 1.4909064,0.0871665 1.4008765,0.096781 1.3100954,0.1064248 1.1278079,0.1256144 1.0370657,0.1350675 0.9471006,0.1443643 0.8582947,0.1534585 0.7707618,0.1623307 0.7257471,0.1668536 0.6793909,0.1714802 0.6319659,0.176178 0.583745,0.1809145 0.3883602,0.1995987 0.3402529,0.204042 0.2929869,0.2083294 0.2468351,0.2124283 0.2020702,0.2163064 0.2020702,0.2163064 0.2049981,0.1539765 0.2089201,0.090419 0.2135189,0.0273179 0.2184963,-0.0338603 0.2238952,-0.0953048 0.2296533,-0.1573036 0.2356081,-0.2188899 0.241597,-0.2790974 0.241597,-0.2790974 0.2477486,-0.340195 0.2542279,-0.4019873 0.2681214,-0.5267954 0.2831819,-0.6518006 0.2911199,-0.7138393 0.2993138,-0.7752819 0.3077529,-0.8359226 0.3121746,-0.8666567 0.3168342,-0.8982846 0.321724,-0.9306481 0.3268364,-0.9635888 0.3376984,-1.0305682 0.3493594,-1.0979558 0.3617582,-1.1644845 0.3682153,-1.1970309 0.374834,-1.2288875 0.3816067,-1.2598958 0.3885258,-1.2898976 0.3885258,-1.2898976 -0.2752442,-1.0515144 -0.2752442,-1.0515144 -0.2751558,-1.0232005 -0.2753977,-0.9936572 -0.2759488,-0.963006 -0.2767882,-0.9313683 -0.2778951,-0.8988656 -0.2792484,-0.8656195 -0.2826107,-0.7973825 -0.2867077,-0.7276293 -0.2913719,-0.6573315 -0.2964358,-0.587461 -0.3017671,-0.5185881 -0.3075386,-0.4479373 -0.3137008,-0.3755691 -0.3266878,-0.2296004 -0.3332578,-0.1579595 -0.3365062,-0.1229038 -0.3397089,-0.088521 -0.3428501,-0.0549339 -0.3459138,-0.0222647 -0.3488842,0.0093639 -0.3517451,0.0398295 -0.3517451,0.0398295 -0.3566151,0.0918883 -0.3590056,0.1178804 -0.3614734,0.1449396 -0.3640154,0.1729585 -0.3664899,0.2002678 -0.3714101,0.2541488 -0.3714101,0.2541488 -0.3856131,0.2550325 -0.4008336,0.2559804 -0.417026,0.2569894 -0.4341441,0.2580561 -0.4521423,0.2591772 -0.4709746,0.2603496 -0.4905952,0.26157 -0.5109582,0.262835 -0.5320177,0.2641416 -0.5537279,0.2654863 -0.5989169,0.2682773 -0.6461581,0.2711819 -0.6950848,0.2741743 -0.7453299,0.2772282 -0.7965265,0.2803177 -0.9003066,0.286499 -1.0034897,0.2925098 -1.0539401,0.2953861 -1.1031404,0.2981417 -1.1507238,0.3007504 -1.1979752,0.3032816 -1.2472301,0.3058611 -1.2981345,0.3084564 -1.3502945,0.3110325 -1.4033163,0.3135547 -1.5103692,0.3182974 -1.5636127,0.3204482 -1.6161422,0.3224055 -1.6675638,0.3241344 -1.7174838,0.3256 -1.7655081,0.3267675 -1.7886863,0.3272284 -1.8112429,0.3276018 -1.8331286,0.3278832 -1.8542942,0.3280682 -1.8746905,0.3281526 -1.8942682,0.3281319 -1.8942682,0.3281319 -1.8921554,0.3061829 -1.8901087,0.2849016 -1.8861032,0.2433902 -1.8779154,0.1606015 -1.8779154,0.1606015 -1.8705121,0.0929998 -1.8618709,0.0260953 -1.8519231,-0.0400642 -1.8406001,-0.1054308 -1.8278331,-0.1699564 -1.8135535,-0.2335932 -1.7976926,-0.2962933 -1.7801816,-0.3580086 -1.760952,-0.4186913 -1.739935,-0.4782935 -1.7170619,-0.5367671 -1.692264,-0.5940643 -1.6654726,-0.6501371 -1.651315,-0.6776857 -1.6366701,-0.7048424 -1.621536,-0.731599 -1.6059073,-0.7579537 -1.5897789,-0.7839043 -1.5731458,-0.809449 -1.5560027,-0.8345855 -1.5383444,-0.8593121 -1.5201658,-0.8836265 -1.5014618,-0.9075269 -1.4822272,-0.9310112 -1.4624568,-0.9540775 -1.4421455,-0.9767236 -1.4212882,-0.9989476 -1.3998796,-1.0207475 -1.3779146,-1.0421213 -1.355388,-1.0630669 -1.3322948,-1.0835824 -1.3086994,-1.1036072 -1.2847243,-1.1230451 -1.2603809,-1.1419028 -1.2356786,-1.1601884 -1.2106269,-1.1779102 -1.185235,-1.1950766 -1.1595124,-1.2116957 -1.1334685,-1.2277758 -1.1071127,-1.2433253 -1.0804544,-1.2583524 -1.0262678,-1.2868725 -0.970984,-1.3134022 -0.914678,-1.3380077 -0.8574252,-1.3607553 -0.7993006,-1.3817111 -0.7993006,-1.3817111 -0.7531195,-1.7298066 -0.7531195,-1.7298066 -1.461597,-1.6089373 -2.1708133,-1.4880072z" transform="matrix(1,0,0,-1,2.5076562,1.8927583)" fill="rgb(0,0,0)" shaper:cutDepth="0.00635" stroke-linecap="round" stroke-linejoin="round" /></svg>