<?xml version="1.0" encoding="utf-8"?>
<!-- Generator: Fusion 360, Shaper Origin Export Add-In, Version 1.6.10  -->
<svg xmlns="http://www.w3.org/2000/svg" xmlns:xlink="http://www.w3.org/1999/xlink" xmlns:shaper="http://www.shapertools.com/namespaces/shaper" shaper:fusionaddin="version:1.6.10" width="3.6013823cm" height="4.5379765cm" version="1.1" x="0cm" y="0cm" viewBox="0 0 3.6013823 4.5379765" enable-background="new 0 0 3.6013823 4.5379765" xml:space="preserve"><path d="M-1.8006911,-1.7363121 L-1.8006911,-1.7363121 -1.7991661,-1.6786964 -1.7983703,-1.6496884 -1.7975409,-1.6197992 -1.7966688,-1.5884287 -1.7957647,-1.5556408 -1.7939907,-1.4890231 -1.7939907,-1.4890231 -1.7700432,-1.4855275 -1.7469622,-1.4818445 -1.7247356,-1.4779422 -1.7033513,-1.4737884 -1.6827972,-1.4693512 -1.6630611,-1.4645986 -1.6441309,-1.4594986 -1.6259946,-1.4540192 -1.6086401,-1.4481283 -1.5920551,-1.441794 -1.5762277,-1.4349842 -1.5610922,-1.4276393 -1.5464926,-1.4196316 -1.5324433,-1.4108992 -1.5189704,-1.4013854 -1.5061005,-1.3910338 -1.4938596,-1.3797878 -1.4822809,-1.3675986 -1.4715934,-1.3546822 -1.4618577,-1.3411838 -1.4530187,-1.3271372 -1.4450214,-1.3125761 -1.4378104,-1.2975342 -1.4313289,-1.2820404 -1.4254292,-1.265856 -1.4200387,-1.2488126 -1.4151476,-1.2308783 -1.4107458,-1.2120214 -1.4068237,-1.1922101 -1.4033712,-1.1714129 -1.4003784,-1.1495978 -1.3978356,-1.1267332 -1.3978356,-1.1267332 -1.3941083,-1.0868469 -1.3904695,-1.0457381 -1.3869226,-1.0035882 -1.3834706,-0.9605783 -1.3768647,-0.8727041 -1.3706775,-0.7835656 -1.3649349,-0.694613 -1.3622384,-0.6506596 -1.3596627,-0.6072965 -1.3572111,-0.5647049 -1.3548867,-0.5230662 -1.350486,-0.4405632 -1.3462962,-0.3569896 -1.3423314,-0.2726258 -1.3351373,-0.1026893 -1.3290232,0.066922 -1.3264086,0.1508793 -1.3241088,0.2338837 -1.3241088,0.2338837 -1.3197907,0.4075978 -1.3153411,0.5799004 -1.3131497,0.6650967 -1.3110246,0.7494294 -1.3089988,0.8327282 -1.3071054,0.9148227 -1.3053769,0.9955642 -1.3045628,1.0365307 -1.3037787,1.0787139 -1.3030427,1.1218542 -1.3023729,1.1656921 -1.3013041,1.2544222 -1.3007173,1.3428274 -1.3006499,1.3862593 -1.3007573,1.4288313 -1.3010576,1.4702838 -1.3015689,1.5103572 -1.3023093,1.548792 -1.3032969,1.5853285 -1.3032969,1.5853285 -1.3040031,1.5976755 -1.3040031,1.5976755 -1.3055036,1.6202267 -1.3075342,1.6419674 -1.3101139,1.6629228 -1.3132617,1.683118 -1.3169963,1.7025784 -1.3213369,1.7213291 -1.3263023,1.7393953 -1.3319115,1.7568023 -1.3381833,1.7735753 -1.3451377,1.7897405 -1.352796,1.8053245 -1.3611779,1.8203508 -1.3703032,1.8348426 -1.3801918,1.8488235 -1.3908635,1.8623167 -1.4023379,1.8753457 -1.414633,1.8879322 -1.4277094,1.9000504 -1.4415485,1.9117059 -1.4561577,1.9229295 -1.4715439,1.9337518 -1.4877143,1.9442035 -1.504676,1.9543152 -1.522435,1.964117 -1.5408323,1.9735495 -1.559678,1.9825655 -1.5982861,1.9993828 -1.6374031,2.0146384 -1.6761725,2.0284019 -1.6761725,2.0284019 -1.6761704,2.0415199 -1.6761642,2.0537899 -1.6761385,2.0775344 -1.6761185,2.0898831 -1.6760937,2.1031321 -1.6760637,2.1177185 -1.6760283,2.1340795 -1.6759476,2.1709647 -1.6759116,2.1882628 -1.6758804,2.2047725 -1.6758356,2.2366389 -1.6758194,2.2689883 -1.6758194,2.2689883 -1.5104256,2.2501713 -1.3452359,2.2300729 -1.1802443,2.2086825 -1.0154452,2.1859894 -0.8508327,2.1619831 -0.6864012,2.1366528 -0.5221449,2.1099879 -0.3580582,2.0819779 -0.1942172,2.052627 -0.0306799,2.021939 0.13256,1.9899067 0.295509,1.9565232 0.4581735,1.9217813 0.6205599,1.885674 0.7826746,1.8481942 0.9445242,1.8093348 0.9445242,1.8093348 1.0589811,1.8290274 1.1735689,1.8479432 1.2882831,1.8660748 1.4031194,1.8834158 1.4031194,1.8834158 1.6341825,0.7101172 1.6341825,0.7101172 1.4515821,0.6721764 1.3604383,0.6524605 1.2694242,0.6321563 1.2694242,0.6321563 1.2565501,0.6751429 1.2419245,0.7174764 1.2255962,0.7591272 1.2076141,0.8000654 1.188027,0.840261 1.166884,0.8796843 1.1442339,0.9183054 1.1201255,0.9560945 1.0946078,0.9930217 1.067743,1.029041 1.0396108,1.0640899 1.0102633,1.098144 0.9797513,1.1311805 0.9481257,1.1631766 0.9154374,1.1941094 0.8817372,1.2239561 0.8470761,1.2526937 0.8115048,1.2802996 0.7750743,1.3067507 0.7378354,1.3320243 0.6998223,1.3561078 0.6610512,1.3789966 0.6215646,1.4006673 0.5814058,1.4210965 0.5406179,1.4402604 0.499244,1.4581356 0.4573273,1.4746983 0.4149109,1.4899251 0.372038,1.5037922 0.3287517,1.5162761 0.2850952,1.5273531 0.2411117,1.5369998 0.2411117,1.5369998 0.051359,1.5777001 -0.1388175,1.616372 -0.1388175,1.616372 -0.1448158,1.5376372 -0.1508145,1.4581223 -0.1627383,1.2975229 -0.1744396,1.1361155 -0.1857691,0.9754422 -0.1912477,0.8958626 -0.1965774,0.8170446 -0.2017394,0.7391812 -0.2067153,0.6624648 -0.2115942,0.5853131 -0.216362,0.5075094 -0.2186422,0.4691832 -0.2208202,0.4316786 -0.2229382,0.3940733 -0.2239439,0.3756348 -0.2248902,0.3577048 -0.2248902,0.3577048 -0.1923938,0.3510374 -0.1586867,0.3442762 -0.0901999,0.3308802 -0.0566999,0.324449 -0.0245489,0.3183316 0.0056134,0.3126299 0.0343426,0.3072214 0.0933114,0.29615 0.1538418,0.2847737 0.2767414,0.2613994 0.2767414,0.2613994 0.3416534,0.2489018 0.407244,0.2361118 0.5392911,0.2100125 0.6705425,0.1838176 0.7351385,0.1709081 0.798658,0.1582433 0.8611536,0.1458442 0.9254439,0.1331939 1.057319,0.1078065 1.1224658,0.0956821 1.1543081,0.0898962 1.18546,0.0843456 1.2157689,0.0790686 1.2450826,0.0741034 1.2732486,0.0694884 1.3001146,0.0652618 1.3001146,0.0652618 1.0859878,-0.4374291 1.0859878,-0.4374291 1.0539595,-0.4264672 1.0207473,-0.415595 0.9865214,-0.4048346 0.9514518,-0.3942082 0.879463,-0.3734455 0.8061423,-0.3534839 0.7328515,-0.3345004 0.6966428,-0.3254307 0.6609522,-0.3166719 0.6259499,-0.308246 0.591806,-0.3001753 0.525251,-0.2848417 0.4577498,-0.269796 0.3893652,-0.2550432 0.251242,-0.2266809 0.1821517,-0.2132039 0.1134746,-0.2002843 0.0455347,-0.1879886 -0.0213438,-0.1763828 -0.0213438,-0.1763828 -0.1296893,-0.1578598 -0.2379423,-0.140048 -0.2379423,-0.140048 -0.2382301,-0.1530913 -0.2385372,-0.1669553 -0.2388625,-0.1816031 -0.2392047,-0.1969978 -0.2395625,-0.2131025 -0.2399348,-0.2298801 -0.2407175,-0.2653065 -0.241543,-0.3029817 -0.2424013,-0.34261 -0.2432824,-0.383896 -0.2441763,-0.4265441 -0.245073,-0.4702589 -0.2459627,-0.5147448 -0.247681,-0.6048479 -0.2492514,-0.6944895 -0.2499563,-0.7383984 -0.2505943,-0.7813054 -0.2516579,-0.8645863 -0.2521184,-0.907855 -0.2525195,-0.952402 -0.2528441,-0.9979065 -0.2530747,-1.044048 -0.2531849,-1.1369598 -0.2530299,-1.183089 -0.2527118,-1.228573 -0.2522132,-1.2730911 -0.251517,-1.3163228 -0.2506056,-1.3579476 -0.249462,-1.3976449 -0.2487976,-1.4166705 -0.2480686,-1.435094 -0.247273,-1.4528754 -0.2464084,-1.4699745 -0.2464084,-1.4699745 -0.0774323,-1.4960788 -0.0774323,-1.4960788 -0.0118051,-1.5060708 0.0530579,-1.5152215 0.1171162,-1.5234565 0.1803296,-1.5307012 0.2426576,-1.5368811 0.30406,-1.5419217 0.3644963,-1.5457485 0.4239261,-1.5482868 0.4823091,-1.5494623 0.539605,-1.5492004 0.5957734,-1.5474265 0.6507738,-1.5440661 0.704566,-1.5390448 0.7571096,-1.5322879 0.8083642,-1.523721 0.8582894,-1.5132695 0.9070745,-1.5007929 0.9311483,-1.4937219 0.9549903,-1.4860713 0.9785847,-1.477823 1.001916,-1.4689589 1.0249684,-1.4594609 1.0477263,-1.4493108 1.070174,-1.4384907 1.0922958,-1.4269824 1.114076,-1.4147677 1.135499,-1.4018287 1.1565492,-1.3881471 1.1772074,-1.3737075 1.1973251,-1.3585966 1.2168328,-1.3428666 1.2357357,-1.3265191 1.2540387,-1.3095555 1.271747,-1.2919775 1.2888656,-1.2737867 1.3053995,-1.2549845 1.3213538,-1.2355726 1.3367174,-1.2155743 1.3514097,-1.1951186 1.3654323,-1.1742435 1.3788009,-1.1529695 1.3915312,-1.1313166 1.403639,-1.1093054 1.4151401,-1.086956 1.4260501,-1.0642887 1.4363848,-1.0413239 1.44616,-1.0180819 1.44616,-1.0180819 1.6236702,-1.0630144 1.8006911,-1.1098001 1.8006911,-1.1098001 1.6151361,-2.2689883 1.6151361,-2.2689883 1.5099853,-2.2432745 1.4047273,-2.2181626 1.2993606,-2.1936508 1.1938836,-2.1697372 1.0882946,-2.1464201 0.9825922,-2.1236975 0.8767746,-2.1015676 0.7708404,-2.0800287 0.5586154,-2.0387164 0.3459046,-1.999746 0.1326951,-1.9631027 -0.0810257,-1.9287721 -0.2951358,-1.8967588 -0.5094679,-1.8670678 -0.7240316,-1.8396746 -0.9388373,-1.8145544 -1.1538957,-1.7916827 -1.3692171,-1.7710349 -1.5848121,-1.7525862 -1.8006911,-1.7363121z" transform="matrix(1,0,0,-1,1.8006911,2.2689883)" fill="rgb(0,0,0)" shaper:cutDepth="0.00635" stroke-linecap="round" stroke-linejoin="round" /></svg>