<?xml version="1.0" encoding="utf-8"?>
<!-- Generator: Fusion 360, Shaper Origin Export Add-In, Version 1.6.10  -->
<svg xmlns="http://www.w3.org/2000/svg" xmlns:xlink="http://www.w3.org/1999/xlink" xmlns:shaper="http://www.shapertools.com/namespaces/shaper" shaper:fusionaddin="version:1.6.10" width="3.2976517cm" height="4.8872142cm" version="1.1" x="0cm" y="0cm" viewBox="0 0 3.2976517 4.8872142" enable-background="new 0 0 3.2976517 4.8872142" xml:space="preserve"><path d="M2.2030767,-1.7483515 L2.2030767,-1.7483515 1.8050926,-1.8424929 1.406722,-1.9356192 1.0080319,-2.0274697 0.609089,-2.1177839 0.2097639,-2.2063449 -0.1900919,-2.292937 -0.3902048,-2.3354134 -0.5904333,-2.3773 -0.7907719,-2.4185643 -0.9912149,-2.4591738 -0.9912149,-2.4591738 -0.9862756,-2.1808413 -0.9862756,-2.1808413 -0.9628198,-2.1706962 -0.940186,-2.160431 -0.9183646,-2.1500156 -0.897346,-2.1394202 -0.8771206,-2.128615 -0.8576787,-2.11757 -0.8390108,-2.1062554 -0.8211072,-2.0946412 -0.8039583,-2.0826977 -0.7875545,-2.0703948 -0.7718862,-2.0577027 -0.7569438,-2.0445916 -0.7427306,-2.0310437 -0.7292818,-2.017079 -0.7165845,-2.0026818 -0.7046207,-1.9878322 -0.6933724,-1.9725104 -0.6828219,-1.9566966 -0.6729512,-1.940371 -0.6637424,-1.9235136 -0.6551776,-1.9061046 -0.6472334,-1.8881115 -0.6398683,-1.869447 -0.6330707,-1.8500742 -0.6268332,-1.8299644 -0.6211485,-1.8090891 -0.6160091,-1.7874196 -0.6114077,-1.7649272 -0.6073368,-1.7415833 -0.6037891,-1.7173593 -0.6007571,-1.6922266 -0.5982335,-1.6661565 -0.5982335,-1.6661565 -0.5949443,-1.6207307 -0.5917363,-1.5741477 -0.5886117,-1.5265738 -0.5855725,-1.4781753 -0.5797589,-1.3795705 -0.5743122,-1.2796643 -0.5692489,-1.1797878 -0.5645859,-1.0812719 -0.5624096,-1.0329402 -0.5603397,-0.9854478 -0.5564439,-0.8915929 -0.5527583,-0.7966198 -0.5492944,-0.700767 -0.5430937,-0.5077153 -0.5379646,-0.3150234 -0.5358403,-0.2196203 -0.5340299,-0.1252768 -0.5340299,-0.1252768 -0.5333486,-0.0822585 -0.5326675,-0.038619 -0.5313167,0.0502542 -0.5299994,0.1408051 -0.5287373,0.2324957 -0.5264659,0.4171456 -0.5255002,0.5090292 -0.5246769,0.5999016 -0.5240179,0.6892251 -0.5237564,0.7331951 -0.5236402,0.7557098 -0.5235335,0.7789363 -0.5233576,0.8272972 -0.5232457,0.8778222 -0.5232153,0.9300554 -0.5232834,0.9835414 -0.5237843,1.0924487 -0.5248861,1.2008987 -0.5257055,1.253813 -0.5267267,1.3052461 -0.5279671,1.3547421 -0.5286748,1.3786214 -0.5294438,1.4018455 -0.5294438,1.4018455 -0.5286582,1.4072295 -0.5266577,1.4135077 -0.5247276,1.4211059 -0.52419,1.4255235 -0.5241515,1.4304195 -0.5241515,1.4304195 -0.5258397,1.4556383 -0.5281045,1.4796409 -0.5309525,1.5024638 -0.5343902,1.5241437 -0.5384241,1.5447171 -0.5430608,1.5642206 -0.5483068,1.5826909 -0.5541685,1.6001645 -0.5606607,1.616694 -0.5678081,1.6323312 -0.5756297,1.6471013 -0.5841441,1.6610294 -0.5933701,1.6741406 -0.6033264,1.6864599 -0.6140105,1.6979898 -0.625326,1.7086544 -0.6372446,1.7184834 -0.6497499,1.7275215 -0.6628254,1.735813 -0.6764547,1.7434024 -0.6906575,1.7503508 -0.7055304,1.7567411 -0.7210853,1.7626041 -0.7373285,1.7679678 -0.7542662,1.77286 -0.7719044,1.7773083 -0.7902494,1.7813408 -0.8093074,1.784985 -0.8290844,1.788269 -0.8495868,1.7912205 -0.8708205,1.7938673 -0.8927919,1.7962372 -0.8927919,1.7962372 -0.8930126,1.9274661 -0.8932346,1.9920345 -0.8933616,2.0247109 -0.8934981,2.0586948 -0.8934981,2.0586948 -0.6574125,2.1023271 -0.4214636,2.1467856 -0.1856627,2.1920172 0.0499788,2.2379688 0.2854875,2.284595 0.5208896,2.3318506 0.991328,2.4280404 0.991328,2.4280404 0.9897558,2.3607131 0.9890058,2.3273796 0.9882856,2.2950485 0.9853315,2.1662879 0.9853315,2.1662879 0.9607491,2.1545634 0.9371324,2.1428819 0.9144648,2.1312061 0.89273,2.1194991 0.8719116,2.1077235 0.8519929,2.0958424 0.8329577,2.0838185 0.8147895,2.0716148 0.7974717,2.059194 0.780988,2.0465191 0.7653219,2.033553 0.750457,2.0202585 0.7363767,2.0065984 0.7230878,1.9925598 0.7106092,1.9781549 0.698916,1.9633595 0.6879826,1.9481486 0.6777832,1.9324974 0.6682922,1.9163806 0.6594838,1.8997735 0.6513324,1.882651 0.6438123,1.864988 0.6368851,1.8467252 0.6305089,1.8277698 0.6246691,1.8080862 0.6193519,1.7876398 0.6145434,1.7663964 0.6102295,1.7443213 0.6063964,1.7213803 0.6030302,1.6975389 0.6001169,1.6727626 0.5976425,1.6470169 0.5976425,1.6470169 0.5859822,1.4506084 0.5756822,1.254606 0.5710064,1.157202 0.5666276,1.0604334 0.558605,0.8669538 0.5514245,0.6721129 0.5450423,0.4767448 0.5394147,0.281691 0.5344983,0.0877928 0.5344983,0.0877928 0.5331012,0.0365837 0.5318109,-0.0155046 0.5306248,-0.068364 0.5295402,-0.1218864 0.5276654,-0.2304868 0.5261655,-0.3404401 0.5242065,-0.5609429 0.5237055,-0.669761 0.5235654,-0.7234329 0.5234956,-0.7764692 0.5235564,-0.8805294 0.5236893,-0.9337701 0.5238982,-0.988564 0.524189,-1.0445774 0.5245677,-1.1014762 0.5256127,-1.2165944 0.5270807,-1.3312471 0.5279881,-1.387564 0.5290192,-1.4427627 0.5301798,-1.4965093 0.5314759,-1.5484697 0.5329134,-1.5983101 0.533687,-1.622331 0.5344983,-1.6456966 0.5344983,-1.6456966 0.550114,-1.6446159 0.5662475,-1.6427908 0.5828781,-1.6403275 0.5999852,-1.6373322 0.6176132,-1.6338947 0.6358366,-1.6300903 0.6546865,-1.6260009 0.6741942,-1.6217088 0.6741942,-1.6217088 0.7238893,-1.6101972 0.7746746,-1.5973285 0.8263782,-1.5830323 0.8788283,-1.5672381 0.9318533,-1.5498757 0.9852812,-1.5308746 1.0389403,-1.5101645 1.0926589,-1.487675 1.1462651,-1.4633358 1.1995872,-1.4370766 1.2524534,-1.4088268 1.3046919,-1.3785163 1.3561309,-1.3460745 1.3814906,-1.3290368 1.4064786,-1.3115171 1.4310468,-1.2935364 1.455185,-1.2750913 1.478883,-1.256178 1.5021303,-1.2367929 1.5249168,-1.2169324 1.5472322,-1.196593 1.5690662,-1.1757709 1.5904084,-1.1544625 1.6112486,-1.1326643 1.6315766,-1.1103726 1.651382,-1.0875838 1.6706546,-1.0642942 1.689384,-1.0405003 1.7075601,-1.0161984 1.7251724,-0.9913849 1.7422108,-0.9660561 1.7586193,-0.9402825 1.7743381,-0.9141588 1.7893703,-0.8876886 1.8037188,-0.8608754 1.8173869,-0.8337225 1.8303778,-0.8062333 1.8426945,-0.7784111 1.8543403,-0.7502592 1.8653183,-0.7217812 1.875626,-0.6929966 1.8852372,-0.6640052 1.8941578,-0.6348306 1.9023991,-0.6054811 1.9099727,-0.5759652 1.9168898,-0.5462913 1.923162,-0.5164679 1.9288007,-0.4865035 1.9338171,-0.4564065 1.9382229,-0.4261853 1.9420294,-0.3958485 1.9420294,-0.3958485 2.3064368,-0.3118901 2.3064368,-0.3118901 2.2547461,-1.0298727 2.2030767,-1.7483515z" transform="matrix(1,0,0,-1,0.9912149,2.4280404)" fill="rgb(0,0,0)" shaper:cutDepth="0.00635" stroke-linecap="round" stroke-linejoin="round" /></svg>