<?xml version="1.0" encoding="utf-8"?>
<!-- Generator: Fusion 360, Shaper Origin Export Add-In, Version 1.6.10  -->
<svg xmlns="http://www.w3.org/2000/svg" xmlns:xlink="http://www.w3.org/1999/xlink" xmlns:shaper="http://www.shapertools.com/namespaces/shaper" shaper:fusionaddin="version:1.6.10" width="5.7169205cm" height="4.4466093cm" version="1.1" x="0cm" y="0cm" viewBox="0 0 5.7169205 4.4466093" enable-background="new 0 0 5.7169205 4.4466093" xml:space="preserve"><path d="M-0.3859864,-1.3467161 L-0.3859864,-1.3467161 -0.3863395,-1.0944889 -0.3863395,-1.0944889 -0.3618146,-1.0884455 -0.3381636,-1.0822624 -0.3153806,-1.0759104 -0.2934596,-1.0693604 -0.2723947,-1.0625832 -0.2521799,-1.0555496 -0.2328094,-1.0482303 -0.2142772,-1.0405964 -0.1965773,-1.0326184 -0.1797038,-1.0242673 -0.1636508,-1.0155139 -0.1484021,-1.0063225 -0.1337987,-0.9965532 -0.119816,-0.9861208 -0.1064909,-0.9749755 -0.0938602,-0.9630672 -0.0819607,-0.9503459 -0.0708291,-0.9367617 -0.0605655,-0.9223609 -0.0513656,-0.9074356 -0.0431911,-0.8920307 -0.0359872,-0.8761693 -0.0296991,-0.8598745 -0.0242718,-0.8431695 -0.0196428,-0.8260494 -0.0157321,-0.8083937 -0.0125067,-0.7901868 -0.0099394,-0.7714298 -0.008003,-0.752124 -0.0066701,-0.7322704 -0.0059136,-0.7118704 -0.0057062,-0.690925 -0.0057062,-0.690925 -0.0062139,-0.6397566 -0.0073597,-0.5881841 -0.0090063,-0.5367779 -0.0110292,-0.4858642 -0.0116433,-0.4720316 -0.0123219,-0.4573006 -0.0138199,-0.4260407 -0.0154178,-0.3938803 -0.0170107,-0.3626152 -0.0177723,-0.3478796 -0.0184933,-0.3340411 -0.0191604,-0.3213244 -0.0197605,-0.3099539 -0.0202804,-0.300154 -0.0207071,-0.2921493 -0.0210273,-0.2861641 -0.021228,-0.282423 -0.021228,-0.282423 -0.0253482,-0.20649 -0.029414,-0.1311688 -0.0314867,-0.0926636 -0.033618,-0.0530224 -0.0358319,-0.0118157 -0.0381526,0.0313861 -0.0405464,0.0759399 -0.0429083,0.1198694 -0.0475625,0.2062689 -0.0568577,0.377601 -0.0568577,0.377601 -0.0582534,0.4033565 -0.0595893,0.427995 -0.0608689,0.4515712 -0.0620957,0.4741394 -0.0632734,0.4957544 -0.0644054,0.5164707 -0.0654952,0.5363427 -0.0665465,0.555425 -0.0675628,0.5737723 -0.0685476,0.5914389 -0.070437,0.6249487 -0.072243,0.6563908 -0.073994,0.6862015 -0.0757183,0.7148173 -0.0774443,0.7426745 -0.081015,0.7978584 -0.0829164,0.826058 -0.0849329,0.8552445 -0.0870929,0.8858542 -0.0894248,0.9183235 -0.0999293,1.0545812 -0.1120877,1.1917352 -0.1262029,1.3288022 -0.1340895,1.3970038 -0.1425794,1.4648247 -0.1425794,1.4648247 -0.1486564,1.4506665 -0.1553274,1.4349856 -0.1625776,1.4178194 -0.1703915,1.3992052 -0.1787542,1.3791805 -0.1876504,1.3577825 -0.1970649,1.3350487 -0.2069827,1.3110164 -0.2173885,1.2857229 -0.2282672,1.2592057 -0.2396037,1.2315021 -0.2513827,1.2026494 -0.2635892,1.1726851 -0.2762079,1.1416464 -0.2892237,1.1095707 -0.3026214,1.0764955 -0.3163859,1.0424581 -0.3305021,1.0074958 -0.3449546,0.9716459 -0.3597285,0.934946 -0.3748086,0.8974332 -0.3901796,0.8591451 -0.4058264,0.8201189 -0.4217338,0.780392 -0.4378868,0.7400018 -0.4542701,0.6989856 -0.4876671,0.6152249 -0.5218036,0.5294086 -0.5565582,0.4418358 -0.5918097,0.3528053 -0.6274367,0.2626161 -0.6633242,0.1715515 -0.672518,0.1481867 -0.6819897,0.1241003 -0.6917269,0.0993221 -0.7017175,0.0738819 -0.7119491,0.0478095 -0.7224095,0.0211347 -0.7439672,-0.0339024 -0.7662924,-0.0909908 -0.7892867,-0.149892 -0.8128518,-0.2103673 -0.8368893,-0.272178 -0.8613011,-0.3350855 -0.8859886,-0.3988511 -0.9357979,-0.5280021 -0.9855306,-0.6577219 -1.0101224,-0.7221985 -1.0344001,-0.7861014 -1.0582653,-0.8491919 -1.0816198,-0.9112314 -1.1043652,-0.9719812 -1.1264032,-1.0312026 -1.1476354,-1.0886572 -1.1679636,-1.1441061 -1.1777579,-1.1710038 -1.1872894,-1.1973107 -1.1965457,-1.2229969 -1.2055145,-1.2480325 -1.2141835,-1.2723877 -1.2225405,-1.2960327 -1.2305731,-1.3189377 -1.2382691,-1.3410728 -1.2382691,-1.3410728 -1.3855282,-1.3823306 -1.5325534,-1.4244118 -1.6793648,-1.4672439 -1.8259756,-1.5107529 -1.8259756,-1.5107529 -1.8394958,-1.4703923 -1.853384,-1.4291995 -1.8676192,-1.3872282 -1.8821805,-1.3445321 -1.8970469,-1.3011649 -1.9121974,-1.2571802 -1.9432668,-1.1675734 -1.9752209,-1.0761411 -2.0078919,-0.9833128 -2.0411119,-0.8895182 -2.0747132,-0.7951866 -2.1423881,-0.6066307 -2.1761261,-0.5132654 -2.209574,-0.4210813 -2.2425641,-0.3305078 -2.2749284,-0.2419744 -2.2908235,-0.1986071 -2.3064992,-0.1559108 -2.3376298,-0.0713322 -2.3693881,0.0146657 -2.4017395,0.1019768 -2.4346037,0.1903709 -2.4679003,0.2796177 -2.5354689,0.4597477 -2.6038025,0.6405244 -2.672258,0.8201049 -2.7063306,0.9088707 -2.7401925,0.9966465 -2.7737634,1.083202 -2.8069629,1.1683067 -2.8397107,1.2517304 -2.8719263,1.3332428 -2.8719263,1.3332428 -2.8797503,1.2599072 -2.8873166,1.185485 -2.8946209,1.1101238 -2.9016588,1.0339708 -2.9149179,0.8798792 -2.9270589,0.7243894 -2.9380468,0.5686805 -2.9478464,0.4139316 -2.9522897,0.3372857 -2.9564229,0.261322 -2.9602414,0.1861879 -2.9637417,0.1120182 -2.966932,0.0386782 -2.9698105,-0.033814 -2.9723699,-0.1053288 -2.9746025,-0.1757365 -2.9765008,-0.2449074 -2.9780574,-0.3127117 -2.9792646,-0.3790198 -2.980115,-0.4437021 -2.9806011,-0.5066287 -2.9807153,-0.56767 -2.9804501,-0.6266963 -2.9797979,-0.6835779 -2.9787514,-0.7381852 -2.9780778,-0.7645954 -2.9773029,-0.7903883 -2.9764255,-0.8155479 -2.9754449,-0.8400577 -2.97436,-0.8639018 -2.9731699,-0.8870637 -2.9731699,-0.8870637 -2.9716222,-0.9100606 -2.9695108,-0.9320586 -2.9668344,-0.9530803 -2.9635919,-0.973148 -2.9597819,-0.9922842 -2.9554033,-1.0105113 -2.9504548,-1.0278517 -2.9449352,-1.0443278 -2.9388335,-1.0599854 -2.9320219,-1.0750984 -2.9244254,-1.0897144 -2.9159972,-1.1038012 -2.9066911,-1.1173266 -2.8964605,-1.1302583 -2.885259,-1.1425641 -2.8732267,-1.1540499 -2.8605386,-1.1645904 -2.8472218,-1.1742354 -2.833303,-1.1830347 -2.8188094,-1.1910378 -2.8037565,-1.1982999 -2.7880345,-1.2049218 -2.7716082,-1.2109504 -2.7544762,-1.216415 -2.736637,-1.221345 -2.718089,-1.2257699 -2.6988306,-1.229719 -2.6788604,-1.2332218 -2.6581768,-1.2363075 -2.6367783,-1.2390058 -2.6146633,-1.2413458 -2.5918304,-1.2433571 -2.5918304,-1.2433571 -2.5917541,-1.320295 -2.5916802,-1.3587639 -2.5916604,-1.3683812 -2.5916555,-1.3707855 -2.5916529,-1.3720374 -2.5916489,-1.3739666 -2.5916434,-1.3767133 -2.5916364,-1.3802138 -2.5916281,-1.3844049 -2.5916188,-1.389223 -2.5915977,-1.4004866 -2.5915747,-1.413497 -2.5915511,-1.4277466 -2.5915285,-1.4427278 -2.5914921,-1.4728548 -2.5914812,-1.4869854 -2.5914773,-1.4998173 -2.5914773,-1.4998173 -2.7834008,-1.5209266 -2.9751935,-1.5431595 -3.1668564,-1.5664853 -3.3583909,-1.5908734 -3.5497937,-1.6162926 -3.7410604,-1.6427115 -3.9321908,-1.6700991 -4.1231847,-1.6984244 -4.1231847,-1.6984244 -4.1175414,-1.4317338 -4.1175414,-1.4317338 -4.0933163,-1.4242285 -4.0699126,-1.4164803 -4.0473154,-1.4084638 -4.0255096,-1.4001535 -4.0044804,-1.3915241 -3.9842127,-1.3825503 -3.9646915,-1.3732066 -3.945902,-1.3634677 -3.9278291,-1.3533082 -3.9104578,-1.3427028 -3.8937732,-1.331626 -3.8777603,-1.3200525 -3.8624329,-1.3079791 -3.8478083,-1.2954148 -3.8338659,-1.2823443 -3.8205847,-1.2687523 -3.8079438,-1.2546237 -3.7959225,-1.239943 -3.7844996,-1.2246951 -3.7736545,-1.2088646 -3.7633662,-1.1924363 -3.7536049,-1.1753793 -3.7443221,-1.1576181 -3.7355022,-1.1391238 -3.7271329,-1.1198719 -3.7192015,-1.099838 -3.7116956,-1.0789979 -3.7046027,-1.0573271 -3.6979103,-1.0348012 -3.6916059,-1.011396 -3.6856771,-0.987087 -3.6801112,-0.9618498 -3.6801112,-0.9618498 -3.6630877,-0.8742119 -3.6468767,-0.7855528 -3.631459,-0.6959966 -3.6168151,-0.6056671 -3.6029257,-0.5146881 -3.5897716,-0.4231837 -3.5773332,-0.3312776 -3.5655915,-0.2390939 -3.5545269,-0.1467563 -3.5441201,-0.0543889 -3.5343519,0.0378846 -3.5252029,0.1299402 -3.5166537,0.2216539 -3.508685,0.312902 -3.5012775,0.4035605 -3.4944118,0.4935055 -3.4821804,0.671607 -3.4766863,0.7613049 -3.4715859,0.8515757 -3.4625644,1.0333087 -3.4551126,1.2157517 -3.4492271,1.39785 -3.4468707,1.4884405 -3.4449046,1.5785493 -3.4433284,1.6680448 -3.4421417,1.7567951 -3.4413441,1.8446684 -3.4409352,1.9315328 -3.4409352,1.9315328 -3.4391226,1.9385654 -3.4378219,1.9451355 -3.4364905,1.9575484 -3.4364182,1.9699368 -3.4370553,1.9833894 -3.4370553,1.9833894 -3.4384467,2.0032166 -3.4404555,2.0221963 -3.4430856,2.0403522 -3.4463408,2.0577079 -3.450225,2.0742871 -3.4547422,2.0901133 -3.4598964,2.1052103 -3.4656914,2.1196019 -3.472168,2.1333809 -3.4793748,2.1466133 -3.4873366,2.1593026 -3.4960779,2.1714526 -3.5056237,2.1830669 -3.5159986,2.1941493 -3.5271598,2.2046436 -3.5388969,2.214394 -3.551148,2.2234288 -3.5638633,2.2317886 -3.5769932,2.239514 -3.5904878,2.2466454 -3.6043032,2.253226 -3.6186231,2.2593915 -3.6335587,2.265212 -3.6491149,2.2707036 -3.665297,2.2758829 -3.6821101,2.2807659 -3.6995591,2.2853692 -3.7176493,2.2897089 -3.7363857,2.2938013 -3.7557735,2.2976629 -3.7758177,2.3013097 -3.7965234,2.3047583 -3.7965234,2.3047583 -3.8032261,2.5492246 -3.8032261,2.5492246 -3.5983601,2.5716382 -3.3933785,2.5928751 -3.1882756,2.6129047 -2.9830458,2.6316968 -2.7777068,2.649219 -2.5722752,2.6654395 -2.3667431,2.6803292 -2.1611029,2.6938587 -2.1611029,2.6938587 -2.1529279,2.6641452 -2.1444009,2.633633 -2.1355326,2.6023505 -2.1263335,2.5703263 -2.1168144,2.537589 -2.1069859,2.5041671 -2.0968587,2.4700891 -2.0864434,2.4353835 -2.0757507,2.4000789 -2.0647911,2.3642039 -2.0421144,2.2908565 -2.0184985,2.2155696 -1.9940286,2.1385716 -1.9687901,2.0600907 -1.942868,1.9803552 -1.9163478,1.8995934 -1.8893146,1.8180336 -1.8340503,1.6534331 -1.7777571,1.4883801 -1.7491394,1.4053991 -1.7198408,1.3210662 -1.6899306,1.2356018 -1.659479,1.1492292 -1.6285564,1.0621719 -1.597233,0.9746533 -1.5336653,0.7991263 -1.4693383,0.6244355 -1.4370658,0.5379623 -1.4048144,0.4523685 -1.3726543,0.3678776 -1.340656,0.284713 -1.3088896,0.2030981 -1.2774256,0.1232563 -1.2774256,0.1232563 -1.2402739,0.2109677 -1.2035063,0.2981924 -1.1311399,0.4713386 -1.0603581,0.6430091 -0.9911931,0.813518 -0.9236767,0.9831795 -0.8578409,1.152308 -0.7937176,1.3212175 -0.731334,1.4902404 -0.6707053,1.6601213 -0.6412721,1.7451172 -0.6125944,1.829861 -0.5847983,1.9141357 -0.5580099,1.9977246 -0.5323553,2.0804108 -0.5079606,2.1619774 -0.4849518,2.2422076 -0.463455,2.3208846 -0.453313,2.3595728 -0.4435963,2.3977915 -0.4343206,2.4355133 -0.4255018,2.4727114 -0.4171555,2.5093585 -0.4092976,2.5454276 -0.4019437,2.5808915 -0.3951097,2.6157231 -0.3888113,2.6498953 -0.3830643,2.6833811 -0.3778843,2.7161533 -0.3732873,2.7481849 -0.3732873,2.7481849 -0.1672561,2.7466692 0.0387367,2.7434316 0.2446943,2.7384463 0.4506195,2.7316875 0.6564748,2.7231316 0.8622241,2.7127559 1.0678718,2.7005369 1.273422,2.6864509 1.273422,2.6864509 1.2727158,2.4504507 1.2727158,2.4504507 1.2499826,2.4463132 1.2279041,2.4419485 1.2064852,2.4373339 1.1857309,2.4324469 1.1656461,2.4272651 1.1462357,2.4217658 1.1275047,2.4159265 1.1094581,2.4097248 1.0921007,2.4031381 1.0754375,2.3961438 1.0594735,2.3887195 1.0442024,2.3808365 1.0294473,2.372358 1.0151883,2.363201 1.0014822,2.3533199 0.988386,2.3426694 0.9759564,2.331204 0.9642505,2.3188784 0.9533879,2.3057305 0.9435779,2.2919982 0.9348015,2.2777066 0.9270244,2.2628632 0.9202121,2.2474753 0.9143303,2.2315506 0.9093176,2.2149972 0.9051204,2.1976462 0.9017437,2.1794727 0.8991935,2.1604535 0.8974754,2.1405657 0.8965954,2.1197863 0.8965592,2.0980923 0.8973727,2.0754607 0.8973727,2.0754607 0.8980789,2.0631137 0.8980789,2.0631137 0.9042367,1.9817865 0.9105516,1.8982227 0.9170175,1.8126653 0.9236279,1.7253571 0.9303768,1.636541 0.9372577,1.54646 0.9442644,1.4553569 0.9513908,1.3634747 0.9809667,0.9930129 0.988597,0.9008788 0.9963093,0.809423 1.0040974,0.7188884 1.0119549,0.629518 1.0280581,0.4527745 1.0450994,0.2751829 1.0631268,0.0983551 1.0725187,0.0108116 1.0821673,-0.0758401 1.092076,-0.1613665 1.1022482,-0.2455339 1.1126872,-0.3281088 1.1233966,-0.4088575 1.1343796,-0.4875464 1.1399748,-0.5260455 1.1456397,-0.563942 1.1513747,-0.6012068 1.1571803,-0.6378106 1.1630568,-0.6737243 1.1690048,-0.7089186 1.1690048,-0.7089186 1.1738612,-0.7337614 1.1792008,-0.757584 1.1850309,-0.7804133 1.191359,-0.8022758 1.1981924,-0.8231981 1.2055386,-0.8432069 1.213405,-0.8623289 1.221799,-0.8805908 1.230728,-0.8980191 1.2402016,-0.914644 1.2502825,-0.9305701 1.2610137,-0.9458425 1.2724178,-0.9604706 1.2845174,-0.9744634 1.2973354,-0.9878302 1.3108944,-1.0005801 1.3252171,-1.0127224 1.3403084,-1.0242531 1.3559504,-1.0350301 1.3720413,-1.0450447 1.3885408,-1.0543388 1.4054086,-1.0629543 1.4226044,-1.0709331 1.4400878,-1.0783169 1.4759025,-1.0915113 1.5126817,-1.1028784 1.5499025,-1.1126227 1.5870354,-1.1209463 1.5870354,-1.1209463 1.5937359,-1.3696456 1.5937359,-1.3696456 1.4701075,-1.3632634 1.3464623,-1.3575635 1.2227986,-1.3525411 1.0991148,-1.3481916 0.975409,-1.3445101 0.8516796,-1.341492 0.7279248,-1.3391324 0.604143,-1.3374268 0.4803521,-1.3363705 0.3565709,-1.3359584 0.2327981,-1.3361853 0.1090324,-1.3370457 -0.0147276,-1.3385344 -0.1384832,-1.3406459 -0.2622356,-1.3433749 -0.3859864,-1.3467161z" transform="matrix(1,0,0,-1,4.1231847,2.7481849)" fill="rgb(0,0,0)" shaper:cutDepth="0.00635" stroke-linecap="round" stroke-linejoin="round" /></svg>