<?xml version="1.0" encoding="utf-8"?>
<!-- Generator: Fusion 360, Shaper Origin Export Add-In, Version 1.6.10  -->
<svg xmlns="http://www.w3.org/2000/svg" xmlns:xlink="http://www.w3.org/1999/xlink" xmlns:shaper="http://www.shapertools.com/namespaces/shaper" shaper:fusionaddin="version:1.6.10" width="4.3813354cm" height="4.6048351cm" version="1.1" x="0cm" y="0cm" viewBox="0 0 4.3813354 4.6048351" enable-background="new 0 0 4.3813354 4.6048351" xml:space="preserve"><path d="M1.5168975,-1.9358409 L1.5168975,-1.9358409 1.5113601,-1.9369726 1.5079476,-1.9376498 1.5034784,-1.9385349 1.4837374,-1.9425436 1.4837374,-1.9425436 1.4368709,-1.9510691 1.3898423,-1.9585902 1.3426754,-1.9650957 1.295394,-1.9705743 1.2480217,-1.9750149 1.2005822,-1.9784063 1.1530994,-1.9807371 1.1055969,-1.9819964 1.0580984,-1.9821728 1.0106276,-1.9812552 0.9632084,-1.9792323 0.9158643,-1.976093 0.8686191,-1.971826 0.8214966,-1.9664202 0.7745204,-1.9598643 0.7277143,-1.9521472 0.6811049,-1.9432577 0.6347435,-1.9331849 0.5886692,-1.9219188 0.5429169,-1.9094495 0.4975213,-1.8957671 0.452517,-1.8808615 0.4079388,-1.8647229 0.3638213,-1.8473414 0.3202105,-1.8287116 0.2771862,-1.8088452 0.23479,-1.7877404 0.1930587,-1.7653933 0.1520291,-1.7418001 0.111738,-1.716957 0.0722223,-1.6908602 0.0335188,-1.6635059 0.0335188,-1.6635059 -0.0039664,-1.6343137 -0.0404021,-1.6041349 -0.0757811,-1.572973 -0.1100963,-1.5408317 -0.1433405,-1.5077147 -0.1755065,-1.4736254 -0.2065872,-1.4385677 -0.2365754,-1.4025451 -0.265464,-1.3655612 -0.2932459,-1.3276197 -0.3199138,-1.2887242 -0.3454606,-1.2488783 -0.3698758,-1.2080916 -0.393039,-1.166579 -0.4149081,-1.1244635 -0.4355032,-1.0817671 -0.4548441,-1.038512 -0.472951,-0.9947203 -0.4898439,-0.9504142 -0.5055428,-0.9056157 -0.5200678,-0.8603471 -0.5334341,-0.8146475 -0.5456402,-0.7686312 -0.5567106,-0.7223378 -0.5666739,-0.6757942 -0.5755584,-0.629027 -0.5833928,-0.5820629 -0.5902054,-0.5349284 -0.5960249,-0.4876504 -0.6008796,-0.4402554 -0.604798,-0.3927701 -0.6078087,-0.3452212 -0.6078087,-0.3452212 -0.6091806,-0.3134922 -0.6099994,-0.2815006 -0.6103508,-0.217963 -0.6095466,-0.1543147 -0.6088908,-0.1226071 -0.6081618,-0.0915827 -0.6081618,-0.0915827 -0.6054703,-0.0322606 -0.6013772,0.026963 -0.5959013,0.0860645 -0.5890612,0.1450202 -0.5808758,0.2038063 -0.5713637,0.262399 -0.5605437,0.3207745 -0.5484345,0.3789093 -0.5350549,0.4367794 -0.5204234,0.4943612 -0.5045589,0.551631 -0.4874802,0.6085649 -0.4692058,0.6651392 -0.4497545,0.7213302 -0.4291452,0.7771141 -0.4073964,0.8324674 -0.3845263,0.8873711 -0.3605506,0.9418079 -0.3354848,0.9957595 -0.3093443,1.0492078 -0.2821445,1.1021347 -0.2539008,1.1545221 -0.2246288,1.2063517 -0.1943437,1.2576056 -0.1630611,1.3082654 -0.1307963,1.3583132 -0.0975648,1.4077307 -0.063382,1.4564998 -0.0282633,1.5046023 0.0077758,1.5520202 0.04472,1.5987353 0.0825537,1.6447294 0.0825537,1.6447294 0.1204267,1.6890331 0.1591163,1.7326099 0.1986134,1.7754372 0.238909,1.8174927 0.279994,1.8587541 0.3218591,1.8991989 0.3644953,1.9388048 0.4078935,1.9775494 0.4520445,2.0154103 0.4969393,2.0523651 0.5425687,2.0883914 0.5889236,2.1234669 0.635995,2.1575692 0.6837736,2.1906759 0.7322504,2.2227646 0.7814163,2.2538129 0.8312499,2.2837905 0.8816891,2.3126425 0.9327122,2.3403426 0.9843021,2.3668678 1.0364419,2.3921954 1.0891146,2.4163025 1.1423033,2.439166 1.195991,2.4607631 1.2501609,2.481071 1.3047958,2.5000666 1.359879,2.5177272 1.4153935,2.5340298 1.4713222,2.5489516 1.5276483,2.5624695 1.5843548,2.5745608 1.6414247,2.5852025 1.6414247,2.5852025 1.6599121,2.5883151 1.6645596,2.5891327 1.6684309,2.5898124 1.6745848,2.5908468 1.6745848,2.5908468 1.7233203,2.5982748 1.7721641,2.6047633 1.8210955,2.610289 1.8700938,2.6148288 1.9191384,2.6183592 1.9682088,2.6208571 2.0172842,2.6222992 2.0663441,2.6226623 2.1153678,2.621923 2.1643347,2.620058 2.2132242,2.6170443 2.2620156,2.6128583 2.3106884,2.607477 2.3592219,2.600877 2.4075954,2.5930351 2.4557884,2.5839279 2.5037791,2.5735325 2.5514566,2.5618446 2.5987387,2.5488604 2.6456002,2.5345671 2.692016,2.5189516 2.7379609,2.5020007 2.7834095,2.4837016 2.8283367,2.464041 2.8726993,2.4430148 2.9163426,2.4206799 2.9592212,2.3970511 3.0013166,2.3721313 3.04261,2.3459235 3.0830829,2.3184303 3.1227166,2.2896547 3.1614924,2.2595995 3.1614924,2.2595995 3.1967802,2.2298046 3.231053,2.1990709 3.2643071,2.1674128 3.2965389,2.1348444 3.3277447,2.1013801 3.357921,2.067034 3.387064,2.0318206 3.4151702,1.995754 3.4422359,1.9588485 3.4682574,1.9211184 3.4932311,1.8825779 3.5171534,1.8432413 3.5400206,1.8031229 3.5617903,1.7623128 3.5824007,1.7209621 3.6018634,1.6790974 3.6201911,1.6367427 3.6373965,1.5939221 3.6534925,1.5506597 3.6684917,1.5069796 3.6824069,1.4629059 3.6952508,1.4184626 3.7070314,1.373694 3.7177522,1.3286729 3.7274309,1.2834236 3.7360859,1.2379681 3.7437354,1.1923281 3.7503977,1.1465255 3.7560911,1.1005824 3.760834,1.0545204 3.7646446,1.0083616 3.7675412,0.9621278 3.7675412,0.9621278 3.769166,0.9264675 3.7702163,0.8905358 3.7709845,0.8190836 3.7709757,0.8095656 3.7709412,0.7993852 3.7708083,0.7776789 3.7706132,0.7552471 3.770383,0.7333723 3.7702634,0.7230445 3.7701452,0.713337 3.7700319,0.70441 3.7699268,0.6964239 3.7698335,0.6895388 3.7697553,0.6839153 3.7696956,0.6797135 3.7696577,0.6770937 3.7696577,0.6770937 3.7656109,0.6194996 3.7602719,0.5620727 3.7536545,0.5048296 3.745772,0.4477872 3.736638,0.3909623 3.7262661,0.3343717 3.7146697,0.2780322 3.7018624,0.2219606 3.6878577,0.1661736 3.6726691,0.1106881 3.6563102,0.0555209 3.6387944,0.0006887 3.6201354,-0.0537916 3.6003466,-0.1079033 3.5794415,-0.1616296 3.5574337,-0.2149537 3.5343367,-0.2678587 3.5101706,-0.3203138 3.484959,-0.3722838 3.4587179,-0.4237516 3.4314629,-0.4747004 3.4032102,-0.5251133 3.3739754,-0.5749733 3.3437744,-0.6242635 3.3126233,-0.6729669 3.2805377,-0.7210667 3.2475335,-0.7685459 3.2136267,-0.8153875 3.1788331,-0.8615748 3.1431686,-0.9070907 3.106649,-0.9519182 3.0692902,-0.9960406 3.0311081,-1.0394409 2.9921185,-1.082102 2.9523373,-1.1240072 2.9117804,-1.1651395 2.8704601,-1.2054853 2.8283748,-1.2450435 2.7855371,-1.2837979 2.7419624,-1.3217296 2.6976656,-1.3588199 2.6526621,-1.3950502 2.606967,-1.4304017 2.5605953,-1.4648556 2.5135624,-1.4983933 2.4658833,-1.5309961 2.4175732,-1.5626451 2.3686473,-1.5933218 2.3191207,-1.6230073 2.2690086,-1.651683 2.2183318,-1.679327 2.1671203,-1.7059131 2.1153912,-1.7314227 2.0631609,-1.755838 2.0104458,-1.779141 1.9572623,-1.8013135 1.9036268,-1.8223377 1.8495556,-1.8421956 1.7950651,-1.860869 1.7401718,-1.8783401 1.684892,-1.8945909 1.6292421,-1.9096033 1.5732384,-1.9233593 1.5168975,-1.9358409z" transform="matrix(1,0,0,-1,0.6103508,2.6226623)" fill="rgb(0,0,0)" shaper:cutDepth="0.00635" stroke-linecap="round" stroke-linejoin="round" /><path d="M2.6065929,0.6065396 L2.6065929,0.6065396 2.5969827,0.6490454 2.5869182,0.6910317 2.5764058,0.732492 2.5654524,0.7734198 2.5540643,0.8138088 2.5422484,0.8536525 2.5300111,0.8929444 2.5173591,0.9316782 2.5042991,0.9698474 2.4908376,1.0074457 2.4769812,1.0444665 2.4627366,1.0809034 2.4481104,1.11675 2.4331092,1.1519999 2.4177395,1.1866467 2.4020081,1.2206839 2.3859216,1.2541051 2.3694865,1.2869039 2.3527094,1.3190738 2.3355971,1.3506085 2.318156,1.3815014 2.3003929,1.4117462 2.2823142,1.4413364 2.2639267,1.4702657 2.245237,1.4985275 2.2262511,1.5261162 2.2069753,1.5530258 2.1874161,1.57925 2.16758,1.6047822 2.1474736,1.629616 2.1271034,1.6537449 2.1064758,1.6771626 2.0855976,1.6998625 2.064475,1.7218381 2.0431148,1.7430832 2.0215235,1.7635911 1.9997075,1.7833555 1.9776734,1.80237 1.9554277,1.8206279 1.9329769,1.838123 1.9103277,1.8548487 1.8874784,1.8708041 1.8642926,1.8860733 1.8407233,1.9006643 1.8167759,1.9145477 1.792456,1.927694 1.7677691,1.9400735 1.7427207,1.9516568 1.7173162,1.9624143 1.6915611,1.9723165 1.665461,1.9813339 1.6390212,1.989437 1.6122474,1.9965961 1.5852126,2.0027669 1.5580182,2.0079092 1.5306733,2.0120104 1.5031867,2.0150578 1.4755666,2.0170389 1.4478427,2.0179408 1.4201563,2.0177569 1.3925389,2.0164941 1.3649984,2.0141604 1.3375427,2.010764 1.3101795,2.006313 1.3101795,2.006313 1.2952624,2.0035453 1.2908629,2.0027243 1.285113,2.0016514 1.2703169,1.9989052 1.2703169,1.9989052 1.2321583,1.9882385 1.1948461,1.9755811 1.1583976,1.9609642 1.1228305,1.9444188 1.0881621,1.925976 1.0544101,1.9056669 1.0215919,1.8835225 0.9898383,1.8596652 0.9593721,1.8343343 0.9301841,1.8076174 0.9022588,1.7795974 0.8755807,1.7503573 0.8501344,1.7199803 0.8259043,1.6885492 0.8028751,1.6561471 0.7810312,1.622857 0.7810312,1.622857 0.7631996,1.5931589 0.7462251,1.5629531 0.7300922,1.5322717 0.714785,1.5011464 0.700288,1.4696092 0.6865856,1.437692 0.6736619,1.4054266 0.6615015,1.372845 0.6500885,1.3399789 0.6394075,1.3068604 0.6294426,1.2735212 0.6201783,1.2399933 0.6115989,1.2063086 0.6036884,1.1724976 0.5964147,1.1385193 0.5897562,1.1043537 0.5837017,1.0700179 0.57824,1.035529 0.56905,0.9661605 0.5620965,0.8963855 0.5572894,0.8263414 0.5545391,0.7561652 0.5537556,0.6859942 0.5548492,0.6159657 0.55773,0.546217 0.55773,0.546217 0.5609799,0.4940488 0.5648963,0.4420194 0.569575,0.3900572 0.575112,0.3380912 0.5815721,0.2862812 0.58901,0.2347382 0.5975004,0.1833666 0.6071181,0.1320705 0.6071181,0.1320705 0.6158442,0.0897994 0.6250662,0.048043 0.634777,0.0068084 0.6449696,-0.0338978 0.655637,-0.0740686 0.6667724,-0.1136972 0.6783686,-0.1527767 0.6904188,-0.1913003 0.7029159,-0.2292612 0.715853,-0.2666526 0.729223,-0.3034674 0.7430192,-0.3396991 0.7572344,-0.3753406 0.7718616,-0.4103852 0.786894,-0.4448259 0.8023245,-0.478656 0.8181462,-0.5118686 0.834352,-0.5444569 0.8509351,-0.5764141 0.8678884,-0.6077331 0.8852049,-0.6384074 0.9028777,-0.6684299 0.9208999,-0.6977939 0.9392643,-0.7264924 0.9579586,-0.7545125 0.9769724,-0.7818442 0.9962995,-0.8084819 1.0159337,-0.83442 1.0358687,-0.8596529 1.0560982,-0.8841749 1.076616,-0.9079805 1.0974158,-0.9310641 1.1184913,-0.9534202 1.1398364,-0.975043 1.1614446,-0.995927 1.1833098,-1.0160666 1.2054257,-1.0354562 1.227786,-1.0540903 1.2503844,-1.0719631 1.2732148,-1.0890692 1.2962874,-1.1054141 1.3197268,-1.1210722 1.3435554,-1.1360368 1.3677679,-1.1502811 1.3923592,-1.1637785 1.4173239,-1.1765023 1.4426569,-1.1884259 1.4683528,-1.1995226 1.4944065,-1.2097658 1.5208126,-1.2191288 1.547566,-1.2275849 1.5746614,-1.2351075 1.6020679,-1.2416639 1.6296485,-1.2472046 1.6573763,-1.2517158 1.6852427,-1.2551888 1.713239,-1.2576148 1.7413564,-1.2589852 1.7695273,-1.2592915 1.7976304,-1.258537 1.8256549,-1.2567324 1.8535925,-1.2538886 1.8814351,-1.2500163 1.9091747,-1.2451265 1.9091747,-1.2451265 1.9490374,-1.2373656 1.9490374,-1.2373656 1.9907583,-1.2259186 2.0317739,-1.2127118 2.0720285,-1.1977127 2.1114662,-1.1808887 2.1500312,-1.1622075 2.1876678,-1.1416367 2.2243202,-1.1191437 2.2599324,-1.0946961 2.294275,-1.0684 2.3271327,-1.0404078 2.3584915,-1.0107421 2.3883372,-0.9794256 2.4165402,-0.9466228 2.4430175,-0.9124968 2.4677915,-0.8771049 2.4908848,-0.8405043 2.4908848,-0.8405043 2.5064947,-0.8147427 2.521327,-0.7885358 2.5353969,-0.7619111 2.54872,-0.7348958 2.5613115,-0.7075173 2.5731871,-0.6798027 2.5843621,-0.6517793 2.5948519,-0.6234746 2.6046719,-0.5949157 2.6138376,-0.56613 2.6223644,-0.5371447 2.6302677,-0.5079871 2.637563,-0.4786845 2.6442686,-0.4492521 2.6560145,-0.3898762 2.6656252,-0.3299001 2.6731949,-0.2694506 2.6788177,-0.2086545 2.6825878,-0.1476385 2.6845996,-0.0865294 2.684947,-0.0254542 2.6837244,0.0354605 2.6810259,0.0960878 2.6810259,0.0960878 2.676923,0.1605112 2.6713495,0.2248697 2.6643019,0.2890867 2.6557766,0.3530863 2.645759,0.4168629 2.6342311,0.4804017 2.6211801,0.5436462 2.6065929,0.6065396z" transform="matrix(1,0,0,-1,0.6103508,2.6226623)" fill="rgb(255,255,255)" stroke="rgb(0,0,0)" stroke-width="0.0010cm" stroke-linecap="round" stroke-linejoin="round" shaper:cutDepth="0.00635" /></svg>