<?xml version="1.0" encoding="utf-8"?>
<!-- Generator: Fusion 360, Shaper Origin Export Add-In, Version 1.6.10  -->
<svg xmlns="http://www.w3.org/2000/svg" xmlns:xlink="http://www.w3.org/1999/xlink" xmlns:shaper="http://www.shapertools.com/namespaces/shaper" shaper:fusionaddin="version:1.6.10" width="8.5281088cm" height="7.1394345cm" version="1.1" x="0cm" y="0cm" viewBox="0 0 8.5281088 7.1394345" enable-background="new 0 0 8.5281088 7.1394345" xml:space="preserve"><path d="M1.13714,-3.5684884 L1.13714,-3.5684884 1.1251132,-3.5099316 1.1127884,-3.4505649 1.1001803,-3.3904415 1.0873039,-3.3296143 1.0741738,-3.2681363 1.0608051,-3.2060606 1.0334104,-3.0803278 1.0052386,-2.9528399 0.9764079,-2.8240211 0.947037,-2.6942952 0.9172443,-2.5640864 0.8568677,-2.3039158 0.8265209,-2.1748021 0.7962263,-2.0469016 0.7661025,-1.9206381 0.7362681,-1.7964358 0.7214964,-1.7352401 0.7068415,-1.6747186 0.6923181,-1.6149245 0.6778978,-1.5557327 0.6486668,-1.4362796 0.6188752,-1.3152475 0.5885872,-1.192917 0.5578676,-1.0695689 0.4953909,-0.8209431 0.4319611,-0.5716164 0.40005,-0.4473921 0.3680941,-0.3238348 0.3361578,-0.2012254 0.3043057,-0.0798446 0.2726023,0.0400268 0.241112,0.158108 0.2098993,0.2741184 0.1944172,0.3312592 0.1790287,0.387777 0.1790287,0.387777 0.1639027,0.3424376 0.1484574,0.2961853 0.132706,0.249055 0.1166616,0.2010817 0.1003375,0.1523002 0.0837467,0.1027455 0.0669025,0.0524525 0.049818,0.0014561 0.0325064,-0.0502087 0.0149808,-0.102507 -0.0206595,-0.2088646 -0.0569976,-0.3173373 -0.0939283,-0.4276457 -0.1313461,-0.5395104 -0.1691457,-0.6526521 -0.2072218,-0.7667914 -0.2454691,-0.8816489 -0.3220559,-1.1124012 -0.3980635,-1.3426739 -0.4355867,-1.4569321 -0.4726874,-1.5703491 -0.4915949,-1.6283325 -0.5110225,-1.6880465 -0.5309236,-1.7493675 -0.5512516,-1.8121718 -0.5719599,-1.8763358 -0.5930021,-1.9417357 -0.6143314,-2.0082479 -0.6359015,-2.0757486 -0.6576656,-2.1441143 -0.6795772,-2.2132213 -0.7236568,-2.3531641 -0.8115372,-2.6365029 -0.854593,-2.7779199 -0.8965625,-2.9178494 -0.9170235,-2.9869471 -0.9370731,-3.055302 -0.9566649,-3.1227902 -0.9757523,-3.1892882 -0.9942888,-3.2546723 -1.0122276,-3.3188187 -1.0295224,-3.3816038 -1.0461265,-3.442904 -1.0461265,-3.442904 -1.2133767,-3.4239908 -1.3804472,-3.4037212 -1.547346,-3.3820839 -1.714081,-3.3590681 -1.8806174,-3.3346691 -2.0469229,-3.3088834 -2.2130058,-3.281702 -2.3788747,-3.2531159 -2.3788747,-3.2531159 -2.3916384,-3.1764334 -2.4048579,-3.0983305 -2.4185116,-3.0188955 -2.4325777,-2.9382167 -2.4470344,-2.8563826 -2.46186,-2.7734815 -2.4770328,-2.6896018 -2.4925311,-2.6048317 -2.508333,-2.5192597 -2.5244169,-2.4329742 -2.5573436,-2.2586158 -2.5911373,-2.0824634 -2.6256241,-1.9052238 -2.6959815,-1.5503107 -2.7315042,-1.3740508 -2.7670245,-1.1995312 -2.7847293,-1.1131449 -2.8023683,-1.0274587 -2.8199198,-0.942561 -2.8373619,-0.8585402 -2.854673,-0.7754846 -2.8718313,-0.6934825 -2.8888151,-0.6126224 -2.9056026,-0.5329926 -2.9389142,-0.3758374 -2.9559514,-0.295888 -2.9732757,-0.2148794 -2.990867,-0.1329145 -3.0087054,-0.0500959 -3.0267708,0.0334736 -3.0450431,0.1176913 -3.0821287,0.2876603 -3.119802,0.458989 -3.1962707,0.802438 -3.2347458,0.9729144 -3.2731678,1.1414627 -3.2923088,1.224757 -3.3113765,1.3072611 -3.3303508,1.3888721 -3.3492117,1.4694875 -3.3679392,1.5490044 -3.3865133,1.6273201 -3.4049139,1.7043318 -3.423121,1.7799368 -3.4411146,1.8540324 -3.4588746,1.9265158 -3.4763811,1.9972842 -3.493614,2.066235 -3.493614,2.066235 -3.5013501,2.0971668 -3.5092323,2.1275086 -3.5254236,2.1864494 -3.5421647,2.2431115 -3.5594322,2.2975491 -3.5772027,2.3498163 -3.5954529,2.3999673 -3.6141595,2.4480563 -3.6332991,2.4941374 -3.6528485,2.5382649 -3.6727842,2.580493 -3.6930829,2.6208756 -3.7137214,2.6594672 -3.7346762,2.6963218 -3.7559241,2.7314935 -3.7774416,2.7650367 -3.7992056,2.7970053 -3.8212057,2.8274714 -3.8437948,2.8569584 -3.8671585,2.8856816 -3.891324,2.9136308 -3.9163182,2.940796 -3.9421683,2.9671673 -3.9689012,2.9927344 -3.9965441,3.0174874 -4.025124,3.0414162 -4.0544375,3.0643473 -4.0842428,3.0861274 -4.1146033,3.1068478 -4.1455836,3.1266006 -4.1772482,3.1454779 -4.2096616,3.1635717 -4.2428882,3.1809743 -4.2428882,3.1809743 -4.2640544,3.5700747 -4.2640544,3.5700747 -4.0914013,3.5203574 -3.9183705,3.4722338 -3.7449545,3.4256978 -3.5711459,3.3807436 -3.3969373,3.3373653 -3.2223213,3.2955568 -3.0472904,3.2553123 -2.8718373,3.2166258 -2.6960309,3.1795072 -2.5199668,3.1439686 -2.343639,3.1099996 -2.1670405,3.0775891 -1.9901647,3.0467265 -1.8130045,3.0174009 -1.6355534,2.9896015 -1.4578043,2.9633175 -1.4578043,2.9633175 -1.4376964,2.5893858 -1.4376964,2.5893858 -1.4624472,2.5875974 -1.4873136,2.5850829 -1.5121977,2.5817741 -1.5370011,2.5776031 -1.5616258,2.5725019 -1.5859734,2.5664025 -1.6099459,2.5592369 -1.6334451,2.550937 -1.6563727,2.5414348 -1.6785805,2.5306912 -1.6999258,2.5186869 -1.7203491,2.5053688 -1.7397913,2.4906836 -1.7581933,2.4745783 -1.7754925,2.4570036 -1.7913862,2.4382213 -1.8057494,2.4184456 -1.8186375,2.3977201 -1.8301061,2.376088 -1.8402105,2.3535931 -1.8489601,2.3304116 -1.8563878,2.3067536 -1.8625831,2.2827166 -1.8676357,2.2583983 -1.8716351,2.2338965 -1.8746715,2.2093029 -1.8768451,2.1845419 -1.8782323,2.1596172 -1.8788993,2.1346089 -1.8789125,2.1095972 -1.877242,2.0598844 -1.877242,2.0598844 -1.8759493,2.0364055 -1.8737099,2.0114123 -1.8719758,1.9984384 -1.8696552,1.9852773 -1.8666292,1.9722552 -1.8627785,1.9596991 -1.8627785,1.9596991 -1.8608541,1.9430477 -1.8586399,1.9245609 -1.8561373,1.9042669 -1.8533476,1.8821936 -1.850272,1.8583691 -1.8469119,1.8328214 -1.8432686,1.8055786 -1.8393433,1.7766687 -1.8351373,1.7461197 -1.830652,1.7139597 -1.8258886,1.6802167 -1.8208484,1.6449188 -1.8155327,1.6080939 -1.8099428,1.5697702 -1.8040801,1.5299757 -1.7979457,1.4887383 -1.791541,1.4460862 -1.7848673,1.4020474 -1.7779259,1.3566499 -1.770718,1.3099217 -1.7632451,1.2618909 -1.7555082,1.2125856 -1.7475089,1.1620337 -1.7392482,1.1102634 -1.7307277,1.0573025 -1.7219484,1.0031793 -1.7129118,0.9479217 -1.7036191,0.8915577 -1.6940717,0.8341154 -1.6842852,0.7757093 -1.6643284,0.6580291 -1.6439238,0.5395901 -1.6230851,0.4204897 -1.6018261,0.3008255 -1.5801602,0.1806949 -1.5356629,-0.0605753 -1.4897025,-0.302541 -1.4423882,-0.5444219 -1.3938292,-0.7854381 -1.3441348,-1.0248095 -1.3188961,-1.1436347 -1.2934144,-1.2617561 -1.2934144,-1.2617561 -1.2443172,-1.1370505 -1.1959449,-1.0122914 -1.1482732,-0.8874546 -1.1012779,-0.7625157 -1.0549349,-0.6374505 -1.0092199,-0.5122348 -0.9641088,-0.3868443 -0.9195774,-0.2612546 -0.8321569,-0.009381 -0.7467649,0.2435801 -0.6632078,0.497823 -0.5812922,0.7535418 -0.5409315,0.8818719 -0.5013133,1.0092598 -0.462437,1.1356308 -0.4242042,1.2612434 -0.3492745,1.5112271 -0.2757356,1.7612787 -0.2392413,1.8869759 -0.2027989,2.0134655 -0.1663099,2.1410058 -0.1296757,2.2698552 -0.0927978,2.4002723 -0.0555776,2.5325154 -0.0179164,2.6668431 0.0011103,2.7348694 0.0202842,2.8035137 0.0202842,2.8035137 0.1697195,2.7929161 0.3192129,2.7832931 0.4687657,2.774638 0.6183787,2.7669445 0.7680385,2.7602065 0.917731,2.7544177 1.067457,2.7495711 1.2172174,2.7456596 1.2172174,2.7456596 1.2392446,2.6073722 1.2626391,2.4673229 1.2873113,2.3257647 1.3131717,2.1829506 1.3401306,2.0391335 1.3680987,1.8945666 1.3969862,1.7495027 1.4267038,1.6041949 1.4571617,1.4588961 1.4882706,1.3138594 1.5199408,1.1693377 1.5520828,1.025584 1.584607,0.8828513 1.6174239,0.7413927 1.650444,0.601461 1.6835777,0.4633093 1.716818,0.3268536 1.7508133,0.1893894 1.7856668,0.0505283 1.8213117,-0.0894153 1.8576812,-0.2301267 1.8947083,-0.3712917 1.9704684,-0.653724 2.0090677,-0.7943624 2.0480573,-0.9341964 2.0873705,-1.0729114 2.1269403,-1.210193 2.1667,-1.3457268 2.2065827,-1.4791981 2.2265493,-1.5450621 2.2465215,-1.6102927 2.2664911,-1.6748503 2.2864497,-1.7386959 2.2864497,-1.7386959 2.3281827,-1.667868 2.3690625,-1.5964458 2.4090484,-1.5244422 2.4480994,-1.4518699 2.4861746,-1.3787418 2.5232333,-1.3050706 2.5592344,-1.2308693 2.5941371,-1.1561505 2.6279006,-1.0809271 2.6604839,-1.0052119 2.6918463,-0.9290178 2.7219467,-0.8523575 2.7507443,-0.7752438 2.7781983,-0.6976896 2.8042677,-0.6197077 2.8289118,-0.541311 2.8520764,-0.4625578 2.8737101,-0.3835126 2.8937784,-0.3041864 2.9122469,-0.2245902 2.9290812,-0.1447351 2.9442469,-0.0646322 2.9577097,0.0157075 2.9694351,0.0962729 2.9793888,0.177053 2.9875363,0.2580368 2.9938433,0.3392131 2.9982754,0.4205709 3.0007982,0.5020991 3.0013773,0.5837868 2.9999784,0.6656228 2.9965669,0.7475961 2.9965669,0.7475961 2.9926465,0.8207743 2.9906801,0.8567962 2.9888061,0.8922302 2.9888061,0.8922302 2.9841848,0.9331455 2.9789357,0.9740579 2.9730331,1.0149371 2.9664515,1.055753 2.9591651,1.0964753 2.9511484,1.1370739 2.9423757,1.1775185 2.9328216,1.2177791 2.9224603,1.2578252 2.9112663,1.2976269 2.899214,1.3371537 2.8862777,1.3763757 2.8724318,1.4152624 2.8576508,1.4537839 2.841909,1.4919098 2.8251809,1.5296099 2.8074408,1.5668541 2.7886835,1.6035764 2.7689415,1.6396622 2.7481998,1.6750954 2.7264408,1.7098654 2.7036468,1.7439614 2.6798001,1.7773728 2.6548831,1.8100889 2.6288844,1.8420913 2.6019328,1.8732077 2.5740867,1.9033798 2.5453496,1.9326191 2.5157249,1.9609374 2.485216,1.9883462 2.4538264,2.0148571 2.4215595,2.0404816 2.4215595,2.0404816 2.6573274,2.3264785 2.8923432,2.6130909 3.1266449,2.9002852 3.3602692,3.1880279 3.3602692,3.1880279 3.5847489,2.9618448 3.8101809,2.7366078 4.0366009,2.5123723 4.2640544,2.2891831 4.2640544,2.2891831 4.2486937,2.1804036 4.2323386,2.0715935 4.2150041,1.9627679 4.1967052,1.853942 4.177457,1.7451311 4.1572744,1.6363503 4.1361725,1.5276149 4.1141663,1.41894 4.0912709,1.3103409 4.0675013,1.2018328 4.0428725,1.0934308 4.0173995,0.9851503 3.9910973,0.8770063 3.963981,0.7690142 3.9360656,0.6611891 3.9073662,0.5535462 3.8778977,0.4461007 3.8476752,0.3388679 3.8167137,0.231863 3.7850282,0.1251011 3.7526338,0.0185974 3.7195455,-0.0876327 3.6857783,-0.1935742 3.6513472,-0.2992118 3.6162673,-0.4045303 3.5805536,-0.5095145 3.5442211,-0.6141491 3.5072848,-0.7184191 3.4697599,-0.8223091 3.4316612,-0.9258039 3.3930038,-1.0288885 3.3538028,-1.1315474 3.3140731,-1.2337656 3.2738367,-1.3355106 3.2333779,-1.4361043 3.1928704,-1.5351783 3.1523566,-1.6326985 3.1118788,-1.7286311 3.0714794,-1.822942 3.0312009,-1.9155974 2.9910856,-2.0065633 2.9511759,-2.0958056 2.9115142,-2.1832906 2.8721428,-2.2689841 2.8331041,-2.3528524 2.7944406,-2.4348613 2.7561946,-2.514977 2.7184084,-2.5931655 2.6811245,-2.6693929 2.6443853,-2.7436251 2.6082331,-2.8158283 2.5727103,-2.8859686 2.5378594,-2.9540118 2.5037225,-3.0199242 2.4703423,-3.0836716 2.437761,-3.1452203 2.4217832,-3.1751595 2.406021,-3.2045362 2.3904798,-3.2333463 2.3751648,-3.2615854 2.3600813,-3.2892493 2.3452346,-3.3163339 2.33063,-3.3428348 2.3162729,-3.3687478 2.3021684,-3.3940686 2.288322,-3.4187931 2.2747389,-3.4429169 2.2614244,-3.4664359 2.2483838,-3.4893457 2.2356224,-3.5116422 2.2231455,-3.533321 2.2109585,-3.554378 2.2109585,-3.554378 2.0767707,-3.5586609 1.9425741,-3.5622404 1.8083606,-3.5651084 1.6741217,-3.5672564 1.5398742,-3.5686762 1.4056341,-3.5693598 1.2713924,-3.5692997 1.13714,-3.5684884z" transform="matrix(1,0,0,-1,4.2640544,3.5700747)" fill="rgb(0,0,0)" shaper:cutDepth="0.00635" stroke-linecap="round" stroke-linejoin="round" /></svg>