<?xml version="1.0" encoding="utf-8"?>
<!-- Generator: Fusion 360, Shaper Origin Export Add-In, Version 1.6.10  -->
<svg xmlns="http://www.w3.org/2000/svg" xmlns:xlink="http://www.w3.org/1999/xlink" xmlns:shaper="http://www.shapertools.com/namespaces/shaper" shaper:fusionaddin="version:1.6.10" width="1.7867719cm" height="1.5613418cm" version="1.1" x="0cm" y="0cm" viewBox="0 0 1.7867719 1.5613418" enable-background="new 0 0 1.7867719 1.5613418" xml:space="preserve"><path d="M0.8438652,0.4223166 L0.8438652,0.4223166 0.8447976,0.3933876 0.8443192,0.3643867 0.8425105,0.3353791 0.8394516,0.30643 0.835223,0.2776046 0.8299051,0.2489681 0.8235781,0.2205857 0.8163166,0.1925002 0.8081466,0.1646024 0.7991086,0.1368934 0.7892502,0.1094046 0.7786189,0.0821677 0.7672623,0.0552142 0.7552279,0.0285757 0.7425632,0.0022837 0.7293158,-0.0236302 0.7293158,-0.0236302 0.7053118,-0.067118 0.6795965,-0.1097422 0.6523654,-0.1514235 0.6238129,-0.1920843 0.5939886,-0.2318344 0.56294,-0.2707445 0.5307977,-0.3087613 0.4976928,-0.3458317 0.4976928,-0.3458317 0.4733019,-0.3716433 0.4482165,-0.396603 0.4224454,-0.4207092 0.3959972,-0.44396 0.3688805,-0.4663534 0.3411039,-0.4878877 0.3126762,-0.5085609 0.283606,-0.5283713 0.2539019,-0.5473169 0.2235726,-0.5653959 0.1926267,-0.5826065 0.1611424,-0.598912 0.1297245,-0.6140417 0.0985686,-0.6279796 0.0677458,-0.6407767 0.0373267,-0.6524843 0.0073824,-0.6631535 -0.0220163,-0.6728352 -0.0507986,-0.6815806 -0.0788935,-0.6894408 -0.1062301,-0.6964668 -0.1327377,-0.7027099 -0.1583453,-0.708221 -0.1829821,-0.7130512 -0.2065772,-0.7172517 -0.2290596,-0.7208735 -0.2503586,-0.7239678 -0.2704032,-0.7265855 -0.2891225,-0.7287779 -0.3064458,-0.730596 -0.3223021,-0.7320909 -0.3366206,-0.7333137 -0.3366206,-0.7333137 -0.374352,-0.7369942 -0.4116096,-0.7396255 -0.448304,-0.7412283 -0.4843461,-0.741823 -0.5196467,-0.7414303 -0.5541166,-0.7400705 -0.5876667,-0.7377644 -0.6202076,-0.7345325 -0.6516359,-0.7303935 -0.6818365,-0.725365 -0.7107053,-0.7194657 -0.7381381,-0.7127145 -0.7640309,-0.7051302 -0.7882795,-0.6967316 -0.8107796,-0.6875374 -0.8314272,-0.6775664 -0.8382952,-0.6739546 -0.8382952,-0.6739546 -0.8483973,-0.6681841 -0.858059,-0.6617471 -0.8672622,-0.6546799 -0.8759888,-0.6470186 -0.8842208,-0.6387995 -0.8919377,-0.6300618 -0.8991015,-0.620871 -0.9056989,-0.6112701 -0.9117233,-0.6012946 -0.917168,-0.59098 -0.9220258,-0.5803636 -0.9262833,-0.5695019 -0.9299392,-0.5584302 -0.9329955,-0.5471759 -0.9354542,-0.5357664 -0.9373174,-0.5242289 -0.9373174,-0.5242289 -0.9397701,-0.5091001 -0.9413058,-0.4938578 -0.9419743,-0.4785438 -0.9418254,-0.4631996 -0.9409088,-0.4478669 -0.9392743,-0.4325873 -0.9369629,-0.4173497 -0.9339711,-0.4019755 -0.930306,-0.3864616 -0.9259774,-0.3708261 -0.920995,-0.3550872 -0.9153684,-0.3392632 -0.9091074,-0.3233721 -0.9022217,-0.3074323 -0.8947211,-0.2914619 -0.8866151,-0.2754791 -0.8866151,-0.2754791 -0.8754459,-0.254508 -0.8636153,-0.2338851 -0.8506105,-0.2141633 -0.8435125,-0.2047769 -0.8359067,-0.1957269 -0.8359067,-0.1957269 -0.8146391,-0.1682041 -0.7924174,-0.1416614 -0.7692509,-0.1161072 -0.7451488,-0.0915498 -0.7201205,-0.0679973 -0.6941752,-0.0454582 -0.6673221,-0.0239406 -0.6395707,-0.0034527 -0.6109302,0.015997 -0.5814108,0.0343999 -0.5511887,0.051657 -0.5204112,0.0677144 -0.4891096,0.0825924 -0.4573153,0.0963116 -0.4250596,0.1088926 -0.3923736,0.1203558 -0.3592887,0.1307218 -0.3258362,0.1400111 -0.2920473,0.1482442 -0.2579534,0.1554416 -0.223602,0.1616217 -0.1890732,0.1668008 -0.154397,0.1710051 -0.1195996,0.1742609 -0.0847072,0.1765948 -0.0497459,0.1780334 -0.014742,0.1786032 0.0202785,0.1783308 0.0552893,0.1772427 0.0902642,0.1753654 0.1251771,0.1727255 0.1600019,0.1693495 0.1600019,0.1693495 0.163293,0.1858639 0.1659104,0.2024244 0.1678297,0.2190211 0.1690263,0.2356439 0.1694759,0.2522828 0.1691541,0.2689278 0.1680364,0.2855689 0.1660984,0.3021961 0.163317,0.3187919 0.1597097,0.335177 0.1552992,0.3512759 0.1500985,0.3670854 0.1441203,0.3826019 0.1373777,0.3978222 0.1298835,0.4127428 0.1216506,0.4273603 0.1127129,0.4416397 0.1031546,0.4554873 0.0930131,0.4688993 0.0823227,0.4818777 0.0711171,0.4944243 0.0594305,0.5065413 0.0347499,0.5294942 0.0085206,0.5507776 -0.0190419,0.5704386 -0.0477022,0.5885017 -0.0772251,0.6049915 -0.0772251,0.6049915 -0.1063336,0.6194631 -0.1360501,0.6326221 -0.1663081,0.6444943 -0.1970411,0.6551053 -0.2281867,0.664482 -0.2596834,0.6726508 -0.2914664,0.6796369 -0.3234706,0.6854653 -0.266124,0.8195188 0.4265951,0.8195188 0.4265951,0.8195188 0.4554972,0.8189009 0.4845241,0.8171339 0.5134693,0.8140419 0.5421263,0.809449 0.5702862,0.8031832 0.5978024,0.7950792 0.6246104,0.7849572 0.6377297,0.7790829 0.6506488,0.7726365 0.6506488,0.7726365 0.6733721,0.7595992 0.6948534,0.74501 0.715058,0.7288417 0.7339507,0.711067 0.7514966,0.6916589 0.7674849,0.6708385 0.781735,0.648958 0.7943206,0.6261106 0.8053161,0.6023891 0.8147956,0.5778862 0.8228175,0.5527502 0.8294487,0.5271477 0.8347791,0.5011908 0.8388986,0.4749919 0.8418974,0.4486631 0.8438652,0.4223166z" transform="matrix(1,0,0,-1,0.9419743,0.8195188)" fill="rgb(0,0,0)" shaper:cutDepth="0.00635" stroke-linecap="round" stroke-linejoin="round" /><path d="M-0.3718755,-0.5290373 L-0.3718755,-0.5290373 -0.3617622,-0.5328558 -0.351219,-0.5352028 -0.3404017,-0.5362217 -0.3294788,-0.5360599 -0.3185741,-0.5348693 -0.3078017,-0.5328018 -0.2971361,-0.5299681 -0.2861479,-0.5262981 -0.2748092,-0.5217687 -0.2631345,-0.5163664 -0.2511379,-0.5100775 -0.2388337,-0.5028885 -0.2262373,-0.4947857 -0.2133668,-0.4857557 -0.2002391,-0.4757848 -0.1868711,-0.4648597 -0.1732795,-0.4529667 -0.1594812,-0.4400924 -0.1454929,-0.4262233 -0.1313316,-0.4113458 -0.1170141,-0.3954465 -0.1026075,-0.3785731 -0.074644,-0.3432828 -0.048004,-0.306454 -0.0227142,-0.2684761 0.0011991,-0.2297384 0.0237094,-0.19063 0.0237094,-0.19063 0.0300083,-0.181693 0.0364706,-0.1715373 0.0491782,-0.1496492 0.0618325,-0.1263627 0.0747601,-0.1018914 0.0747601,-0.1018914 0.0869181,-0.0785178 0.0980696,-0.0555296 0.1073328,-0.0330232 0.1109507,-0.0219896 0.1137029,-0.011169 0.1137029,-0.011169 0.0963169,-0.007952 0.0788895,-0.0054135 0.0614283,-0.0036123 0.0439408,-0.0026076 0.0264347,-0.0024581 0.0089177,-0.0032228 -0.0086026,-0.0049607 -0.0261089,-0.0077289 -0.0433203,-0.0115115 -0.0601247,-0.0162681 -0.0765426,-0.021975 -0.0925945,-0.0286086 -0.1083008,-0.036145 -0.1236818,-0.0445606 -0.1387522,-0.053828 -0.1534237,-0.0638467 -0.1676627,-0.0745279 -0.1814721,-0.0858026 -0.1948549,-0.0976017 -0.2078141,-0.1098563 -0.2324733,-0.1354558 -0.2557234,-0.1623568 -0.2779666,-0.1906095 -0.2991762,-0.2198308 -0.3193189,-0.2496307 -0.3383615,-0.2796192 -0.3383615,-0.2796192 -0.3443419,-0.2896894 -0.35103,-0.2995419 -0.3577858,-0.3095203 -0.3639615,-0.3199627 -0.3639615,-0.3199627 -0.3724764,-0.3368273 -0.3800453,-0.3532188 -0.3866699,-0.3691089 -0.3923519,-0.3844693 -0.3970932,-0.3992717 -0.4008954,-0.413488 -0.4037603,-0.4270897 -0.4056896,-0.4400487 -0.4067052,-0.4528046 -0.4066727,-0.4657045 -0.4053463,-0.4784699 -0.4024799,-0.4908219 -0.3978197,-0.5024685 -0.3947379,-0.5079221 -0.3911144,-0.51307 -0.3869767,-0.517808 -0.3823499,-0.5220797 -0.3772952,-0.5258298 -0.3718755,-0.5290373z" transform="matrix(1,0,0,-1,0.9419743,0.8195188)" fill="rgb(255,255,255)" stroke="rgb(0,0,0)" stroke-width="0.0010cm" stroke-linecap="round" stroke-linejoin="round" shaper:cutDepth="0.00635" /></svg>