<?xml version="1.0" encoding="utf-8"?>
<!-- Generator: Fusion 360, Shaper Origin Export Add-In, Version 1.6.10  -->
<svg xmlns="http://www.w3.org/2000/svg" xmlns:xlink="http://www.w3.org/1999/xlink" xmlns:shaper="http://www.shapertools.com/namespaces/shaper" shaper:fusionaddin="version:1.6.10" width="2.1994226cm" height="3.0849734cm" version="1.1" x="0cm" y="0cm" viewBox="0 0 2.1994226 3.0849734" enable-background="new 0 0 2.1994226 3.0849734" xml:space="preserve"><path d="M0.7485701,1.0629863 L0.8449869,0.9347448 0.8449869,0.9347448 0.8265153,0.9092442 0.8074954,0.8823106 0.7879721,0.854028 0.7679903,0.8244811 0.747595,0.793754 0.7268311,0.7619312 0.7057435,0.7290971 0.6843772,0.695336 0.6627772,0.6607323 0.6409883,0.6253703 0.5970238,0.552709 0.5528433,0.4780271 0.5088062,0.4019995 0.4654937,0.3256732 0.4236874,0.2504467 0.4035002,0.2135292 0.38387,0.1772254 0.3648565,0.1416475 0.3465197,0.1069079 0.3289192,0.0731189 0.3121148,0.0403928 0.2961664,0.0088419 0.2811337,-0.0214215 0.2670765,-0.050285 0.2540546,-0.0776363 0.2421278,-0.1033631 0.2313559,-0.1273531 0.2298962,-0.1309479 0.2298962,-0.1309479 0.2275645,-0.1373835 0.2258109,-0.1440791 0.2248933,-0.1508465 0.2250782,-0.1575532 0.2266973,-0.1640334 0.2299586,-0.1697765 0.2347812,-0.1743767 0.2406603,-0.1775798 0.2406603,-0.1775798 0.2442949,-0.1787697 0.2488934,-0.1796751 0.2542773,-0.1800788 0.2598473,-0.179825 0.2653626,-0.1789104 0.2707284,-0.1773648 0.275871,-0.1752323 0.2807772,-0.1725478 0.2807772,-0.1725478 0.3108122,-0.1558944 0.3414067,-0.1380537 0.3725264,-0.1190531 0.4041368,-0.09892 0.4362036,-0.0776816 0.4686923,-0.0553652 0.5015687,-0.0319981 0.5347982,-0.0076077 0.5683465,0.0177787 0.6021791,0.0441338 0.6362618,0.0714303 0.6705601,0.0996408 0.7050395,0.1287382 0.7396658,0.158695 0.7744046,0.1894839 0.8092066,0.2210637 0.8783554,0.2859871 0.9466232,0.3529669 1.0138255,0.4217829 1.0797778,0.4922148 1.1442957,0.5640423 1.2071947,0.6370453 1.2682904,0.7110034 1.3273982,0.7856965 1.7245187,0.6244487 1.7245187,0.6244487 1.7098554,0.5987203 1.6957266,0.5739263 1.6821027,0.5500147 1.6689543,0.5269332 1.6562518,0.5046296 1.6439658,0.4830518 1.6320667,0.4621474 1.6205249,0.4418644 1.5983956,0.4029533 1.5773419,0.3659011 1.5571275,0.3302899 1.5375164,0.2957022 1.4991598,0.2279266 1.4799421,0.1939035 1.4603834,0.1592332 1.4402476,0.1234982 1.4192985,0.0862809 1.3974022,0.0473426 1.3752093,0.0078219 1.3304424,-0.0720863 1.285223,-0.1530736 1.2396174,-0.2350483 1.193692,-0.3179186 1.1475133,-0.4015925 1.1011477,-0.4859783 1.0081215,-0.6565185 0.9151449,-0.8288044 0.8227493,-1.0021016 0.7314661,-1.1756755 0.6418268,-1.3487915 0.5977897,-1.4349484 0.5543629,-1.5207153 0.5116127,-1.6060005 0.4696057,-1.6907121 0.4284082,-1.7747584 0.3880867,-1.8580476 0.3487076,-1.9404877 0.3103374,-2.021987 -0.3281388,-1.9534883 -0.3281388,-1.9534883 -0.2998571,-1.9059038 -0.2723714,-1.8597027 -0.2455593,-1.8146797 -0.2192988,-1.7706297 -0.1934677,-1.7273475 -0.1679436,-1.6846279 -0.1173279,-1.6000558 -0.0664742,-1.5152721 -0.0406526,-1.4722879 -0.0144049,-1.4286353 0.0123912,-1.384109 0.0398578,-1.338504 0.0681172,-1.2916149 0.0972915,-1.2432367 0.127503,-1.1931642 0.1588738,-1.1411921 0.1750322,-1.1144296 0.1915263,-1.0871153 0.2083713,-1.0592236 0.2255825,-1.0307287 0.2431752,-1.0016051 0.2613327,-0.9715488 0.2806212,-0.9396209 0.3010178,-0.9058574 0.3224457,-0.8703824 0.3448285,-0.8333205 0.3680896,-0.794796 0.3921523,-0.7549332 0.4169401,-0.7138566 0.4423764,-0.6716905 0.4683846,-0.6285593 0.4948882,-0.5845875 0.5218106,-0.5398993 0.5490752,-0.4946192 0.6043245,-0.4027806 0.71556,-0.2174732 0.7703208,-0.1259944 0.797219,-0.0809841 0.8236935,-0.0366256 0.8236935,-0.0366256 0.7489055,-0.0976839 0.6727624,-0.1577532 0.5954397,-0.2164368 0.5171128,-0.2733382 0.4377119,-0.3282283 0.3974002,-0.3549639 0.3566842,-0.3811633 0.3155763,-0.4067719 0.2740889,-0.4317348 0.2322345,-0.4559976 0.1900256,-0.4795053 0.1900256,-0.4795053 0.1691401,-0.4912455 0.1486399,-0.5024905 0.1285202,-0.513243 0.1087764,-0.5235056 0.0894037,-0.533281 0.0703976,-0.5425719 0.0334661,-0.5597103 -0.0020557,-0.5749419 -0.0362051,-0.588288 -0.0690196,-0.5997695 -0.1005367,-0.6094076 -0.1308237,-0.6172302 -0.1611209,-0.6234602 -0.1918655,-0.6279275 -0.222783,-0.6302628 -0.2382208,-0.6305155 -0.2535956,-0.6300972 -0.2688626,-0.6289658 -0.2839973,-0.6270799 -0.2989779,-0.6243979 -0.3137828,-0.6208781 -0.3283899,-0.6164789 -0.3427777,-0.6111588 -0.3610832,-0.603726 -0.3610832,-0.603726 -0.3782452,-0.5945612 -0.394539,-0.5840673 -0.4098237,-0.5722183 -0.4239582,-0.558988 -0.4367554,-0.5444019 -0.4479688,-0.528587 -0.4574201,-0.5116545 -0.464932,-0.4937879 -0.464932,-0.4937879 -0.4684231,-0.481933 -0.4711415,-0.4699864 -0.4731117,-0.4579436 -0.4743577,-0.4458004 -0.4749039,-0.4335524 -0.4747745,-0.4211954 -0.4739966,-0.4087514 -0.4726045,-0.3962591 -0.4681148,-0.3711319 -0.4615787,-0.3458158 -0.4532694,-0.3203127 -0.4434603,-0.2946243 -0.4434603,-0.2946243 -0.4349067,-0.2751698 -0.4254053,-0.2553149 -0.4159038,-0.2354599 -0.4073502,-0.2160055 -0.4073502,-0.2160055 -0.3855517,-0.1736901 -0.3634851,-0.130814 -0.3188568,-0.0439617 -0.2740831,0.0433869 -0.2297818,0.1300672 -0.1863465,0.2153564 -0.1640045,0.2593698 -0.1411682,0.3044772 -0.0952797,0.3955772 -0.0728608,0.4403713 -0.0512144,0.4838625 -0.0512144,0.4838625 -0.0241594,0.5363358 -0.0114332,0.5629954 0.0003019,0.5901107 0.0003019,0.5901107 0.0096033,0.6144945 0.0178391,0.6396073 0.0246466,0.6651571 0.0296633,0.690852 0.032537,0.7165647 0.0330422,0.7295114 0.0328277,0.7424481 0.0318175,0.7553119 0.029934,0.7680472 0.0270987,0.7805888 0.0232336,0.7928701 0.0232336,0.7928701 0.0180688,0.8042396 0.0123311,0.8152604 0.0060302,0.8259253 -0.0008242,0.8362275 -0.0082225,0.8461599 -0.016155,0.8557156 -0.0246121,0.8648876 -0.0335473,0.8736344 -0.0429007,0.8819157 -0.0526461,0.8897296 -0.0732072,0.9039488 -0.0949971,0.9162654 -0.1177644,0.9266498 -0.1390024,0.9352733 -0.108469,1.0629863 0.7485701,1.0629863z" transform="matrix(1,0,0,-1,0.4749039,1.0629863)" fill="rgb(0,0,0)" shaper:cutDepth="0.00635" stroke-linecap="round" stroke-linejoin="round" /></svg>