<?xml version="1.0" encoding="utf-8"?>
<!-- Generator: Fusion 360, Shaper Origin Export Add-In, Version 1.6.10  -->
<svg xmlns="http://www.w3.org/2000/svg" xmlns:xlink="http://www.w3.org/1999/xlink" xmlns:shaper="http://www.shapertools.com/namespaces/shaper" shaper:fusionaddin="version:1.6.10" width="1.9973849cm" height="1.3951552cm" version="1.1" x="0cm" y="0cm" viewBox="0 0 1.9973849 1.3951552" enable-background="new 0 0 1.9973849 1.3951552" xml:space="preserve"><path d="M-0.9291783,-0.2803823 L-0.9291783,-0.2803823 -0.9392551,-0.265258 -0.9487958,-0.2498605 -0.9577811,-0.2341862 -0.9661916,-0.2182314 -0.9740079,-0.2019922 -0.9812107,-0.1854648 -0.9877808,-0.1686456 -0.9936987,-0.1515307 -0.9989451,-0.1341164 -1.0034709,-0.1165434 -1.0072537,-0.0989249 -1.0103107,-0.0812313 -1.0126588,-0.0634328 -1.0143152,-0.0454996 -1.015297,-0.027402 -1.0156211,-0.0091103 -1.0156211,-0.0091103 -1.0151863,0.0109826 -1.0138569,0.0310169 -1.0115987,0.050977 -1.0083776,0.070847 -1.0042671,0.0901687 -1.0020814,0.0989111 -0.9998877,0.1069653 -0.9977341,0.1143337 -0.9956684,0.121019 -0.9937388,0.1270237 -0.991993,0.1323504 -0.991993,0.1323504 -0.978093,0.1633126 -0.9622903,0.1930769 -0.9446104,0.2216268 -0.9250785,0.2489463 -0.9037197,0.2750191 -0.8805594,0.299829 -0.8557954,0.3232072 -0.8297134,0.3449867 -0.8024144,0.3652096 -0.7739988,0.3839188 -0.7445703,0.4011554 -0.7142945,0.4169315 -0.6832995,0.4312902 -0.651689,0.4442894 -0.6195666,0.4559868 -0.587036,0.4664404 -0.587036,0.4664404 -0.55437,0.4754915 -0.5213964,0.4833926 -0.4881601,0.490124 -0.4547064,0.4956659 -0.421095,0.4999983 -0.3873636,0.5031078 -0.3535376,0.5049826 -0.3196423,0.5056114 -0.3196423,0.5056114 -0.2838962,0.5051398 -0.2478033,0.5037396 -0.2114943,0.5014387 -0.1750997,0.4982648 -0.1387502,0.4942458 -0.1025763,0.4894095 -0.0667087,0.4837836 -0.0312779,0.477396 0.0039853,0.4701886 0.0394953,0.4620311 0.0750555,0.4528973 0.1104644,0.4427619 0.1455202,0.4315997 0.1800212,0.4193854 0.2137658,0.4060938 0.2465522,0.3916997 0.2465522,0.3916997 0.2863827,0.3713984 0.3251187,0.3493296 0.3626313,0.3255786 0.3987917,0.300231 0.4334709,0.2733721 0.4665401,0.2450873 0.4978704,0.2154621 0.5273328,0.1845818 0.5549162,0.1523861 0.5680329,0.1357128 0.580662,0.1186651 0.5927734,0.1012518 0.6043372,0.0834818 0.6153232,0.0653639 0.6257015,0.0469069 0.6354409,0.0281218 0.6445062,0.0090263 0.6528652,-0.0103661 0.6604861,-0.0300421 0.6673369,-0.0499887 0.6733858,-0.0701927 0.6786009,-0.090641 0.6829504,-0.1113206 0.6829504,-0.1113206 0.6946504,-0.1189666 0.7068022,-0.127093 0.73222,-0.1447543 0.7587211,-0.1642391 0.7858231,-0.185482 0.8130433,-0.2084177 0.8398992,-0.2329806 0.8659084,-0.2591054 0.8905881,-0.2867268 0.9022786,-0.3010783 0.9134559,-0.3157794 0.9240422,-0.330796 0.9336844,-0.3456411 0.942298,-0.3601222 0.9499284,-0.3742259 0.956621,-0.3879388 0.9624213,-0.4012474 0.9673745,-0.4141383 0.9715218,-0.4265853 0.9748833,-0.438484 0.9775085,-0.4497968 0.9794534,-0.4605024 0.9807736,-0.4705796 0.981525,-0.4800071 0.9817634,-0.4887639 0.9817639,-0.4965237 0.9817639,-0.4965237 0.9814448,-0.5101452 0.9804723,-0.5232065 0.9788258,-0.5357846 0.9764846,-0.5479566 0.9734281,-0.5597998 0.9696357,-0.5713912 0.9650871,-0.582807 0.9597697,-0.5941043 0.953669,-0.6053513 0.9467679,-0.6166252 0.939049,-0.6280027 0.9304951,-0.639561 0.9210891,-0.6513768 0.9108136,-0.6635272 0.8996515,-0.6760891 0.8875855,-0.6891396 0.8875855,-0.6891396 0.8794156,-0.6973254 0.8703369,-0.7056843 0.8603713,-0.7141866 0.8495407,-0.722802 0.8378669,-0.7315006 0.8253718,-0.7402525 0.8120773,-0.7490277 0.7980052,-0.7577961 0.7831726,-0.7665302 0.7675904,-0.7752045 0.7512778,-0.7837886 0.7342545,-0.792252 0.7165401,-0.8005642 0.698154,-0.8086947 0.6791158,-0.8166129 0.6594451,-0.8242883 0.6391613,-0.8316904 0.6182842,-0.8387886 0.5968331,-0.8455526 0.5748571,-0.8519434 0.5302685,-0.8632928 0.4851089,-0.8726529 0.4395055,-0.8799907 0.3935851,-0.8852734 0.3474747,-0.8884682 0.3013013,-0.8895421 0.2699047,-0.8895438 0.2699047,-0.8895438 0.2244277,-0.8875688 0.1790353,-0.8846279 0.133758,-0.8806876 0.0886262,-0.8757144 0.0436703,-0.8696749 -0.0010792,-0.8625356 -0.0455918,-0.854263 -0.0898372,-0.8448237 -0.1337848,-0.8341843 -0.1774042,-0.8223111 -0.2206651,-0.8091709 -0.2635368,-0.7947302 -0.305989,-0.7789553 -0.3479913,-0.761813 -0.3895026,-0.7432747 -0.4302759,-0.7234168 -0.4702125,-0.7022721 -0.5093045,-0.6798344 -0.5475445,-0.6560976 -0.5849248,-0.6310556 -0.6214376,-0.6047023 -0.6570754,-0.5770316 -0.6918305,-0.5480374 -0.7256819,-0.517726 -0.7578507,-0.4868666 -0.7879415,-0.4560306 -0.8160316,-0.4253765 -0.8421984,-0.3950628 -0.8665191,-0.365248 -0.8890711,-0.3360906 -0.9099317,-0.3077492 -0.9291783,-0.2803823z" transform="matrix(1,0,0,-1,1.0156211,0.5056114)" fill="rgb(0,0,0)" shaper:cutDepth="0.00635" stroke-linecap="round" stroke-linejoin="round" /><path d="M0.5026901,-0.1741237 L0.5026901,-0.1741237 0.4870659,-0.161371 0.4707622,-0.149281 0.4538724,-0.1378392 0.4364901,-0.127031 0.4187091,-0.1168417 0.4006228,-0.1072568 0.363909,-0.0898417 0.326469,-0.0744245 0.2879246,-0.0605953 0.2485789,-0.0483001 0.2087396,-0.0374872 0.1687143,-0.0281044 0.1288105,-0.0200999 0.0887934,-0.013337 0.0482354,-0.0077137 0.0073725,-0.00327 -0.0335566,-0.0000464 -0.0743134,0.0019167 -0.1146593,0.0025785 -0.1421749,0.002577 -0.1421749,0.002577 -0.1549979,0.0024043 -0.1687276,0.0019034 -0.1832402,0.0010986 -0.1984115,0.0000139 -0.2302342,-0.0028985 -0.2632036,-0.0066407 -0.2958998,-0.0109665 -0.3116179,-0.01326 -0.3267248,-0.0156047 -0.341077,-0.0179733 -0.3545315,-0.0203388 -0.3669448,-0.0226743 -0.3781737,-0.0249526 -0.3781737,-0.0249526 -0.3995094,-0.0308289 -0.4202909,-0.0373244 -0.4404853,-0.0444123 -0.46006,-0.0520662 -0.4789821,-0.0602595 -0.497219,-0.0689656 -0.5147378,-0.0781579 -0.5315059,-0.0878098 -0.5475532,-0.097937 -0.5631666,-0.1087645 -0.5782676,-0.1203259 -0.592716,-0.1326167 -0.6063978,-0.1456601 -0.6192754,-0.1595925 -0.6311212,-0.1744042 -0.6416806,-0.1900609 -0.6416806,-0.1900609 -0.6499505,-0.2087819 -0.6561453,-0.2282945 -0.6584004,-0.2382605 -0.6600588,-0.2483508 -0.6610819,-0.2585212 -0.6614311,-0.268728 -0.6614311,-0.268728 -0.6606726,-0.2837905 -0.6584149,-0.2987062 -0.6547369,-0.3133606 -0.6497871,-0.3276387 -0.6497871,-0.3276387 -0.6423377,-0.3409049 -0.63314,-0.3529796 -0.6224633,-0.3639281 -0.6106036,-0.3737965 -0.5978628,-0.3826395 -0.5845396,-0.3905167 -0.5708202,-0.3975418 -0.5562839,-0.4040583 -0.5408967,-0.4101305 -0.5247113,-0.4157747 -0.5077802,-0.4210072 -0.490156,-0.4258445 -0.4718914,-0.4303028 -0.4530389,-0.4343987 -0.4137806,-0.4415684 -0.4137806,-0.4415684 -0.401669,-0.4437093 -0.3884748,-0.4457499 -0.3743195,-0.4476859 -0.3593249,-0.4495127 -0.3436125,-0.4512258 -0.3273041,-0.4528207 -0.2933857,-0.4556382 -0.2580444,-0.4579587 -0.2216139,-0.459749 -0.1852864,-0.4609017 -0.1502637,-0.4613088 -0.1107541,-0.4613088 -0.1107541,-0.4613088 -0.0667315,-0.4584224 -0.0220533,-0.4539566 0.0229565,-0.4478699 0.0679741,-0.4401205 0.1126754,-0.4306669 0.1567365,-0.4194675 0.1998336,-0.4064807 0.2416426,-0.3916649 0.2619633,-0.3835579 0.2820448,-0.3748854 0.3019731,-0.3655563 0.3216503,-0.3555505 0.3409787,-0.344848 0.3598601,-0.3334288 0.3781968,-0.3212729 0.3958908,-0.3083603 0.4128455,-0.2946699 0.4290172,-0.2801274 0.4443132,-0.264681 0.4586032,-0.248309 0.4717421,-0.2310098 0.4835355,-0.2128787 0.493881,-0.1939206 0.5026901,-0.1741237z" transform="matrix(1,0,0,-1,1.0156211,0.5056114)" fill="rgb(255,255,255)" stroke="rgb(0,0,0)" stroke-width="0.0010cm" stroke-linecap="round" stroke-linejoin="round" shaper:cutDepth="0.00635" /></svg>