<?xml version="1.0" encoding="utf-8"?>
<!-- Generator: Fusion 360, Shaper Origin Export Add-In, Version 1.6.10  -->
<svg xmlns="http://www.w3.org/2000/svg" xmlns:xlink="http://www.w3.org/1999/xlink" xmlns:shaper="http://www.shapertools.com/namespaces/shaper" shaper:fusionaddin="version:1.6.10" width="1.8131294cm" height="2.2048856cm" version="1.1" x="0cm" y="0cm" viewBox="0 0 1.8131294 2.2048856" enable-background="new 0 0 1.8131294 2.2048856" xml:space="preserve"><path d="M-0.0023219,0.9333792 L-0.0023219,0.9333792 -0.0297694,0.9443397 -0.0577251,0.9539324 -0.0861182,0.9621395 -0.114881,0.9689387 -0.0783509,1.0945179 0.6400772,1.0945179 0.6400772,1.0945179 0.6629021,1.0942158 0.6856647,1.0928958 0.7083315,1.0905013 0.730869,1.0869758 0.7531908,1.0822752 0.7751577,1.0763844 0.7967499,1.0692735 0.8179519,1.0609116 0.8179519,1.0609116 0.8410334,1.0501739 0.8523083,1.0441144 0.8631847,1.0375405 0.8735781,1.0303539 0.8834237,1.0224107 0.8925141,1.0136458 0.9006405,1.0039949 0.9006405,1.0039949 0.9095584,0.9931778 0.9172695,0.9816572 0.923802,0.9694388 0.9291841,0.9565282 0.933402,0.9430858 0.9364784,0.9293487 0.9385094,0.9154019 0.9395911,0.90133 0.9398197,0.8872176 0.9392857,0.8730671 0.9380603,0.8588409 0.936211,0.8445994 0.9309098,0.8163145 0.9239213,0.7887004 0.9239213,0.7887004 0.9182243,0.7679113 0.9119035,0.7469409 0.8980857,0.7057207 0.8829393,0.6652036 0.866552,0.6252283 0.8294604,0.5386503 0.8294604,0.5386503 0.8014467,0.4772074 0.7717244,0.4149876 0.7406705,0.3524344 0.7086616,0.2899915 0.6760747,0.2281024 0.6432865,0.167211 0.6106739,0.1077606 0.5785435,0.0500712 0.5134269,-0.0648329 0.4476684,-0.1791359 0.4150765,-0.2354646 0.3829577,-0.2909261 0.3515231,-0.3452814 0.3209841,-0.3982915 0.3391426,-0.406071 0.3391426,-0.406071 0.3681324,-0.418925 0.397669,-0.4328167 0.4269727,-0.4473146 0.455265,-0.4619879 0.4821082,-0.4765931 0.5070381,-0.490898 0.5185618,-0.4978253 0.5293386,-0.5045425 0.539279,-0.5110046 0.5482935,-0.5171666 0.5131013,-0.6091635 0.1305512,-0.693191 0.1305512,-0.693191 0.117084,-0.7123787 0.10244,-0.7323524 0.0867453,-0.7530349 0.0701257,-0.7743491 0.0527072,-0.796218 0.0346158,-0.8185644 -0.0030819,-0.8643811 -0.0803015,-0.9574545 -0.1181794,-1.0038809 -0.1546906,-1.0499412 -0.7025133,-1.1103677 -0.7720585,-0.9734993 -0.7720585,-0.9734993 -0.7179151,-0.9177838 -0.6643859,-0.8610665 -0.6117306,-0.8035294 -0.560207,-0.7453522 -0.5096076,-0.6861628 -0.4599181,-0.6257441 -0.411516,-0.5643141 -0.3647788,-0.5020906 -0.3647788,-0.5020906 -0.4077438,-0.481304 -0.4512215,-0.4613941 -0.4946245,-0.4423111 -0.5367295,-0.4242027 -0.5367295,-0.4242027 -0.5780253,-0.4068587 -0.6195973,-0.3900839 -0.6613976,-0.3738862 -0.7033784,-0.3582739 -0.7455513,-0.3432344 -0.7879753,-0.3287428 -0.8305846,-0.3148223 -0.8733097,-0.3014968 -0.8552602,-0.1894915 -0.8552602,-0.1894915 -0.83588,-0.1835851 -0.8159873,-0.1784461 -0.7956973,-0.1740289 -0.7751252,-0.1702875 -0.7335949,-0.1646487 -0.6923175,-0.1611627 -0.651711,-0.1594505 -0.6101407,-0.159216 -0.5675772,-0.16038 -0.5242463,-0.162879 -0.4803733,-0.1666495 -0.436184,-0.1716279 -0.3919037,-0.1777509 -0.3477581,-0.1849548 -0.3039727,-0.1931762 -0.260773,-0.2023516 -0.2183847,-0.2124175 -0.1770331,-0.2233104 -0.1770331,-0.2233104 -0.1571672,-0.1898863 -0.136474,-0.1544965 -0.1152038,-0.117613 -0.0936067,-0.0797081 -0.0504324,-0.0027224 -0.0293555,0.035414 -0.0089523,0.0726833 0.0010182,0.091029 0.0112992,0.110043 0.0218909,0.1297393 0.0327274,0.1500101 0.0548707,0.1918445 0.0772009,0.2346843 0.0991901,0.2776678 0.1203101,0.3199331 0.1303792,0.3405271 0.1400329,0.3606184 0.1492054,0.3800992 0.1578305,0.3988619 0.1593584,0.4024283 0.1593584,0.4024283 0.1708151,0.4305845 0.1808031,0.4580707 0.1893626,0.4848737 0.1965335,0.5109802 0.2023558,0.5363772 0.2068696,0.5610512 0.2101149,0.5849891 0.2121316,0.6081778 0.2129608,0.6306869 0.2126043,0.653091 0.2109813,0.6754272 0.2080032,0.6976044 0.2035822,0.7195253 0.1976406,0.741047 0.1901034,0.7620329 0.1808952,0.7823512 0.1808952,0.7823512 0.1728934,0.7950981 0.1642802,0.8074093 0.1550881,0.8192831 0.1453497,0.830718 0.1350973,0.8417123 0.1243636,0.8522646 0.113181,0.8623732 0.1015835,0.8720354 0.0773027,0.8899999 0.0517545,0.906182 0.0251444,0.9206268 -0.0023219,0.9333792z" transform="matrix(1,0,0,-1,0.8733097,1.0945179)" fill="rgb(0,0,0)" shaper:cutDepth="0.00635" stroke-linecap="round" stroke-linejoin="round" /></svg>