<?xml version="1.0" encoding="utf-8"?>
<!-- Generator: Adobe Illustrator 27.1.1, SVG Export Plug-In . SVG Version: 6.00 Build 0)  -->
<svg version="1.1" xmlns="http://www.w3.org/2000/svg" xmlns:xlink="http://www.w3.org/1999/xlink" x="0px" y="0px"
	 viewBox="0 0 567.95 574.71" style="enable-background:new 0 0 567.95 574.71;" xml:space="preserve">
<style type="text/css">
	.st0{fill:none;stroke:#B3B3B3;stroke-miterlimit:10;}
</style>
<g id="Layer_3">
	<path class="st0" d="M10.39,11.91v13.29v265.75v265.75h265.75h265.75h13.29V25.19V11.91H10.39z M41.68,277.65
		c-9.94,0-18-8.06-18-18v-78.14l70.49,25.66l25.66,70.49H41.68z M119.82,304.23l-25.66,70.49l-70.49,25.66v-78.14
		c0-9.94,8.06-18,18-18H119.82z M114.9,186.43l-77.93-28.37l77.93-28.37l28.37-77.93l28.37,77.93l77.93,28.37l-77.93,28.37
		l-28.37,77.93L114.9,186.43z M23.68,134.62V56.48c0-9.94,8.06-18,18-18h78.14l-25.66,70.49L23.68,134.62z M41.68,543.4
		c-9.94,0-18-8.06-18-18v-78.14l70.49,25.66l25.66,70.49H41.68z M114.9,452.18l-77.93-28.37l77.93-28.37l28.37-77.93l28.37,77.93
		l77.93,28.37l-77.93,28.37l-28.37,77.93L114.9,452.18z M262.85,525.4c0,9.94-8.06,18-18,18h-78.14l25.66-70.49l70.49-25.66V525.4z
		 M262.85,400.37l-70.49-25.66l-25.66-70.49h78.14c9.94,0,18,8.06,18,18V400.37z M262.85,259.65c0,9.94-8.06,18-18,18h-78.14
		l25.66-70.49l70.49-25.66V259.65z M262.85,134.62l-70.49-25.66l-25.66-70.49h78.14c9.94,0,18,8.06,18,18V134.62z M307.43,277.65
		c-9.94,0-18-8.06-18-18v-78.14l70.49,25.66l25.66,70.49H307.43z M385.57,304.23l-25.66,70.49l-70.49,25.66v-78.14
		c0-9.94,8.06-18,18-18H385.57z M380.65,186.43l-77.93-28.37l77.93-28.37l28.37-77.93l28.37,77.93l77.93,28.37l-77.93,28.37
		l-28.37,77.93L380.65,186.43z M289.43,134.62V56.48c0-9.94,8.06-18,18-18h78.14l-25.66,70.49L289.43,134.62z M307.43,543.4
		c-9.94,0-18-8.06-18-18v-78.14l70.49,25.66l25.66,70.49H307.43z M380.65,452.18l-77.93-28.37l77.93-28.37l28.37-77.93l28.37,77.93
		l77.93,28.37l-77.93,28.37l-28.37,77.93L380.65,452.18z M528.6,525.4c0,9.94-8.06,18-18,18h-78.14l25.66-70.49l70.49-25.66V525.4z
		 M528.6,400.37l-70.49-25.66l-25.66-70.49h78.14c9.94,0,18,8.06,18,18V400.37z M528.6,259.65c0,9.94-8.06,18-18,18h-78.14
		l25.66-70.49l70.49-25.66V259.65z M528.6,134.62l-70.49-25.66l-25.66-70.49h78.14c9.94,0,18,8.06,18,18V134.62z"/>
	
		<rect x="386.53" y="135.58" transform="matrix(0.7071 0.7071 -0.7071 0.7071 231.5676 -242.9193)" class="st0" width="44.96" height="44.96"/>
	<polygon class="st0" points="422.4,428.13 414.93,423.82 422.4,419.5 422.4,397.24 376.37,423.82 422.4,450.39 	"/>
	<path class="st0" d="M147.35,138.73l-4.08,7.07l-4.08-7.07c-8.96,1.88-15.68,9.82-15.68,19.34s6.73,17.46,15.68,19.34l4.08-7.07
		l4.08,7.07c8.96-1.88,15.68-9.82,15.68-19.34S156.31,140.61,147.35,138.73z"/>
</g>
<g id="Layer_2">
	<path class="st0" d="M17.03-317.51v265.75h265.75v-265.75H17.03z M30.32-286.22c0-9.94,8.06-18,18-18h78.14l-25.66,70.49
		l-70.49,25.66V-286.22z M149.91-290.93L178.27-213l77.93,28.37l-77.93,28.37l-28.37,77.93l-28.37-77.93l-77.93-28.37L121.54-213
		L149.91-290.93z M48.32-65.05c-9.94,0-18-8.06-18-18v-78.14l70.49,25.66l25.66,70.49H48.32z M269.5-83.05c0,9.94-8.06,18-18,18
		h-78.14l25.66-70.49l70.49-25.66V-83.05z M269.5-208.08l-70.49-25.66l-25.66-70.49h78.14c9.94,0,18,8.06,18,18V-208.08z"/>
</g>
</svg>
