<?xml version="1.0" encoding="utf-8"?>
<!-- Generator: Adobe Illustrator 27.5.0, SVG Export Plug-In . SVG Version: 6.00 Build 0)  -->
<svg version="1.1" id="Layer_1" xmlns:shaper="http://www.shapertools.com/namespaces/shaper" shaper:fusionaddin="version:1.6.10"
	 xmlns="http://www.w3.org/2000/svg" xmlns:xlink="http://www.w3.org/1999/xlink" x="0px" y="0px" viewBox="0 0 1152 2709"
	 style="enable-background:new 0 0 1152 2709;" xml:space="preserve">
<style type="text/css">
	.st0{fill:none;stroke:#646464;stroke-width:0.8035;stroke-linecap:round;stroke-linejoin:round;stroke-miterlimit:113.3858;}
</style>
<path class="st0" d="M331.2,2085.1c83.4-77.4,88.3-207.7,10.9-291.1c-39-42-93.7-65.9-151-65.9H0V0h1152v1728c0,0-191.1,0-191.1,0
	c-113.8,0-206,92.2-206,206c0,57.3,23.9,112.1,65.9,151l0,0C891.7,2150.8,936,2244.7,936,2349c0,198.8-161.2,360-360,360
	s-360-161.2-360-360h0C216,2244.7,260.3,2150.8,331.2,2085.1"/>
</svg>
