<?xml version="1.0" encoding="utf-8"?>
<!-- Generator: Fusion 360, Shaper Origin Export Add-In, Version 1.8.0  -->
<svg xmlns="http://www.w3.org/2000/svg" xmlns:xlink="http://www.w3.org/1999/xlink" xmlns:shaper="http://www.shapertools.com/namespaces/shaper" shaper:fusionaddin="version:1.8.0" width="25.65cm" height="6.4cm" version="1.1" x="0cm" y="0cm" viewBox="0 0 25.65 6.4" enable-background="new 0 0 25.65 6.4" xml:space="preserve"><path d="M13.303125,3.2 L-10.346875,3.2 A1,1 90 0,1 -11.346875,2.2 L-11.346875,-2.2 A1,1 180 0,1 -10.346875,-3.2 L13.303125,-3.2 A1,1 270 0,1 14.303125,-2.2 L14.303125,2.2 A1,1 0 0,1 13.303125,3.2z" transform="matrix(1,0,0,-1,11.346875,3.2)" fill="rgb(0,0,0)" shaper:cutDepth="1.8cm" stroke-linecap="round" stroke-linejoin="round" /><path d="M-11.346875,-0.875 L-11.346875,0.875 -6.140625,0.875 A0.396875,0.396875 180 0,0 -5.346875,0.875 L-5.346875,-0.875 A0.396875,0.396875 0 0,0 -6.140625,-0.875 L-11.346875,-0.875z" transform="matrix(1,0,0,-1,11.346875,3.2)" fill="rgb(155,155,155)" fill-rule="nonzero" shaper:cutDepth="1cm" stroke-linecap="round" stroke-linejoin="round" /><path d="M0.80625,0 a0.396875,0.396875 0 1,1 0.79375,0 a0.396875,0.396875 0 1,1 -0.79375,0z" transform="matrix(1,0,0,-1,11.346875,3.2)" fill="rgb(255,255,255)" stroke="rgb(0,0,0)" stroke-width="0.0010cm" stroke-linecap="round" stroke-linejoin="round" shaper:cutDepth="1.8cm" /><path d="M4.00625,0 a0.396875,0.396875 0 1,1 0.79375,0 a0.396875,0.396875 0 1,1 -0.79375,0z" transform="matrix(1,0,0,-1,11.346875,3.2)" fill="rgb(255,255,255)" stroke="rgb(0,0,0)" stroke-width="0.0010cm" stroke-linecap="round" stroke-linejoin="round" shaper:cutDepth="1.8cm" /><path d="M-2.39375,0 a0.396875,0.396875 0 1,1 0.79375,0 a0.396875,0.396875 0 1,1 -0.79375,0z" transform="matrix(1,0,0,-1,11.346875,3.2)" fill="rgb(255,255,255)" stroke="rgb(0,0,0)" stroke-width="0.0010cm" stroke-linecap="round" stroke-linejoin="round" shaper:cutDepth="1.8cm" /><path d="M7.20625,0 a0.396875,0.396875 0 1,1 0.79375,0 a0.396875,0.396875 0 1,1 -0.79375,0z" transform="matrix(1,0,0,-1,11.346875,3.2)" fill="rgb(255,255,255)" stroke="rgb(0,0,0)" stroke-width="0.0010cm" stroke-linecap="round" stroke-linejoin="round" shaper:cutDepth="1.8cm" /></svg>