<?xml version="1.0" encoding="utf-8"?>
<!-- Generator: Fusion 360, Shaper Origin Export Add-In, Version 1.8.0  -->
<svg xmlns="http://www.w3.org/2000/svg" xmlns:xlink="http://www.w3.org/1999/xlink" xmlns:shaper="http://www.shapertools.com/namespaces/shaper" shaper:fusionaddin="version:1.8.0" width="31.5cm" height="18.7cm" version="1.1" x="0cm" y="0cm" viewBox="0 0 31.5 18.7" enable-background="new 0 0 31.5 18.7" xml:space="preserve"><path d="M15.75,-0.2 L-5.88,-0.2 -5.88,-5.625 -15.75,-5.625 -15.75,13.075 -14.6,13.075 A7.2142857,7.2142857 180 0,1 -13.9,9.975 L-13.1,9.975 A7.2142857,7.2142857 334.5512886 0,1 -12.4,13.075 L15.75,13.075 15.75,-0.2z" transform="matrix(1,0,0,-1,15.75,13.075)" fill="rgb(0,0,0)" shaper:cutDepth="1.27cm" stroke-linecap="round" stroke-linejoin="round" /><path d="M10.90875,6.4375 a0.5,0.5 0 1,1 1,0 a0.5,0.5 0 1,1 -1,0z" transform="matrix(1,0,0,-1,15.75,13.075)" fill="rgb(152,152,152)" fill-rule="nonzero" shaper:cutDepth="0.67cm" stroke-linecap="round" stroke-linejoin="round" /><path d="M-12.185,6.4375 a0.5,0.5 0 1,1 1,0 a0.5,0.5 0 1,1 -1,0z" transform="matrix(1,0,0,-1,15.75,13.075)" fill="rgb(152,152,152)" fill-rule="nonzero" shaper:cutDepth="0.67cm" stroke-linecap="round" stroke-linejoin="round" /><path d="M-0.5,3.275 a0.5,0.5 0 1,1 1,0 a0.5,0.5 0 1,1 -1,0z" transform="matrix(1,0,0,-1,15.75,13.075)" fill="rgb(152,152,152)" fill-rule="nonzero" shaper:cutDepth="0.67cm" stroke-linecap="round" stroke-linejoin="round" /><path d="M-13.8175,6.825 a0.3175,0.3175 0 1,1 0.635,0 a0.3175,0.3175 0 1,1 -0.635,0z" transform="matrix(1,0,0,-1,15.75,13.075)" fill="rgb(147,147,147)" fill-rule="nonzero" shaper:cutDepth="0.6cm" stroke-linecap="round" stroke-linejoin="round" /><path d="M-13.8175,2.825 a0.3175,0.3175 0 1,1 0.635,0 a0.3175,0.3175 0 1,1 -0.635,0z" transform="matrix(1,0,0,-1,15.75,13.075)" fill="rgb(147,147,147)" fill-rule="nonzero" shaper:cutDepth="0.6cm" stroke-linecap="round" stroke-linejoin="round" /><path d="M-9.3175,-0.575 a0.3175,0.3175 0 1,1 0.635,0 a0.3175,0.3175 0 1,1 -0.635,0z" transform="matrix(1,0,0,-1,15.75,13.075)" fill="rgb(147,147,147)" fill-rule="nonzero" shaper:cutDepth="0.6cm" stroke-linecap="round" stroke-linejoin="round" /><path d="M-4.8175,4.675 a0.3175,0.3175 0 1,1 0.635,0 a0.3175,0.3175 0 1,1 -0.635,0z" transform="matrix(1,0,0,-1,15.75,13.075)" fill="rgb(147,147,147)" fill-rule="nonzero" shaper:cutDepth="0.6cm" stroke-linecap="round" stroke-linejoin="round" /><path d="M-0.3175,7.95 a0.3175,0.3175 0 1,1 0.635,0 a0.3175,0.3175 0 1,1 -0.635,0z" transform="matrix(1,0,0,-1,15.75,13.075)" fill="rgb(147,147,147)" fill-rule="nonzero" shaper:cutDepth="0.6cm" stroke-linecap="round" stroke-linejoin="round" /><path d="M8.6825,4.85 a0.3175,0.3175 0 1,1 0.635,0 a0.3175,0.3175 0 1,1 -0.635,0z" transform="matrix(1,0,0,-1,15.75,13.075)" fill="rgb(147,147,147)" fill-rule="nonzero" shaper:cutDepth="0.6cm" stroke-linecap="round" stroke-linejoin="round" /><path d="M13.1825,3.85 a0.3175,0.3175 0 1,1 0.635,0 a0.3175,0.3175 0 1,1 -0.635,0z" transform="matrix(1,0,0,-1,15.75,13.075)" fill="rgb(147,147,147)" fill-rule="nonzero" shaper:cutDepth="0.6cm" stroke-linecap="round" stroke-linejoin="round" /><path d="M13.1825,4.85 a0.3175,0.3175 0 1,1 0.635,0 a0.3175,0.3175 0 1,1 -0.635,0z" transform="matrix(1,0,0,-1,15.75,13.075)" fill="rgb(147,147,147)" fill-rule="nonzero" shaper:cutDepth="0.6cm" stroke-linecap="round" stroke-linejoin="round" /><path d="M4.1825,2.85 a0.3175,0.3175 0 1,1 0.635,0 a0.3175,0.3175 0 1,1 -0.635,0z" transform="matrix(1,0,0,-1,15.75,13.075)" fill="rgb(147,147,147)" fill-rule="nonzero" shaper:cutDepth="0.6cm" stroke-linecap="round" stroke-linejoin="round" /><path d="M-0.3175,8.95 a0.3175,0.3175 0 1,1 0.635,0 a0.3175,0.3175 0 1,1 -0.635,0z" transform="matrix(1,0,0,-1,15.75,13.075)" fill="rgb(147,147,147)" fill-rule="nonzero" shaper:cutDepth="0.6cm" stroke-linecap="round" stroke-linejoin="round" /><path d="M-4.8175,5.675 a0.3175,0.3175 0 1,1 0.635,0 a0.3175,0.3175 0 1,1 -0.635,0z" transform="matrix(1,0,0,-1,15.75,13.075)" fill="rgb(147,147,147)" fill-rule="nonzero" shaper:cutDepth="0.6cm" stroke-linecap="round" stroke-linejoin="round" /><path d="M-13.8175,-0.175 a0.3175,0.3175 0 1,1 0.635,0 a0.3175,0.3175 0 1,1 -0.635,0z" transform="matrix(1,0,0,-1,15.75,13.075)" fill="rgb(147,147,147)" fill-rule="nonzero" shaper:cutDepth="0.6cm" stroke-linecap="round" stroke-linejoin="round" /><path d="M-13.8175,3.825 a0.3175,0.3175 0 1,1 0.635,0 a0.3175,0.3175 0 1,1 -0.635,0z" transform="matrix(1,0,0,-1,15.75,13.075)" fill="rgb(147,147,147)" fill-rule="nonzero" shaper:cutDepth="0.6cm" stroke-linecap="round" stroke-linejoin="round" /><path d="M-13.8175,7.825 a0.3175,0.3175 0 1,1 0.635,0 a0.3175,0.3175 0 1,1 -0.635,0z" transform="matrix(1,0,0,-1,15.75,13.075)" fill="rgb(147,147,147)" fill-rule="nonzero" shaper:cutDepth="0.6cm" stroke-linecap="round" stroke-linejoin="round" /><path d="M-13.8175,5.825 a0.3175,0.3175 0 1,1 0.635,0 a0.3175,0.3175 0 1,1 -0.635,0z" transform="matrix(1,0,0,-1,15.75,13.075)" fill="rgb(147,147,147)" fill-rule="nonzero" shaper:cutDepth="0.6cm" stroke-linecap="round" stroke-linejoin="round" /><path d="M-13.8175,1.825 a0.3175,0.3175 0 1,1 0.635,0 a0.3175,0.3175 0 1,1 -0.635,0z" transform="matrix(1,0,0,-1,15.75,13.075)" fill="rgb(147,147,147)" fill-rule="nonzero" shaper:cutDepth="0.6cm" stroke-linecap="round" stroke-linejoin="round" /><path d="M-9.3175,-1.575 a0.3175,0.3175 0 1,1 0.635,0 a0.3175,0.3175 0 1,1 -0.635,0z" transform="matrix(1,0,0,-1,15.75,13.075)" fill="rgb(147,147,147)" fill-rule="nonzero" shaper:cutDepth="0.6cm" stroke-linecap="round" stroke-linejoin="round" /><path d="M-4.8175,3.675 a0.3175,0.3175 0 1,1 0.635,0 a0.3175,0.3175 0 1,1 -0.635,0z" transform="matrix(1,0,0,-1,15.75,13.075)" fill="rgb(147,147,147)" fill-rule="nonzero" shaper:cutDepth="0.6cm" stroke-linecap="round" stroke-linejoin="round" /><path d="M4.1825,4.85 a0.3175,0.3175 0 1,1 0.635,0 a0.3175,0.3175 0 1,1 -0.635,0z" transform="matrix(1,0,0,-1,15.75,13.075)" fill="rgb(147,147,147)" fill-rule="nonzero" shaper:cutDepth="0.6cm" stroke-linecap="round" stroke-linejoin="round" /><path d="M8.6825,3.85 a0.3175,0.3175 0 1,1 0.635,0 a0.3175,0.3175 0 1,1 -0.635,0z" transform="matrix(1,0,0,-1,15.75,13.075)" fill="rgb(147,147,147)" fill-rule="nonzero" shaper:cutDepth="0.6cm" stroke-linecap="round" stroke-linejoin="round" /><path d="M13.1825,2.85 a0.3175,0.3175 0 1,1 0.635,0 a0.3175,0.3175 0 1,1 -0.635,0z" transform="matrix(1,0,0,-1,15.75,13.075)" fill="rgb(147,147,147)" fill-rule="nonzero" shaper:cutDepth="0.6cm" stroke-linecap="round" stroke-linejoin="round" /><path d="M8.6825,2.85 a0.3175,0.3175 0 1,1 0.635,0 a0.3175,0.3175 0 1,1 -0.635,0z" transform="matrix(1,0,0,-1,15.75,13.075)" fill="rgb(147,147,147)" fill-rule="nonzero" shaper:cutDepth="0.6cm" stroke-linecap="round" stroke-linejoin="round" /><path d="M4.1825,3.85 a0.3175,0.3175 0 1,1 0.635,0 a0.3175,0.3175 0 1,1 -0.635,0z" transform="matrix(1,0,0,-1,15.75,13.075)" fill="rgb(147,147,147)" fill-rule="nonzero" shaper:cutDepth="0.6cm" stroke-linecap="round" stroke-linejoin="round" /><path d="M-0.3175,9.95 a0.3175,0.3175 0 1,1 0.635,0 a0.3175,0.3175 0 1,1 -0.635,0z" transform="matrix(1,0,0,-1,15.75,13.075)" fill="rgb(147,147,147)" fill-rule="nonzero" shaper:cutDepth="0.6cm" stroke-linecap="round" stroke-linejoin="round" /><path d="M-9.3175,-2.575 a0.3175,0.3175 0 1,1 0.635,0 a0.3175,0.3175 0 1,1 -0.635,0z" transform="matrix(1,0,0,-1,15.75,13.075)" fill="rgb(147,147,147)" fill-rule="nonzero" shaper:cutDepth="0.6cm" stroke-linecap="round" stroke-linejoin="round" /><path d="M-13.8175,0.825 a0.3175,0.3175 0 1,1 0.635,0 a0.3175,0.3175 0 1,1 -0.635,0z" transform="matrix(1,0,0,-1,15.75,13.075)" fill="rgb(147,147,147)" fill-rule="nonzero" shaper:cutDepth="0.6cm" stroke-linecap="round" stroke-linejoin="round" /><path d="M-13.8175,4.825 a0.3175,0.3175 0 1,1 0.635,0 a0.3175,0.3175 0 1,1 -0.635,0z" transform="matrix(1,0,0,-1,15.75,13.075)" fill="rgb(147,147,147)" fill-rule="nonzero" shaper:cutDepth="0.6cm" stroke-linecap="round" stroke-linejoin="round" /><path d="M-13.8175,8.825 a0.3175,0.3175 0 1,1 0.635,0 a0.3175,0.3175 0 1,1 -0.635,0z" transform="matrix(1,0,0,-1,15.75,13.075)" fill="rgb(147,147,147)" fill-rule="nonzero" shaper:cutDepth="0.6cm" stroke-linecap="round" stroke-linejoin="round" /><path d="M-4.97625,13.075 L-4.02375,13.075 -4.02375,2.475 -4.97625,2.475 -4.97625,13.075z" transform="matrix(1,0,0,-1,15.75,13.075)" fill="rgb(115,115,115)" fill-rule="nonzero" shaper:cutDepth="0.2cm" stroke-linecap="round" stroke-linejoin="round" /><path d="M8.365,10.375 A15.6281383,15.6281383 350.0513615 0,1 8.6,13.075 L9.4,13.075 A15.6281383,15.6281383 180 0,1 9.635,10.375 L9.635,1.65 8.365,1.65 8.365,10.375z" transform="matrix(1,0,0,-1,15.75,13.075)" fill="rgb(115,115,115)" fill-rule="nonzero" shaper:cutDepth="0.2cm" stroke-linecap="round" stroke-linejoin="round" /><path d="M-10.27,11.925 A1.17875,1.17875 282.6803835 0,1 -9.35,13.075 L-8.65,13.075 A1.17875,1.17875 180 0,1 -7.73,11.925 L-7.73,-3.775 -10.27,-3.775 -10.27,11.925z" transform="matrix(1,0,0,-1,15.75,13.075)" fill="rgb(115,115,115)" fill-rule="nonzero" shaper:cutDepth="0.2cm" stroke-linecap="round" stroke-linejoin="round" /><path d="M-1.905,9.725 A4.4759722,4.4759722 311.5445094 0,1 -0.3975,13.075 L0.3975,13.075 A4.4759722,4.4759722 180 0,1 1.905,9.725 L1.905,6.75 -1.905,6.75 -1.905,9.725z" transform="matrix(1,0,0,-1,15.75,13.075)" fill="rgb(115,115,115)" fill-rule="nonzero" shaper:cutDepth="0.2cm" stroke-linecap="round" stroke-linejoin="round" /><path d="M13.8175,3.85 L13.8175,2.85 A0.3175,0.3175 0 0,1 13.1825,2.85 L13.1825,3.85 A0.3175,0.3175 180 0,1 13.8175,3.85z" transform="matrix(1,0,0,-1,15.75,13.075)" fill="rgb(115,115,115)" fill-rule="nonzero" shaper:cutDepth="0.2cm" stroke-linecap="round" stroke-linejoin="round" /><path d="M13.1825,2.85 A0.3175,0.3175 180 0,1 13.8175,2.85 L13.8175,1.65 13.1825,1.65 13.1825,2.85z" transform="matrix(1,0,0,-1,15.75,13.075)" fill="rgb(115,115,115)" fill-rule="nonzero" shaper:cutDepth="0.2cm" stroke-linecap="round" stroke-linejoin="round" /><path d="M13.8175,4.85 L13.8175,3.85 A0.3175,0.3175 0 0,1 13.1825,3.85 L13.1825,4.85 A0.3175,0.3175 180 0,1 13.8175,4.85z" transform="matrix(1,0,0,-1,15.75,13.075)" fill="rgb(115,115,115)" fill-rule="nonzero" shaper:cutDepth="0.2cm" stroke-linecap="round" stroke-linejoin="round" /><path d="M13.8175,10.535 L13.8175,4.85 A0.3175,0.3175 0 0,1 13.1825,4.85 L13.1825,10.535 A40.3625,40.3625 0 0,1 13.1025,13.075 L13.8975,13.075 A40.3625,40.3625 176.3920098 0,1 13.8175,10.535z" transform="matrix(1,0,0,-1,15.75,13.075)" fill="rgb(115,115,115)" fill-rule="nonzero" shaper:cutDepth="0.2cm" stroke-linecap="round" stroke-linejoin="round" /><path d="M3.5475,10.425 A6.6040766,6.6040766 336.3425723 0,1 4.1025,13.075 L4.8975,13.075 A6.6040766,6.6040766 180 0,1 5.4525,10.425 L5.4525,1.65 3.5475,1.65 3.5475,10.425z" transform="matrix(1,0,0,-1,15.75,13.075)" fill="rgb(115,115,115)" fill-rule="nonzero" shaper:cutDepth="0.2cm" stroke-linecap="round" stroke-linejoin="round" /><path d="M-13.9,9.975 L-13.1,9.975 -13.1,-1.375 -13.9,-1.375 -13.9,9.975z" transform="matrix(1,0,0,-1,15.75,13.075)" fill="rgb(115,115,115)" fill-rule="nonzero" shaper:cutDepth="0.2cm" stroke-linecap="round" stroke-linejoin="round" /></svg>