<?xml version="1.0" encoding="utf-8"?>
<!-- Generator: Fusion 360, Shaper Origin Export Add-In, Version 1.6.10  -->
<svg xmlns="http://www.w3.org/2000/svg" xmlns:xlink="http://www.w3.org/1999/xlink" xmlns:shaper="http://www.shapertools.com/namespaces/shaper" shaper:fusionaddin="version:1.6.10" width="9.1358615cm" height="10.1240388cm" version="1.1" x="0cm" y="0cm" viewBox="0 0 9.1358615 10.1240388" enable-background="new 0 0 9.1358615 10.1240388" xml:space="preserve"><path d="M2.8948562,-0.3010832 L3.4857408,-0.1968943 2.9387491,2.9052501 -0.6112509,2.9052501 -0.6112509,2.2552501 -1.2112509,2.2552501 -1.2112509,2.9052501 -4.6612509,2.9052501 -4.6612509,2.7052501 -4.5255745,1.9357908 A0.4,0.4 190 0,1 -4.1316514,1.6052501 L0.9030237,1.6052501 A0.4,0.4 90 0,0 1.2969468,1.2747093 L1.3816279,0.7944593 A0.4,0.4 10 0,0 0.9877048,0.325 L-3.7648472,0.325 A0.4,0.4 90 0,1 -4.1587703,-0.1444593 L-4.0706068,-0.6444593 A0.4,0.4 190 0,1 -3.6766837,-0.975 L1.3579914,-0.975 A0.4,0.4 90 0,0 1.7519145,-1.3055407 L1.8365956,-1.7857908 A0.4,0.4 10 0,0 1.4426725,-2.2552501 L-3.3098795,-2.2552501 A0.4,0.4 90 0,1 -3.7038026,-2.7247093 L-3.6156391,-3.2247093 A0.4,0.4 190 0,1 -3.221716,-3.5552501 L1.8129592,-3.5552501 A0.4,0.4 90 0,0 2.2068823,-3.8857908 L2.4825763,-5.4493294 A0.4,0.4 10 0,0 2.0886532,-5.9187887 L-2.6638988,-5.9187887 A0.4,0.4 90 0,1 -3.0578219,-6.388248 L-2.9696584,-6.888248 A0.4,0.4 190 0,1 -2.5757353,-7.2187887 L3.1746106,-7.2187887 A1.3,1.3 270 0,1 4.4548607,-5.6930461 L3.7114835,-1.4771444 3.1205988,-1.5813333 2.8948562,-0.3010832z" transform="matrix(1,0,0,-1,4.6612509,2.9052501)" fill="rgb(0,0,0)" shaper:cutDepth="0.006" stroke-linecap="round" stroke-linejoin="round" /></svg>