<?xml version="1.0" encoding="utf-8"?>
<!-- Generator: Fusion 360, Shaper Origin Export Add-In, Version 1.8.0  -->
<svg xmlns="http://www.w3.org/2000/svg" xmlns:xlink="http://www.w3.org/1999/xlink" xmlns:shaper="http://www.shapertools.com/namespaces/shaper" shaper:fusionaddin="version:1.8.0" width="50cm" height="30cm" version="1.1" x="0cm" y="0cm" viewBox="0 0 50 30" enable-background="new 0 0 50 30" xml:space="preserve"><path d="M-25,3.438053 L-25,-23.361947 A1.6,1.6 180 0,1 -23.4,-24.961947 L-16.2092447,-24.961947 A1.6,1.6 270 0,1 -14.6153332,-23.5013962 L-13.5590447,-11.4279628 A7,7 175 0,0 -6.5856818,-5.038053 L6.5856818,-5.038053 A7,7 90 0,0 13.5590447,-11.4279628 L14.6153332,-23.5013962 A1.6,1.6 185 0,1 16.2092447,-24.961947 L23.4,-24.961947 A1.6,1.6 270 0,1 25,-23.361947 L25,3.438053 A1.6,1.6 0 0,1 23.4,5.038053 L-23.4,5.038053 A1.6,1.6 90 0,1 -25,3.438053z" transform="matrix(1,0,0,-1,25,5.038053)" fill="rgb(0,0,0)" shaper:cutDepth="1.2cm" stroke-linecap="round" stroke-linejoin="round" /><path d="M22.2,3.438053 L23.4,3.438053 23.4,-23.361947 22.2,-23.361947 22.2,0.638053 -22.2,0.638053 -22.2,-23.361947 -23.4,-23.361947 -23.4,3.438053 -22.2,3.438053 -22.2,1.838053 22.2,1.838053 22.2,3.438053z" transform="matrix(1,0,0,-1,25,5.038053)" fill="rgb(133,133,133)" fill-rule="nonzero" shaper:cutDepth="0.4cm" stroke-linecap="round" stroke-linejoin="round" /></svg>