<?xml version="1.0" encoding="utf-8"?>
<!-- Generator: Fusion 360, Shaper Origin Export Add-In, Version 1.8.0  -->
<svg xmlns="http://www.w3.org/2000/svg" xmlns:xlink="http://www.w3.org/1999/xlink" xmlns:shaper="http://www.shapertools.com/namespaces/shaper" shaper:fusionaddin="version:1.8.0" width="5cm" height="2.13cm" version="1.1" x="0cm" y="0cm" viewBox="0 0 5 2.13" enable-background="new 0 0 5 2.13" xml:space="preserve"><path d="M0,0 L5,0 5,2.13 0,2.13 0,0z" transform="matrix(1,0,0,-1,-0,2.13)" stroke="rgb(100,100,100)" stroke-width="0.0010cm" stroke-linecap="round" stroke-linejoin="round" fill="none" /><path d="M0.9461525,1.9615369 A0.3175,0.3175 60 0,1 0.4699025,1.6865739 L0.4699025,0.4434261 A0.3175,0.3175 180 0,1 0.9461525,0.1684631 L2.02275,0.7900369 A0.3175,0.3175 300 0,1 2.02275,1.3399631 L0.9461525,1.9615369z" transform="matrix(1,0,0,-1,-0,2.13)" stroke="rgb(100,100,100)" stroke-width="0.0010cm" stroke-linecap="round" stroke-linejoin="round" fill="none" /><path d="M4.0538475,1.9615369 L2.97725,1.3399631 A0.3175,0.3175 120 0,1 2.97725,0.7900369 L4.0538475,0.1684631 A0.3175,0.3175 240 0,1 4.5300975,0.4434261 L4.5300975,1.6865739 A0.3175,0.3175 0 0,1 4.0538475,1.9615369z" transform="matrix(1,0,0,-1,-0,2.13)" stroke="rgb(100,100,100)" stroke-width="0.0010cm" stroke-linecap="round" stroke-linejoin="round" fill="none" /></svg>