<?xml version="1.0" encoding="utf-8"?>
<!-- Generator: Fusion 360, Shaper Origin Export Add-In, Version 1.6.10  -->
<svg xmlns="http://www.w3.org/2000/svg" xmlns:xlink="http://www.w3.org/1999/xlink"
    xmlns:shaper="http://www.shapertools.com/namespaces/shaper" shaper:fusionaddin="version:1.6.10" width="86.4cm"
    height="48cm" version="1.1" x="0cm" y="0cm" viewBox="0 0 86.4 48" enable-background="new 0 0 86.4 48"
    xml:space="preserve">
    <path
        d="M41.2,23.9968476 L-41.2,23.9968476 A2,2 90 0,1 -43.2,21.9968476 L-43.2,19.1968476 A43.2,43.2 180 0,1 43.2,19.1968476 L43.2,21.9968476 A2,2 0 0,1 41.2,23.9968476z"
        transform="matrix(1,0,0,-1,43.2,23.9968476)" fill="rgb(0,0,0)" shaper:cutDepth="0.018" stroke-linecap="round"
        stroke-linejoin="round" />
    <path
        d="M-18,19.4618476 L-18,18.9318476 A0.635,0.635 0 0,0 -18.635,18.2968476 L-33.635,18.2968476 A0.635,0.635 270 0,0 -34.27,18.9318476 L-34.27,19.4618476 A0.635,0.635 180 0,0 -33.635,20.0968476 L-18.635,20.0968476 A0.635,0.635 90 0,0 -18,19.4618476z"
        transform="matrix(1,0,0,-1,43.2,23.9968476)" fill="rgb(166,166,166)" fill-rule="nonzero" shaper:cutDepth="0.012"
        stroke-linecap="round" stroke-linejoin="round" />
    <path
        d="M14.4065428,8.4023236 L14.718069,8.8311026 A0.635,0.635 144 0,0 15.6050384,8.9715848 L27.7402933,0.154806 A0.635,0.635 54 0,0 27.8807755,-0.7321635 L27.5692493,-1.1609425 A0.635,0.635 324 0,0 26.6822799,-1.3014246 L14.547025,7.5153542 A0.635,0.635 234 0,0 14.4065428,8.4023236z"
        transform="matrix(1,0,0,-1,43.2,23.9968476)" fill="rgb(166,166,166)" fill-rule="nonzero" shaper:cutDepth="0.012"
        stroke-linecap="round" stroke-linejoin="round" />
    <path
        d="M5.3102759,1.9959408 L5.8143359,2.1597199 A0.635,0.635 108 0,0 6.6144826,1.7520248 L11.2497375,-12.513823 A0.635,0.635 18 0,0 10.8420424,-13.3139697 L10.3379824,-13.4777487 A0.635,0.635 288 0,0 9.5378357,-13.0700536 L4.9025808,1.1957942 A0.635,0.635 198 0,0 5.3102759,1.9959408z"
        transform="matrix(1,0,0,-1,43.2,23.9968476)" fill="rgb(166,166,166)" fill-rule="nonzero" shaper:cutDepth="0.012"
        stroke-linecap="round" stroke-linejoin="round" />
    <path
        d="M-14.718069,8.8311026 L-14.4065428,8.4023236 A0.635,0.635 36 0,0 -14.547025,7.5153542 L-26.6822799,-1.3014246 A0.635,0.635 306 0,0 -27.5692493,-1.1609425 L-27.8807755,-0.7321635 A0.635,0.635 216 0,0 -27.7402933,0.154806 L-15.6050384,8.9715848 A0.635,0.635 126 0,0 -14.718069,8.8311026z"
        transform="matrix(1,0,0,-1,43.2,23.9968476)" fill="rgb(166,166,166)" fill-rule="nonzero" shaper:cutDepth="0.012"
        stroke-linecap="round" stroke-linejoin="round" />
    <path
        d="M18,19.4618476 A0.635,0.635 180 0,0 18.635,20.0968476 L33.635,20.0968476 A0.635,0.635 90 0,0 34.27,19.4618476 L34.27,18.9318476 A0.635,0.635 0 0,0 33.635,18.2968476 L18.635,18.2968476 A0.635,0.635 270 0,0 18,18.9318476 L18,19.4618476z"
        transform="matrix(1,0,0,-1,43.2,23.9968476)" fill="rgb(166,166,166)" fill-rule="nonzero" shaper:cutDepth="0.012"
        stroke-linecap="round" stroke-linejoin="round" />
    <path
        d="M-5.8143359,2.1597199 L-5.3102759,1.9959408 A0.635,0.635 72 0,0 -4.9025808,1.1957942 L-9.5378357,-13.0700536 A0.635,0.635 342 0,0 -10.3379824,-13.4777487 L-10.8420424,-13.3139697 A0.635,0.635 252 0,0 -11.2497375,-12.513823 L-6.6144826,1.7520248 A0.635,0.635 162 0,0 -5.8143359,2.1597199z"
        transform="matrix(1,0,0,-1,43.2,23.9968476)" fill="rgb(166,166,166)" fill-rule="nonzero" shaper:cutDepth="0.012"
        stroke-linecap="round" stroke-linejoin="round" />
    <path
        d="M0.7380296,-23.9968476 A43.2,43.2 270.9788897 0,0 -0,-24.0031524 L1.4433757,-21.5031524 -1.4433757,-21.5031524 0,-24.0031524 A43.2,43.2 270 0,0 -0.7380296,-23.9968476 L-1.9950339,-21.8196524 A0.635,0.635 210 0,0 -1.4451077,-20.8671524 L1.4451077,-20.8671524 A0.635,0.635 90 0,0 1.9950339,-21.8196524 L0.7380296,-23.9968476z"
        transform="matrix(1,0,0,-1,43.2,23.9968476)" fill="rgb(116,116,116)" fill-rule="nonzero" shaper:cutDepth="0.003"
        stroke-linecap="round" stroke-linejoin="round" />
    <path
        d="M-40.7,20.6402233 L-43.2,19.1968476 -43.2,19.9312372 -41.0165,21.1918815 A0.635,0.635 120 0,0 -40.064,20.6419554 L-40.064,17.7517399 A0.635,0.635 0 0,0 -41.0165,17.2018138 L-43.1936953,18.4588181 A43.2,43.2 180.9788897 0,0 -43.2,19.1968476 L-40.7,17.753472 -40.7,20.6402233z"
        transform="matrix(1,0,0,-1,43.2,23.9968476)" fill="rgb(116,116,116)" fill-rule="nonzero" shaper:cutDepth="0.003"
        stroke-linecap="round" stroke-linejoin="round" />
    <path
        d="M43.2,19.1968476 A43.2,43.2 0 0,0 43.1936953,18.4588181 L41.0165,17.2018138 A0.635,0.635 300 0,0 40.064,17.7517399 L40.064,20.6419554 A0.635,0.635 180 0,0 41.0165,21.1918815 L43.2,19.9312372 43.2,19.1968476 40.7,20.6402233 40.7,17.753472 43.2,19.1968476z"
        transform="matrix(1,0,0,-1,43.2,23.9968476)" fill="rgb(116,116,116)" fill-rule="nonzero" shaper:cutDepth="0.003"
        stroke-linecap="round" stroke-linejoin="round" />
</svg>
