<?xml version="1.0" encoding="utf-8"?>
<!-- Generator: Fusion 360, Shaper Origin Export Add-In, Version 1.7.0  -->
<svg xmlns="http://www.w3.org/2000/svg" xmlns:xlink="http://www.w3.org/1999/xlink" xmlns:shaper="http://www.shapertools.com/namespaces/shaper" shaper:fusionaddin="version:1.7.0" width="90.5cm" height="13.2cm" version="1.1" x="0cm" y="0cm" viewBox="0 0 90.5 13.2" enable-background="new 0 0 90.5 13.2" xml:space="preserve"><path d="M64.1500001,-6.6 L64.1500001,-1.1 65.1500001,-1.1 65.1500001,-0.1 64.1500001,-0.1 64.1500001,0.1 64.1500001,0.7 64.1500001,6.6 -24.3499999,6.6 -24.3499999,0.7 -24.3499999,0.1 -24.3499999,-0.1 -25.3499999,-0.1 -25.3499999,-1.1 -24.3499999,-1.1 -24.3499999,-6.6 64.1500001,-6.6z" transform="matrix(1,0,0,-1,25.3499999,6.6)" fill="rgb(0,0,0)" shaper:cutDepth="1.8cm" stroke-linecap="round" stroke-linejoin="round" /><path d="M-20.8999999,3.7825 L-20.8999999,2.1 A8.1250034,8.1250034 180.0000053 0,1 -20.7784756,0.7 A8.1250034,8.1250034 189.9220217 0,1 -20.6499998,0.1 L-20.65,-0.1 A8.1250034,8.1250034 165.7499728 0,1 -20.7784758,-0.7 A8.1250034,8.1250034 170.0779833 0,1 -20.8999999,-2.1000001 L-20.8999999,-3.7825 A0.3175,0.3175 0 0,0 -21.2174999,-4.1 L-21.5824999,-4.1 A0.3175,0.3175 270 0,0 -21.8999999,-3.7825 L-21.8999999,-2.1 A8.1250034,8.1250034 0.0000053 0,1 -22.0215242,-0.7 A8.1250034,8.1250034 9.9220217 0,1 -22.15,-0.1 L-22.15,0.1 A8.1250032,8.1250032 345.7499725 0,1 -22.0215242,0.7 A8.1250034,8.1250034 350.0779833 0,1 -21.8999999,2.1000001 L-21.8999999,3.7825 A0.3175,0.3175 180 0,0 -21.5824999,4.1 L-21.2174999,4.1 A0.3175,0.3175 90 0,0 -20.8999999,3.7825z" transform="matrix(1,0,0,-1,25.3499999,6.6)" fill="rgb(255,255,255)" stroke="rgb(0,0,0)" stroke-width="0.0010cm" stroke-linecap="round" stroke-linejoin="round" shaper:cutDepth="1.8cm" /><path d="M-14.9999999,3.7825 L-14.9999999,2.1 A8.1250034,8.1250034 180.0000053 0,1 -14.8784756,0.7 A8.1250034,8.1250034 189.9220217 0,1 -14.7499998,0.1 L-14.75,-0.1 A8.1250034,8.1250034 165.7499728 0,1 -14.8784758,-0.7 A8.1250034,8.1250034 170.0779833 0,1 -14.9999999,-2.1000001 L-14.9999999,-3.7825 A0.3175,0.3175 0 0,0 -15.3174999,-4.1 L-15.6824999,-4.1 A0.3175,0.3175 270 0,0 -15.9999999,-3.7825 L-15.9999999,-2.1 A8.1250034,8.1250034 0.0000052 0,1 -16.1215242,-0.7 A8.1250034,8.1250034 9.9220217 0,1 -16.25,-0.1 L-16.25,0.1 A8.1250032,8.1250032 345.7499725 0,1 -16.1215242,0.7 A8.1250034,8.1250034 350.0779833 0,1 -15.9999999,2.1000001 L-15.9999999,3.7825 A0.3175,0.3175 180 0,0 -15.6824999,4.1 L-15.3174999,4.1 A0.3175,0.3175 90 0,0 -14.9999999,3.7825z" transform="matrix(1,0,0,-1,25.3499999,6.6)" fill="rgb(255,255,255)" stroke="rgb(0,0,0)" stroke-width="0.0010cm" stroke-linecap="round" stroke-linejoin="round" shaper:cutDepth="1.8cm" /><path d="M-9.0999999,3.7825 L-9.0999999,2.1 A8.1250034,8.1250034 180.0000053 0,1 -8.9784756,0.7 A8.1250034,8.1250034 189.9220217 0,1 -8.8499998,0.1 L-8.85,-0.1 A8.1250034,8.1250034 165.7499728 0,1 -8.9784758,-0.7 A8.1250034,8.1250034 170.0779833 0,1 -9.0999999,-2.1000001 L-9.0999999,-3.7825 A0.3175,0.3175 0 0,0 -9.4174999,-4.1 L-9.7824999,-4.1 A0.3175,0.3175 270 0,0 -10.0999999,-3.7825 L-10.0999999,-2.1 A8.1250034,8.1250034 0.0000053 0,1 -10.2215242,-0.7 A8.1250034,8.1250034 9.9220217 0,1 -10.35,-0.1 L-10.35,0.1 A8.1250032,8.1250032 345.7499725 0,1 -10.2215242,0.7 A8.1250034,8.1250034 350.0779833 0,1 -10.0999999,2.1000001 L-10.0999999,3.7825 A0.3175,0.3175 180 0,0 -9.7824999,4.1 L-9.4174999,4.1 A0.3175,0.3175 90 0,0 -9.0999999,3.7825z" transform="matrix(1,0,0,-1,25.3499999,6.6)" fill="rgb(255,255,255)" stroke="rgb(0,0,0)" stroke-width="0.0010cm" stroke-linecap="round" stroke-linejoin="round" shaper:cutDepth="1.8cm" /><path d="M-3.1999999,3.7825 L-3.1999999,2.1 A8.1250034,8.1250034 180.0000053 0,1 -3.0784756,0.7 A8.1250034,8.1250034 189.9220217 0,1 -2.9499998,0.1 L-2.95,-0.1 A8.1250034,8.1250034 165.7499728 0,1 -3.0784758,-0.7 A8.1250034,8.1250034 170.0779833 0,1 -3.1999999,-2.1000001 L-3.1999999,-3.7825 A0.3175,0.3175 0 0,0 -3.5174999,-4.1 L-3.8824999,-4.1 A0.3175,0.3175 270 0,0 -4.1999999,-3.7825 L-4.1999999,-2.1 A8.1250034,8.1250034 0.0000053 0,1 -4.3215242,-0.7 A8.1250034,8.1250034 9.9220217 0,1 -4.45,-0.1 L-4.45,0.1 A8.1250032,8.1250032 345.7499725 0,1 -4.3215242,0.7 A8.1250034,8.1250034 350.0779833 0,1 -4.1999999,2.1000001 L-4.1999999,3.7825 A0.3175,0.3175 180 0,0 -3.8824999,4.1 L-3.5174999,4.1 A0.3175,0.3175 90 0,0 -3.1999999,3.7825z" transform="matrix(1,0,0,-1,25.3499999,6.6)" fill="rgb(255,255,255)" stroke="rgb(0,0,0)" stroke-width="0.0010cm" stroke-linecap="round" stroke-linejoin="round" shaper:cutDepth="1.8cm" /><path d="M2.7000001,3.7825 L2.7000001,2.1 A8.1250034,8.1250034 180.0000053 0,1 2.8215244,0.7 A8.1250034,8.1250034 189.9220217 0,1 2.9500002,0.1 L2.95,-0.1 A8.1250034,8.1250034 165.7499728 0,1 2.8215242,-0.7 A8.1250034,8.1250034 170.0779833 0,1 2.7000001,-2.1000001 L2.7000001,-3.7825 A0.3175,0.3175 0 0,0 2.3825001,-4.1 L2.0175001,-4.1 A0.3175,0.3175 270 0,0 1.7000001,-3.7825 L1.7000001,-2.1 A8.1250034,8.1250034 0.0000053 0,1 1.5784758,-0.7 A8.1250034,8.1250034 9.9220217 0,1 1.45,-0.1 L1.45,0.1 A8.1250032,8.1250032 345.7499725 0,1 1.5784758,0.7 A8.1250034,8.1250034 350.0779833 0,1 1.7000001,2.1000001 L1.7000001,3.7825 A0.3175,0.3175 180 0,0 2.0175001,4.1 L2.3825001,4.1 A0.3175,0.3175 90 0,0 2.7000001,3.7825z" transform="matrix(1,0,0,-1,25.3499999,6.6)" fill="rgb(255,255,255)" stroke="rgb(0,0,0)" stroke-width="0.0010cm" stroke-linecap="round" stroke-linejoin="round" shaper:cutDepth="1.8cm" /><path d="M8.6000001,3.7825 L8.6000001,2.1 A8.1250034,8.1250034 180.0000053 0,1 8.7215244,0.7 A8.1250034,8.1250034 189.9220217 0,1 8.8500002,0.1 L8.85,-0.1 A8.1250034,8.1250034 165.7499728 0,1 8.7215242,-0.7 A8.1250034,8.1250034 170.0779833 0,1 8.6000001,-2.1000001 L8.6000001,-3.7825 A0.3175,0.3175 0 0,0 8.2825001,-4.1 L7.9175001,-4.1 A0.3175,0.3175 270 0,0 7.6000001,-3.7825 L7.6000001,-2.1 A8.1250034,8.1250034 0.0000053 0,1 7.4784758,-0.7 A8.1250034,8.1250034 9.9220217 0,1 7.35,-0.1 L7.35,0.1 A8.1250032,8.1250032 345.7499725 0,1 7.4784758,0.7 A8.1250034,8.1250034 350.0779833 0,1 7.6000001,2.1000001 L7.6000001,3.7825 A0.3175,0.3175 180 0,0 7.9175001,4.1 L8.2825001,4.1 A0.3175,0.3175 90 0,0 8.6000001,3.7825z" transform="matrix(1,0,0,-1,25.3499999,6.6)" fill="rgb(255,255,255)" stroke="rgb(0,0,0)" stroke-width="0.0010cm" stroke-linecap="round" stroke-linejoin="round" shaper:cutDepth="1.8cm" /><path d="M14.5000001,3.7825 L14.5000001,2.1 A8.1250034,8.1250034 180.0000053 0,1 14.6215244,0.7 A8.1250034,8.1250034 189.9220217 0,1 14.7500002,0.1 L14.75,-0.1 A8.1250034,8.1250034 165.7499728 0,1 14.6215242,-0.7 A8.1250034,8.1250034 170.0779833 0,1 14.5000001,-2.1000001 L14.5000001,-3.7825 A0.3175,0.3175 0 0,0 14.1825001,-4.1 L13.8175001,-4.1 A0.3175,0.3175 270 0,0 13.5000001,-3.7825 L13.5000001,-2.1 A8.1250034,8.1250034 0.0000053 0,1 13.3784758,-0.7 A8.1250034,8.1250034 9.9220217 0,1 13.25,-0.1 L13.25,0.1 A8.1250032,8.1250032 345.7499725 0,1 13.3784758,0.7 A8.1250034,8.1250034 350.0779833 0,1 13.5000001,2.1000001 L13.5000001,3.7825 A0.3175,0.3175 180 0,0 13.8175001,4.1 L14.1825001,4.1 A0.3175,0.3175 90 0,0 14.5000001,3.7825z" transform="matrix(1,0,0,-1,25.3499999,6.6)" fill="rgb(255,255,255)" stroke="rgb(0,0,0)" stroke-width="0.0010cm" stroke-linecap="round" stroke-linejoin="round" shaper:cutDepth="1.8cm" /><path d="M20.4000001,3.7825 L20.4000001,2.1 A8.1250034,8.1250034 180.0000053 0,1 20.5215244,0.7 A8.1250034,8.1250034 189.9220217 0,1 20.6500002,0.1 L20.65,-0.1 A8.1250034,8.1250034 165.7499728 0,1 20.5215242,-0.7 A8.1250034,8.1250034 170.0779833 0,1 20.4000001,-2.1000001 L20.4000001,-3.7825 A0.3175,0.3175 0 0,0 20.0825001,-4.1 L19.7175001,-4.1 A0.3175,0.3175 270 0,0 19.4000001,-3.7825 L19.4000001,-2.1 A8.1250034,8.1250034 0.0000053 0,1 19.2784758,-0.7 A8.1250034,8.1250034 9.9220217 0,1 19.15,-0.1 L19.15,0.1 A8.1250032,8.1250032 345.7499725 0,1 19.2784758,0.7 A8.1250034,8.1250034 350.0779833 0,1 19.4000001,2.1000001 L19.4000001,3.7825 A0.3175,0.3175 180 0,0 19.7175001,4.1 L20.0825001,4.1 A0.3175,0.3175 90 0,0 20.4000001,3.7825z" transform="matrix(1,0,0,-1,25.3499999,6.6)" fill="rgb(255,255,255)" stroke="rgb(0,0,0)" stroke-width="0.0010cm" stroke-linecap="round" stroke-linejoin="round" shaper:cutDepth="1.8cm" /><path d="M26.3000001,3.7825 L26.3000001,2.1 A8.1250034,8.1250034 180.0000053 0,1 26.4215244,0.7 A8.1250034,8.1250034 189.9220217 0,1 26.5500002,0.1 L26.55,-0.1 A8.1250034,8.1250034 165.7499728 0,1 26.4215242,-0.7 A8.1250034,8.1250034 170.0779833 0,1 26.3000001,-2.1000001 L26.3000001,-3.7825 A0.3175,0.3175 0 0,0 25.9825001,-4.1 L25.6175001,-4.1 A0.3175,0.3175 270 0,0 25.3000001,-3.7825 L25.3000001,-2.1 A8.1250034,8.1250034 0.0000052 0,1 25.1784758,-0.7 A8.1250034,8.1250034 9.9220217 0,1 25.05,-0.1 L25.05,0.1 A8.1250032,8.1250032 345.7499725 0,1 25.1784758,0.7 A8.1250034,8.1250034 350.0779833 0,1 25.3000001,2.1000001 L25.3000001,3.7825 A0.3175,0.3175 180 0,0 25.6175001,4.1 L25.9825001,4.1 A0.3175,0.3175 90 0,0 26.3000001,3.7825z" transform="matrix(1,0,0,-1,25.3499999,6.6)" fill="rgb(255,255,255)" stroke="rgb(0,0,0)" stroke-width="0.0010cm" stroke-linecap="round" stroke-linejoin="round" shaper:cutDepth="1.8cm" /><path d="M32.2000001,3.7825 L32.2000001,2.1 A8.1250034,8.1250034 180.0000053 0,1 32.3215244,0.7 A8.1250034,8.1250034 189.9220217 0,1 32.4500002,0.1 L32.45,-0.1 A8.1250034,8.1250034 165.7499728 0,1 32.3215242,-0.7 A8.1250034,8.1250034 170.0779833 0,1 32.2000001,-2.1000001 L32.2000001,-3.7825 A0.3175,0.3175 0 0,0 31.8825001,-4.1 L31.5175001,-4.1 A0.3175,0.3175 270 0,0 31.2000001,-3.7825 L31.2000001,-2.1 A8.1250034,8.1250034 0.0000052 0,1 31.0784758,-0.7 A8.1250034,8.1250034 9.9220217 0,1 30.95,-0.1 L30.95,0.1 A8.1250032,8.1250032 345.7499725 0,1 31.0784758,0.7 A8.1250034,8.1250034 350.0779833 0,1 31.2000001,2.1000001 L31.2000001,3.7825 A0.3175,0.3175 180 0,0 31.5175001,4.1 L31.8825001,4.1 A0.3175,0.3175 90 0,0 32.2000001,3.7825z" transform="matrix(1,0,0,-1,25.3499999,6.6)" fill="rgb(255,255,255)" stroke="rgb(0,0,0)" stroke-width="0.0010cm" stroke-linecap="round" stroke-linejoin="round" shaper:cutDepth="1.8cm" /><path d="M38.1000001,3.7825 L38.1000001,2.1 A8.1250034,8.1250034 180.0000053 0,1 38.2215244,0.7 A8.1250034,8.1250034 189.9220217 0,1 38.3500002,0.1 L38.35,-0.1 A8.1250034,8.1250034 165.7499728 0,1 38.2215242,-0.7 A8.1250034,8.1250034 170.0779833 0,1 38.1000001,-2.1000001 L38.1000001,-3.7825 A0.3175,0.3175 0 0,0 37.7825001,-4.1 L37.4175001,-4.1 A0.3175,0.3175 270 0,0 37.1000001,-3.7825 L37.1000001,-2.1 A8.1250034,8.1250034 0.0000052 0,1 36.9784758,-0.7 A8.1250034,8.1250034 9.9220217 0,1 36.85,-0.1 L36.85,0.1 A8.1250032,8.1250032 345.7499725 0,1 36.9784758,0.7 A8.1250034,8.1250034 350.0779833 0,1 37.1000001,2.1000001 L37.1000001,3.7825 A0.3175,0.3175 180 0,0 37.4175001,4.1 L37.7825001,4.1 A0.3175,0.3175 90 0,0 38.1000001,3.7825z" transform="matrix(1,0,0,-1,25.3499999,6.6)" fill="rgb(255,255,255)" stroke="rgb(0,0,0)" stroke-width="0.0010cm" stroke-linecap="round" stroke-linejoin="round" shaper:cutDepth="1.8cm" /><path d="M44.0000001,3.7825 L44.0000001,2.1 A8.1250034,8.1250034 180.0000053 0,1 44.1215244,0.7 A8.1250034,8.1250034 189.9220217 0,1 44.2500002,0.1 L44.25,-0.1 A8.1250034,8.1250034 165.7499728 0,1 44.1215242,-0.7 A8.1250034,8.1250034 170.0779833 0,1 44.0000001,-2.1000001 L44.0000001,-3.7825 A0.3175,0.3175 0 0,0 43.6825001,-4.1 L43.3175001,-4.1 A0.3175,0.3175 270 0,0 43.0000001,-3.7825 L43.0000001,-2.1 A8.1250034,8.1250034 0.0000052 0,1 42.8784758,-0.7 A8.1250034,8.1250034 9.9220217 0,1 42.75,-0.1 L42.75,0.1 A8.1250032,8.1250032 345.7499725 0,1 42.8784758,0.7 A8.1250034,8.1250034 350.0779833 0,1 43.0000001,2.1000001 L43.0000001,3.7825 A0.3175,0.3175 180 0,0 43.3175001,4.1 L43.6825001,4.1 A0.3175,0.3175 90 0,0 44.0000001,3.7825z" transform="matrix(1,0,0,-1,25.3499999,6.6)" fill="rgb(255,255,255)" stroke="rgb(0,0,0)" stroke-width="0.0010cm" stroke-linecap="round" stroke-linejoin="round" shaper:cutDepth="1.8cm" /><path d="M49.9000001,3.7825 L49.9000001,2.1 A8.1250034,8.1250034 180.0000053 0,1 50.0215244,0.7 A8.1250034,8.1250034 189.9220217 0,1 50.1500002,0.1 L50.15,-0.1 A8.1250034,8.1250034 165.7499728 0,1 50.0215242,-0.7 A8.1250034,8.1250034 170.0779833 0,1 49.9000001,-2.1000001 L49.9000001,-3.7825 A0.3175,0.3175 0 0,0 49.5825001,-4.1 L49.2175001,-4.1 A0.3175,0.3175 270 0,0 48.9000001,-3.7825 L48.9000001,-2.1 A8.1250034,8.1250034 0.0000052 0,1 48.7784758,-0.7 A8.1250034,8.1250034 9.9220217 0,1 48.65,-0.1 L48.65,0.1 A8.1250032,8.1250032 345.7499725 0,1 48.7784758,0.7 A8.1250034,8.1250034 350.0779833 0,1 48.9000001,2.1000001 L48.9000001,3.7825 A0.3175,0.3175 180 0,0 49.2175001,4.1 L49.5825001,4.1 A0.3175,0.3175 90 0,0 49.9000001,3.7825z" transform="matrix(1,0,0,-1,25.3499999,6.6)" fill="rgb(255,255,255)" stroke="rgb(0,0,0)" stroke-width="0.0010cm" stroke-linecap="round" stroke-linejoin="round" shaper:cutDepth="1.8cm" /><path d="M55.8000001,3.7825 L55.8000001,2.1 A8.1250034,8.1250034 180.0000053 0,1 55.9215244,0.7 A8.1250034,8.1250034 189.9220217 0,1 56.0500002,0.1 L56.05,-0.1 A8.1250034,8.1250034 165.7499728 0,1 55.9215242,-0.7 A8.1250034,8.1250034 170.0779833 0,1 55.8000001,-2.1000001 L55.8000001,-3.7825 A0.3175,0.3175 0 0,0 55.4825001,-4.1 L55.1175001,-4.1 A0.3175,0.3175 270 0,0 54.8000001,-3.7825 L54.8000001,-2.1 A8.1250034,8.1250034 0.0000052 0,1 54.6784758,-0.7 A8.1250034,8.1250034 9.9220217 0,1 54.55,-0.1 L54.55,0.1 A8.1250032,8.1250032 345.7499725 0,1 54.6784758,0.7 A8.1250034,8.1250034 350.0779833 0,1 54.8000001,2.1000001 L54.8000001,3.7825 A0.3175,0.3175 180 0,0 55.1175001,4.1 L55.4825001,4.1 A0.3175,0.3175 90 0,0 55.8000001,3.7825z" transform="matrix(1,0,0,-1,25.3499999,6.6)" fill="rgb(255,255,255)" stroke="rgb(0,0,0)" stroke-width="0.0010cm" stroke-linecap="round" stroke-linejoin="round" shaper:cutDepth="1.8cm" /><path d="M61.7000001,3.7825 L61.7000001,2.1 A8.1250034,8.1250034 180.0000053 0,1 61.8215244,0.7 A8.1250034,8.1250034 189.9220217 0,1 61.9500002,0.1 L61.95,-0.1 A8.1250034,8.1250034 165.7499728 0,1 61.8215242,-0.7 A8.1250034,8.1250034 170.0779833 0,1 61.7000001,-2.1000001 L61.7000001,-3.7825 A0.3175,0.3175 0 0,0 61.3825001,-4.1 L61.0175001,-4.1 A0.3175,0.3175 270 0,0 60.7000001,-3.7825 L60.7000001,-2.1 A8.1250034,8.1250034 0.0000052 0,1 60.5784758,-0.7 A8.1250034,8.1250034 9.9220217 0,1 60.45,-0.1 L60.45,0.1 A8.1250032,8.1250032 345.7499725 0,1 60.5784758,0.7 A8.1250034,8.1250034 350.0779833 0,1 60.7000001,2.1000001 L60.7000001,3.7825 A0.3175,0.3175 180 0,0 61.0175001,4.1 L61.3825001,4.1 A0.3175,0.3175 90 0,0 61.7000001,3.7825z" transform="matrix(1,0,0,-1,25.3499999,6.6)" fill="rgb(255,255,255)" stroke="rgb(0,0,0)" stroke-width="0.0010cm" stroke-linecap="round" stroke-linejoin="round" shaper:cutDepth="1.8cm" /></svg>