<?xml version="1.0" encoding="utf-8"?>
<!-- Generator: Fusion 360, Shaper Origin Export Add-In, Version 1.8.0  -->
<svg xmlns="http://www.w3.org/2000/svg" xmlns:xlink="http://www.w3.org/1999/xlink" xmlns:shaper="http://www.shapertools.com/namespaces/shaper" shaper:fusionaddin="version:1.8.0" width="60cm" height="42.5cm" version="1.1" x="0cm" y="0cm" viewBox="0 0 60 42.5" enable-background="new 0 0 60 42.5" xml:space="preserve"><path d="M30,-21.25 L30,21.25 -30,21.25 -30,-21.25 30,-21.25z" transform="matrix(1,0,0,-1,30,21.25)" fill="rgb(0,0,0)" shaper:cutDepth="42.5cm" stroke-linecap="round" stroke-linejoin="round" /><path d="M-23.574,15.814 L-23.574,4.536 A1.6,1.6 180 0,1 -20.374,4.536 L-20.374,15.814 A1.6,1.6 0 0,1 -23.574,15.814z" transform="matrix(1,0,0,-1,30,21.25)" fill="rgb(255,255,255)" stroke="rgb(0,0,0)" stroke-width="0.0010cm" stroke-linecap="round" stroke-linejoin="round" shaper:cutDepth="42.5cm" /><path d="M20.374,15.814 L20.374,4.536 A1.6,1.6 180 0,1 23.574,4.536 L23.574,15.814 A1.6,1.6 0 0,1 20.374,15.814z" transform="matrix(1,0,0,-1,30,21.25)" fill="rgb(255,255,255)" stroke="rgb(0,0,0)" stroke-width="0.0010cm" stroke-linecap="round" stroke-linejoin="round" shaper:cutDepth="42.5cm" /><path d="M8.85,-18.225 L8.85,-8.525 -8.85,-8.525 -8.85,-18.225 8.85,-18.225z" transform="matrix(1,0,0,-1,30,21.25)" fill="rgb(255,255,255)" stroke="rgb(0,0,0)" stroke-width="0.0010cm" stroke-linecap="round" stroke-linejoin="round" shaper:cutDepth="42.5cm" /></svg>