<?xml version="1.0" encoding="utf-8"?>
<!-- Generator: Fusion 360, Shaper Origin Export Add-In, Version 1.7.0  -->
<svg xmlns="http://www.w3.org/2000/svg" xmlns:xlink="http://www.w3.org/1999/xlink" xmlns:shaper="http://www.shapertools.com/namespaces/shaper" shaper:fusionaddin="version:1.7.0" width="58.8cm" height="50.8cm" version="1.1" x="0cm" y="0cm" viewBox="0 0 58.8 50.8" enable-background="new 0 0 58.8 50.8" xml:space="preserve"><path d="M25.6,36.8065714 L-25.6,36.8065714 A3.8,3.8 90 0,1 -29.4,33.0065714 L-29.4,-10.1934286 A3.8,3.8 180 0,1 -25.6,-13.9934286 L25.6,-13.9934286 A3.8,3.8 270 0,1 29.4,-10.1934286 L29.4,33.0065714 A3.8,3.8 0 0,1 25.6,36.8065714z" transform="matrix(1,0,0,-1,29.4,36.8065714)" fill="rgb(0,0,0)" shaper:cutDepth="1.8cm" stroke-linecap="round" stroke-linejoin="round" /><path d="M-5.6,11.7065714 L5.6,11.7065714 A8,8 45.572996 0,0 3.0715371,-1.3934286 L-3.0715371,-1.3934286 A8,8 247.4219178 0,0 -5.6,11.7065714z" transform="matrix(1,0,0,-1,29.4,36.8065714)" fill="rgb(133,133,133)" fill-rule="nonzero" shaper:cutDepth="0.6cm" stroke-linecap="round" stroke-linejoin="round" /><path d="M-26.6,33.0065714 a1,1 0 1,1 2,0 a1,1 0 1,1 -2,0z" transform="matrix(1,0,0,-1,29.4,36.8065714)" fill="rgb(255,255,255)" stroke="rgb(0,0,0)" stroke-width="0.0010cm" stroke-linecap="round" stroke-linejoin="round" shaper:cutDepth="1.8cm" /><path d="M-4.6,5.9934286 a4.6,4.6 0 1,1 9.2,0 a4.6,4.6 0 1,1 -9.2,0z" transform="matrix(1,0,0,-1,29.4,36.8065714)" fill="rgb(255,255,255)" stroke="rgb(0,0,0)" stroke-width="0.0010cm" stroke-linecap="round" stroke-linejoin="round" shaper:cutDepth="1.8cm" /><path d="M-26.6,23.4065714 a1,1 0 1,1 2,0 a1,1 0 1,1 -2,0z" transform="matrix(1,0,0,-1,29.4,36.8065714)" fill="rgb(255,255,255)" stroke="rgb(0,0,0)" stroke-width="0.0010cm" stroke-linecap="round" stroke-linejoin="round" shaper:cutDepth="1.8cm" /><path d="M-26.6,17.0065714 a1,1 0 1,1 2,0 a1,1 0 1,1 -2,0z" transform="matrix(1,0,0,-1,29.4,36.8065714)" fill="rgb(255,255,255)" stroke="rgb(0,0,0)" stroke-width="0.0010cm" stroke-linecap="round" stroke-linejoin="round" shaper:cutDepth="1.8cm" /><path d="M-26.6,9.0065714 a1,1 0 1,1 2,0 a1,1 0 1,1 -2,0z" transform="matrix(1,0,0,-1,29.4,36.8065714)" fill="rgb(255,255,255)" stroke="rgb(0,0,0)" stroke-width="0.0010cm" stroke-linecap="round" stroke-linejoin="round" shaper:cutDepth="1.8cm" /><path d="M-26.6,-0.5934286 a1,1 0 1,1 2,0 a1,1 0 1,1 -2,0z" transform="matrix(1,0,0,-1,29.4,36.8065714)" fill="rgb(255,255,255)" stroke="rgb(0,0,0)" stroke-width="0.0010cm" stroke-linecap="round" stroke-linejoin="round" shaper:cutDepth="1.8cm" /><path d="M-26.6,-10.1934286 a1,1 0 1,1 2,0 a1,1 0 1,1 -2,0z" transform="matrix(1,0,0,-1,29.4,36.8065714)" fill="rgb(255,255,255)" stroke="rgb(0,0,0)" stroke-width="0.0010cm" stroke-linecap="round" stroke-linejoin="round" shaper:cutDepth="1.8cm" /><path d="M-20.2,33.0065714 a1,1 0 1,1 2,0 a1,1 0 1,1 -2,0z" transform="matrix(1,0,0,-1,29.4,36.8065714)" fill="rgb(255,255,255)" stroke="rgb(0,0,0)" stroke-width="0.0010cm" stroke-linecap="round" stroke-linejoin="round" shaper:cutDepth="1.8cm" /><path d="M-20.2,23.4065714 a1,1 0 1,1 2,0 a1,1 0 1,1 -2,0z" transform="matrix(1,0,0,-1,29.4,36.8065714)" fill="rgb(255,255,255)" stroke="rgb(0,0,0)" stroke-width="0.0010cm" stroke-linecap="round" stroke-linejoin="round" shaper:cutDepth="1.8cm" /><path d="M-20.2,17.0065714 a1,1 0 1,1 2,0 a1,1 0 1,1 -2,0z" transform="matrix(1,0,0,-1,29.4,36.8065714)" fill="rgb(255,255,255)" stroke="rgb(0,0,0)" stroke-width="0.0010cm" stroke-linecap="round" stroke-linejoin="round" shaper:cutDepth="1.8cm" /><path d="M-20.2,9.0065714 a1,1 0 1,1 2,0 a1,1 0 1,1 -2,0z" transform="matrix(1,0,0,-1,29.4,36.8065714)" fill="rgb(255,255,255)" stroke="rgb(0,0,0)" stroke-width="0.0010cm" stroke-linecap="round" stroke-linejoin="round" shaper:cutDepth="1.8cm" /><path d="M-20.2,-0.5934286 a1,1 0 1,1 2,0 a1,1 0 1,1 -2,0z" transform="matrix(1,0,0,-1,29.4,36.8065714)" fill="rgb(255,255,255)" stroke="rgb(0,0,0)" stroke-width="0.0010cm" stroke-linecap="round" stroke-linejoin="round" shaper:cutDepth="1.8cm" /><path d="M-20.2,-10.1934286 a1,1 0 1,1 2,0 a1,1 0 1,1 -2,0z" transform="matrix(1,0,0,-1,29.4,36.8065714)" fill="rgb(255,255,255)" stroke="rgb(0,0,0)" stroke-width="0.0010cm" stroke-linecap="round" stroke-linejoin="round" shaper:cutDepth="1.8cm" /><path d="M-10.6,33.0065714 a1,1 0 1,1 2,0 a1,1 0 1,1 -2,0z" transform="matrix(1,0,0,-1,29.4,36.8065714)" fill="rgb(255,255,255)" stroke="rgb(0,0,0)" stroke-width="0.0010cm" stroke-linecap="round" stroke-linejoin="round" shaper:cutDepth="1.8cm" /><path d="M-10.6,23.4065714 a1,1 0 1,1 2,0 a1,1 0 1,1 -2,0z" transform="matrix(1,0,0,-1,29.4,36.8065714)" fill="rgb(255,255,255)" stroke="rgb(0,0,0)" stroke-width="0.0010cm" stroke-linecap="round" stroke-linejoin="round" shaper:cutDepth="1.8cm" /><path d="M-10.6,17.0065714 a1,1 0 1,1 2,0 a1,1 0 1,1 -2,0z" transform="matrix(1,0,0,-1,29.4,36.8065714)" fill="rgb(255,255,255)" stroke="rgb(0,0,0)" stroke-width="0.0010cm" stroke-linecap="round" stroke-linejoin="round" shaper:cutDepth="1.8cm" /><path d="M-10.6,9.0065714 a1,1 0 1,1 2,0 a1,1 0 1,1 -2,0z" transform="matrix(1,0,0,-1,29.4,36.8065714)" fill="rgb(255,255,255)" stroke="rgb(0,0,0)" stroke-width="0.0010cm" stroke-linecap="round" stroke-linejoin="round" shaper:cutDepth="1.8cm" /><path d="M-10.6,4.2065714 a1,1 0 1,1 2,0 a1,1 0 1,1 -2,0z" transform="matrix(1,0,0,-1,29.4,36.8065714)" fill="rgb(255,255,255)" stroke="rgb(0,0,0)" stroke-width="0.0010cm" stroke-linecap="round" stroke-linejoin="round" shaper:cutDepth="1.8cm" /><path d="M-10.6,-0.5934286 a1,1 0 1,1 2,0 a1,1 0 1,1 -2,0z" transform="matrix(1,0,0,-1,29.4,36.8065714)" fill="rgb(255,255,255)" stroke="rgb(0,0,0)" stroke-width="0.0010cm" stroke-linecap="round" stroke-linejoin="round" shaper:cutDepth="1.8cm" /><path d="M-10.6,-10.1934286 a1,1 0 1,1 2,0 a1,1 0 1,1 -2,0z" transform="matrix(1,0,0,-1,29.4,36.8065714)" fill="rgb(255,255,255)" stroke="rgb(0,0,0)" stroke-width="0.0010cm" stroke-linecap="round" stroke-linejoin="round" shaper:cutDepth="1.8cm" /><path d="M-1,33.0065714 a1,1 0 1,1 2,0 a1,1 0 1,1 -2,0z" transform="matrix(1,0,0,-1,29.4,36.8065714)" fill="rgb(255,255,255)" stroke="rgb(0,0,0)" stroke-width="0.0010cm" stroke-linecap="round" stroke-linejoin="round" shaper:cutDepth="1.8cm" /><path d="M-1,23.4065714 a1,1 0 1,1 2,0 a1,1 0 1,1 -2,0z" transform="matrix(1,0,0,-1,29.4,36.8065714)" fill="rgb(255,255,255)" stroke="rgb(0,0,0)" stroke-width="0.0010cm" stroke-linecap="round" stroke-linejoin="round" shaper:cutDepth="1.8cm" /><path d="M-1,17.0065714 a1,1 0 1,1 2,0 a1,1 0 1,1 -2,0z" transform="matrix(1,0,0,-1,29.4,36.8065714)" fill="rgb(255,255,255)" stroke="rgb(0,0,0)" stroke-width="0.0010cm" stroke-linecap="round" stroke-linejoin="round" shaper:cutDepth="1.8cm" /><path d="M-1,-10.1934286 a1,1 0 1,1 2,0 a1,1 0 1,1 -2,0z" transform="matrix(1,0,0,-1,29.4,36.8065714)" fill="rgb(255,255,255)" stroke="rgb(0,0,0)" stroke-width="0.0010cm" stroke-linecap="round" stroke-linejoin="round" shaper:cutDepth="1.8cm" /><path d="M8.6,33.0065714 a1,1 0 1,1 2,0 a1,1 0 1,1 -2,0z" transform="matrix(1,0,0,-1,29.4,36.8065714)" fill="rgb(255,255,255)" stroke="rgb(0,0,0)" stroke-width="0.0010cm" stroke-linecap="round" stroke-linejoin="round" shaper:cutDepth="1.8cm" /><path d="M8.6,23.4065714 a1,1 0 1,1 2,0 a1,1 0 1,1 -2,0z" transform="matrix(1,0,0,-1,29.4,36.8065714)" fill="rgb(255,255,255)" stroke="rgb(0,0,0)" stroke-width="0.0010cm" stroke-linecap="round" stroke-linejoin="round" shaper:cutDepth="1.8cm" /><path d="M8.6,17.0065714 a1,1 0 1,1 2,0 a1,1 0 1,1 -2,0z" transform="matrix(1,0,0,-1,29.4,36.8065714)" fill="rgb(255,255,255)" stroke="rgb(0,0,0)" stroke-width="0.0010cm" stroke-linecap="round" stroke-linejoin="round" shaper:cutDepth="1.8cm" /><path d="M8.6,9.0065714 a1,1 0 1,1 2,0 a1,1 0 1,1 -2,0z" transform="matrix(1,0,0,-1,29.4,36.8065714)" fill="rgb(255,255,255)" stroke="rgb(0,0,0)" stroke-width="0.0010cm" stroke-linecap="round" stroke-linejoin="round" shaper:cutDepth="1.8cm" /><path d="M8.6,4.2065714 a1,1 0 1,1 2,0 a1,1 0 1,1 -2,0z" transform="matrix(1,0,0,-1,29.4,36.8065714)" fill="rgb(255,255,255)" stroke="rgb(0,0,0)" stroke-width="0.0010cm" stroke-linecap="round" stroke-linejoin="round" shaper:cutDepth="1.8cm" /><path d="M8.6,-0.5934286 a1,1 0 1,1 2,0 a1,1 0 1,1 -2,0z" transform="matrix(1,0,0,-1,29.4,36.8065714)" fill="rgb(255,255,255)" stroke="rgb(0,0,0)" stroke-width="0.0010cm" stroke-linecap="round" stroke-linejoin="round" shaper:cutDepth="1.8cm" /><path d="M8.6,-10.1934286 a1,1 0 1,1 2,0 a1,1 0 1,1 -2,0z" transform="matrix(1,0,0,-1,29.4,36.8065714)" fill="rgb(255,255,255)" stroke="rgb(0,0,0)" stroke-width="0.0010cm" stroke-linecap="round" stroke-linejoin="round" shaper:cutDepth="1.8cm" /><path d="M18.2,-10.1934286 a1,1 0 1,1 2,0 a1,1 0 1,1 -2,0z" transform="matrix(1,0,0,-1,29.4,36.8065714)" fill="rgb(255,255,255)" stroke="rgb(0,0,0)" stroke-width="0.0010cm" stroke-linecap="round" stroke-linejoin="round" shaper:cutDepth="1.8cm" /><path d="M18.2,-0.5934286 a1,1 0 1,1 2,0 a1,1 0 1,1 -2,0z" transform="matrix(1,0,0,-1,29.4,36.8065714)" fill="rgb(255,255,255)" stroke="rgb(0,0,0)" stroke-width="0.0010cm" stroke-linecap="round" stroke-linejoin="round" shaper:cutDepth="1.8cm" /><path d="M18.2,9.0065714 a1,1 0 1,1 2,0 a1,1 0 1,1 -2,0z" transform="matrix(1,0,0,-1,29.4,36.8065714)" fill="rgb(255,255,255)" stroke="rgb(0,0,0)" stroke-width="0.0010cm" stroke-linecap="round" stroke-linejoin="round" shaper:cutDepth="1.8cm" /><path d="M18.2,17.0065714 a1,1 0 1,1 2,0 a1,1 0 1,1 -2,0z" transform="matrix(1,0,0,-1,29.4,36.8065714)" fill="rgb(255,255,255)" stroke="rgb(0,0,0)" stroke-width="0.0010cm" stroke-linecap="round" stroke-linejoin="round" shaper:cutDepth="1.8cm" /><path d="M18.2,23.4065714 a1,1 0 1,1 2,0 a1,1 0 1,1 -2,0z" transform="matrix(1,0,0,-1,29.4,36.8065714)" fill="rgb(255,255,255)" stroke="rgb(0,0,0)" stroke-width="0.0010cm" stroke-linecap="round" stroke-linejoin="round" shaper:cutDepth="1.8cm" /><path d="M18.2,33.0065714 a1,1 0 1,1 2,0 a1,1 0 1,1 -2,0z" transform="matrix(1,0,0,-1,29.4,36.8065714)" fill="rgb(255,255,255)" stroke="rgb(0,0,0)" stroke-width="0.0010cm" stroke-linecap="round" stroke-linejoin="round" shaper:cutDepth="1.8cm" /><path d="M24.6,33.0065714 a1,1 0 1,1 2,0 a1,1 0 1,1 -2,0z" transform="matrix(1,0,0,-1,29.4,36.8065714)" fill="rgb(255,255,255)" stroke="rgb(0,0,0)" stroke-width="0.0010cm" stroke-linecap="round" stroke-linejoin="round" shaper:cutDepth="1.8cm" /><path d="M24.6,23.4065714 a1,1 0 1,1 2,0 a1,1 0 1,1 -2,0z" transform="matrix(1,0,0,-1,29.4,36.8065714)" fill="rgb(255,255,255)" stroke="rgb(0,0,0)" stroke-width="0.0010cm" stroke-linecap="round" stroke-linejoin="round" shaper:cutDepth="1.8cm" /><path d="M24.6,17.0065714 a1,1 0 1,1 2,0 a1,1 0 1,1 -2,0z" transform="matrix(1,0,0,-1,29.4,36.8065714)" fill="rgb(255,255,255)" stroke="rgb(0,0,0)" stroke-width="0.0010cm" stroke-linecap="round" stroke-linejoin="round" shaper:cutDepth="1.8cm" /><path d="M24.6,9.0065714 a1,1 0 1,1 2,0 a1,1 0 1,1 -2,0z" transform="matrix(1,0,0,-1,29.4,36.8065714)" fill="rgb(255,255,255)" stroke="rgb(0,0,0)" stroke-width="0.0010cm" stroke-linecap="round" stroke-linejoin="round" shaper:cutDepth="1.8cm" /><path d="M24.6,-0.5934286 a1,1 0 1,1 2,0 a1,1 0 1,1 -2,0z" transform="matrix(1,0,0,-1,29.4,36.8065714)" fill="rgb(255,255,255)" stroke="rgb(0,0,0)" stroke-width="0.0010cm" stroke-linecap="round" stroke-linejoin="round" shaper:cutDepth="1.8cm" /><path d="M24.6,-10.1934286 a1,1 0 1,1 2,0 a1,1 0 1,1 -2,0z" transform="matrix(1,0,0,-1,29.4,36.8065714)" fill="rgb(255,255,255)" stroke="rgb(0,0,0)" stroke-width="0.0010cm" stroke-linecap="round" stroke-linejoin="round" shaper:cutDepth="1.8cm" /><path d="M5.9325,5.9934286 a0.3175,0.3175 0 1,1 0.635,0 a0.3175,0.3175 0 1,1 -0.635,0z" transform="matrix(1,0,0,-1,29.4,36.8065714)" fill="rgb(255,255,255)" stroke="rgb(0,0,0)" stroke-width="0.0010cm" stroke-linecap="round" stroke-linejoin="round" shaper:cutDepth="1.8cm" /><path d="M-7.6175,5.9934286 a0.3175,0.3175 0 1,1 0.635,0 a0.3175,0.3175 0 1,1 -0.635,0z" transform="matrix(1,0,0,-1,29.4,36.8065714)" fill="rgb(255,255,255)" stroke="rgb(0,0,0)" stroke-width="0.0010cm" stroke-linecap="round" stroke-linejoin="round" shaper:cutDepth="1.8cm" /></svg>