<?xml version="1.0" encoding="utf-8"?>
<!-- Generator: Fusion 360, Shaper Origin Export Add-In, Version 1.6.10  -->
<svg xmlns="http://www.w3.org/2000/svg" xmlns:xlink="http://www.w3.org/1999/xlink"
    xmlns:shaper="http://www.shapertools.com/namespaces/shaper" shaper:fusionaddin="version:1.6.10" width="9.86cm"
    height="4.8cm" version="1.1" x="0cm" y="0cm" viewBox="0 0 9.86 4.8" enable-background="new 0 0 9.86 4.8"
    xml:space="preserve">
    <path
        d="M4.93,1.359325 L4.93,-1.359325 4.49135,-1.359325 A0.320675,0.320675 0 0,1 3.85,-1.359325 L3.85,-2.4 -3.85,-2.4 -3.85,-1.359325 A0.320675,0.320675 0 0,1 -4.49135,-1.359325 L-4.93,-1.359325 -4.93,1.359325 -4.49135,1.359325 A0.320675,0.320675 180 0,1 -3.85,1.359325 L-3.85,2.4 3.85,2.4 3.85,1.359325 A0.320675,0.320675 180 0,1 4.49135,1.359325 L4.93,1.359325z"
        transform="matrix(1,0,0,-1,4.93,2.4)" fill="rgb(0,0,0)" shaper:cutDepth="0.018" stroke-linecap="round"
        stroke-linejoin="round" />
    <path d="M-2.0536708,0.475 a0.1603375,0.1603375 0 1,1 0.320675,0 a0.1603375,0.1603375 0 1,1 -0.320675,0z"
        transform="matrix(1,0,0,-1,4.93,2.4)" fill="rgb(111,111,111)" fill-rule="nonzero" shaper:cutDepth="0.002"
        stroke-linecap="round" stroke-linejoin="round" />
    <path d="M1.7329958,0.475 a0.1603375,0.1603375 0 1,1 0.320675,0 a0.1603375,0.1603375 0 1,1 -0.320675,0z"
        transform="matrix(1,0,0,-1,4.93,2.4)" fill="rgb(111,111,111)" fill-rule="nonzero" shaper:cutDepth="0.002"
        stroke-linecap="round" stroke-linejoin="round" />
</svg>